<svg width="250" height="55" viewBox="0 0 250 55" fill="none" xmlns="http://www.w3.org/2000/svg">
<path d="M249 1H1V54H249V1Z" fill="#0D122D" stroke="white"/>
<mask id="mask0_3_254" style="mask-type:luminance" maskUnits="userSpaceOnUse" x="28" y="15" width="23" height="26">
<path d="M51 15H28V41H51V15Z" fill="white"/>
</mask>
<g mask="url(#mask0_3_254)">
<path fill-rule="evenodd" clip-rule="evenodd" d="M41.8564 24.2617C42.694 23.8651 43.7597 23.2813 44.8268 22.4815C45.0518 22.9251 45.0764 23.3123 44.9605 23.6249C44.8783 23.8452 44.7235 24.0368 44.52 24.1893C44.2996 24.354 44.0243 24.474 43.72 24.5388C43.1427 24.6623 42.4685 24.5902 41.8564 24.2617ZM42.0016 28.3252L43.1104 28.9333C40.8465 30.1382 40.2311 32.3754 39.5 34.5544C38.769 32.3754 38.1535 30.1382 35.8897 28.9333L36.9985 28.3252C37.1057 28.2867 37.1974 28.2169 37.2604 28.1259C37.3233 28.035 37.3543 27.9274 37.3489 27.8186C37.2474 25.7779 37.8277 24.8754 38.6104 24.3088C38.8911 24.1058 39.1976 24.0039 39.5 24.0039C39.8024 24.0039 40.1089 24.1058 40.3897 24.3088C41.1724 24.8754 41.7527 25.7779 41.6511 27.8186C41.6457 27.9274 41.6768 28.035 41.7397 28.1259C41.8027 28.2169 41.8943 28.2867 42.0016 28.3252ZM39.5 15C40.7816 15.0327 42.0664 15.2689 43.1815 15.7285C43.9536 16.0472 44.6741 16.4681 45.3265 16.9715C45.6211 17.1987 45.8637 17.4183 46.1309 17.671C46.8517 17.6946 47.905 16.9343 48.3941 16.2229C47.5525 18.8428 43.712 21.9367 41.0532 23.1206L41.0506 23.119C40.5734 22.773 40.0367 22.6001 39.5 22.6001C38.9632 22.6001 38.4267 22.773 37.9495 23.119L37.9469 23.1206C35.288 21.9367 31.4476 18.8428 30.606 16.2229C31.095 16.9343 32.1483 17.6946 32.8691 17.671C33.1364 17.4183 33.379 17.1987 33.6735 16.9715C34.3259 16.4681 35.0464 16.0472 35.8185 15.7285C36.9337 15.2689 38.2185 15.0327 39.5 15ZM37.1436 24.2617C36.3061 23.8651 35.2402 23.2813 34.1733 22.4815C33.9483 22.9251 33.9237 23.3123 34.0395 23.6249C34.1217 23.8452 34.2765 24.0368 34.48 24.1893C34.7005 24.354 34.9757 24.474 35.28 24.5388C35.8574 24.6623 36.5314 24.5902 37.1436 24.2617Z" fill="white"/>
<path fill-rule="evenodd" clip-rule="evenodd" d="M45.9954 21.5014C46.5828 20.9385 47.1004 20.3154 47.5166 19.7595L47.728 20.1372C48.4085 21.43 48.7621 22.7177 48.7621 24.1667L48.7606 26.4662L48.7734 27.6582C48.8227 30.5846 49.4895 33.5454 51 36.2549L47.8396 33.835L45.6034 37.2808L43.2541 35.1808L39.5 40.9657L35.7459 35.1808L33.3967 37.2809L31.1605 33.8351L28 36.255C29.5105 33.5454 30.1773 30.5846 30.2267 27.6583L30.2395 26.4662L30.238 24.1668C30.238 22.7177 30.5915 21.43 31.2722 20.1373L31.4835 19.7595C31.8997 20.3155 32.4172 20.9385 33.0047 21.5015L32.8212 21.8633C32.4648 22.5661 32.3468 23.3519 32.6245 24.0992C32.8034 24.5806 33.1301 24.9933 33.5512 25.3085C33.9601 25.6145 34.444 25.8208 34.9507 25.9291C35.2807 25.9996 35.6169 26.0287 35.951 26.0188C35.873 26.4383 35.839 26.8735 35.8368 27.3169L32.8556 28.9519L35.1561 30.1764C35.34 30.2743 35.515 30.3865 35.6794 30.5118C37.5761 32.1288 38.7164 36.9125 39.5001 39.2491C40.2838 36.9125 41.4241 32.1288 43.3208 30.5118C43.4852 30.3865 43.6603 30.2743 43.8442 30.1764L46.1447 28.9519L43.1634 27.3169C43.1612 26.8735 43.1272 26.4383 43.0492 26.0188C43.3833 26.0287 43.7195 25.9996 44.0495 25.9291C44.5562 25.8208 45.0402 25.6145 45.449 25.3085C45.87 24.9933 46.1967 24.5806 46.3756 24.0992C46.6534 23.3519 46.5353 22.5662 46.1789 21.8633L45.9954 21.5014Z" fill="white"/>
</g>
<path d="M59.5801 19.6172H63.1895C63.4759 19.6172 63.7373 19.6064 63.9736 19.585C64.21 19.5635 64.4714 19.542 64.7578 19.5205C65.0514 19.499 65.4023 19.4775 65.8105 19.4561C66.2188 19.4346 66.738 19.4238 67.3682 19.4238C68.0915 19.4238 68.7181 19.5277 69.248 19.7354C69.778 19.9359 70.2148 20.208 70.5586 20.5518C70.9023 20.8883 71.1566 21.2751 71.3213 21.7119C71.486 22.1488 71.5684 22.5964 71.5684 23.0547C71.5684 23.5775 71.5039 24.0286 71.375 24.4082C71.2461 24.7806 71.0599 25.11 70.8164 25.3965C70.5729 25.6829 70.2757 25.9336 69.9248 26.1484C69.5739 26.3633 69.18 26.571 68.7432 26.7715C68.7288 26.7715 68.7074 26.7786 68.6787 26.793C68.6501 26.8001 68.6357 26.8109 68.6357 26.8252C68.6357 26.8467 68.6715 26.8717 68.7432 26.9004C69.3304 27.1152 69.8353 27.3587 70.2578 27.6309C70.6875 27.8958 71.042 28.2038 71.3213 28.5547C71.6006 28.8984 71.8083 29.2923 71.9443 29.7363C72.0804 30.1803 72.1484 30.6852 72.1484 31.251C72.1484 31.473 72.1126 31.7093 72.041 31.96C71.9694 32.2106 71.8691 32.4613 71.7402 32.7119C71.6113 32.9554 71.4574 33.1917 71.2783 33.4209C71.1064 33.6429 70.9131 33.8398 70.6982 34.0117C70.2542 34.3698 69.6598 34.6312 68.915 34.7959C68.1774 34.9535 67.2894 35.0322 66.251 35.0322C66.0218 35.0322 65.7998 35.0286 65.585 35.0215C65.3701 35.0215 65.1445 35.0179 64.9082 35.0107C64.679 35.0107 64.4355 35.0072 64.1777 35C63.9199 35 63.6335 35 63.3184 35C63.0033 35 62.6989 35.0036 62.4053 35.0107C62.1188 35.0179 61.8324 35.0251 61.5459 35.0322C61.2594 35.0394 60.9658 35.0465 60.665 35.0537C60.3643 35.0609 60.0456 35.068 59.709 35.0752C59.709 35.0107 59.7197 34.9355 59.7412 34.8496C59.7699 34.7637 59.8164 34.7028 59.8809 34.667C60.1029 34.5739 60.3392 34.5094 60.5898 34.4736C60.8405 34.4378 61.0697 34.3877 61.2773 34.3232C61.4922 34.2516 61.6676 34.1406 61.8037 33.9902C61.9469 33.8327 62.0186 33.5856 62.0186 33.249V21.1748C62.0186 21.0889 62.015 21.0029 62.0078 20.917C62.0078 20.8239 61.9971 20.738 61.9756 20.6592C61.9541 20.5732 61.9219 20.498 61.8789 20.4336C61.8359 20.362 61.7751 20.3047 61.6963 20.2617C61.596 20.2116 61.485 20.1794 61.3633 20.165C61.2487 20.1436 61.1126 20.1257 60.9551 20.1113C60.7975 20.097 60.6185 20.0755 60.418 20.0469C60.2174 20.0111 59.9811 19.9538 59.709 19.875C59.623 19.8535 59.5801 19.8105 59.5801 19.7461V19.6172ZM64.2637 27.6416V33.5283C64.543 33.8506 64.8438 34.1084 65.166 34.3018C65.4883 34.4951 65.8643 34.5918 66.2939 34.5918C66.8024 34.5918 67.2464 34.4772 67.626 34.248C68.0127 34.0189 68.3314 33.7253 68.582 33.3672C68.8398 33.0091 69.0332 32.6081 69.1621 32.1641C69.291 31.7129 69.3555 31.2689 69.3555 30.832C69.3555 30.3307 69.2588 29.8617 69.0654 29.4248C68.8721 28.9808 68.6107 28.5977 68.2812 28.2754C67.9518 27.9531 67.5687 27.6989 67.1318 27.5127C66.7021 27.3265 66.2474 27.2334 65.7676 27.2334H65.4668C65.4023 27.2334 65.2985 27.2334 65.1553 27.2334C65.0192 27.2334 64.8402 27.2406 64.6182 27.2549C64.3818 27.2549 64.2637 27.3838 64.2637 27.6416ZM64.2637 19.9824V26.5029C64.2637 26.5817 64.2816 26.6497 64.3174 26.707C64.3604 26.7572 64.4105 26.7965 64.4678 26.8252C64.5251 26.8538 64.5824 26.8753 64.6396 26.8896C64.6969 26.8968 64.7435 26.9004 64.7793 26.9004C65.3379 26.9004 65.8177 26.8431 66.2188 26.7285C66.627 26.6139 66.9671 26.4707 67.2393 26.2988C67.4398 26.1771 67.6331 26.0195 67.8193 25.8262C68.0127 25.6328 68.181 25.4108 68.3242 25.1602C68.4746 24.9095 68.5928 24.6374 68.6787 24.3438C68.7718 24.043 68.8184 23.7243 68.8184 23.3877C68.8184 22.4567 68.6608 21.7298 68.3457 21.207C68.0378 20.6771 67.5436 20.3083 66.8633 20.1006C66.5911 20.0146 66.3011 19.9574 65.9932 19.9287C65.6852 19.8929 65.3451 19.875 64.9727 19.875C64.8438 19.875 64.7184 19.8857 64.5967 19.9072C64.4749 19.9215 64.3639 19.9466 64.2637 19.9824ZM81.709 34.8174C81.709 34.6097 81.7305 34.3519 81.7734 34.0439C81.8164 33.736 81.8379 33.4352 81.8379 33.1416C81.8379 33.0915 81.8271 33.0306 81.8057 32.959C81.7913 32.8802 81.752 32.8408 81.6875 32.8408C81.6589 32.8408 81.623 32.8802 81.5801 32.959C81.5443 33.0306 81.4941 33.1058 81.4297 33.1846C81.2005 33.4424 80.9714 33.6859 80.7422 33.915C80.513 34.137 80.2695 34.334 80.0117 34.5059C79.7539 34.6777 79.4746 34.8138 79.1738 34.9141C78.873 35.0072 78.54 35.0537 78.1748 35.0537C77.8239 35.0537 77.4873 34.9964 77.165 34.8818C76.8428 34.7601 76.542 34.5775 76.2627 34.334C76.0837 34.1908 75.9368 34.0368 75.8223 33.8721C75.7148 33.7002 75.6289 33.5212 75.5645 33.335C75.5072 33.1488 75.4678 32.9518 75.4463 32.7441C75.4248 32.5365 75.4141 32.3216 75.4141 32.0996V25.7617C75.4141 25.6543 75.4033 25.5576 75.3818 25.4717C75.3675 25.3786 75.3031 25.332 75.1885 25.332H73.5127C73.4482 25.332 73.3945 25.3034 73.3516 25.2461C73.3086 25.1888 73.2871 25.1315 73.2871 25.0742C73.2871 25.0456 73.2943 24.9919 73.3086 24.9131C73.3301 24.8343 73.3802 24.7949 73.459 24.7949H77.0039C77.1185 24.7949 77.1758 24.8451 77.1758 24.9453V31.541C77.1758 31.8132 77.2152 32.0817 77.2939 32.3467C77.3799 32.6117 77.5016 32.848 77.6592 33.0557C77.8167 33.2633 78.0101 33.4316 78.2393 33.5605C78.4756 33.6895 78.7477 33.7539 79.0557 33.7539C79.4066 33.7539 79.7109 33.7217 79.9688 33.6572C80.2266 33.5856 80.4915 33.4746 80.7637 33.3242C81.0645 33.1452 81.3294 32.8874 81.5586 32.5508C81.6445 32.429 81.7126 32.3145 81.7627 32.207C81.8128 32.0996 81.8522 31.9922 81.8809 31.8848C81.9095 31.7773 81.931 31.6628 81.9453 31.541C81.9596 31.4193 81.9668 31.2832 81.9668 31.1328L82.085 25.8047C82.085 25.7832 82.0814 25.7402 82.0742 25.6758C82.0742 25.6042 82.0635 25.529 82.042 25.4502C82.0277 25.3714 82.0026 25.3034 81.9668 25.2461C81.931 25.1816 81.8809 25.1494 81.8164 25.1494C81.7734 25.1494 81.6875 25.1566 81.5586 25.1709C81.4368 25.1852 81.2936 25.1924 81.1289 25.1924C80.9714 25.1924 80.821 25.196 80.6777 25.2031C80.5417 25.2031 80.4342 25.2031 80.3555 25.2031C80.2051 25.2031 80.0798 25.196 79.9795 25.1816C79.8792 25.1673 79.8291 25.1136 79.8291 25.0205C79.8291 24.9704 79.8327 24.9167 79.8398 24.8594C79.847 24.8021 79.8757 24.7555 79.9258 24.7197C79.9902 24.6768 80.0618 24.6481 80.1406 24.6338C80.2266 24.6195 80.3089 24.6123 80.3877 24.6123C80.488 24.6123 80.6025 24.6195 80.7314 24.6338C80.8604 24.6481 80.9928 24.6624 81.1289 24.6768C81.265 24.6911 81.3939 24.7054 81.5156 24.7197C81.6374 24.734 81.7448 24.7412 81.8379 24.7412H83.9004C83.9505 24.7412 83.9756 24.7663 83.9756 24.8164L83.6426 33.2705V33.4209C83.6426 33.4567 83.6426 33.4854 83.6426 33.5068C83.6426 33.5283 83.6497 33.557 83.6641 33.5928C83.6927 33.7145 83.7428 33.8255 83.8145 33.9258C83.8861 34.026 84.0007 34.0762 84.1582 34.0762C84.2513 34.0762 84.3516 34.069 84.459 34.0547C84.5664 34.0404 84.6702 34.0225 84.7705 34.001C84.8708 33.9795 84.9639 33.9616 85.0498 33.9473C85.1429 33.9329 85.2181 33.9258 85.2754 33.9258C85.3542 33.9258 85.4007 33.9544 85.415 34.0117C85.4365 34.069 85.4473 34.1191 85.4473 34.1621C85.4473 34.248 85.415 34.3161 85.3506 34.3662C85.2933 34.4092 85.2324 34.4486 85.168 34.4844C85.0104 34.5345 84.8672 34.5596 84.7383 34.5596C84.6595 34.5596 84.5843 34.5632 84.5127 34.5703C84.4482 34.5703 84.3551 34.5775 84.2334 34.5918C84.0042 34.6204 83.7536 34.667 83.4814 34.7314C83.2165 34.7959 82.9801 34.8604 82.7725 34.9248C82.6221 34.9821 82.4824 35.0286 82.3535 35.0645C82.2318 35.1074 82.0993 35.1289 81.9561 35.1289C81.8773 35.1289 81.8164 35.0967 81.7734 35.0322C81.7305 34.9678 81.709 34.8962 81.709 34.8174ZM86.7793 38.083C86.7793 37.8109 86.8581 37.5889 87.0156 37.417C87.1803 37.2523 87.3988 37.1699 87.6709 37.1699C87.7926 37.1699 87.9072 37.1986 88.0146 37.2559C88.1221 37.3132 88.2188 37.374 88.3047 37.4385C88.3978 37.5101 88.473 37.5745 88.5303 37.6318C88.5947 37.6891 88.6377 37.7178 88.6592 37.7178C88.8525 37.7178 89.0352 37.639 89.207 37.4814C89.3789 37.3239 89.5257 37.1341 89.6475 36.9121C89.7764 36.6973 89.8766 36.4717 89.9482 36.2354C90.027 36.0062 90.0664 35.8128 90.0664 35.6553C90.0664 35.2113 90.0163 34.7565 89.916 34.291C89.8158 33.8184 89.7048 33.3672 89.583 32.9375C89.2607 31.7344 88.9564 30.5384 88.6699 29.3496C88.3835 28.1536 88.0863 26.9505 87.7783 25.7402C87.7783 25.7188 87.7676 25.6794 87.7461 25.6221C87.7318 25.5576 87.7139 25.4932 87.6924 25.4287C87.6709 25.3571 87.6423 25.2926 87.6064 25.2354C87.5778 25.1781 87.5492 25.1423 87.5205 25.1279C87.4417 25.0921 87.3451 25.0706 87.2305 25.0635C87.123 25.0492 86.9977 25.042 86.8545 25.042C86.7113 25.042 86.5752 25.0384 86.4463 25.0312C86.3245 25.0169 86.2064 25.0026 86.0918 24.9883C85.9701 24.9668 85.9092 24.8844 85.9092 24.7412C85.9092 24.6553 85.945 24.598 86.0166 24.5693C86.0882 24.5335 86.1634 24.5156 86.2422 24.5156C86.3997 24.5156 86.5859 24.5192 86.8008 24.5264C87.0228 24.5335 87.2448 24.5407 87.4668 24.5479C87.6888 24.5479 87.9001 24.5514 88.1006 24.5586C88.3011 24.5658 88.4658 24.5693 88.5947 24.5693C88.9743 24.5693 89.3538 24.5586 89.7334 24.5371C90.113 24.5156 90.471 24.5049 90.8076 24.5049C90.8363 24.5049 90.8864 24.5085 90.958 24.5156C91.0368 24.5156 91.0941 24.5228 91.1299 24.5371C91.1585 24.5514 91.1836 24.5765 91.2051 24.6123C91.2266 24.6481 91.2373 24.6911 91.2373 24.7412C91.2373 24.777 91.2015 24.8164 91.1299 24.8594C91.0654 24.8952 90.9974 24.9131 90.9258 24.9131C90.847 24.9131 90.7539 24.9095 90.6465 24.9023C90.5391 24.8952 90.4567 24.8916 90.3994 24.8916C90.3206 24.8916 90.2383 24.8952 90.1523 24.9023C90.0664 24.9095 89.984 24.9167 89.9053 24.9238C89.7907 24.9382 89.694 24.9704 89.6152 25.0205C89.5436 25.0706 89.5078 25.1494 89.5078 25.2568C89.5078 25.3929 89.5257 25.5361 89.5615 25.6865C89.5973 25.8298 89.6367 25.9766 89.6797 26.127C89.7298 26.2702 89.7799 26.4098 89.8301 26.5459C89.8802 26.682 89.9232 26.8109 89.959 26.9326C90.2025 27.8636 90.4531 28.791 90.7109 29.7148C90.9688 30.6315 91.2373 31.6198 91.5166 32.6797C91.6097 32.6797 91.6956 32.6367 91.7744 32.5508C91.8389 32.4362 91.8962 32.318 91.9463 32.1963C92.0036 32.0745 92.0465 31.9564 92.0752 31.8418C92.376 30.9896 92.7018 30.1374 93.0527 29.2852C93.4036 28.4329 93.7653 27.57 94.1377 26.6963C94.2952 26.3597 94.374 26.0231 94.374 25.6865C94.374 25.6077 94.3704 25.529 94.3633 25.4502C94.3561 25.3643 94.3346 25.2891 94.2988 25.2246C94.2702 25.153 94.2236 25.0957 94.1592 25.0527C94.0947 25.0098 94.0016 24.9883 93.8799 24.9883H93.5469C93.4681 24.9883 93.3822 24.9883 93.2891 24.9883C93.2031 24.9811 93.1172 24.9775 93.0312 24.9775C92.9453 24.9704 92.8701 24.9668 92.8057 24.9668C92.7484 24.9596 92.709 24.9525 92.6875 24.9453C92.6517 24.9238 92.6338 24.8737 92.6338 24.7949C92.6338 24.7305 92.6517 24.6768 92.6875 24.6338C92.7233 24.5837 92.7806 24.5514 92.8594 24.5371C92.8952 24.5228 92.9561 24.5156 93.042 24.5156H93.2461C93.4609 24.5156 93.6579 24.5228 93.8369 24.5371C94.016 24.5443 94.1878 24.5586 94.3525 24.5801C94.5244 24.5944 94.6891 24.6087 94.8467 24.623C95.0114 24.6302 95.1833 24.6338 95.3623 24.6338C95.6702 24.6338 96.0033 24.6195 96.3613 24.5908C96.7266 24.555 97.0452 24.5371 97.3174 24.5371C97.346 24.5371 97.3854 24.5407 97.4355 24.5479C97.4928 24.5479 97.5465 24.555 97.5967 24.5693C97.6468 24.5765 97.6898 24.5908 97.7256 24.6123C97.7614 24.6338 97.7793 24.666 97.7793 24.709C97.7793 24.7734 97.7435 24.8271 97.6719 24.8701C97.6074 24.9059 97.5286 24.9346 97.4355 24.9561C97.3496 24.9704 97.2601 24.9811 97.167 24.9883C97.0739 24.9954 97.0059 24.999 96.9629 24.999C96.8483 25.0133 96.7266 25.0312 96.5977 25.0527C96.4759 25.0742 96.3542 25.1064 96.2324 25.1494C96.1107 25.1924 95.9961 25.2533 95.8887 25.332C95.7812 25.4036 95.6917 25.4967 95.6201 25.6113C95.5413 25.7259 95.4554 25.8584 95.3623 26.0088C95.2692 26.1592 95.1725 26.3203 95.0723 26.4922C94.9792 26.6569 94.8861 26.8252 94.793 26.9971C94.707 27.1618 94.6318 27.3158 94.5674 27.459C94.2093 28.2324 93.8512 29.0202 93.4932 29.8223C93.1351 30.6243 92.7663 31.4157 92.3867 32.1963C92.2077 32.5758 92.0358 32.9411 91.8711 33.292C91.7135 33.6357 91.556 33.9795 91.3984 34.3232C91.248 34.6598 91.0941 35 90.9365 35.3438C90.7861 35.6947 90.625 36.0563 90.4531 36.4287C90.4316 36.4932 90.3779 36.6077 90.292 36.7725C90.2061 36.9372 90.1094 37.109 90.002 37.2881C89.9017 37.4743 89.8014 37.6462 89.7012 37.8037C89.6081 37.9613 89.5436 38.0615 89.5078 38.1045C89.4004 38.262 89.2894 38.4124 89.1748 38.5557C89.0602 38.7061 88.9313 38.835 88.7881 38.9424C88.652 39.057 88.498 39.1465 88.3262 39.2109C88.1543 39.2754 87.9609 39.3076 87.7461 39.3076C87.6029 39.3076 87.4704 39.2682 87.3486 39.1895C87.234 39.1107 87.1338 39.0104 87.0479 38.8887C86.9619 38.7669 86.8939 38.6344 86.8438 38.4912C86.8008 38.348 86.7793 38.2119 86.7793 38.083ZM103.15 23.4951C103.15 23.137 103.208 22.7754 103.322 22.4102C103.444 22.0449 103.605 21.7012 103.806 21.3789C104.006 21.0495 104.239 20.7523 104.504 20.4873C104.776 20.2152 105.062 19.9967 105.363 19.832C105.65 19.6673 105.94 19.5671 106.233 19.5312C106.534 19.4954 106.856 19.4775 107.2 19.4775C107.587 19.4775 107.966 19.5241 108.339 19.6172C108.711 19.7031 109.073 19.8392 109.424 20.0254C109.452 20.0469 109.506 20.0827 109.585 20.1328C109.664 20.1829 109.75 20.2438 109.843 20.3154C109.943 20.387 110.043 20.4622 110.144 20.541C110.244 20.6126 110.333 20.6807 110.412 20.7451C110.441 20.7738 110.466 20.7881 110.487 20.7881C110.494 20.7881 110.512 20.7738 110.541 20.7451C110.562 20.7165 110.588 20.6735 110.616 20.6162C110.652 20.5518 110.688 20.4873 110.724 20.4229C110.759 20.3512 110.792 20.2868 110.82 20.2295C110.856 20.165 110.881 20.1221 110.896 20.1006C110.91 20.0648 110.928 20.0326 110.949 20.0039C110.978 19.9753 110.996 19.9609 111.003 19.9609C111.003 19.9538 111.017 19.9502 111.046 19.9502C111.089 19.9502 111.121 19.9681 111.143 20.0039C111.164 20.0326 111.178 20.0684 111.186 20.1113C111.2 20.1543 111.207 20.2008 111.207 20.251C111.207 20.2939 111.207 20.3298 111.207 20.3584V20.4336C111.207 20.4479 111.203 20.4766 111.196 20.5195C111.196 20.5625 111.193 20.6126 111.186 20.6699C111.178 20.7201 111.171 20.7666 111.164 20.8096C111.164 20.8525 111.16 20.8812 111.153 20.8955V23.5488C111.153 23.6061 111.128 23.6455 111.078 23.667C111.028 23.6885 110.985 23.6992 110.949 23.6992C110.87 23.6992 110.824 23.6849 110.81 23.6562C110.795 23.6204 110.774 23.5596 110.745 23.4736C110.666 23.2874 110.613 23.0977 110.584 22.9043C110.562 22.7038 110.512 22.4997 110.434 22.292C110.355 22.0557 110.222 21.8014 110.036 21.5293C109.85 21.25 109.635 20.9922 109.392 20.7559C109.148 20.5195 108.894 20.3226 108.629 20.165C108.364 20.0075 108.11 19.9287 107.866 19.9287C107.415 19.9287 107.068 19.9609 106.824 20.0254C106.459 20.1328 106.151 20.3083 105.9 20.5518C105.657 20.7881 105.431 21.0566 105.224 21.3574C105.166 21.4434 105.113 21.5544 105.062 21.6904C105.012 21.8193 104.969 21.959 104.934 22.1094C104.905 22.2526 104.88 22.3923 104.858 22.5283C104.844 22.6644 104.837 22.7754 104.837 22.8613C104.837 23.2051 104.909 23.5166 105.052 23.7959C105.202 24.0752 105.396 24.3258 105.632 24.5479C105.868 24.7627 106.133 24.9561 106.427 25.1279C106.728 25.2926 107.028 25.4359 107.329 25.5576C107.587 25.665 107.852 25.7689 108.124 25.8691C108.403 25.9694 108.675 26.0732 108.94 26.1807C109.213 26.2881 109.47 26.4062 109.714 26.5352C109.965 26.6641 110.187 26.8109 110.38 26.9756C110.623 27.1689 110.863 27.4089 111.1 27.6953C111.336 27.9746 111.547 28.2826 111.733 28.6191C111.927 28.9486 112.081 29.2923 112.195 29.6504C112.31 30.0085 112.367 30.3594 112.367 30.7031C112.367 31.3691 112.249 31.9707 112.013 32.5078C111.784 33.0449 111.461 33.5033 111.046 33.8828C110.638 34.2552 110.154 34.5452 109.596 34.7529C109.037 34.9535 108.436 35.0537 107.791 35.0537C107.411 35.0537 107.043 35.0358 106.685 35C106.334 34.957 105.997 34.8854 105.675 34.7852C105.353 34.6849 105.048 34.5452 104.762 34.3662C104.475 34.1872 104.203 33.958 103.945 33.6787C103.917 33.6429 103.877 33.6214 103.827 33.6143C103.784 33.6071 103.748 33.6035 103.72 33.6035C103.598 33.6035 103.512 33.6357 103.462 33.7002C103.412 33.7646 103.369 33.8398 103.333 33.9258C103.304 34.0046 103.269 34.0762 103.226 34.1406C103.183 34.2051 103.107 34.2373 103 34.2373L103.279 31.2832C103.294 31.1901 103.304 31.0791 103.312 30.9502C103.319 30.8213 103.337 30.7354 103.365 30.6924C103.387 30.5921 103.426 30.542 103.483 30.542C103.569 30.542 103.63 30.5957 103.666 30.7031C103.709 30.8249 103.745 30.9466 103.773 31.0684C103.802 31.1829 103.827 31.2975 103.849 31.4121C103.87 31.5267 103.892 31.6341 103.913 31.7344C103.942 31.8346 103.978 31.9242 104.021 32.0029C104.185 32.2965 104.343 32.5579 104.493 32.7871C104.651 33.0163 104.823 33.2275 105.009 33.4209C105.202 33.6143 105.424 33.7897 105.675 33.9473C105.925 34.1048 106.23 34.2516 106.588 34.3877C106.81 34.4665 107.021 34.513 107.222 34.5273C107.422 34.5345 107.605 34.5381 107.77 34.5381C107.97 34.5381 108.171 34.5023 108.371 34.4307C108.572 34.3519 108.812 34.2337 109.091 34.0762C109.499 33.8327 109.825 33.5426 110.068 33.2061C110.312 32.8623 110.434 32.4326 110.434 31.917C110.434 31.5518 110.366 31.2116 110.229 30.8965C110.101 30.5814 109.922 30.2878 109.692 30.0156C109.363 29.6504 109.048 29.3675 108.747 29.167C108.446 28.9593 108.149 28.7946 107.855 28.6729C107.569 28.5511 107.283 28.4473 106.996 28.3613C106.71 28.2754 106.416 28.168 106.115 28.0391C105.822 27.9102 105.521 27.7383 105.213 27.5234C104.905 27.3086 104.583 27.0078 104.246 26.6211C103.516 25.7617 103.15 24.7197 103.15 23.4951ZM121.412 28.834C121.57 28.834 121.648 28.766 121.648 28.6299C121.648 28.5654 121.645 28.5153 121.638 28.4795C121.595 28.3434 121.534 28.1465 121.455 27.8887C121.376 27.6309 121.287 27.3337 121.187 26.9971C121.086 26.6605 120.975 26.3024 120.854 25.9229C120.739 25.5361 120.621 25.1494 120.499 24.7627C120.384 24.376 120.27 24.0036 120.155 23.6455C120.041 23.2803 119.94 22.9508 119.854 22.6572C119.84 22.6429 119.819 22.6178 119.79 22.582C119.769 22.5462 119.733 22.5283 119.683 22.5283C119.618 22.5283 119.568 22.5892 119.532 22.7109C119.468 22.89 119.378 23.1442 119.264 23.4736C119.156 23.8031 119.035 24.1683 118.898 24.5693C118.762 24.9704 118.619 25.3857 118.469 25.8154C118.326 26.2451 118.189 26.6462 118.061 27.0186C117.932 27.3838 117.821 27.7025 117.728 27.9746C117.634 28.2396 117.574 28.415 117.545 28.501C117.531 28.5225 117.523 28.5511 117.523 28.5869C117.523 28.7516 117.634 28.834 117.856 28.834H121.412ZM112.561 34.7207C112.561 34.599 112.625 34.5273 112.754 34.5059C112.876 34.4844 113.062 34.4521 113.312 34.4092C113.778 34.3089 114.165 34.1048 114.473 33.7969C114.781 33.4889 115.038 33.138 115.246 32.7441C115.454 32.3431 115.626 31.9277 115.762 31.498C115.905 31.0684 116.041 30.6816 116.17 30.3379L118.92 22.8076C118.984 22.6214 119.042 22.4925 119.092 22.4209C119.149 22.3421 119.196 22.2777 119.231 22.2275C119.267 22.1702 119.296 22.1058 119.317 22.0342C119.339 21.9626 119.35 21.8372 119.35 21.6582C119.35 21.5794 119.339 21.5078 119.317 21.4434C119.296 21.3789 119.271 21.3145 119.242 21.25C119.221 21.1784 119.199 21.1032 119.178 21.0244C119.156 20.9385 119.146 20.8346 119.146 20.7129C119.332 20.6914 119.507 20.6628 119.672 20.627C119.844 20.584 120.001 20.5124 120.145 20.4121C120.223 20.3548 120.291 20.2796 120.349 20.1865C120.406 20.0863 120.467 19.9896 120.531 19.8965C120.596 19.8034 120.671 19.7246 120.757 19.6602C120.843 19.5885 120.957 19.5527 121.101 19.5527C121.115 19.5527 121.129 19.5563 121.144 19.5635C121.158 19.5706 121.172 19.5921 121.187 19.6279C121.201 19.6637 121.244 19.8034 121.315 20.0469C121.394 20.2904 121.494 20.6162 121.616 21.0244C121.745 21.4255 121.888 21.891 122.046 22.4209C122.211 22.9508 122.382 23.5166 122.562 24.1182C122.748 24.7126 122.938 25.332 123.131 25.9766C123.331 26.6211 123.528 27.2585 123.722 27.8887C123.915 28.5117 124.098 29.1169 124.27 29.7041C124.449 30.2842 124.613 30.8141 124.764 31.2939C124.914 31.7738 125.043 32.1927 125.15 32.5508C125.258 32.9017 125.337 33.1595 125.387 33.3242C125.465 33.5605 125.591 33.7682 125.763 33.9473C125.935 34.1263 126.124 34.248 126.332 34.3125C126.54 34.3841 126.726 34.4235 126.891 34.4307C127.062 34.4378 127.206 34.445 127.32 34.4521C127.442 34.4593 127.535 34.4844 127.6 34.5273C127.664 34.5703 127.696 34.6598 127.696 34.7959C127.696 34.8389 127.682 34.8747 127.653 34.9033C127.625 34.9248 127.589 34.9427 127.546 34.957C127.503 34.9714 127.456 34.9821 127.406 34.9893C127.363 34.9893 127.327 34.9928 127.299 35H126.332C126.275 35 126.214 35 126.149 35C126.085 34.9928 125.985 34.9893 125.849 34.9893C125.72 34.9821 125.541 34.9785 125.312 34.9785C125.082 34.9714 124.778 34.9678 124.398 34.9678C123.997 34.9678 123.604 34.9749 123.217 34.9893C122.837 34.9964 122.451 35.0072 122.057 35.0215H121.509C121.451 35.0215 121.387 35.0179 121.315 35.0107C121.244 35.0107 121.176 35.0036 121.111 34.9893C121.047 34.9749 120.993 34.9499 120.95 34.9141C120.907 34.8783 120.886 34.8281 120.886 34.7637C120.886 34.7064 120.914 34.6598 120.972 34.624C121.029 34.5882 121.097 34.5596 121.176 34.5381C121.255 34.5166 121.337 34.5023 121.423 34.4951C121.509 34.4808 121.58 34.4701 121.638 34.4629C121.881 34.4271 122.118 34.3877 122.347 34.3447C122.576 34.2946 122.801 34.248 123.023 34.2051C123.188 34.1549 123.271 34.0654 123.271 33.9365C123.271 33.9222 123.271 33.9007 123.271 33.8721C123.271 33.8363 123.263 33.804 123.249 33.7754L122.078 29.9297C122.064 29.8724 122.024 29.8079 121.96 29.7363C121.903 29.6647 121.831 29.6289 121.745 29.6289H117.384C117.284 29.6289 117.215 29.6468 117.18 29.6826C117.144 29.7113 117.112 29.7435 117.083 29.7793L116.524 31.2832C116.431 31.5267 116.367 31.7487 116.331 31.9492C116.295 32.1426 116.277 32.3288 116.277 32.5078C116.277 32.7227 116.299 32.959 116.342 33.2168C116.378 33.4746 116.464 33.6751 116.6 33.8184C116.736 33.9616 116.893 34.069 117.072 34.1406C117.258 34.2122 117.455 34.2624 117.663 34.291C117.871 34.3125 118.061 34.334 118.232 34.3555C118.404 34.377 118.544 34.4092 118.651 34.4521C118.766 34.488 118.823 34.5596 118.823 34.667C118.823 34.7314 118.802 34.7995 118.759 34.8711C118.723 34.9427 118.633 34.9857 118.49 35H118.028C117.606 34.9857 117.194 34.9714 116.793 34.957C116.399 34.9355 115.987 34.9248 115.558 34.9248C115.085 34.9248 114.655 34.9391 114.269 34.9678C113.889 34.9893 113.506 35 113.119 35H112.979C112.7 35 112.561 34.9069 112.561 34.7207ZM128.008 27.459V27.3086C128.008 26.8861 128.047 26.4421 128.126 25.9766C128.212 25.5039 128.33 25.0348 128.48 24.5693C128.631 24.1038 128.813 23.6527 129.028 23.2158C129.243 22.779 129.487 22.3779 129.759 22.0127C130.06 21.6188 130.396 21.2679 130.769 20.96C131.148 20.6449 131.553 20.3763 131.982 20.1543C132.419 19.9323 132.881 19.764 133.368 19.6494C133.855 19.5277 134.36 19.4668 134.883 19.4668C135.32 19.4668 135.771 19.5098 136.236 19.5957C136.702 19.6745 137.132 19.7962 137.525 19.9609C137.848 20.1113 138.138 20.2939 138.396 20.5088C138.66 20.7165 138.94 20.9242 139.233 21.1318C139.262 21.1676 139.291 21.1891 139.319 21.1963C139.355 21.2035 139.387 21.207 139.416 21.207C139.48 21.207 139.538 21.1605 139.588 21.0674C139.667 20.9313 139.738 20.7594 139.803 20.5518C139.867 20.3369 139.939 20.1543 140.018 20.0039C140.046 19.9395 140.078 19.9036 140.114 19.8965C140.15 19.8822 140.189 19.875 140.232 19.875C140.283 19.875 140.318 19.8929 140.34 19.9287C140.368 19.9645 140.383 19.9896 140.383 20.0039C140.44 20.2546 140.472 20.5052 140.479 20.7559C140.494 21.0065 140.501 21.2679 140.501 21.54V22.1631C140.501 22.2562 140.501 22.3493 140.501 22.4424C140.501 22.5355 140.505 22.6322 140.512 22.7324C140.54 23.0046 140.576 23.2409 140.619 23.4414C140.662 23.6419 140.684 23.8353 140.684 24.0215C140.684 24.1289 140.666 24.2435 140.63 24.3652C140.601 24.4798 140.537 24.5371 140.437 24.5371C140.394 24.5371 140.333 24.4834 140.254 24.376C140.182 24.2686 140.107 24.1504 140.028 24.0215C139.95 23.8854 139.871 23.7529 139.792 23.624C139.72 23.4951 139.67 23.4092 139.642 23.3662C139.441 23.0798 139.248 22.8076 139.062 22.5498C138.882 22.292 138.696 22.0521 138.503 21.8301C138.317 21.6009 138.116 21.3932 137.901 21.207C137.694 21.0137 137.461 20.8418 137.203 20.6914C136.981 20.5553 136.77 20.4515 136.569 20.3799C136.369 20.3011 136.172 20.2438 135.979 20.208C135.792 20.1722 135.606 20.1507 135.42 20.1436C135.234 20.1364 135.044 20.1328 134.851 20.1328C134.55 20.1328 134.271 20.1758 134.013 20.2617C133.762 20.3405 133.526 20.4515 133.304 20.5947C133.082 20.738 132.874 20.9027 132.681 21.0889C132.494 21.2751 132.312 21.472 132.133 21.6797C131.617 22.2884 131.227 23.1012 130.962 24.1182C130.704 25.1279 130.575 26.3382 130.575 27.749C130.575 28.4508 130.636 29.0882 130.758 29.6611C130.887 30.2269 131.044 30.7318 131.23 31.1758C131.417 31.6126 131.621 31.9922 131.843 32.3145C132.072 32.6296 132.287 32.8874 132.487 33.0879C132.702 33.3171 132.906 33.5176 133.1 33.6895C133.3 33.8542 133.508 33.9902 133.723 34.0977C133.938 34.2051 134.17 34.2874 134.421 34.3447C134.672 34.3949 134.954 34.4199 135.27 34.4199C135.749 34.4199 136.218 34.3161 136.677 34.1084C137.135 33.9007 137.583 33.6286 138.02 33.292C138.113 33.2204 138.209 33.1344 138.31 33.0342C138.41 32.9339 138.507 32.8337 138.6 32.7334C138.7 32.6331 138.789 32.5365 138.868 32.4434C138.954 32.3431 139.026 32.2536 139.083 32.1748C139.312 31.8167 139.513 31.4694 139.685 31.1328C139.856 30.7962 140.014 30.4489 140.157 30.0908C140.229 29.9834 140.354 29.9297 140.533 29.9297C140.612 29.9297 140.666 29.9583 140.694 30.0156C140.723 30.0729 140.737 30.141 140.737 30.2197C140.623 30.6136 140.522 30.9717 140.437 31.2939C140.351 31.609 140.257 31.9456 140.157 32.3037C140.093 32.5615 140.046 32.8158 140.018 33.0664C139.989 33.3099 139.96 33.5283 139.932 33.7217C139.903 33.9079 139.871 34.0583 139.835 34.1729C139.799 34.2874 139.742 34.3447 139.663 34.3447C139.606 34.3447 139.559 34.3232 139.523 34.2803C139.488 34.2373 139.452 34.1693 139.416 34.0762C139.402 34.0046 139.377 33.9437 139.341 33.8936C139.312 33.8363 139.258 33.8076 139.18 33.8076C139.101 33.8076 139.026 33.8219 138.954 33.8506C138.89 33.8792 138.807 33.9258 138.707 33.9902C138.607 34.0475 138.481 34.1191 138.331 34.2051C138.181 34.2839 137.98 34.377 137.729 34.4844C137.271 34.6706 136.781 34.821 136.258 34.9355C135.735 35.043 135.216 35.0967 134.7 35.0967C133.948 35.0967 133.261 35 132.638 34.8066C132.015 34.6061 131.424 34.2695 130.865 33.7969C130.421 33.4173 130.024 32.984 129.673 32.4971C129.322 32.0029 129.021 31.4801 128.771 30.9287C128.527 30.3773 128.337 29.8079 128.201 29.2207C128.072 28.6263 128.008 28.0391 128.008 27.459ZM144.916 33.9365V21.8945C144.916 21.6654 144.902 21.4362 144.873 21.207C144.852 20.9707 144.816 20.7559 144.766 20.5625C144.723 20.4336 144.637 20.3369 144.508 20.2725C144.379 20.208 144.229 20.1615 144.057 20.1328C143.892 20.1042 143.716 20.0863 143.53 20.0791C143.351 20.0719 143.183 20.0576 143.025 20.0361C142.875 20.0146 142.75 19.9824 142.649 19.9395C142.549 19.8893 142.499 19.8105 142.499 19.7031C142.499 19.6602 142.513 19.61 142.542 19.5527C142.578 19.4954 142.639 19.4668 142.725 19.4668H143.111C143.434 19.4668 143.709 19.474 143.938 19.4883C144.168 19.4954 144.382 19.5062 144.583 19.5205C144.784 19.5277 144.984 19.5348 145.185 19.542C145.385 19.5492 145.618 19.5527 145.883 19.5527C146.069 19.5527 146.248 19.5492 146.42 19.542C146.592 19.5348 146.764 19.5312 146.936 19.5312C147.115 19.5241 147.297 19.5169 147.483 19.5098C147.67 19.5026 147.874 19.499 148.096 19.499H148.794C148.873 19.499 148.941 19.5062 148.998 19.5205C149.062 19.5348 149.095 19.5885 149.095 19.6816C149.095 19.7962 149.045 19.8786 148.944 19.9287C148.844 19.9788 148.719 20.0146 148.568 20.0361C148.425 20.0505 148.264 20.0648 148.085 20.0791C147.913 20.0863 147.752 20.1077 147.602 20.1436C147.458 20.1722 147.337 20.2259 147.236 20.3047C147.136 20.3763 147.086 20.4873 147.086 20.6377V27.1582C147.143 27.1582 147.211 27.1403 147.29 27.1045C147.369 27.0615 147.448 27.0078 147.526 26.9434C147.605 26.8789 147.68 26.8073 147.752 26.7285C147.831 26.6497 147.899 26.571 147.956 26.4922C148.056 26.349 148.146 26.2201 148.225 26.1055C148.303 25.9837 148.379 25.8727 148.45 25.7725C148.529 25.665 148.601 25.5648 148.665 25.4717C148.737 25.3714 148.812 25.2712 148.891 25.1709C149.327 24.5908 149.761 24.0358 150.19 23.5059C150.627 22.9759 151.078 22.4352 151.544 21.8838C151.687 21.6976 151.802 21.5114 151.888 21.3252C151.981 21.1318 152.027 20.9313 152.027 20.7236C152.027 20.6162 151.977 20.5052 151.877 20.3906C151.777 20.2689 151.662 20.1901 151.533 20.1543C151.447 20.1257 151.343 20.1042 151.222 20.0898C151.107 20.0684 150.985 20.0505 150.856 20.0361C150.728 20.0218 150.599 20.0075 150.47 19.9932C150.348 19.9717 150.237 19.943 150.137 19.9072C150.079 19.8929 150.036 19.8643 150.008 19.8213C149.979 19.7783 149.965 19.7282 149.965 19.6709C149.965 19.6423 149.968 19.6208 149.976 19.6064C149.99 19.5921 150.004 19.5742 150.019 19.5527C150.04 19.5384 150.072 19.5277 150.115 19.5205C150.165 19.5133 150.215 19.5098 150.266 19.5098C150.316 19.5026 150.362 19.499 150.405 19.499C150.448 19.499 150.477 19.499 150.491 19.499C150.756 19.499 150.993 19.5062 151.2 19.5205C151.415 19.5277 151.619 19.542 151.812 19.5635C152.006 19.5778 152.192 19.5921 152.371 19.6064C152.55 19.6136 152.74 19.6172 152.94 19.6172C153.284 19.6172 153.628 19.5993 153.972 19.5635C154.315 19.5205 154.605 19.499 154.842 19.499H155.615C155.794 19.499 155.93 19.5312 156.023 19.5957C156.088 19.6315 156.12 19.6673 156.12 19.7031C156.12 19.7246 156.106 19.7425 156.077 19.7568C155.791 19.8714 155.493 19.9717 155.186 20.0576C154.885 20.1436 154.588 20.2474 154.294 20.3691C154.208 20.4049 154.115 20.4515 154.015 20.5088C153.922 20.5661 153.825 20.6305 153.725 20.7021C153.624 20.7666 153.531 20.8346 153.445 20.9062C153.359 20.9707 153.284 21.0352 153.22 21.0996C152.976 21.3359 152.776 21.5293 152.618 21.6797C152.461 21.8301 152.325 21.9626 152.21 22.0771C152.103 22.1917 152.002 22.2956 151.909 22.3887C151.823 22.4818 151.727 22.5856 151.619 22.7002C151.447 22.8936 151.279 23.0833 151.114 23.2695C150.957 23.4486 150.792 23.6348 150.62 23.8281C150.455 24.0215 150.284 24.2256 150.104 24.4404C149.925 24.6481 149.732 24.8737 149.524 25.1172C149.424 25.2174 149.331 25.3141 149.245 25.4072C149.166 25.4932 149.127 25.5934 149.127 25.708C149.127 25.7367 149.163 25.8047 149.234 25.9121C149.313 26.0124 149.41 26.1377 149.524 26.2881C149.639 26.4313 149.764 26.5889 149.9 26.7607C150.044 26.9255 150.18 27.0866 150.309 27.2441C150.438 27.4017 150.552 27.5449 150.652 27.6738C150.76 27.8027 150.835 27.8958 150.878 27.9531C151.272 28.3828 151.644 28.8197 151.995 29.2637C152.346 29.7005 152.718 30.1553 153.112 30.6279C153.227 30.764 153.381 30.943 153.574 31.165C153.768 31.387 153.979 31.6305 154.208 31.8955C154.437 32.1533 154.677 32.4147 154.928 32.6797C155.186 32.9447 155.433 33.1953 155.669 33.4316C155.912 33.6608 156.138 33.8577 156.346 34.0225C156.561 34.1872 156.74 34.2946 156.883 34.3447C156.954 34.3805 157.087 34.4235 157.28 34.4736C157.481 34.5166 157.685 34.5667 157.893 34.624C158.1 34.6813 158.283 34.7422 158.44 34.8066C158.605 34.8639 158.688 34.9212 158.688 34.9785C158.688 35.0286 158.666 35.068 158.623 35.0967C158.58 35.1253 158.526 35.1468 158.462 35.1611C158.405 35.1826 158.337 35.1934 158.258 35.1934C158.186 35.2005 158.118 35.2041 158.054 35.2041H157.807C157.663 35.2041 157.527 35.1969 157.398 35.1826C157.277 35.1683 157.151 35.1504 157.022 35.1289C156.894 35.1074 156.75 35.0895 156.593 35.0752C156.442 35.0609 156.271 35.0537 156.077 35.0537H154.015C153.95 35.0537 153.882 35.0251 153.811 34.9678C153.524 34.6025 153.234 34.2516 152.94 33.915C152.647 33.5713 152.346 33.2275 152.038 32.8838C151.73 32.5329 151.419 32.1784 151.104 31.8203C150.788 31.4551 150.466 31.0719 150.137 30.6709C149.757 30.1982 149.442 29.8044 149.191 29.4893C148.941 29.1742 148.712 28.8984 148.504 28.6621C148.303 28.4258 148.106 28.2109 147.913 28.0176C147.72 27.8242 147.494 27.6165 147.236 27.3945C147.222 27.3874 147.208 27.3802 147.193 27.373C147.179 27.3659 147.158 27.3623 147.129 27.3623C147.1 27.3623 147.086 27.3874 147.086 27.4375V33.6572C147.086 33.8506 147.161 34.0081 147.312 34.1299C147.469 34.2516 147.652 34.3483 147.859 34.4199C148.074 34.4844 148.285 34.5309 148.493 34.5596C148.708 34.5811 148.873 34.5918 148.987 34.5918C149.095 34.5918 149.174 34.6133 149.224 34.6562C149.274 34.6992 149.299 34.7529 149.299 34.8174C149.299 34.9391 149.249 35.0107 149.148 35.0322C149.048 35.0609 148.926 35.0752 148.783 35.0752C148.461 35.0752 148.178 35.068 147.935 35.0537C147.691 35.0465 147.465 35.0358 147.258 35.0215C147.057 35.0072 146.857 34.9964 146.656 34.9893C146.463 34.9749 146.255 34.9678 146.033 34.9678C145.775 34.9678 145.507 34.9714 145.228 34.9785C144.948 34.9785 144.676 34.9821 144.411 34.9893C144.146 34.9893 143.892 34.9928 143.648 35C143.412 35 143.201 35 143.015 35C142.807 35 142.703 34.9212 142.703 34.7637C142.703 34.7135 142.707 34.6562 142.714 34.5918C142.728 34.5273 142.768 34.4915 142.832 34.4844C142.947 34.4701 143.072 34.4593 143.208 34.4521C143.344 34.445 143.473 34.4414 143.595 34.4414H143.831C143.981 34.4414 144.139 34.4342 144.304 34.4199C144.476 34.3984 144.612 34.3626 144.712 34.3125C144.848 34.2337 144.916 34.1084 144.916 33.9365ZM158.988 23.4951C158.988 23.137 159.046 22.7754 159.16 22.4102C159.282 22.0449 159.443 21.7012 159.644 21.3789C159.844 21.0495 160.077 20.7523 160.342 20.4873C160.614 20.2152 160.9 19.9967 161.201 19.832C161.488 19.6673 161.778 19.5671 162.071 19.5312C162.372 19.4954 162.694 19.4775 163.038 19.4775C163.425 19.4775 163.804 19.5241 164.177 19.6172C164.549 19.7031 164.911 19.8392 165.262 20.0254C165.29 20.0469 165.344 20.0827 165.423 20.1328C165.502 20.1829 165.588 20.2438 165.681 20.3154C165.781 20.387 165.881 20.4622 165.981 20.541C166.082 20.6126 166.171 20.6807 166.25 20.7451C166.279 20.7738 166.304 20.7881 166.325 20.7881C166.332 20.7881 166.35 20.7738 166.379 20.7451C166.4 20.7165 166.425 20.6735 166.454 20.6162C166.49 20.5518 166.526 20.4873 166.562 20.4229C166.597 20.3512 166.63 20.2868 166.658 20.2295C166.694 20.165 166.719 20.1221 166.733 20.1006C166.748 20.0648 166.766 20.0326 166.787 20.0039C166.816 19.9753 166.834 19.9609 166.841 19.9609C166.841 19.9538 166.855 19.9502 166.884 19.9502C166.927 19.9502 166.959 19.9681 166.98 20.0039C167.002 20.0326 167.016 20.0684 167.023 20.1113C167.038 20.1543 167.045 20.2008 167.045 20.251C167.045 20.2939 167.045 20.3298 167.045 20.3584V20.4336C167.045 20.4479 167.041 20.4766 167.034 20.5195C167.034 20.5625 167.031 20.6126 167.023 20.6699C167.016 20.7201 167.009 20.7666 167.002 20.8096C167.002 20.8525 166.998 20.8812 166.991 20.8955V23.5488C166.991 23.6061 166.966 23.6455 166.916 23.667C166.866 23.6885 166.823 23.6992 166.787 23.6992C166.708 23.6992 166.662 23.6849 166.647 23.6562C166.633 23.6204 166.612 23.5596 166.583 23.4736C166.504 23.2874 166.451 23.0977 166.422 22.9043C166.4 22.7038 166.35 22.4997 166.271 22.292C166.193 22.0557 166.06 21.8014 165.874 21.5293C165.688 21.25 165.473 20.9922 165.229 20.7559C164.986 20.5195 164.732 20.3226 164.467 20.165C164.202 20.0075 163.948 19.9287 163.704 19.9287C163.253 19.9287 162.906 19.9609 162.662 20.0254C162.297 20.1328 161.989 20.3083 161.738 20.5518C161.495 20.7881 161.269 21.0566 161.062 21.3574C161.004 21.4434 160.951 21.5544 160.9 21.6904C160.85 21.8193 160.807 21.959 160.771 22.1094C160.743 22.2526 160.718 22.3923 160.696 22.5283C160.682 22.6644 160.675 22.7754 160.675 22.8613C160.675 23.2051 160.746 23.5166 160.89 23.7959C161.04 24.0752 161.233 24.3258 161.47 24.5479C161.706 24.7627 161.971 24.9561 162.265 25.1279C162.565 25.2926 162.866 25.4359 163.167 25.5576C163.425 25.665 163.69 25.7689 163.962 25.8691C164.241 25.9694 164.513 26.0732 164.778 26.1807C165.05 26.2881 165.308 26.4062 165.552 26.5352C165.802 26.6641 166.024 26.8109 166.218 26.9756C166.461 27.1689 166.701 27.4089 166.938 27.6953C167.174 27.9746 167.385 28.2826 167.571 28.6191C167.765 28.9486 167.919 29.2923 168.033 29.6504C168.148 30.0085 168.205 30.3594 168.205 30.7031C168.205 31.3691 168.087 31.9707 167.851 32.5078C167.621 33.0449 167.299 33.5033 166.884 33.8828C166.476 34.2552 165.992 34.5452 165.434 34.7529C164.875 34.9535 164.273 35.0537 163.629 35.0537C163.249 35.0537 162.881 35.0358 162.522 35C162.172 34.957 161.835 34.8854 161.513 34.7852C161.19 34.6849 160.886 34.5452 160.6 34.3662C160.313 34.1872 160.041 33.958 159.783 33.6787C159.755 33.6429 159.715 33.6214 159.665 33.6143C159.622 33.6071 159.586 33.6035 159.558 33.6035C159.436 33.6035 159.35 33.6357 159.3 33.7002C159.25 33.7646 159.207 33.8398 159.171 33.9258C159.142 34.0046 159.106 34.0762 159.063 34.1406C159.021 34.2051 158.945 34.2373 158.838 34.2373L159.117 31.2832C159.132 31.1901 159.142 31.0791 159.149 30.9502C159.157 30.8213 159.174 30.7354 159.203 30.6924C159.225 30.5921 159.264 30.542 159.321 30.542C159.407 30.542 159.468 30.5957 159.504 30.7031C159.547 30.8249 159.583 30.9466 159.611 31.0684C159.64 31.1829 159.665 31.2975 159.687 31.4121C159.708 31.5267 159.729 31.6341 159.751 31.7344C159.78 31.8346 159.815 31.9242 159.858 32.0029C160.023 32.2965 160.181 32.5579 160.331 32.7871C160.489 33.0163 160.66 33.2275 160.847 33.4209C161.04 33.6143 161.262 33.7897 161.513 33.9473C161.763 34.1048 162.068 34.2516 162.426 34.3877C162.648 34.4665 162.859 34.513 163.06 34.5273C163.26 34.5345 163.443 34.5381 163.607 34.5381C163.808 34.5381 164.008 34.5023 164.209 34.4307C164.41 34.3519 164.649 34.2337 164.929 34.0762C165.337 33.8327 165.663 33.5426 165.906 33.2061C166.15 32.8623 166.271 32.4326 166.271 31.917C166.271 31.5518 166.203 31.2116 166.067 30.8965C165.938 30.5814 165.759 30.2878 165.53 30.0156C165.201 29.6504 164.886 29.3675 164.585 29.167C164.284 28.9593 163.987 28.7946 163.693 28.6729C163.407 28.5511 163.12 28.4473 162.834 28.3613C162.548 28.2754 162.254 28.168 161.953 28.0391C161.66 27.9102 161.359 27.7383 161.051 27.5234C160.743 27.3086 160.421 27.0078 160.084 26.6211C159.354 25.7617 158.988 24.7197 158.988 23.4951ZM170.074 27.459V27.3086C170.074 26.8861 170.114 26.4421 170.192 25.9766C170.278 25.5039 170.396 25.0348 170.547 24.5693C170.697 24.1038 170.88 23.6527 171.095 23.2158C171.31 22.779 171.553 22.3779 171.825 22.0127C172.126 21.6188 172.463 21.2679 172.835 20.96C173.215 20.6449 173.619 20.3763 174.049 20.1543C174.486 19.9323 174.948 19.764 175.435 19.6494C175.922 19.5277 176.426 19.4668 176.949 19.4668C177.386 19.4668 177.837 19.5098 178.303 19.5957C178.768 19.6745 179.198 19.7962 179.592 19.9609C179.914 20.1113 180.204 20.2939 180.462 20.5088C180.727 20.7165 181.006 20.9242 181.3 21.1318C181.328 21.1676 181.357 21.1891 181.386 21.1963C181.422 21.2035 181.454 21.207 181.482 21.207C181.547 21.207 181.604 21.1605 181.654 21.0674C181.733 20.9313 181.805 20.7594 181.869 20.5518C181.934 20.3369 182.005 20.1543 182.084 20.0039C182.113 19.9395 182.145 19.9036 182.181 19.8965C182.216 19.8822 182.256 19.875 182.299 19.875C182.349 19.875 182.385 19.8929 182.406 19.9287C182.435 19.9645 182.449 19.9896 182.449 20.0039C182.507 20.2546 182.539 20.5052 182.546 20.7559C182.56 21.0065 182.567 21.2679 182.567 21.54V22.1631C182.567 22.2562 182.567 22.3493 182.567 22.4424C182.567 22.5355 182.571 22.6322 182.578 22.7324C182.607 23.0046 182.643 23.2409 182.686 23.4414C182.729 23.6419 182.75 23.8353 182.75 24.0215C182.75 24.1289 182.732 24.2435 182.696 24.3652C182.668 24.4798 182.603 24.5371 182.503 24.5371C182.46 24.5371 182.399 24.4834 182.32 24.376C182.249 24.2686 182.174 24.1504 182.095 24.0215C182.016 23.8854 181.937 23.7529 181.858 23.624C181.787 23.4951 181.737 23.4092 181.708 23.3662C181.507 23.0798 181.314 22.8076 181.128 22.5498C180.949 22.292 180.763 22.0521 180.569 21.8301C180.383 21.6009 180.183 21.3932 179.968 21.207C179.76 21.0137 179.527 20.8418 179.27 20.6914C179.048 20.5553 178.836 20.4515 178.636 20.3799C178.435 20.3011 178.238 20.2438 178.045 20.208C177.859 20.1722 177.673 20.1507 177.486 20.1436C177.3 20.1364 177.11 20.1328 176.917 20.1328C176.616 20.1328 176.337 20.1758 176.079 20.2617C175.828 20.3405 175.592 20.4515 175.37 20.5947C175.148 20.738 174.94 20.9027 174.747 21.0889C174.561 21.2751 174.378 21.472 174.199 21.6797C173.684 22.2884 173.293 23.1012 173.028 24.1182C172.771 25.1279 172.642 26.3382 172.642 27.749C172.642 28.4508 172.702 29.0882 172.824 29.6611C172.953 30.2269 173.111 30.7318 173.297 31.1758C173.483 31.6126 173.687 31.9922 173.909 32.3145C174.138 32.6296 174.353 32.8874 174.554 33.0879C174.769 33.3171 174.973 33.5176 175.166 33.6895C175.367 33.8542 175.574 33.9902 175.789 34.0977C176.004 34.2051 176.237 34.2874 176.487 34.3447C176.738 34.3949 177.021 34.4199 177.336 34.4199C177.816 34.4199 178.285 34.3161 178.743 34.1084C179.201 33.9007 179.649 33.6286 180.086 33.292C180.179 33.2204 180.276 33.1344 180.376 33.0342C180.476 32.9339 180.573 32.8337 180.666 32.7334C180.766 32.6331 180.856 32.5365 180.935 32.4434C181.021 32.3431 181.092 32.2536 181.149 32.1748C181.379 31.8167 181.579 31.4694 181.751 31.1328C181.923 30.7962 182.08 30.4489 182.224 30.0908C182.295 29.9834 182.421 29.9297 182.6 29.9297C182.678 29.9297 182.732 29.9583 182.761 30.0156C182.789 30.0729 182.804 30.141 182.804 30.2197C182.689 30.6136 182.589 30.9717 182.503 31.2939C182.417 31.609 182.324 31.9456 182.224 32.3037C182.159 32.5615 182.113 32.8158 182.084 33.0664C182.055 33.3099 182.027 33.5283 181.998 33.7217C181.969 33.9079 181.937 34.0583 181.901 34.1729C181.866 34.2874 181.808 34.3447 181.729 34.3447C181.672 34.3447 181.626 34.3232 181.59 34.2803C181.554 34.2373 181.518 34.1693 181.482 34.0762C181.468 34.0046 181.443 33.9437 181.407 33.8936C181.379 33.8363 181.325 33.8076 181.246 33.8076C181.167 33.8076 181.092 33.8219 181.021 33.8506C180.956 33.8792 180.874 33.9258 180.773 33.9902C180.673 34.0475 180.548 34.1191 180.397 34.2051C180.247 34.2839 180.047 34.377 179.796 34.4844C179.338 34.6706 178.847 34.821 178.324 34.9355C177.801 35.043 177.282 35.0967 176.767 35.0967C176.015 35.0967 175.327 35 174.704 34.8066C174.081 34.6061 173.49 34.2695 172.932 33.7969C172.488 33.4173 172.09 32.984 171.739 32.4971C171.388 32.0029 171.088 31.4801 170.837 30.9287C170.593 30.3773 170.404 29.8079 170.268 29.2207C170.139 28.6263 170.074 28.0391 170.074 27.459ZM192.558 35.2793C191.512 35.2793 190.527 35.0752 189.604 34.667C188.687 34.2516 187.845 33.6429 187.079 32.8408C186.75 32.5042 186.449 32.1211 186.177 31.6914C185.905 31.2546 185.672 30.7712 185.479 30.2412C185.285 29.7113 185.135 29.1312 185.027 28.501C184.92 27.8636 184.866 27.1725 184.866 26.4277C184.866 25.8978 184.963 25.3571 185.156 24.8057C185.357 24.2471 185.629 23.7135 185.973 23.2051C186.316 22.6895 186.721 22.2132 187.187 21.7764C187.652 21.3324 188.153 20.9528 188.69 20.6377C189.421 20.1937 190.148 19.8893 190.871 19.7246C191.602 19.5527 192.275 19.4668 192.891 19.4668C193.199 19.4668 193.521 19.4919 193.857 19.542C194.194 19.5921 194.513 19.6566 194.813 19.7354C195.121 19.8141 195.401 19.9001 195.651 19.9932C195.909 20.0863 196.11 20.1758 196.253 20.2617C196.597 20.4694 196.948 20.7272 197.306 21.0352C197.664 21.3431 198 21.6761 198.315 22.0342C198.631 22.3923 198.913 22.7611 199.164 23.1406C199.422 23.513 199.622 23.8675 199.766 24.2041C200.009 24.7627 200.174 25.3213 200.26 25.8799C200.346 26.4385 200.389 27.0186 200.389 27.6201C200.389 28.2646 200.321 28.8698 200.185 29.4355C200.056 29.9941 199.866 30.5205 199.615 31.0146C199.365 31.5088 199.057 31.9743 198.691 32.4111C198.333 32.8408 197.925 33.2526 197.467 33.6465C197.13 33.9258 196.786 34.1693 196.436 34.377C196.085 34.5775 195.709 34.7458 195.308 34.8818C194.914 35.0179 194.491 35.1182 194.04 35.1826C193.589 35.2471 193.095 35.2793 192.558 35.2793ZM187.67 27.5342C187.67 27.8779 187.688 28.2288 187.724 28.5869C187.759 28.9378 187.817 29.2887 187.896 29.6396C187.974 29.9834 188.075 30.3164 188.196 30.6387C188.325 30.9609 188.479 31.2617 188.658 31.541C188.887 31.9206 189.142 32.293 189.421 32.6582C189.707 33.0163 190.022 33.3421 190.366 33.6357C190.717 33.9222 191.1 34.1549 191.516 34.334C191.938 34.5059 192.396 34.5918 192.891 34.5918C193.356 34.5918 193.807 34.4808 194.244 34.2588C194.681 34.0296 195.086 33.7324 195.458 33.3672C195.83 32.9948 196.163 32.5758 196.457 32.1104C196.758 31.6449 197.001 31.1722 197.188 30.6924C197.209 30.6208 197.252 30.4919 197.316 30.3057C197.388 30.1123 197.46 29.8796 197.531 29.6074C197.603 29.3353 197.664 29.0273 197.714 28.6836C197.771 28.3398 197.8 27.9746 197.8 27.5879C197.8 27.2441 197.771 26.8717 197.714 26.4707C197.664 26.0697 197.581 25.6579 197.467 25.2354C197.359 24.8057 197.223 24.376 197.059 23.9463C196.894 23.5166 196.701 23.1048 196.479 22.7109C196.285 22.3743 196.06 22.0449 195.802 21.7227C195.544 21.3932 195.25 21.1032 194.921 20.8525C194.599 20.5947 194.241 20.3906 193.847 20.2402C193.453 20.0827 193.023 20.0039 192.558 20.0039C192.114 20.0039 191.691 20.097 191.29 20.2832C190.889 20.4694 190.524 20.7021 190.194 20.9814C189.865 21.2536 189.575 21.5472 189.324 21.8623C189.081 22.1702 188.884 22.4531 188.733 22.7109C188.619 22.9115 188.497 23.1621 188.368 23.4629C188.246 23.7637 188.132 24.1146 188.024 24.5156C187.924 24.9167 187.838 25.3714 187.767 25.8799C187.702 26.3812 187.67 26.9326 187.67 27.5342ZM204.138 33.4424V21.3359C204.138 21.0352 204.084 20.8096 203.977 20.6592C203.869 20.5016 203.733 20.3906 203.568 20.3262C203.411 20.2546 203.239 20.2152 203.053 20.208C202.867 20.2008 202.691 20.1937 202.526 20.1865C202.369 20.1722 202.236 20.1436 202.129 20.1006C202.021 20.0576 201.968 19.9681 201.968 19.832C201.968 19.7389 202.011 19.6816 202.097 19.6602C202.19 19.6315 202.276 19.6172 202.354 19.6172H202.956C203.135 19.6172 203.296 19.6243 203.439 19.6387C203.59 19.6458 203.729 19.6566 203.858 19.6709C203.994 19.6852 204.131 19.6995 204.267 19.7139C204.41 19.721 204.567 19.7246 204.739 19.7246C205.09 19.7246 205.398 19.7174 205.663 19.7031C205.928 19.6816 206.182 19.6602 206.426 19.6387C206.669 19.6172 206.913 19.5993 207.156 19.585C207.4 19.5635 207.672 19.5527 207.973 19.5527H208.692C208.793 19.5527 208.875 19.5742 208.939 19.6172C209.004 19.653 209.054 19.6745 209.09 19.6816C209.118 19.7604 209.136 19.8034 209.144 19.8105C209.151 19.8177 209.154 19.8499 209.154 19.9072C209.154 19.986 209.09 20.0505 208.961 20.1006C208.839 20.1507 208.696 20.1937 208.531 20.2295C208.374 20.2581 208.213 20.2832 208.048 20.3047C207.883 20.319 207.765 20.3369 207.693 20.3584C207.579 20.3799 207.457 20.4014 207.328 20.4229C207.199 20.4372 207.081 20.4658 206.974 20.5088C206.866 20.5446 206.777 20.6019 206.705 20.6807C206.633 20.7523 206.598 20.8561 206.598 20.9922V33.7539C206.598 33.9043 206.651 34.0225 206.759 34.1084C206.873 34.1872 207.013 34.248 207.178 34.291C207.342 34.3268 207.521 34.3519 207.715 34.3662C207.915 34.3805 208.098 34.3984 208.263 34.4199C208.427 34.4414 208.563 34.4772 208.671 34.5273C208.785 34.5703 208.843 34.6419 208.843 34.7422C208.843 34.821 208.821 34.8711 208.778 34.8926C208.735 34.9141 208.696 34.932 208.66 34.9463C208.56 34.9749 208.438 35 208.295 35.0215C208.152 35.043 208.026 35.0537 207.919 35.0537C207.661 35.0537 207.425 35.0465 207.21 35.0322C206.995 35.0179 206.787 35.0036 206.587 34.9893C206.386 34.9749 206.186 34.9606 205.985 34.9463C205.785 34.932 205.566 34.9248 205.33 34.9248C205.215 34.9248 205.054 34.9284 204.847 34.9355C204.646 34.9427 204.428 34.9535 204.191 34.9678C203.962 34.9749 203.733 34.9821 203.504 34.9893C203.275 34.9964 203.078 35 202.913 35H202.064C202.029 35 201.979 34.9821 201.914 34.9463C201.85 34.9105 201.817 34.8532 201.817 34.7744C201.817 34.6312 201.878 34.5452 202 34.5166C202.158 34.4736 202.297 34.4414 202.419 34.4199C202.548 34.3913 202.68 34.3662 202.816 34.3447C202.952 34.3161 203.103 34.2874 203.268 34.2588C203.432 34.2301 203.636 34.1908 203.88 34.1406C204.002 34.1048 204.073 34.026 204.095 33.9043C204.123 33.7826 204.138 33.6286 204.138 33.4424ZM213.838 32.7656C213.838 32.916 213.874 33.0485 213.945 33.1631C214.017 33.2777 214.103 33.3779 214.203 33.4639C214.303 33.5426 214.407 33.6107 214.515 33.668C214.622 33.7253 214.708 33.7718 214.772 33.8076C214.837 33.8434 214.923 33.8792 215.03 33.915C215.145 33.9508 215.267 33.9831 215.396 34.0117C215.524 34.0404 215.653 34.0654 215.782 34.0869C215.911 34.1012 216.026 34.1084 216.126 34.1084C216.183 34.1084 216.244 34.112 216.309 34.1191C216.373 34.1263 216.434 34.1442 216.491 34.1729C216.549 34.2015 216.595 34.2409 216.631 34.291C216.674 34.334 216.695 34.3913 216.695 34.4629C216.695 34.6491 216.642 34.778 216.534 34.8496C216.427 34.9141 216.309 34.9463 216.18 34.9463C215.256 34.9606 214.336 34.9749 213.419 34.9893C212.502 34.9964 211.575 35 210.637 35C210.493 35 210.379 34.9857 210.293 34.957C210.207 34.9284 210.164 34.8317 210.164 34.667C210.164 34.5524 210.203 34.4665 210.282 34.4092C210.368 34.3519 210.476 34.3018 210.604 34.2588C210.798 34.1943 211.023 34.1299 211.281 34.0654C211.539 33.9938 211.786 33.8936 212.022 33.7646C212.259 33.6286 212.459 33.446 212.624 33.2168C212.789 32.9805 212.878 32.6654 212.893 32.2715C212.957 30.5814 213.029 28.9056 213.107 27.2441C213.186 25.5827 213.226 23.889 213.226 22.1631C213.226 22.0413 213.211 21.9375 213.183 21.8516C213.154 21.7585 213.111 21.6725 213.054 21.5938C213.004 21.515 212.943 21.4398 212.871 21.3682C212.799 21.2965 212.721 21.2178 212.635 21.1318C212.599 21.096 212.538 21.0459 212.452 20.9814C212.366 20.9098 212.27 20.8346 212.162 20.7559C212.055 20.6771 211.94 20.5947 211.818 20.5088C211.697 20.4229 211.578 20.3405 211.464 20.2617C211.356 20.1973 211.26 20.1471 211.174 20.1113C211.095 20.0755 211.02 20.0469 210.948 20.0254C210.877 19.9967 210.805 19.9717 210.733 19.9502C210.662 19.9215 210.583 19.8893 210.497 19.8535C210.433 19.832 210.4 19.7962 210.4 19.7461C210.4 19.7318 210.404 19.7139 210.411 19.6924C210.418 19.6637 210.447 19.6494 210.497 19.6494C210.784 19.6279 211.124 19.6172 211.518 19.6172H211.979C212.338 19.6172 212.706 19.6243 213.086 19.6387C213.473 19.6458 213.902 19.6494 214.375 19.6494C214.475 19.6494 214.558 19.6924 214.622 19.7783L222.142 30.1338C222.235 30.2555 222.335 30.3164 222.442 30.3164C222.564 30.3164 222.625 30.2555 222.625 30.1338V21.5615C222.625 21.3395 222.586 21.1605 222.507 21.0244C222.428 20.8812 222.292 20.763 222.099 20.6699C221.905 20.5768 221.644 20.498 221.314 20.4336C220.992 20.362 220.588 20.2868 220.101 20.208C219.893 20.1794 219.76 20.1471 219.703 20.1113C219.646 20.0684 219.617 19.9896 219.617 19.875C219.617 19.8249 219.635 19.7855 219.671 19.7568C219.707 19.7282 219.75 19.7103 219.8 19.7031C219.85 19.6888 219.904 19.6816 219.961 19.6816C220.018 19.6745 220.065 19.6709 220.101 19.6709H220.81C221.089 19.6709 221.418 19.6888 221.798 19.7246C222.185 19.7604 222.636 19.7783 223.151 19.7783C223.345 19.7783 223.588 19.7712 223.882 19.7568C224.175 19.7354 224.458 19.7246 224.73 19.7246C224.838 19.7246 224.931 19.7282 225.01 19.7354C225.089 19.7354 225.164 19.7389 225.235 19.7461C225.307 19.7533 225.379 19.764 225.45 19.7783C225.529 19.7926 225.618 19.8105 225.719 19.832C225.876 19.875 225.955 19.9502 225.955 20.0576C225.955 20.165 225.887 20.2331 225.751 20.2617C225.364 20.2904 225.031 20.3477 224.752 20.4336C224.473 20.5124 224.24 20.6377 224.054 20.8096C223.875 20.9743 223.739 21.1927 223.646 21.4648C223.552 21.7298 223.499 22.0664 223.484 22.4746L223.441 23.3447C223.384 24.3473 223.338 25.2318 223.302 25.998C223.273 26.7572 223.248 27.4554 223.227 28.0928C223.205 28.723 223.191 29.3174 223.184 29.876C223.176 30.4274 223.173 31.0003 223.173 31.5947V32.2285C223.173 32.4147 223.173 32.6188 223.173 32.8408C223.18 33.0557 223.184 33.2992 223.184 33.5713V34.4629C223.184 34.5273 223.162 34.6169 223.119 34.7314C223.083 34.8389 223.019 34.8926 222.926 34.8926C222.811 34.8926 222.707 34.8568 222.614 34.7852C222.528 34.7064 222.421 34.5739 222.292 34.3877L214.289 23.0332C214.217 22.9544 214.167 22.8936 214.139 22.8506C214.117 22.8076 214.067 22.7861 213.988 22.7861C213.924 22.7861 213.881 22.8255 213.859 22.9043C213.845 22.9831 213.838 23.0618 213.838 23.1406V32.7656Z" fill="white"/>
</svg>
