<svg width="250" height="55" viewBox="0 0 250 55" fill="none" xmlns="http://www.w3.org/2000/svg">
<path d="M249 1H1V54H249V1Z" fill="#0D122D" stroke="white"/>
<mask id="mask0_3_254" style="mask-type:luminance" maskUnits="userSpaceOnUse" x="55" y="15" width="23" height="26">
<path d="M78 15H55V41H78V15Z" fill="white"/>
</mask>
<g mask="url(#mask0_3_254)">
<path fill-rule="evenodd" clip-rule="evenodd" d="M68.8564 24.2617C69.694 23.8651 70.7597 23.2813 71.8268 22.4815C72.0518 22.9251 72.0764 23.3123 71.9605 23.6249C71.8783 23.8452 71.7235 24.0368 71.52 24.1893C71.2996 24.354 71.0243 24.474 70.72 24.5388C70.1427 24.6623 69.4685 24.5902 68.8564 24.2617ZM69.0016 28.3252L70.1104 28.9333C67.8465 30.1382 67.2311 32.3754 66.5 34.5544C65.769 32.3754 65.1535 30.1382 62.8897 28.9333L63.9985 28.3252C64.1057 28.2867 64.1974 28.2169 64.2604 28.1259C64.3233 28.035 64.3543 27.9274 64.3489 27.8186C64.2474 25.7779 64.8277 24.8754 65.6104 24.3088C65.8911 24.1058 66.1976 24.0039 66.5 24.0039C66.8024 24.0039 67.1089 24.1058 67.3897 24.3088C68.1724 24.8754 68.7527 25.7779 68.6511 27.8186C68.6457 27.9274 68.6768 28.035 68.7397 28.1259C68.8027 28.2169 68.8943 28.2867 69.0016 28.3252ZM66.5 15C67.7816 15.0327 69.0664 15.2689 70.1815 15.7285C70.9536 16.0472 71.6741 16.4681 72.3265 16.9715C72.6211 17.1987 72.8637 17.4183 73.1309 17.671C73.8517 17.6946 74.905 16.9343 75.3941 16.2229C74.5525 18.8428 70.712 21.9367 68.0532 23.1206L68.0506 23.119C67.5734 22.773 67.0367 22.6001 66.5 22.6001C65.9632 22.6001 65.4267 22.773 64.9495 23.119L64.9469 23.1206C62.288 21.9367 58.4476 18.8428 57.606 16.2229C58.095 16.9343 59.1483 17.6946 59.8691 17.671C60.1364 17.4183 60.379 17.1987 60.6735 16.9715C61.3259 16.4681 62.0464 16.0472 62.8185 15.7285C63.9337 15.2689 65.2185 15.0327 66.5 15ZM64.1436 24.2617C63.3061 23.8651 62.2402 23.2813 61.1733 22.4815C60.9483 22.9251 60.9237 23.3123 61.0395 23.6249C61.1217 23.8452 61.2765 24.0368 61.48 24.1893C61.7005 24.354 61.9757 24.474 62.28 24.5388C62.8574 24.6623 63.5314 24.5902 64.1436 24.2617Z" fill="white"/>
<path fill-rule="evenodd" clip-rule="evenodd" d="M72.9954 21.5014C73.5828 20.9385 74.1004 20.3154 74.5166 19.7595L74.728 20.1372C75.4085 21.43 75.7621 22.7177 75.7621 24.1667L75.7606 26.4662L75.7734 27.6582C75.8227 30.5846 76.4895 33.5454 78 36.2549L74.8396 33.835L72.6034 37.2808L70.2541 35.1808L66.5 40.9657L62.7459 35.1808L60.3967 37.2809L58.1605 33.8351L55 36.255C56.5105 33.5454 57.1773 30.5846 57.2267 27.6583L57.2395 26.4662L57.238 24.1668C57.238 22.7177 57.5915 21.43 58.2722 20.1373L58.4835 19.7595C58.8997 20.3155 59.4172 20.9385 60.0047 21.5015L59.8212 21.8633C59.4648 22.5661 59.3468 23.3519 59.6245 24.0992C59.8034 24.5806 60.1301 24.9933 60.5512 25.3085C60.9601 25.6145 61.444 25.8208 61.9507 25.9291C62.2807 25.9996 62.6169 26.0287 62.951 26.0188C62.873 26.4383 62.839 26.8735 62.8368 27.3169L59.8556 28.9519L62.1561 30.1764C62.34 30.2743 62.515 30.3865 62.6794 30.5118C64.5761 32.1288 65.7164 36.9125 66.5001 39.2491C67.2838 36.9125 68.4241 32.1288 70.3208 30.5118C70.4852 30.3865 70.6603 30.2743 70.8442 30.1764L73.1447 28.9519L70.1634 27.3169C70.1612 26.8735 70.1272 26.4383 70.0492 26.0188C70.3833 26.0287 70.7195 25.9996 71.0495 25.9291C71.5562 25.8208 72.0402 25.6145 72.449 25.3085C72.87 24.9933 73.1967 24.5806 73.3756 24.0992C73.6534 23.3519 73.5353 22.5662 73.1789 21.8633L72.9954 21.5014Z" fill="white"/>
</g>
<path d="M86.5801 19.6172H90.1895C90.4759 19.6172 90.7373 19.6064 90.9736 19.585C91.21 19.5635 91.4714 19.542 91.7578 19.5205C92.0514 19.499 92.4023 19.4775 92.8105 19.4561C93.2188 19.4346 93.738 19.4238 94.3682 19.4238C95.0915 19.4238 95.7181 19.5277 96.248 19.7354C96.778 19.9359 97.2148 20.208 97.5586 20.5518C97.9023 20.8883 98.1566 21.2751 98.3213 21.7119C98.486 22.1488 98.5684 22.5964 98.5684 23.0547C98.5684 23.5775 98.5039 24.0286 98.375 24.4082C98.2461 24.7806 98.0599 25.11 97.8164 25.3965C97.5729 25.6829 97.2757 25.9336 96.9248 26.1484C96.5739 26.3633 96.18 26.571 95.7432 26.7715C95.7288 26.7715 95.7074 26.7786 95.6787 26.793C95.6501 26.8001 95.6357 26.8109 95.6357 26.8252C95.6357 26.8467 95.6715 26.8717 95.7432 26.9004C96.3304 27.1152 96.8353 27.3587 97.2578 27.6309C97.6875 27.8958 98.042 28.2038 98.3213 28.5547C98.6006 28.8984 98.8083 29.2923 98.9443 29.7363C99.0804 30.1803 99.1484 30.6852 99.1484 31.251C99.1484 31.473 99.1126 31.7093 99.041 31.96C98.9694 32.2106 98.8691 32.4613 98.7402 32.7119C98.6113 32.9554 98.4574 33.1917 98.2783 33.4209C98.1064 33.6429 97.9131 33.8398 97.6982 34.0117C97.2542 34.3698 96.6598 34.6312 95.915 34.7959C95.1774 34.9535 94.2894 35.0322 93.251 35.0322C93.0218 35.0322 92.7998 35.0286 92.585 35.0215C92.3701 35.0215 92.1445 35.0179 91.9082 35.0107C91.679 35.0107 91.4355 35.0072 91.1777 35C90.9199 35 90.6335 35 90.3184 35C90.0033 35 89.6989 35.0036 89.4053 35.0107C89.1188 35.0179 88.8324 35.0251 88.5459 35.0322C88.2594 35.0394 87.9658 35.0465 87.665 35.0537C87.3643 35.0609 87.0456 35.068 86.709 35.0752C86.709 35.0107 86.7197 34.9355 86.7412 34.8496C86.7699 34.7637 86.8164 34.7028 86.8809 34.667C87.1029 34.5739 87.3392 34.5094 87.5898 34.4736C87.8405 34.4378 88.0697 34.3877 88.2773 34.3232C88.4922 34.2516 88.6676 34.1406 88.8037 33.9902C88.9469 33.8327 89.0186 33.5856 89.0186 33.249V21.1748C89.0186 21.0889 89.015 21.0029 89.0078 20.917C89.0078 20.8239 88.9971 20.738 88.9756 20.6592C88.9541 20.5732 88.9219 20.498 88.8789 20.4336C88.8359 20.362 88.7751 20.3047 88.6963 20.2617C88.596 20.2116 88.485 20.1794 88.3633 20.165C88.2487 20.1436 88.1126 20.1257 87.9551 20.1113C87.7975 20.097 87.6185 20.0755 87.418 20.0469C87.2174 20.0111 86.9811 19.9538 86.709 19.875C86.623 19.8535 86.5801 19.8105 86.5801 19.7461V19.6172ZM91.2637 27.6416V33.5283C91.543 33.8506 91.8438 34.1084 92.166 34.3018C92.4883 34.4951 92.8643 34.5918 93.2939 34.5918C93.8024 34.5918 94.2464 34.4772 94.626 34.248C95.0127 34.0189 95.3314 33.7253 95.582 33.3672C95.8398 33.0091 96.0332 32.6081 96.1621 32.1641C96.291 31.7129 96.3555 31.2689 96.3555 30.832C96.3555 30.3307 96.2588 29.8617 96.0654 29.4248C95.8721 28.9808 95.6107 28.5977 95.2812 28.2754C94.9518 27.9531 94.5687 27.6989 94.1318 27.5127C93.7021 27.3265 93.2474 27.2334 92.7676 27.2334H92.4668C92.4023 27.2334 92.2985 27.2334 92.1553 27.2334C92.0192 27.2334 91.8402 27.2406 91.6182 27.2549C91.3818 27.2549 91.2637 27.3838 91.2637 27.6416ZM91.2637 19.9824V26.5029C91.2637 26.5817 91.2816 26.6497 91.3174 26.707C91.3604 26.7572 91.4105 26.7965 91.4678 26.8252C91.5251 26.8538 91.5824 26.8753 91.6396 26.8896C91.6969 26.8968 91.7435 26.9004 91.7793 26.9004C92.3379 26.9004 92.8177 26.8431 93.2188 26.7285C93.627 26.6139 93.9671 26.4707 94.2393 26.2988C94.4398 26.1771 94.6331 26.0195 94.8193 25.8262C95.0127 25.6328 95.181 25.4108 95.3242 25.1602C95.4746 24.9095 95.5928 24.6374 95.6787 24.3438C95.7718 24.043 95.8184 23.7243 95.8184 23.3877C95.8184 22.4567 95.6608 21.7298 95.3457 21.207C95.0378 20.6771 94.5436 20.3083 93.8633 20.1006C93.5911 20.0146 93.3011 19.9574 92.9932 19.9287C92.6852 19.8929 92.3451 19.875 91.9727 19.875C91.8438 19.875 91.7184 19.8857 91.5967 19.9072C91.4749 19.9215 91.3639 19.9466 91.2637 19.9824ZM108.709 34.8174C108.709 34.6097 108.73 34.3519 108.773 34.0439C108.816 33.736 108.838 33.4352 108.838 33.1416C108.838 33.0915 108.827 33.0306 108.806 32.959C108.791 32.8802 108.752 32.8408 108.688 32.8408C108.659 32.8408 108.623 32.8802 108.58 32.959C108.544 33.0306 108.494 33.1058 108.43 33.1846C108.201 33.4424 107.971 33.6859 107.742 33.915C107.513 34.137 107.27 34.334 107.012 34.5059C106.754 34.6777 106.475 34.8138 106.174 34.9141C105.873 35.0072 105.54 35.0537 105.175 35.0537C104.824 35.0537 104.487 34.9964 104.165 34.8818C103.843 34.7601 103.542 34.5775 103.263 34.334C103.084 34.1908 102.937 34.0368 102.822 33.8721C102.715 33.7002 102.629 33.5212 102.564 33.335C102.507 33.1488 102.468 32.9518 102.446 32.7441C102.425 32.5365 102.414 32.3216 102.414 32.0996V25.7617C102.414 25.6543 102.403 25.5576 102.382 25.4717C102.368 25.3786 102.303 25.332 102.188 25.332H100.513C100.448 25.332 100.395 25.3034 100.352 25.2461C100.309 25.1888 100.287 25.1315 100.287 25.0742C100.287 25.0456 100.294 24.9919 100.309 24.9131C100.33 24.8343 100.38 24.7949 100.459 24.7949H104.004C104.118 24.7949 104.176 24.8451 104.176 24.9453V31.541C104.176 31.8132 104.215 32.0817 104.294 32.3467C104.38 32.6117 104.502 32.848 104.659 33.0557C104.817 33.2633 105.01 33.4316 105.239 33.5605C105.476 33.6895 105.748 33.7539 106.056 33.7539C106.407 33.7539 106.711 33.7217 106.969 33.6572C107.227 33.5856 107.492 33.4746 107.764 33.3242C108.064 33.1452 108.329 32.8874 108.559 32.5508C108.645 32.429 108.713 32.3145 108.763 32.207C108.813 32.0996 108.852 31.9922 108.881 31.8848C108.91 31.7773 108.931 31.6628 108.945 31.541C108.96 31.4193 108.967 31.2832 108.967 31.1328L109.085 25.8047C109.085 25.7832 109.081 25.7402 109.074 25.6758C109.074 25.6042 109.063 25.529 109.042 25.4502C109.028 25.3714 109.003 25.3034 108.967 25.2461C108.931 25.1816 108.881 25.1494 108.816 25.1494C108.773 25.1494 108.688 25.1566 108.559 25.1709C108.437 25.1852 108.294 25.1924 108.129 25.1924C107.971 25.1924 107.821 25.196 107.678 25.2031C107.542 25.2031 107.434 25.2031 107.355 25.2031C107.205 25.2031 107.08 25.196 106.979 25.1816C106.879 25.1673 106.829 25.1136 106.829 25.0205C106.829 24.9704 106.833 24.9167 106.84 24.8594C106.847 24.8021 106.876 24.7555 106.926 24.7197C106.99 24.6768 107.062 24.6481 107.141 24.6338C107.227 24.6195 107.309 24.6123 107.388 24.6123C107.488 24.6123 107.603 24.6195 107.731 24.6338C107.86 24.6481 107.993 24.6624 108.129 24.6768C108.265 24.6911 108.394 24.7054 108.516 24.7197C108.637 24.734 108.745 24.7412 108.838 24.7412H110.9C110.951 24.7412 110.976 24.7663 110.976 24.8164L110.643 33.2705V33.4209C110.643 33.4567 110.643 33.4854 110.643 33.5068C110.643 33.5283 110.65 33.557 110.664 33.5928C110.693 33.7145 110.743 33.8255 110.814 33.9258C110.886 34.026 111.001 34.0762 111.158 34.0762C111.251 34.0762 111.352 34.069 111.459 34.0547C111.566 34.0404 111.67 34.0225 111.771 34.001C111.871 33.9795 111.964 33.9616 112.05 33.9473C112.143 33.9329 112.218 33.9258 112.275 33.9258C112.354 33.9258 112.401 33.9544 112.415 34.0117C112.437 34.069 112.447 34.1191 112.447 34.1621C112.447 34.248 112.415 34.3161 112.351 34.3662C112.293 34.4092 112.232 34.4486 112.168 34.4844C112.01 34.5345 111.867 34.5596 111.738 34.5596C111.66 34.5596 111.584 34.5632 111.513 34.5703C111.448 34.5703 111.355 34.5775 111.233 34.5918C111.004 34.6204 110.754 34.667 110.481 34.7314C110.216 34.7959 109.98 34.8604 109.772 34.9248C109.622 34.9821 109.482 35.0286 109.354 35.0645C109.232 35.1074 109.099 35.1289 108.956 35.1289C108.877 35.1289 108.816 35.0967 108.773 35.0322C108.73 34.9678 108.709 34.8962 108.709 34.8174ZM113.779 38.083C113.779 37.8109 113.858 37.5889 114.016 37.417C114.18 37.2523 114.399 37.1699 114.671 37.1699C114.793 37.1699 114.907 37.1986 115.015 37.2559C115.122 37.3132 115.219 37.374 115.305 37.4385C115.398 37.5101 115.473 37.5745 115.53 37.6318C115.595 37.6891 115.638 37.7178 115.659 37.7178C115.853 37.7178 116.035 37.639 116.207 37.4814C116.379 37.3239 116.526 37.1341 116.647 36.9121C116.776 36.6973 116.877 36.4717 116.948 36.2354C117.027 36.0062 117.066 35.8128 117.066 35.6553C117.066 35.2113 117.016 34.7565 116.916 34.291C116.816 33.8184 116.705 33.3672 116.583 32.9375C116.261 31.7344 115.956 30.5384 115.67 29.3496C115.383 28.1536 115.086 26.9505 114.778 25.7402C114.778 25.7188 114.768 25.6794 114.746 25.6221C114.732 25.5576 114.714 25.4932 114.692 25.4287C114.671 25.3571 114.642 25.2926 114.606 25.2354C114.578 25.1781 114.549 25.1423 114.521 25.1279C114.442 25.0921 114.345 25.0706 114.23 25.0635C114.123 25.0492 113.998 25.042 113.854 25.042C113.711 25.042 113.575 25.0384 113.446 25.0312C113.325 25.0169 113.206 25.0026 113.092 24.9883C112.97 24.9668 112.909 24.8844 112.909 24.7412C112.909 24.6553 112.945 24.598 113.017 24.5693C113.088 24.5335 113.163 24.5156 113.242 24.5156C113.4 24.5156 113.586 24.5192 113.801 24.5264C114.023 24.5335 114.245 24.5407 114.467 24.5479C114.689 24.5479 114.9 24.5514 115.101 24.5586C115.301 24.5658 115.466 24.5693 115.595 24.5693C115.974 24.5693 116.354 24.5586 116.733 24.5371C117.113 24.5156 117.471 24.5049 117.808 24.5049C117.836 24.5049 117.886 24.5085 117.958 24.5156C118.037 24.5156 118.094 24.5228 118.13 24.5371C118.159 24.5514 118.184 24.5765 118.205 24.6123C118.227 24.6481 118.237 24.6911 118.237 24.7412C118.237 24.777 118.201 24.8164 118.13 24.8594C118.065 24.8952 117.997 24.9131 117.926 24.9131C117.847 24.9131 117.754 24.9095 117.646 24.9023C117.539 24.8952 117.457 24.8916 117.399 24.8916C117.321 24.8916 117.238 24.8952 117.152 24.9023C117.066 24.9095 116.984 24.9167 116.905 24.9238C116.791 24.9382 116.694 24.9704 116.615 25.0205C116.544 25.0706 116.508 25.1494 116.508 25.2568C116.508 25.3929 116.526 25.5361 116.562 25.6865C116.597 25.8298 116.637 25.9766 116.68 26.127C116.73 26.2702 116.78 26.4098 116.83 26.5459C116.88 26.682 116.923 26.8109 116.959 26.9326C117.202 27.8636 117.453 28.791 117.711 29.7148C117.969 30.6315 118.237 31.6198 118.517 32.6797C118.61 32.6797 118.696 32.6367 118.774 32.5508C118.839 32.4362 118.896 32.318 118.946 32.1963C119.004 32.0745 119.047 31.9564 119.075 31.8418C119.376 30.9896 119.702 30.1374 120.053 29.2852C120.404 28.4329 120.765 27.57 121.138 26.6963C121.295 26.3597 121.374 26.0231 121.374 25.6865C121.374 25.6077 121.37 25.529 121.363 25.4502C121.356 25.3643 121.335 25.2891 121.299 25.2246C121.27 25.153 121.224 25.0957 121.159 25.0527C121.095 25.0098 121.002 24.9883 120.88 24.9883H120.547C120.468 24.9883 120.382 24.9883 120.289 24.9883C120.203 24.9811 120.117 24.9775 120.031 24.9775C119.945 24.9704 119.87 24.9668 119.806 24.9668C119.748 24.9596 119.709 24.9525 119.688 24.9453C119.652 24.9238 119.634 24.8737 119.634 24.7949C119.634 24.7305 119.652 24.6768 119.688 24.6338C119.723 24.5837 119.781 24.5514 119.859 24.5371C119.895 24.5228 119.956 24.5156 120.042 24.5156H120.246C120.461 24.5156 120.658 24.5228 120.837 24.5371C121.016 24.5443 121.188 24.5586 121.353 24.5801C121.524 24.5944 121.689 24.6087 121.847 24.623C122.011 24.6302 122.183 24.6338 122.362 24.6338C122.67 24.6338 123.003 24.6195 123.361 24.5908C123.727 24.555 124.045 24.5371 124.317 24.5371C124.346 24.5371 124.385 24.5407 124.436 24.5479C124.493 24.5479 124.547 24.555 124.597 24.5693C124.647 24.5765 124.69 24.5908 124.726 24.6123C124.761 24.6338 124.779 24.666 124.779 24.709C124.779 24.7734 124.743 24.8271 124.672 24.8701C124.607 24.9059 124.529 24.9346 124.436 24.9561C124.35 24.9704 124.26 24.9811 124.167 24.9883C124.074 24.9954 124.006 24.999 123.963 24.999C123.848 25.0133 123.727 25.0312 123.598 25.0527C123.476 25.0742 123.354 25.1064 123.232 25.1494C123.111 25.1924 122.996 25.2533 122.889 25.332C122.781 25.4036 122.692 25.4967 122.62 25.6113C122.541 25.7259 122.455 25.8584 122.362 26.0088C122.269 26.1592 122.173 26.3203 122.072 26.4922C121.979 26.6569 121.886 26.8252 121.793 26.9971C121.707 27.1618 121.632 27.3158 121.567 27.459C121.209 28.2324 120.851 29.0202 120.493 29.8223C120.135 30.6243 119.766 31.4157 119.387 32.1963C119.208 32.5758 119.036 32.9411 118.871 33.292C118.714 33.6357 118.556 33.9795 118.398 34.3232C118.248 34.6598 118.094 35 117.937 35.3438C117.786 35.6947 117.625 36.0563 117.453 36.4287C117.432 36.4932 117.378 36.6077 117.292 36.7725C117.206 36.9372 117.109 37.109 117.002 37.2881C116.902 37.4743 116.801 37.6462 116.701 37.8037C116.608 37.9613 116.544 38.0615 116.508 38.1045C116.4 38.262 116.289 38.4124 116.175 38.5557C116.06 38.7061 115.931 38.835 115.788 38.9424C115.652 39.057 115.498 39.1465 115.326 39.2109C115.154 39.2754 114.961 39.3076 114.746 39.3076C114.603 39.3076 114.47 39.2682 114.349 39.1895C114.234 39.1107 114.134 39.0104 114.048 38.8887C113.962 38.7669 113.894 38.6344 113.844 38.4912C113.801 38.348 113.779 38.2119 113.779 38.083ZM130.15 23.4951C130.15 23.137 130.208 22.7754 130.322 22.4102C130.444 22.0449 130.605 21.7012 130.806 21.3789C131.006 21.0495 131.239 20.7523 131.504 20.4873C131.776 20.2152 132.062 19.9967 132.363 19.832C132.65 19.6673 132.94 19.5671 133.233 19.5312C133.534 19.4954 133.856 19.4775 134.2 19.4775C134.587 19.4775 134.966 19.5241 135.339 19.6172C135.711 19.7031 136.073 19.8392 136.424 20.0254C136.452 20.0469 136.506 20.0827 136.585 20.1328C136.664 20.1829 136.75 20.2438 136.843 20.3154C136.943 20.387 137.043 20.4622 137.144 20.541C137.244 20.6126 137.333 20.6807 137.412 20.7451C137.441 20.7738 137.466 20.7881 137.487 20.7881C137.494 20.7881 137.512 20.7738 137.541 20.7451C137.562 20.7165 137.588 20.6735 137.616 20.6162C137.652 20.5518 137.688 20.4873 137.724 20.4229C137.759 20.3512 137.792 20.2868 137.82 20.2295C137.856 20.165 137.881 20.1221 137.896 20.1006C137.91 20.0648 137.928 20.0326 137.949 20.0039C137.978 19.9753 137.996 19.9609 138.003 19.9609C138.003 19.9538 138.017 19.9502 138.046 19.9502C138.089 19.9502 138.121 19.9681 138.143 20.0039C138.164 20.0326 138.178 20.0684 138.186 20.1113C138.2 20.1543 138.207 20.2008 138.207 20.251C138.207 20.2939 138.207 20.3298 138.207 20.3584V20.4336C138.207 20.4479 138.203 20.4766 138.196 20.5195C138.196 20.5625 138.193 20.6126 138.186 20.6699C138.178 20.7201 138.171 20.7666 138.164 20.8096C138.164 20.8525 138.16 20.8812 138.153 20.8955V23.5488C138.153 23.6061 138.128 23.6455 138.078 23.667C138.028 23.6885 137.985 23.6992 137.949 23.6992C137.87 23.6992 137.824 23.6849 137.81 23.6562C137.795 23.6204 137.774 23.5596 137.745 23.4736C137.666 23.2874 137.613 23.0977 137.584 22.9043C137.562 22.7038 137.512 22.4997 137.434 22.292C137.355 22.0557 137.222 21.8014 137.036 21.5293C136.85 21.25 136.635 20.9922 136.392 20.7559C136.148 20.5195 135.894 20.3226 135.629 20.165C135.364 20.0075 135.11 19.9287 134.866 19.9287C134.415 19.9287 134.068 19.9609 133.824 20.0254C133.459 20.1328 133.151 20.3083 132.9 20.5518C132.657 20.7881 132.431 21.0566 132.224 21.3574C132.166 21.4434 132.113 21.5544 132.062 21.6904C132.012 21.8193 131.969 21.959 131.934 22.1094C131.905 22.2526 131.88 22.3923 131.858 22.5283C131.844 22.6644 131.837 22.7754 131.837 22.8613C131.837 23.2051 131.909 23.5166 132.052 23.7959C132.202 24.0752 132.396 24.3258 132.632 24.5479C132.868 24.7627 133.133 24.9561 133.427 25.1279C133.728 25.2926 134.028 25.4359 134.329 25.5576C134.587 25.665 134.852 25.7689 135.124 25.8691C135.403 25.9694 135.675 26.0732 135.94 26.1807C136.213 26.2881 136.47 26.4062 136.714 26.5352C136.965 26.6641 137.187 26.8109 137.38 26.9756C137.623 27.1689 137.863 27.4089 138.1 27.6953C138.336 27.9746 138.547 28.2826 138.733 28.6191C138.927 28.9486 139.081 29.2923 139.195 29.6504C139.31 30.0085 139.367 30.3594 139.367 30.7031C139.367 31.3691 139.249 31.9707 139.013 32.5078C138.784 33.0449 138.461 33.5033 138.046 33.8828C137.638 34.2552 137.154 34.5452 136.596 34.7529C136.037 34.9535 135.436 35.0537 134.791 35.0537C134.411 35.0537 134.043 35.0358 133.685 35C133.334 34.957 132.997 34.8854 132.675 34.7852C132.353 34.6849 132.048 34.5452 131.762 34.3662C131.475 34.1872 131.203 33.958 130.945 33.6787C130.917 33.6429 130.877 33.6214 130.827 33.6143C130.784 33.6071 130.748 33.6035 130.72 33.6035C130.598 33.6035 130.512 33.6357 130.462 33.7002C130.412 33.7646 130.369 33.8398 130.333 33.9258C130.304 34.0046 130.269 34.0762 130.226 34.1406C130.183 34.2051 130.107 34.2373 130 34.2373L130.279 31.2832C130.294 31.1901 130.304 31.0791 130.312 30.9502C130.319 30.8213 130.337 30.7354 130.365 30.6924C130.387 30.5921 130.426 30.542 130.483 30.542C130.569 30.542 130.63 30.5957 130.666 30.7031C130.709 30.8249 130.745 30.9466 130.773 31.0684C130.802 31.1829 130.827 31.2975 130.849 31.4121C130.87 31.5267 130.892 31.6341 130.913 31.7344C130.942 31.8346 130.978 31.9242 131.021 32.0029C131.185 32.2965 131.343 32.5579 131.493 32.7871C131.651 33.0163 131.823 33.2275 132.009 33.4209C132.202 33.6143 132.424 33.7897 132.675 33.9473C132.925 34.1048 133.23 34.2516 133.588 34.3877C133.81 34.4665 134.021 34.513 134.222 34.5273C134.422 34.5345 134.605 34.5381 134.77 34.5381C134.97 34.5381 135.171 34.5023 135.371 34.4307C135.572 34.3519 135.812 34.2337 136.091 34.0762C136.499 33.8327 136.825 33.5426 137.068 33.2061C137.312 32.8623 137.434 32.4326 137.434 31.917C137.434 31.5518 137.366 31.2116 137.229 30.8965C137.101 30.5814 136.922 30.2878 136.692 30.0156C136.363 29.6504 136.048 29.3675 135.747 29.167C135.446 28.9593 135.149 28.7946 134.855 28.6729C134.569 28.5511 134.283 28.4473 133.996 28.3613C133.71 28.2754 133.416 28.168 133.115 28.0391C132.822 27.9102 132.521 27.7383 132.213 27.5234C131.905 27.3086 131.583 27.0078 131.246 26.6211C130.516 25.7617 130.15 24.7197 130.15 23.4951ZM148.412 28.834C148.57 28.834 148.648 28.766 148.648 28.6299C148.648 28.5654 148.645 28.5153 148.638 28.4795C148.595 28.3434 148.534 28.1465 148.455 27.8887C148.376 27.6309 148.287 27.3337 148.187 26.9971C148.086 26.6605 147.975 26.3024 147.854 25.9229C147.739 25.5361 147.621 25.1494 147.499 24.7627C147.384 24.376 147.27 24.0036 147.155 23.6455C147.041 23.2803 146.94 22.9508 146.854 22.6572C146.84 22.6429 146.819 22.6178 146.79 22.582C146.769 22.5462 146.733 22.5283 146.683 22.5283C146.618 22.5283 146.568 22.5892 146.532 22.7109C146.468 22.89 146.378 23.1442 146.264 23.4736C146.156 23.8031 146.035 24.1683 145.898 24.5693C145.762 24.9704 145.619 25.3857 145.469 25.8154C145.326 26.2451 145.189 26.6462 145.061 27.0186C144.932 27.3838 144.821 27.7025 144.728 27.9746C144.634 28.2396 144.574 28.415 144.545 28.501C144.531 28.5225 144.523 28.5511 144.523 28.5869C144.523 28.7516 144.634 28.834 144.856 28.834H148.412ZM139.561 34.7207C139.561 34.599 139.625 34.5273 139.754 34.5059C139.876 34.4844 140.062 34.4521 140.312 34.4092C140.778 34.3089 141.165 34.1048 141.473 33.7969C141.781 33.4889 142.038 33.138 142.246 32.7441C142.454 32.3431 142.626 31.9277 142.762 31.498C142.905 31.0684 143.041 30.6816 143.17 30.3379L145.92 22.8076C145.984 22.6214 146.042 22.4925 146.092 22.4209C146.149 22.3421 146.196 22.2777 146.231 22.2275C146.267 22.1702 146.296 22.1058 146.317 22.0342C146.339 21.9626 146.35 21.8372 146.35 21.6582C146.35 21.5794 146.339 21.5078 146.317 21.4434C146.296 21.3789 146.271 21.3145 146.242 21.25C146.221 21.1784 146.199 21.1032 146.178 21.0244C146.156 20.9385 146.146 20.8346 146.146 20.7129C146.332 20.6914 146.507 20.6628 146.672 20.627C146.844 20.584 147.001 20.5124 147.145 20.4121C147.223 20.3548 147.291 20.2796 147.349 20.1865C147.406 20.0863 147.467 19.9896 147.531 19.8965C147.596 19.8034 147.671 19.7246 147.757 19.6602C147.843 19.5885 147.957 19.5527 148.101 19.5527C148.115 19.5527 148.129 19.5563 148.144 19.5635C148.158 19.5706 148.172 19.5921 148.187 19.6279C148.201 19.6637 148.244 19.8034 148.315 20.0469C148.394 20.2904 148.494 20.6162 148.616 21.0244C148.745 21.4255 148.888 21.891 149.046 22.4209C149.211 22.9508 149.382 23.5166 149.562 24.1182C149.748 24.7126 149.938 25.332 150.131 25.9766C150.331 26.6211 150.528 27.2585 150.722 27.8887C150.915 28.5117 151.098 29.1169 151.27 29.7041C151.449 30.2842 151.613 30.8141 151.764 31.2939C151.914 31.7738 152.043 32.1927 152.15 32.5508C152.258 32.9017 152.337 33.1595 152.387 33.3242C152.465 33.5605 152.591 33.7682 152.763 33.9473C152.935 34.1263 153.124 34.248 153.332 34.3125C153.54 34.3841 153.726 34.4235 153.891 34.4307C154.062 34.4378 154.206 34.445 154.32 34.4521C154.442 34.4593 154.535 34.4844 154.6 34.5273C154.664 34.5703 154.696 34.6598 154.696 34.7959C154.696 34.8389 154.682 34.8747 154.653 34.9033C154.625 34.9248 154.589 34.9427 154.546 34.957C154.503 34.9714 154.456 34.9821 154.406 34.9893C154.363 34.9893 154.327 34.9928 154.299 35H153.332C153.275 35 153.214 35 153.149 35C153.085 34.9928 152.985 34.9893 152.849 34.9893C152.72 34.9821 152.541 34.9785 152.312 34.9785C152.082 34.9714 151.778 34.9678 151.398 34.9678C150.997 34.9678 150.604 34.9749 150.217 34.9893C149.837 34.9964 149.451 35.0072 149.057 35.0215H148.509C148.451 35.0215 148.387 35.0179 148.315 35.0107C148.244 35.0107 148.176 35.0036 148.111 34.9893C148.047 34.9749 147.993 34.9499 147.95 34.9141C147.907 34.8783 147.886 34.8281 147.886 34.7637C147.886 34.7064 147.914 34.6598 147.972 34.624C148.029 34.5882 148.097 34.5596 148.176 34.5381C148.255 34.5166 148.337 34.5023 148.423 34.4951C148.509 34.4808 148.58 34.4701 148.638 34.4629C148.881 34.4271 149.118 34.3877 149.347 34.3447C149.576 34.2946 149.801 34.248 150.023 34.2051C150.188 34.1549 150.271 34.0654 150.271 33.9365C150.271 33.9222 150.271 33.9007 150.271 33.8721C150.271 33.8363 150.263 33.804 150.249 33.7754L149.078 29.9297C149.064 29.8724 149.024 29.8079 148.96 29.7363C148.903 29.6647 148.831 29.6289 148.745 29.6289H144.384C144.284 29.6289 144.215 29.6468 144.18 29.6826C144.144 29.7113 144.112 29.7435 144.083 29.7793L143.524 31.2832C143.431 31.5267 143.367 31.7487 143.331 31.9492C143.295 32.1426 143.277 32.3288 143.277 32.5078C143.277 32.7227 143.299 32.959 143.342 33.2168C143.378 33.4746 143.464 33.6751 143.6 33.8184C143.736 33.9616 143.893 34.069 144.072 34.1406C144.258 34.2122 144.455 34.2624 144.663 34.291C144.871 34.3125 145.061 34.334 145.232 34.3555C145.404 34.377 145.544 34.4092 145.651 34.4521C145.766 34.488 145.823 34.5596 145.823 34.667C145.823 34.7314 145.802 34.7995 145.759 34.8711C145.723 34.9427 145.633 34.9857 145.49 35H145.028C144.606 34.9857 144.194 34.9714 143.793 34.957C143.399 34.9355 142.987 34.9248 142.558 34.9248C142.085 34.9248 141.655 34.9391 141.269 34.9678C140.889 34.9893 140.506 35 140.119 35H139.979C139.7 35 139.561 34.9069 139.561 34.7207ZM155.008 27.459V27.3086C155.008 26.8861 155.047 26.4421 155.126 25.9766C155.212 25.5039 155.33 25.0348 155.48 24.5693C155.631 24.1038 155.813 23.6527 156.028 23.2158C156.243 22.779 156.487 22.3779 156.759 22.0127C157.06 21.6188 157.396 21.2679 157.769 20.96C158.148 20.6449 158.553 20.3763 158.982 20.1543C159.419 19.9323 159.881 19.764 160.368 19.6494C160.855 19.5277 161.36 19.4668 161.883 19.4668C162.32 19.4668 162.771 19.5098 163.236 19.5957C163.702 19.6745 164.132 19.7962 164.525 19.9609C164.848 20.1113 165.138 20.2939 165.396 20.5088C165.66 20.7165 165.94 20.9242 166.233 21.1318C166.262 21.1676 166.291 21.1891 166.319 21.1963C166.355 21.2035 166.387 21.207 166.416 21.207C166.48 21.207 166.538 21.1605 166.588 21.0674C166.667 20.9313 166.738 20.7594 166.803 20.5518C166.867 20.3369 166.939 20.1543 167.018 20.0039C167.046 19.9395 167.078 19.9036 167.114 19.8965C167.15 19.8822 167.189 19.875 167.232 19.875C167.283 19.875 167.318 19.8929 167.34 19.9287C167.368 19.9645 167.383 19.9896 167.383 20.0039C167.44 20.2546 167.472 20.5052 167.479 20.7559C167.494 21.0065 167.501 21.2679 167.501 21.54V22.1631C167.501 22.2562 167.501 22.3493 167.501 22.4424C167.501 22.5355 167.505 22.6322 167.512 22.7324C167.54 23.0046 167.576 23.2409 167.619 23.4414C167.662 23.6419 167.684 23.8353 167.684 24.0215C167.684 24.1289 167.666 24.2435 167.63 24.3652C167.601 24.4798 167.537 24.5371 167.437 24.5371C167.394 24.5371 167.333 24.4834 167.254 24.376C167.182 24.2686 167.107 24.1504 167.028 24.0215C166.95 23.8854 166.871 23.7529 166.792 23.624C166.72 23.4951 166.67 23.4092 166.642 23.3662C166.441 23.0798 166.248 22.8076 166.062 22.5498C165.882 22.292 165.696 22.0521 165.503 21.8301C165.317 21.6009 165.116 21.3932 164.901 21.207C164.694 21.0137 164.461 20.8418 164.203 20.6914C163.981 20.5553 163.77 20.4515 163.569 20.3799C163.369 20.3011 163.172 20.2438 162.979 20.208C162.792 20.1722 162.606 20.1507 162.42 20.1436C162.234 20.1364 162.044 20.1328 161.851 20.1328C161.55 20.1328 161.271 20.1758 161.013 20.2617C160.762 20.3405 160.526 20.4515 160.304 20.5947C160.082 20.738 159.874 20.9027 159.681 21.0889C159.494 21.2751 159.312 21.472 159.133 21.6797C158.617 22.2884 158.227 23.1012 157.962 24.1182C157.704 25.1279 157.575 26.3382 157.575 27.749C157.575 28.4508 157.636 29.0882 157.758 29.6611C157.887 30.2269 158.044 30.7318 158.23 31.1758C158.417 31.6126 158.621 31.9922 158.843 32.3145C159.072 32.6296 159.287 32.8874 159.487 33.0879C159.702 33.3171 159.906 33.5176 160.1 33.6895C160.3 33.8542 160.508 33.9902 160.723 34.0977C160.938 34.2051 161.17 34.2874 161.421 34.3447C161.672 34.3949 161.954 34.4199 162.27 34.4199C162.749 34.4199 163.218 34.3161 163.677 34.1084C164.135 33.9007 164.583 33.6286 165.02 33.292C165.113 33.2204 165.209 33.1344 165.31 33.0342C165.41 32.9339 165.507 32.8337 165.6 32.7334C165.7 32.6331 165.789 32.5365 165.868 32.4434C165.954 32.3431 166.026 32.2536 166.083 32.1748C166.312 31.8167 166.513 31.4694 166.685 31.1328C166.856 30.7962 167.014 30.4489 167.157 30.0908C167.229 29.9834 167.354 29.9297 167.533 29.9297C167.612 29.9297 167.666 29.9583 167.694 30.0156C167.723 30.0729 167.737 30.141 167.737 30.2197C167.623 30.6136 167.522 30.9717 167.437 31.2939C167.351 31.609 167.257 31.9456 167.157 32.3037C167.093 32.5615 167.046 32.8158 167.018 33.0664C166.989 33.3099 166.96 33.5283 166.932 33.7217C166.903 33.9079 166.871 34.0583 166.835 34.1729C166.799 34.2874 166.742 34.3447 166.663 34.3447C166.606 34.3447 166.559 34.3232 166.523 34.2803C166.488 34.2373 166.452 34.1693 166.416 34.0762C166.402 34.0046 166.377 33.9437 166.341 33.8936C166.312 33.8363 166.258 33.8076 166.18 33.8076C166.101 33.8076 166.026 33.8219 165.954 33.8506C165.89 33.8792 165.807 33.9258 165.707 33.9902C165.607 34.0475 165.481 34.1191 165.331 34.2051C165.181 34.2839 164.98 34.377 164.729 34.4844C164.271 34.6706 163.781 34.821 163.258 34.9355C162.735 35.043 162.216 35.0967 161.7 35.0967C160.948 35.0967 160.261 35 159.638 34.8066C159.015 34.6061 158.424 34.2695 157.865 33.7969C157.421 33.4173 157.024 32.984 156.673 32.4971C156.322 32.0029 156.021 31.4801 155.771 30.9287C155.527 30.3773 155.337 29.8079 155.201 29.2207C155.072 28.6263 155.008 28.0391 155.008 27.459ZM171.916 33.9365V21.8945C171.916 21.6654 171.902 21.4362 171.873 21.207C171.852 20.9707 171.816 20.7559 171.766 20.5625C171.723 20.4336 171.637 20.3369 171.508 20.2725C171.379 20.208 171.229 20.1615 171.057 20.1328C170.892 20.1042 170.716 20.0863 170.53 20.0791C170.351 20.0719 170.183 20.0576 170.025 20.0361C169.875 20.0146 169.75 19.9824 169.649 19.9395C169.549 19.8893 169.499 19.8105 169.499 19.7031C169.499 19.6602 169.513 19.61 169.542 19.5527C169.578 19.4954 169.639 19.4668 169.725 19.4668H170.111C170.434 19.4668 170.709 19.474 170.938 19.4883C171.168 19.4954 171.382 19.5062 171.583 19.5205C171.784 19.5277 171.984 19.5348 172.185 19.542C172.385 19.5492 172.618 19.5527 172.883 19.5527C173.069 19.5527 173.248 19.5492 173.42 19.542C173.592 19.5348 173.764 19.5312 173.936 19.5312C174.115 19.5241 174.297 19.5169 174.483 19.5098C174.67 19.5026 174.874 19.499 175.096 19.499H175.794C175.873 19.499 175.941 19.5062 175.998 19.5205C176.062 19.5348 176.095 19.5885 176.095 19.6816C176.095 19.7962 176.045 19.8786 175.944 19.9287C175.844 19.9788 175.719 20.0146 175.568 20.0361C175.425 20.0505 175.264 20.0648 175.085 20.0791C174.913 20.0863 174.752 20.1077 174.602 20.1436C174.458 20.1722 174.337 20.2259 174.236 20.3047C174.136 20.3763 174.086 20.4873 174.086 20.6377V27.1582C174.143 27.1582 174.211 27.1403 174.29 27.1045C174.369 27.0615 174.448 27.0078 174.526 26.9434C174.605 26.8789 174.68 26.8073 174.752 26.7285C174.831 26.6497 174.899 26.571 174.956 26.4922C175.056 26.349 175.146 26.2201 175.225 26.1055C175.303 25.9837 175.379 25.8727 175.45 25.7725C175.529 25.665 175.601 25.5648 175.665 25.4717C175.737 25.3714 175.812 25.2712 175.891 25.1709C176.327 24.5908 176.761 24.0358 177.19 23.5059C177.627 22.9759 178.078 22.4352 178.544 21.8838C178.687 21.6976 178.802 21.5114 178.888 21.3252C178.981 21.1318 179.027 20.9313 179.027 20.7236C179.027 20.6162 178.977 20.5052 178.877 20.3906C178.777 20.2689 178.662 20.1901 178.533 20.1543C178.447 20.1257 178.343 20.1042 178.222 20.0898C178.107 20.0684 177.985 20.0505 177.856 20.0361C177.728 20.0218 177.599 20.0075 177.47 19.9932C177.348 19.9717 177.237 19.943 177.137 19.9072C177.079 19.8929 177.036 19.8643 177.008 19.8213C176.979 19.7783 176.965 19.7282 176.965 19.6709C176.965 19.6423 176.968 19.6208 176.976 19.6064C176.99 19.5921 177.004 19.5742 177.019 19.5527C177.04 19.5384 177.072 19.5277 177.115 19.5205C177.165 19.5133 177.215 19.5098 177.266 19.5098C177.316 19.5026 177.362 19.499 177.405 19.499C177.448 19.499 177.477 19.499 177.491 19.499C177.756 19.499 177.993 19.5062 178.2 19.5205C178.415 19.5277 178.619 19.542 178.812 19.5635C179.006 19.5778 179.192 19.5921 179.371 19.6064C179.55 19.6136 179.74 19.6172 179.94 19.6172C180.284 19.6172 180.628 19.5993 180.972 19.5635C181.315 19.5205 181.605 19.499 181.842 19.499H182.615C182.794 19.499 182.93 19.5312 183.023 19.5957C183.088 19.6315 183.12 19.6673 183.12 19.7031C183.12 19.7246 183.106 19.7425 183.077 19.7568C182.791 19.8714 182.493 19.9717 182.186 20.0576C181.885 20.1436 181.588 20.2474 181.294 20.3691C181.208 20.4049 181.115 20.4515 181.015 20.5088C180.922 20.5661 180.825 20.6305 180.725 20.7021C180.624 20.7666 180.531 20.8346 180.445 20.9062C180.359 20.9707 180.284 21.0352 180.22 21.0996C179.976 21.3359 179.776 21.5293 179.618 21.6797C179.461 21.8301 179.325 21.9626 179.21 22.0771C179.103 22.1917 179.002 22.2956 178.909 22.3887C178.823 22.4818 178.727 22.5856 178.619 22.7002C178.447 22.8936 178.279 23.0833 178.114 23.2695C177.957 23.4486 177.792 23.6348 177.62 23.8281C177.455 24.0215 177.284 24.2256 177.104 24.4404C176.925 24.6481 176.732 24.8737 176.524 25.1172C176.424 25.2174 176.331 25.3141 176.245 25.4072C176.166 25.4932 176.127 25.5934 176.127 25.708C176.127 25.7367 176.163 25.8047 176.234 25.9121C176.313 26.0124 176.41 26.1377 176.524 26.2881C176.639 26.4313 176.764 26.5889 176.9 26.7607C177.044 26.9255 177.18 27.0866 177.309 27.2441C177.438 27.4017 177.552 27.5449 177.652 27.6738C177.76 27.8027 177.835 27.8958 177.878 27.9531C178.272 28.3828 178.644 28.8197 178.995 29.2637C179.346 29.7005 179.718 30.1553 180.112 30.6279C180.227 30.764 180.381 30.943 180.574 31.165C180.768 31.387 180.979 31.6305 181.208 31.8955C181.437 32.1533 181.677 32.4147 181.928 32.6797C182.186 32.9447 182.433 33.1953 182.669 33.4316C182.912 33.6608 183.138 33.8577 183.346 34.0225C183.561 34.1872 183.74 34.2946 183.883 34.3447C183.954 34.3805 184.087 34.4235 184.28 34.4736C184.481 34.5166 184.685 34.5667 184.893 34.624C185.1 34.6813 185.283 34.7422 185.44 34.8066C185.605 34.8639 185.688 34.9212 185.688 34.9785C185.688 35.0286 185.666 35.068 185.623 35.0967C185.58 35.1253 185.526 35.1468 185.462 35.1611C185.405 35.1826 185.337 35.1934 185.258 35.1934C185.186 35.2005 185.118 35.2041 185.054 35.2041H184.807C184.663 35.2041 184.527 35.1969 184.398 35.1826C184.277 35.1683 184.151 35.1504 184.022 35.1289C183.894 35.1074 183.75 35.0895 183.593 35.0752C183.442 35.0609 183.271 35.0537 183.077 35.0537H181.015C180.95 35.0537 180.882 35.0251 180.811 34.9678C180.524 34.6025 180.234 34.2516 179.94 33.915C179.647 33.5713 179.346 33.2275 179.038 32.8838C178.73 32.5329 178.419 32.1784 178.104 31.8203C177.788 31.4551 177.466 31.0719 177.137 30.6709C176.757 30.1982 176.442 29.8044 176.191 29.4893C175.941 29.1742 175.712 28.8984 175.504 28.6621C175.303 28.4258 175.106 28.2109 174.913 28.0176C174.72 27.8242 174.494 27.6165 174.236 27.3945C174.222 27.3874 174.208 27.3802 174.193 27.373C174.179 27.3659 174.158 27.3623 174.129 27.3623C174.1 27.3623 174.086 27.3874 174.086 27.4375V33.6572C174.086 33.8506 174.161 34.0081 174.312 34.1299C174.469 34.2516 174.652 34.3483 174.859 34.4199C175.074 34.4844 175.285 34.5309 175.493 34.5596C175.708 34.5811 175.873 34.5918 175.987 34.5918C176.095 34.5918 176.174 34.6133 176.224 34.6562C176.274 34.6992 176.299 34.7529 176.299 34.8174C176.299 34.9391 176.249 35.0107 176.148 35.0322C176.048 35.0609 175.926 35.0752 175.783 35.0752C175.461 35.0752 175.178 35.068 174.935 35.0537C174.691 35.0465 174.465 35.0358 174.258 35.0215C174.057 35.0072 173.857 34.9964 173.656 34.9893C173.463 34.9749 173.255 34.9678 173.033 34.9678C172.775 34.9678 172.507 34.9714 172.228 34.9785C171.948 34.9785 171.676 34.9821 171.411 34.9893C171.146 34.9893 170.892 34.9928 170.648 35C170.412 35 170.201 35 170.015 35C169.807 35 169.703 34.9212 169.703 34.7637C169.703 34.7135 169.707 34.6562 169.714 34.5918C169.728 34.5273 169.768 34.4915 169.832 34.4844C169.947 34.4701 170.072 34.4593 170.208 34.4521C170.344 34.445 170.473 34.4414 170.595 34.4414H170.831C170.981 34.4414 171.139 34.4342 171.304 34.4199C171.476 34.3984 171.612 34.3626 171.712 34.3125C171.848 34.2337 171.916 34.1084 171.916 33.9365ZM185.988 23.4951C185.988 23.137 186.046 22.7754 186.16 22.4102C186.282 22.0449 186.443 21.7012 186.644 21.3789C186.844 21.0495 187.077 20.7523 187.342 20.4873C187.614 20.2152 187.9 19.9967 188.201 19.832C188.488 19.6673 188.778 19.5671 189.071 19.5312C189.372 19.4954 189.694 19.4775 190.038 19.4775C190.425 19.4775 190.804 19.5241 191.177 19.6172C191.549 19.7031 191.911 19.8392 192.262 20.0254C192.29 20.0469 192.344 20.0827 192.423 20.1328C192.502 20.1829 192.588 20.2438 192.681 20.3154C192.781 20.387 192.881 20.4622 192.981 20.541C193.082 20.6126 193.171 20.6807 193.25 20.7451C193.279 20.7738 193.304 20.7881 193.325 20.7881C193.332 20.7881 193.35 20.7738 193.379 20.7451C193.4 20.7165 193.425 20.6735 193.454 20.6162C193.49 20.5518 193.526 20.4873 193.562 20.4229C193.597 20.3512 193.63 20.2868 193.658 20.2295C193.694 20.165 193.719 20.1221 193.733 20.1006C193.748 20.0648 193.766 20.0326 193.787 20.0039C193.816 19.9753 193.834 19.9609 193.841 19.9609C193.841 19.9538 193.855 19.9502 193.884 19.9502C193.927 19.9502 193.959 19.9681 193.98 20.0039C194.002 20.0326 194.016 20.0684 194.023 20.1113C194.038 20.1543 194.045 20.2008 194.045 20.251C194.045 20.2939 194.045 20.3298 194.045 20.3584V20.4336C194.045 20.4479 194.041 20.4766 194.034 20.5195C194.034 20.5625 194.031 20.6126 194.023 20.6699C194.016 20.7201 194.009 20.7666 194.002 20.8096C194.002 20.8525 193.998 20.8812 193.991 20.8955V23.5488C193.991 23.6061 193.966 23.6455 193.916 23.667C193.866 23.6885 193.823 23.6992 193.787 23.6992C193.708 23.6992 193.662 23.6849 193.647 23.6562C193.633 23.6204 193.612 23.5596 193.583 23.4736C193.504 23.2874 193.451 23.0977 193.422 22.9043C193.4 22.7038 193.35 22.4997 193.271 22.292C193.193 22.0557 193.06 21.8014 192.874 21.5293C192.688 21.25 192.473 20.9922 192.229 20.7559C191.986 20.5195 191.732 20.3226 191.467 20.165C191.202 20.0075 190.948 19.9287 190.704 19.9287C190.253 19.9287 189.906 19.9609 189.662 20.0254C189.297 20.1328 188.989 20.3083 188.738 20.5518C188.495 20.7881 188.269 21.0566 188.062 21.3574C188.004 21.4434 187.951 21.5544 187.9 21.6904C187.85 21.8193 187.807 21.959 187.771 22.1094C187.743 22.2526 187.718 22.3923 187.696 22.5283C187.682 22.6644 187.675 22.7754 187.675 22.8613C187.675 23.2051 187.746 23.5166 187.89 23.7959C188.04 24.0752 188.233 24.3258 188.47 24.5479C188.706 24.7627 188.971 24.9561 189.265 25.1279C189.565 25.2926 189.866 25.4359 190.167 25.5576C190.425 25.665 190.69 25.7689 190.962 25.8691C191.241 25.9694 191.513 26.0732 191.778 26.1807C192.05 26.2881 192.308 26.4062 192.552 26.5352C192.802 26.6641 193.024 26.8109 193.218 26.9756C193.461 27.1689 193.701 27.4089 193.938 27.6953C194.174 27.9746 194.385 28.2826 194.571 28.6191C194.765 28.9486 194.919 29.2923 195.033 29.6504C195.148 30.0085 195.205 30.3594 195.205 30.7031C195.205 31.3691 195.087 31.9707 194.851 32.5078C194.621 33.0449 194.299 33.5033 193.884 33.8828C193.476 34.2552 192.992 34.5452 192.434 34.7529C191.875 34.9535 191.273 35.0537 190.629 35.0537C190.249 35.0537 189.881 35.0358 189.522 35C189.172 34.957 188.835 34.8854 188.513 34.7852C188.19 34.6849 187.886 34.5452 187.6 34.3662C187.313 34.1872 187.041 33.958 186.783 33.6787C186.755 33.6429 186.715 33.6214 186.665 33.6143C186.622 33.6071 186.586 33.6035 186.558 33.6035C186.436 33.6035 186.35 33.6357 186.3 33.7002C186.25 33.7646 186.207 33.8398 186.171 33.9258C186.142 34.0046 186.106 34.0762 186.063 34.1406C186.021 34.2051 185.945 34.2373 185.838 34.2373L186.117 31.2832C186.132 31.1901 186.142 31.0791 186.149 30.9502C186.157 30.8213 186.174 30.7354 186.203 30.6924C186.225 30.5921 186.264 30.542 186.321 30.542C186.407 30.542 186.468 30.5957 186.504 30.7031C186.547 30.8249 186.583 30.9466 186.611 31.0684C186.64 31.1829 186.665 31.2975 186.687 31.4121C186.708 31.5267 186.729 31.6341 186.751 31.7344C186.78 31.8346 186.815 31.9242 186.858 32.0029C187.023 32.2965 187.181 32.5579 187.331 32.7871C187.489 33.0163 187.66 33.2275 187.847 33.4209C188.04 33.6143 188.262 33.7897 188.513 33.9473C188.763 34.1048 189.068 34.2516 189.426 34.3877C189.648 34.4665 189.859 34.513 190.06 34.5273C190.26 34.5345 190.443 34.5381 190.607 34.5381C190.808 34.5381 191.008 34.5023 191.209 34.4307C191.41 34.3519 191.649 34.2337 191.929 34.0762C192.337 33.8327 192.663 33.5426 192.906 33.2061C193.15 32.8623 193.271 32.4326 193.271 31.917C193.271 31.5518 193.203 31.2116 193.067 30.8965C192.938 30.5814 192.759 30.2878 192.53 30.0156C192.201 29.6504 191.886 29.3675 191.585 29.167C191.284 28.9593 190.987 28.7946 190.693 28.6729C190.407 28.5511 190.12 28.4473 189.834 28.3613C189.548 28.2754 189.254 28.168 188.953 28.0391C188.66 27.9102 188.359 27.7383 188.051 27.5234C187.743 27.3086 187.421 27.0078 187.084 26.6211C186.354 25.7617 185.988 24.7197 185.988 23.4951Z" fill="white"/>
</svg>
