<svg width="122" height="17" viewBox="0 0 122 17" fill="none" xmlns="http://www.w3.org/2000/svg">
<g clip-path="url(#clip0_3_269)">
<path d="M12.1064 3.02344L11.5801 2.47559C11.401 2.31803 11.2327 2.18913 11.0752 2.08887C10.9248 1.98861 10.7744 1.90983 10.624 1.85254C10.4736 1.78809 10.3197 1.74512 10.1621 1.72363C10.0117 1.70215 9.84342 1.69141 9.65723 1.69141C9.59277 1.69141 9.55339 1.69857 9.53906 1.71289C9.3457 1.71289 9.19173 1.71289 9.07715 1.71289C8.96973 1.71289 8.88737 1.71289 8.83008 1.71289C8.77279 1.71289 8.7334 1.71647 8.71191 1.72363C8.69759 1.72363 8.69043 1.72363 8.69043 1.72363H7.86328C7.74154 1.75944 7.61621 1.78092 7.4873 1.78809C7.3584 1.79525 7.23307 1.79883 7.11133 1.79883C6.83919 1.79883 6.63151 1.80241 6.48828 1.80957C6.35221 1.81673 6.24121 1.84538 6.15527 1.89551C6.0765 1.92415 6.02995 1.96354 6.01562 2.01367C6.0013 2.05664 5.99414 2.09603 5.99414 2.13184C5.99414 2.28223 5.97266 2.39323 5.92969 2.46484C5.89388 2.5293 5.8151 2.60091 5.69336 2.67969C5.67188 2.69401 5.65397 2.72982 5.63965 2.78711C5.63249 2.8444 5.62174 2.90885 5.60742 2.98047C5.60026 3.05208 5.5931 3.1237 5.58594 3.19531C5.58594 3.26693 5.58594 3.32422 5.58594 3.36719C5.58594 3.5319 5.611 3.68945 5.66113 3.83984C5.71126 3.99023 5.73633 4.15853 5.73633 4.34473L5.63965 5.02148C5.63965 5.1862 5.67546 5.35091 5.74707 5.51562C5.82585 5.68034 5.86523 5.85938 5.86523 6.05273L5.69336 7.65332C5.69336 7.71777 5.72201 7.79297 5.7793 7.87891C5.83659 7.95768 5.88314 8.01855 5.91895 8.06152C6.14095 8.09017 6.36654 8.13314 6.5957 8.19043C6.82487 8.24056 7.05046 8.26562 7.27246 8.26562C7.32259 8.26562 7.36556 8.26204 7.40137 8.25488C7.44434 8.24056 7.48372 8.19401 7.51953 8.11523C7.59831 8.10807 7.69141 8.10091 7.79883 8.09375C7.91341 8.08659 8.04232 8.08301 8.18555 8.08301C8.37891 8.08301 8.58659 8.08301 8.80859 8.08301C9.0306 8.07585 9.24902 8.0651 9.46387 8.05078C9.67871 8.0293 9.87565 8.00065 10.0547 7.96484C10.2337 7.92188 10.3734 7.861 10.4736 7.78223C10.5739 7.71777 10.6491 7.62467 10.6992 7.50293C10.7565 7.38118 10.7995 7.25228 10.8281 7.11621C10.8568 6.97298 10.8818 6.82975 10.9033 6.68652C10.9248 6.54329 10.9535 6.41439 10.9893 6.2998C11.0322 6.17806 11.0895 6.08138 11.1611 6.00977C11.2399 5.93099 11.3509 5.8916 11.4941 5.8916C11.5371 5.8916 11.5765 5.89876 11.6123 5.91309C11.6553 5.92741 11.6947 5.97396 11.7305 6.05273V6.50391C11.7305 6.84766 11.6947 7.17708 11.623 7.49219C11.5872 7.74284 11.5514 7.97201 11.5156 8.17969C11.487 8.38021 11.4727 8.58431 11.4727 8.79199C11.4727 8.97103 11.4977 9.14648 11.5479 9.31836C11.6051 9.48307 11.6624 9.64779 11.7197 9.8125C11.7842 9.97005 11.8415 10.1312 11.8916 10.2959C11.9489 10.4606 11.9775 10.6289 11.9775 10.8008C11.9775 10.9082 11.974 10.9906 11.9668 11.0479C11.9668 11.098 11.9525 11.1302 11.9238 11.1445C11.888 11.2018 11.863 11.2448 11.8486 11.2734C11.8343 11.3021 11.7949 11.3164 11.7305 11.3164C11.623 11.3164 11.5407 11.277 11.4834 11.1982C11.4333 11.1195 11.3688 11.0407 11.29 10.9619L11.1396 10.6289C11.0609 10.457 10.9857 10.2923 10.9141 10.1348C10.8424 9.97721 10.7565 9.8304 10.6562 9.69434C10.5632 9.55111 10.4521 9.41862 10.3232 9.29688C10.2015 9.16797 10.0511 9.05339 9.87207 8.95312H9.38867C9.13802 8.95312 8.88021 8.94954 8.61523 8.94238C8.35026 8.92806 8.12109 8.90299 7.92773 8.86719L7.27246 8.74902C7.08626 8.74902 6.88216 8.78125 6.66016 8.8457C6.44531 8.91016 6.24121 8.94596 6.04785 8.95312C5.9834 9.0319 5.9082 9.13216 5.82227 9.25391C5.73633 9.36849 5.69336 9.49382 5.69336 9.62988C5.80794 10.1598 5.90462 10.6826 5.9834 11.1982C6.06217 11.7067 6.10156 12.2188 6.10156 12.7344C6.10156 12.9779 6.0944 13.1426 6.08008 13.2285C6.07292 13.3073 6.06217 13.3717 6.04785 13.4219C6.10514 13.5938 6.18392 13.7477 6.28418 13.8838C6.3916 14.0127 6.51335 14.1309 6.64941 14.2383C6.78548 14.3385 6.92871 14.4316 7.0791 14.5176C7.22949 14.6035 7.3763 14.6823 7.51953 14.7539C7.52669 14.7539 7.54818 14.7754 7.58398 14.8184C7.62695 14.8613 7.64844 14.89 7.64844 14.9043C7.67708 14.9186 7.74154 14.9329 7.8418 14.9473C7.94206 14.9544 8.00651 14.958 8.03516 14.958C8.09245 14.958 8.139 14.958 8.1748 14.958C8.21777 14.958 8.26432 14.9508 8.31445 14.9365C8.37174 14.9294 8.41829 14.9258 8.4541 14.9258C8.49707 14.9258 8.54362 14.9258 8.59375 14.9258C8.64388 14.9258 8.69759 14.9258 8.75488 14.9258C8.81217 14.9258 8.8623 14.9294 8.90527 14.9365C8.9554 14.9508 9.00195 14.958 9.04492 14.958C9.09505 14.958 9.1416 14.958 9.18457 14.958C9.22038 14.9938 9.26335 15.0296 9.31348 15.0654C9.37077 15.1012 9.4209 15.1442 9.46387 15.1943C9.514 15.2445 9.55339 15.2982 9.58203 15.3555C9.61784 15.4128 9.63574 15.4772 9.63574 15.5488C9.63574 15.6276 9.61784 15.71 9.58203 15.7959C9.54622 15.8747 9.49609 15.9499 9.43164 16.0215C9.37435 16.1003 9.3099 16.1611 9.23828 16.2041C9.16667 16.2542 9.09505 16.2793 9.02344 16.2793H9.00195C8.92318 16.2936 8.83366 16.3008 8.7334 16.3008C8.6403 16.3079 8.55794 16.3115 8.48633 16.3115C8.38607 16.3115 8.28939 16.3079 8.19629 16.3008C8.11035 16.3008 7.99577 16.2936 7.85254 16.2793L7.64844 16.2256C7.52669 16.1611 7.39062 16.1038 7.24023 16.0537C7.08984 16.0036 6.93229 15.9606 6.76758 15.9248C6.61003 15.889 6.44889 15.8639 6.28418 15.8496C6.12663 15.8281 5.97982 15.8174 5.84375 15.8174C5.69336 15.8174 5.56445 15.8245 5.45703 15.8389C5.34961 15.846 5.20638 15.8747 5.02734 15.9248C4.86263 15.9535 4.69076 15.9749 4.51172 15.9893C4.33984 15.9964 4.17155 16 4.00684 16C3.82064 16 3.64518 15.9964 3.48047 15.9893C3.32292 15.9749 3.15104 15.9535 2.96484 15.9248C2.87891 15.9535 2.79655 16 2.71777 16.0645C2.64616 16.1289 2.54948 16.1755 2.42773 16.2041C2.3776 16.1898 2.33105 16.1755 2.28809 16.1611C2.25228 16.154 2.20931 16.1504 2.15918 16.1504C2.12337 16.1647 2.06966 16.1719 1.99805 16.1719H1.58984C1.42513 16.1146 1.28906 16.0573 1.18164 16C1.08138 15.9427 1.00618 15.8317 0.956055 15.667C0.956055 15.4378 1.07422 15.2445 1.31055 15.0869C1.48242 15.0726 1.70443 15.026 1.97656 14.9473C2.25586 14.8685 2.52441 14.7646 2.78223 14.6357C3.04004 14.5068 3.26204 14.3529 3.44824 14.1738C3.6416 13.9948 3.73828 13.7979 3.73828 13.583C3.73828 13.2035 3.72754 12.8776 3.70605 12.6055C3.69173 12.3262 3.67025 12.0576 3.6416 11.7998C3.62012 11.542 3.59863 11.2734 3.57715 10.9941C3.56283 10.7077 3.55566 10.3639 3.55566 9.96289C3.55566 9.84115 3.56641 9.72298 3.58789 9.6084C3.61654 9.48665 3.6416 9.36849 3.66309 9.25391C3.69173 9.13216 3.7168 9.014 3.73828 8.89941C3.76693 8.77767 3.78125 8.65592 3.78125 8.53418C3.78125 8.5127 3.77767 8.48405 3.77051 8.44824C3.77051 8.41243 3.77051 8.37663 3.77051 8.34082C3.77051 8.29785 3.76693 8.26204 3.75977 8.2334C3.75977 8.19759 3.75977 8.17969 3.75977 8.17969L3.63086 7.70703V6.87988C3.63086 6.75814 3.61654 6.63639 3.58789 6.51465C3.55924 6.3929 3.52702 6.27116 3.49121 6.14941C3.46257 6.02767 3.43392 5.90951 3.40527 5.79492C3.38379 5.67318 3.37305 5.55501 3.37305 5.44043C3.37305 5.41178 3.37663 5.36523 3.38379 5.30078C3.39811 5.22917 3.41243 5.17904 3.42676 5.15039C3.4554 5.00716 3.47689 4.86393 3.49121 4.7207C3.5127 4.57031 3.52344 4.41992 3.52344 4.26953C3.52344 4.1263 3.51628 3.98665 3.50195 3.85059C3.48763 3.70736 3.46257 3.56413 3.42676 3.4209C3.42676 3.29199 3.39453 3.16667 3.33008 3.04492C3.27279 2.91602 3.19401 2.79427 3.09375 2.67969C3.00065 2.5651 2.89681 2.46484 2.78223 2.37891C2.66764 2.28581 2.56022 2.21777 2.45996 2.1748C2.33105 2.12467 2.1556 2.09245 1.93359 2.07812C1.71159 2.0638 1.48958 2.03874 1.26758 2.00293C1.04557 1.95996 0.852214 1.89193 0.6875 1.79883C0.529948 1.69857 0.451172 1.53743 0.451172 1.31543V1.1543C0.565755 1.08984 0.705404 1.02539 0.870117 0.960938C1.04199 0.889323 1.1888 0.853516 1.31055 0.853516H1.56836C1.66862 0.853516 1.7653 0.864258 1.8584 0.885742C1.95866 0.907227 2.04102 0.957357 2.10547 1.03613C2.22721 1.05762 2.34896 1.07552 2.4707 1.08984C2.59245 1.10417 2.71419 1.11133 2.83594 1.11133C2.94336 1.11133 3.06152 1.10417 3.19043 1.08984C3.31934 1.07552 3.44824 1.05762 3.57715 1.03613C3.61296 0.978841 3.63802 0.946615 3.65234 0.939453C3.67383 0.932292 3.70964 0.928711 3.75977 0.928711C3.91016 0.928711 4.05697 0.957357 4.2002 1.01465C4.34342 1.07194 4.50814 1.10059 4.69434 1.10059H4.93066C5.00944 1.10059 5.0918 1.10059 5.17773 1.10059C5.26367 1.09342 5.35677 1.07194 5.45703 1.03613C5.71484 1.0791 5.99772 1.10059 6.30566 1.10059C6.59212 1.10059 6.88216 1.0791 7.17578 1.03613C7.44076 0.943034 7.72005 0.896484 8.01367 0.896484C8.31445 0.896484 8.62598 0.882161 8.94824 0.853516C9.11296 0.839193 9.26693 0.828451 9.41016 0.821289C9.56055 0.806966 9.71094 0.799805 9.86133 0.799805C9.96875 0.799805 10.0798 0.806966 10.1943 0.821289C10.3089 0.828451 10.4271 0.839193 10.5488 0.853516C10.5775 0.867839 10.6133 0.892904 10.6562 0.928711C10.7064 0.957357 10.7529 0.989583 10.7959 1.02539C10.846 1.0612 10.8926 1.09342 10.9355 1.12207C10.9785 1.14355 11.0107 1.1543 11.0322 1.1543C11.0967 1.1543 11.1504 1.14355 11.1934 1.12207C11.2435 1.10059 11.3044 1.07194 11.376 1.03613C11.4906 1.00749 11.6087 0.989583 11.7305 0.982422C11.8522 0.968099 11.9775 0.960938 12.1064 0.960938C12.3285 0.960938 12.5505 0.986003 12.7725 1.03613C12.7868 1.03613 12.819 1.0612 12.8691 1.11133C12.9264 1.1543 12.9837 1.20443 13.041 1.26172C13.1055 1.31185 13.1628 1.36198 13.2129 1.41211C13.263 1.45508 13.2917 1.48014 13.2988 1.4873V3.02344C13.4421 3.37435 13.5137 3.72884 13.5137 4.08691C13.5137 4.17285 13.5101 4.26237 13.5029 4.35547C13.5029 4.44141 13.4886 4.52376 13.46 4.60254C13.4385 4.68132 13.3991 4.74577 13.3418 4.7959C13.2845 4.84603 13.2057 4.87109 13.1055 4.87109C13.0625 4.82096 13.0124 4.76009 12.9551 4.68848C12.8978 4.61686 12.8369 4.54525 12.7725 4.47363C12.7152 4.39486 12.6579 4.31966 12.6006 4.24805C12.5505 4.17643 12.5075 4.11198 12.4717 4.05469C12.4717 4.04036 12.4574 4.00098 12.4287 3.93652C12.4001 3.86491 12.3678 3.79329 12.332 3.72168C12.2962 3.6429 12.2604 3.57129 12.2246 3.50684C12.196 3.43522 12.1745 3.38867 12.1602 3.36719C12.1458 3.35286 12.1315 3.29557 12.1172 3.19531C12.11 3.09505 12.1064 3.03776 12.1064 3.02344ZM15.3613 13.6797C15.3613 13.6296 15.3542 13.5651 15.3398 13.4863C15.3255 13.4076 15.3148 13.3538 15.3076 13.3252C15.2933 13.3037 15.2575 13.2715 15.2002 13.2285C15.1429 13.1784 15.1107 13.1497 15.1035 13.1426C15.0677 13.0853 15.0391 13.0173 15.0176 12.9385C15.0033 12.8597 14.9889 12.7917 14.9746 12.7344C14.9603 12.6842 14.9352 12.6126 14.8994 12.5195C14.8708 12.4193 14.8493 12.3584 14.835 12.3369C14.835 12.3226 14.8171 12.2904 14.7812 12.2402C14.7454 12.1829 14.7204 12.1471 14.7061 12.1328L14.6523 12.0254C14.6523 12.0039 14.6595 11.9574 14.6738 11.8857C14.6953 11.8141 14.7061 11.7747 14.7061 11.7676C14.7061 11.7318 14.7096 11.6602 14.7168 11.5527C14.724 11.4453 14.7275 11.3307 14.7275 11.209C14.7275 11.0872 14.724 10.9762 14.7168 10.876C14.7096 10.7686 14.7061 10.6934 14.7061 10.6504L14.7812 10.4463C14.7812 10.4391 14.7812 10.4141 14.7812 10.3711C14.7884 10.321 14.7956 10.2708 14.8027 10.2207C14.8099 10.1634 14.8171 10.1133 14.8242 10.0703C14.8314 10.0202 14.835 9.98796 14.835 9.97363C14.8493 9.94499 14.8887 9.89128 14.9531 9.8125C15.0176 9.73372 15.0677 9.67643 15.1035 9.64062C15.1035 9.63346 15.0928 9.6084 15.0713 9.56543C15.0498 9.5153 15.0391 9.47949 15.0391 9.45801C15.0319 9.45801 15.0283 9.45443 15.0283 9.44727V9.42578L15.0391 9.38281C15.0964 9.28255 15.1644 9.17155 15.2432 9.0498C15.3219 8.9209 15.4115 8.81706 15.5117 8.73828C15.5905 8.66667 15.6657 8.60579 15.7373 8.55566C15.8161 8.49837 15.8877 8.42676 15.9521 8.34082C16.0166 8.26204 16.0703 8.17253 16.1133 8.07227C16.1634 7.96484 16.2207 7.86458 16.2852 7.77148C16.2852 7.75716 16.2923 7.74284 16.3066 7.72852C16.321 7.71419 16.3353 7.70345 16.3496 7.69629C16.5072 7.58171 16.6683 7.45996 16.833 7.33105C16.9977 7.19499 17.1624 7.0804 17.3271 6.9873C17.3343 6.98014 17.3558 6.96582 17.3916 6.94434C17.4346 6.92285 17.4775 6.90137 17.5205 6.87988C17.5706 6.8584 17.6136 6.84049 17.6494 6.82617C17.6852 6.80469 17.7103 6.79036 17.7246 6.7832L17.9824 6.5791C18.0039 6.57194 18.0469 6.56836 18.1113 6.56836C18.1758 6.5612 18.2438 6.55404 18.3154 6.54688C18.387 6.53971 18.4551 6.53613 18.5195 6.53613C18.584 6.52897 18.627 6.52539 18.6484 6.52539C18.6556 6.51823 18.6735 6.50749 18.7021 6.49316C18.7308 6.47884 18.763 6.46452 18.7988 6.4502C18.8346 6.43587 18.8669 6.42513 18.8955 6.41797C18.9313 6.40365 18.9528 6.39648 18.96 6.39648C19.0817 6.36068 19.2178 6.32845 19.3682 6.2998C19.5257 6.264 19.6689 6.24609 19.7979 6.24609C19.9769 6.24609 20.1523 6.2819 20.3242 6.35352C20.5033 6.41797 20.6823 6.4681 20.8613 6.50391C21.0547 6.54688 21.248 6.58984 21.4414 6.63281C21.6348 6.66862 21.8245 6.71159 22.0107 6.76172C22.2041 6.81185 22.3903 6.8763 22.5693 6.95508C22.7484 7.02669 22.9238 7.12337 23.0957 7.24512C23.1029 7.25228 23.1208 7.27376 23.1494 7.30957C23.1781 7.33822 23.2103 7.37044 23.2461 7.40625C23.2819 7.44206 23.3177 7.47786 23.3535 7.51367C23.3893 7.54232 23.4144 7.56022 23.4287 7.56738C23.4359 7.57454 23.4753 7.58529 23.5469 7.59961C23.6257 7.61393 23.6722 7.62109 23.6865 7.62109C23.7152 7.64258 23.7367 7.6748 23.751 7.71777C23.7653 7.75358 23.776 7.79655 23.7832 7.84668C23.7975 7.88965 23.8083 7.93262 23.8154 7.97559C23.8298 8.01855 23.8477 8.05436 23.8691 8.08301C23.8763 8.09017 23.887 8.10807 23.9014 8.13672C23.9229 8.16536 23.9443 8.19401 23.9658 8.22266C23.9945 8.2513 24.016 8.27995 24.0303 8.30859C24.0518 8.33008 24.0661 8.34082 24.0732 8.34082L24.127 8.67383C24.1484 8.70964 24.1914 8.75977 24.2559 8.82422C24.3275 8.88867 24.374 8.92806 24.3955 8.94238V9.5332C24.3955 9.58333 24.4098 9.64421 24.4385 9.71582C24.4743 9.78743 24.5101 9.86263 24.5459 9.94141C24.5817 10.0202 24.6175 10.099 24.6533 10.1777C24.6891 10.2565 24.7142 10.3281 24.7285 10.3926C24.75 10.5 24.7643 10.5931 24.7715 10.6719C24.7786 10.7507 24.7858 10.8294 24.793 10.9082C24.8001 10.9798 24.8037 11.055 24.8037 11.1338C24.8037 11.2126 24.8037 11.3057 24.8037 11.4131V11.8213C24.8037 11.8356 24.793 11.8929 24.7715 11.9932C24.75 12.0863 24.7357 12.1579 24.7285 12.208C24.7142 12.251 24.6999 12.3047 24.6855 12.3691C24.6712 12.4336 24.6569 12.498 24.6426 12.5625C24.6354 12.627 24.6247 12.6842 24.6104 12.7344C24.6032 12.7773 24.5996 12.7988 24.5996 12.7988C24.5853 12.8203 24.5566 12.8633 24.5137 12.9277C24.4707 12.9922 24.4206 13.0638 24.3633 13.1426C24.3132 13.2142 24.263 13.2822 24.2129 13.3467C24.1699 13.404 24.1413 13.4398 24.127 13.4541C24.127 13.4613 24.1126 13.4863 24.084 13.5293C24.0625 13.5723 24.0374 13.6224 24.0088 13.6797C23.9801 13.7298 23.9515 13.7799 23.9229 13.8301C23.8942 13.873 23.8763 13.9017 23.8691 13.916C23.776 14.0449 23.6686 14.1667 23.5469 14.2812C23.4323 14.3887 23.3249 14.5033 23.2246 14.625C23.1602 14.7109 23.1172 14.7718 23.0957 14.8076C23.0742 14.8434 23.0277 14.8936 22.9561 14.958C22.8558 15.0368 22.7627 15.0977 22.6768 15.1406C22.5908 15.1836 22.5049 15.2516 22.4189 15.3447C22.4189 15.359 22.4046 15.3949 22.376 15.4521C22.3473 15.5094 22.3258 15.5381 22.3115 15.5381C22.2972 15.5452 22.2721 15.5524 22.2363 15.5596C22.2005 15.5667 22.1576 15.5739 22.1074 15.5811C22.0645 15.5882 22.0215 15.5954 21.9785 15.6025C21.9427 15.6025 21.9176 15.6061 21.9033 15.6133C21.8604 15.6348 21.7816 15.6706 21.667 15.7207C21.5596 15.7637 21.4414 15.8138 21.3125 15.8711C21.1908 15.9212 21.0726 15.9714 20.958 16.0215C20.8506 16.0788 20.7754 16.1217 20.7324 16.1504H20.0986C19.4684 16.1504 18.849 16.0394 18.2402 15.8174L18.1113 15.7422C18.097 15.7207 18.0791 15.6992 18.0576 15.6777C18.0146 15.6348 17.9896 15.6133 17.9824 15.6133C17.9753 15.6061 17.9538 15.599 17.918 15.5918C17.8893 15.5846 17.8571 15.5775 17.8213 15.5703C17.7855 15.5632 17.7497 15.556 17.7139 15.5488C17.6781 15.5417 17.6566 15.5381 17.6494 15.5381C17.3916 15.4808 17.1589 15.3841 16.9512 15.248C16.7507 15.112 16.5645 14.958 16.3926 14.7861C16.2207 14.6143 16.0524 14.4352 15.8877 14.249C15.723 14.0557 15.5475 13.8766 15.3613 13.7119V13.6797ZM17.8535 14.3135C17.8392 14.335 17.832 14.3636 17.832 14.3994C17.832 14.4567 17.8499 14.5068 17.8857 14.5498C17.9287 14.5928 17.9753 14.6322 18.0254 14.668C18.0755 14.6966 18.1257 14.7253 18.1758 14.7539C18.2331 14.7826 18.2796 14.8076 18.3154 14.8291C18.387 14.8864 18.4587 14.9508 18.5303 15.0225C18.609 15.0869 18.6878 15.1514 18.7666 15.2158C18.8525 15.2731 18.9385 15.3232 19.0244 15.3662C19.1104 15.402 19.207 15.4199 19.3145 15.4199C19.3932 15.4342 19.4684 15.445 19.54 15.4521C19.6117 15.4593 19.6868 15.4629 19.7656 15.4629C19.8301 15.4629 19.891 15.4593 19.9482 15.4521C20.0127 15.445 20.0736 15.4342 20.1309 15.4199L20.335 15.3447L20.6357 15.334L20.9365 15.3447C20.9508 15.3376 20.9688 15.3304 20.9902 15.3232C21.0189 15.3161 21.0439 15.3018 21.0654 15.2803C21.0869 15.266 21.1156 15.2516 21.1514 15.2373C21.1872 15.2158 21.223 15.1943 21.2588 15.1729C21.2946 15.1442 21.334 15.1156 21.377 15.0869C21.3913 15.0798 21.4163 15.0583 21.4521 15.0225C21.4951 14.9795 21.5381 14.9365 21.5811 14.8936C21.624 14.8506 21.6634 14.8112 21.6992 14.7754C21.735 14.7324 21.7601 14.7074 21.7744 14.7002L21.9785 14.5713C22.0286 14.5212 22.0931 14.4531 22.1719 14.3672C22.2507 14.2741 22.3258 14.1774 22.3975 14.0771C22.4691 13.9697 22.5299 13.8659 22.5801 13.7656C22.6374 13.6654 22.6696 13.5794 22.6768 13.5078C22.6839 13.4863 22.6911 13.4541 22.6982 13.4111C22.7126 13.3682 22.7233 13.3216 22.7305 13.2715C22.7376 13.2214 22.7412 13.1784 22.7412 13.1426C22.7484 13.0996 22.752 13.0745 22.752 13.0674C22.7949 12.6592 22.8164 12.2617 22.8164 11.875C22.8164 11.5671 22.7949 11.2627 22.752 10.9619C22.7233 10.9189 22.7054 10.8724 22.6982 10.8223C22.6982 10.7721 22.6982 10.7184 22.6982 10.6611V10.4033C22.6982 10.3317 22.6911 10.278 22.6768 10.2422C22.6696 10.1562 22.6338 10.0811 22.5693 10.0166C22.5049 9.94499 22.4548 9.86979 22.4189 9.79102C22.3617 9.66211 22.3151 9.54395 22.2793 9.43652C22.2507 9.32194 22.2113 9.2002 22.1611 9.07129C22.154 9.05697 22.1468 9.03906 22.1396 9.01758C22.1325 8.99609 22.1217 8.97103 22.1074 8.94238L21.9033 8.59863C21.9033 8.59147 21.8962 8.55208 21.8818 8.48047C21.8675 8.40885 21.8568 8.3623 21.8496 8.34082C21.6992 8.13314 21.5094 7.97917 21.2803 7.87891C21.0583 7.77148 20.8327 7.66764 20.6035 7.56738C20.582 7.55306 20.5426 7.53874 20.4854 7.52441C20.4352 7.51009 20.4066 7.50293 20.3994 7.50293H19.9482L19.6152 7.42773H18.96L18.5732 7.62109C18.4945 7.6569 18.4264 7.67839 18.3691 7.68555C18.3118 7.69271 18.251 7.72135 18.1865 7.77148C18.0648 7.85026 17.9466 7.9362 17.832 8.0293C17.7174 8.11523 17.5921 8.20117 17.4561 8.28711C17.4489 8.28711 17.4417 8.29069 17.4346 8.29785C17.4346 8.30501 17.4274 8.31217 17.4131 8.31934C17.3988 8.3265 17.388 8.33366 17.3809 8.34082C17.3809 8.35514 17.3773 8.38021 17.3701 8.41602C17.3701 8.44466 17.3665 8.47689 17.3594 8.5127C17.3522 8.5485 17.3451 8.58431 17.3379 8.62012C17.3379 8.64876 17.3343 8.66667 17.3271 8.67383L17.1982 8.80273C17.1768 8.83138 17.1517 8.87435 17.123 8.93164C17.1016 8.98177 17.0765 9.03548 17.0479 9.09277C17.0192 9.1429 16.9941 9.19303 16.9727 9.24316C16.9583 9.28613 16.9476 9.31478 16.9404 9.3291V9.64062C16.9333 9.65495 16.9225 9.68359 16.9082 9.72656C16.8939 9.76953 16.8796 9.8125 16.8652 9.85547C16.8509 9.89844 16.8366 9.94141 16.8223 9.98438C16.8151 10.0202 16.8115 10.0417 16.8115 10.0488V10.1455L16.9404 10.7793C16.9404 10.8581 16.9189 10.9261 16.876 10.9834C16.833 11.0335 16.8115 11.1016 16.8115 11.1875C16.8115 11.4167 16.8473 11.6172 16.9189 11.7891C16.9906 11.9538 17.0407 12.1364 17.0693 12.3369L17.1982 13.5078L17.3271 13.7119C17.3343 13.7191 17.3451 13.7441 17.3594 13.7871C17.3665 13.8086 17.3737 13.8265 17.3809 13.8408L17.8535 14.3135ZM26.4258 15.4414C26.4258 15.3125 26.458 15.223 26.5225 15.1729C26.5869 15.1156 26.6657 15.0762 26.7588 15.0547C26.8519 15.026 26.9486 15.0046 27.0488 14.9902C27.1491 14.9759 27.2386 14.9473 27.3174 14.9043C27.3962 14.8613 27.457 14.8076 27.5 14.7432C27.5501 14.6787 27.5895 14.6107 27.6182 14.5391C27.6468 14.4603 27.6719 14.3815 27.6934 14.3027C27.7148 14.224 27.7435 14.1452 27.7793 14.0664C27.7936 13.873 27.8044 13.6833 27.8115 13.4971C27.8258 13.3037 27.833 13.1104 27.833 12.917C27.833 12.7738 27.8294 12.6341 27.8223 12.498C27.8151 12.362 27.8079 12.2223 27.8008 12.0791C27.8438 12.0146 27.8903 11.9359 27.9404 11.8428C27.9906 11.7425 28.0156 11.6351 28.0156 11.5205C28.0156 11.499 28.0085 11.4561 27.9941 11.3916C27.987 11.3271 27.9762 11.2591 27.9619 11.1875C27.9476 11.1159 27.9333 11.0514 27.9189 10.9941C27.9046 10.9297 27.8939 10.8903 27.8867 10.876C27.8867 10.8617 27.8831 10.8223 27.876 10.7578C27.876 10.6862 27.876 10.6182 27.876 10.5537C27.876 10.5251 27.876 10.5 27.876 10.4785C27.8831 10.457 27.8867 10.4391 27.8867 10.4248C27.8867 10.4105 27.876 10.3747 27.8545 10.3174C27.8402 10.2529 27.833 10.1849 27.833 10.1133C27.833 10.0918 27.8473 10.0452 27.876 9.97363C27.9046 9.90202 27.9333 9.84115 27.9619 9.79102C27.9476 9.77669 27.9333 9.73372 27.9189 9.66211C27.9118 9.59049 27.901 9.54753 27.8867 9.5332V8.89941C27.8867 8.88509 27.876 8.86003 27.8545 8.82422C27.8402 8.78125 27.8223 8.73828 27.8008 8.69531C27.7793 8.65234 27.7578 8.61296 27.7363 8.57715C27.722 8.54134 27.7113 8.51986 27.7041 8.5127C27.6683 8.42676 27.6432 8.34082 27.6289 8.25488C27.6146 8.16178 27.5967 8.07227 27.5752 7.98633C27.5609 7.90039 27.5394 7.81445 27.5107 7.72852C27.4893 7.64258 27.4499 7.5638 27.3926 7.49219C27.3711 7.45638 27.3174 7.39909 27.2314 7.32031C27.1527 7.24154 27.099 7.19141 27.0703 7.16992C27.056 7.16276 27.0488 7.14844 27.0488 7.12695C27.0488 7.09831 27.0488 7.07682 27.0488 7.0625C27.0488 6.98372 27.0775 6.91927 27.1348 6.86914C27.1992 6.81185 27.2708 6.7832 27.3496 6.7832H27.4463C27.8187 6.81901 28.1803 6.85124 28.5312 6.87988C28.8822 6.90137 29.251 6.91211 29.6377 6.91211C29.7165 6.91211 29.7952 6.89421 29.874 6.8584C29.9528 6.82259 30.0423 6.79753 30.1426 6.7832L30.5508 6.76172L30.959 6.7832C30.9876 6.7832 31.0306 6.80469 31.0879 6.84766C31.1523 6.89062 31.1953 6.93001 31.2168 6.96582L31.292 7.04102C31.292 7.05534 31.2812 7.08757 31.2598 7.1377C31.2454 7.18066 31.2311 7.20931 31.2168 7.22363C31.1882 7.25944 31.1452 7.30957 31.0879 7.37402C31.0306 7.43848 30.9876 7.47786 30.959 7.49219C30.9447 7.49219 30.916 7.49577 30.873 7.50293C30.8301 7.51009 30.7835 7.51725 30.7334 7.52441C30.6833 7.53158 30.6367 7.53874 30.5938 7.5459C30.5508 7.5459 30.5221 7.5459 30.5078 7.5459C30.4076 7.56738 30.3109 7.62109 30.2178 7.70703C30.1247 7.78581 30.0423 7.87891 29.9707 7.98633C29.8991 8.09375 29.8382 8.20833 29.7881 8.33008C29.7451 8.44466 29.7129 8.5485 29.6914 8.6416C29.6628 8.77051 29.6413 8.90299 29.627 9.03906C29.6198 9.17513 29.6162 9.30762 29.6162 9.43652L29.7451 10.4248C29.7451 10.5394 29.7308 10.6504 29.7021 10.7578C29.6807 10.8581 29.652 10.9583 29.6162 11.0586C29.6162 11.1016 29.6198 11.1839 29.627 11.3057C29.6341 11.4202 29.6377 11.542 29.6377 11.6709C29.6377 11.7998 29.6341 11.9215 29.627 12.0361C29.6198 12.1507 29.6162 12.2331 29.6162 12.2832C29.6162 12.2904 29.6126 12.3154 29.6055 12.3584C29.5983 12.4014 29.5911 12.4479 29.584 12.498C29.584 12.5482 29.5804 12.5983 29.5732 12.6484C29.5661 12.6914 29.5625 12.7201 29.5625 12.7344V12.917C29.5697 12.9313 29.584 12.9635 29.6055 13.0137C29.6341 13.0566 29.6592 13.1068 29.6807 13.1641C29.7093 13.2214 29.7344 13.2751 29.7559 13.3252C29.7845 13.3753 29.7988 13.4111 29.7988 13.4326C29.7988 13.4613 29.8024 13.5042 29.8096 13.5615C29.8167 13.6188 29.8203 13.6761 29.8203 13.7334C29.8203 13.7979 29.8167 13.8551 29.8096 13.9053C29.8024 13.9482 29.7988 13.9769 29.7988 13.9912C29.8346 14.0127 29.8848 14.0592 29.9492 14.1309C30.0137 14.1953 30.0531 14.2347 30.0674 14.249V14.3457C30.0674 14.3815 30.0638 14.4137 30.0566 14.4424C30.0495 14.471 30.0387 14.4997 30.0244 14.5283C30.0101 14.5641 30.0029 14.5964 30.0029 14.625C30.0029 14.6536 30.0029 14.6859 30.0029 14.7217C30.0029 14.779 30.0352 14.8255 30.0996 14.8613C30.1712 14.8971 30.2536 14.9294 30.3467 14.958C30.4398 14.9867 30.5293 15.0081 30.6152 15.0225C30.7083 15.0296 30.7728 15.0332 30.8086 15.0332H30.959C31.0091 15.026 31.1058 15.0153 31.249 15.001C31.3923 14.9867 31.5391 14.9759 31.6895 14.9688C31.847 14.9544 31.9938 14.9437 32.1299 14.9365C32.2731 14.9222 32.3698 14.9115 32.4199 14.9043C32.7279 14.7253 33.0179 14.5212 33.29 14.292C33.5622 14.0557 33.8128 13.8086 34.042 13.5508C34.0635 13.5293 34.0814 13.5007 34.0957 13.4648C34.1172 13.4219 34.1351 13.3861 34.1494 13.3574C34.1709 13.3216 34.196 13.293 34.2246 13.2715C34.2533 13.2428 34.2926 13.2285 34.3428 13.2285C34.3857 13.2285 34.4323 13.25 34.4824 13.293C34.5326 13.3288 34.5755 13.3753 34.6113 13.4326C34.6543 13.4899 34.6865 13.5508 34.708 13.6152C34.7367 13.6725 34.751 13.7227 34.751 13.7656C34.751 13.8874 34.7367 13.9948 34.708 14.0879C34.6865 14.181 34.6758 14.2848 34.6758 14.3994V14.5176C34.6543 14.5391 34.6149 14.582 34.5576 14.6465C34.5075 14.7109 34.4538 14.7826 34.3965 14.8613C34.3464 14.9329 34.2962 15.0046 34.2461 15.0762C34.2031 15.1406 34.1709 15.1872 34.1494 15.2158L34.042 15.5918C34.0277 15.6061 33.9883 15.6491 33.9238 15.7207C33.8594 15.7923 33.8128 15.8353 33.7842 15.8496C33.7484 15.8854 33.7054 15.9069 33.6553 15.9141C33.6123 15.9212 33.5658 15.9248 33.5156 15.9248H33.2041C33.1969 15.9176 33.1755 15.9069 33.1396 15.8926C33.1038 15.8783 33.0645 15.8639 33.0215 15.8496C32.9785 15.8353 32.9355 15.8245 32.8926 15.8174C32.8568 15.8031 32.8317 15.7959 32.8174 15.7959H32.1836C32.1621 15.7959 32.1156 15.7852 32.0439 15.7637C31.9723 15.735 31.9329 15.7207 31.9258 15.7207C31.9115 15.7207 31.8792 15.7314 31.8291 15.7529C31.7861 15.7673 31.7539 15.7816 31.7324 15.7959C31.7038 15.8102 31.6572 15.8317 31.5928 15.8604C31.5355 15.889 31.4961 15.9105 31.4746 15.9248H30.4541C30.361 15.8604 30.2607 15.8245 30.1533 15.8174C30.0459 15.8031 29.9421 15.7959 29.8418 15.7959H29.6162C29.5374 15.7959 29.4587 15.8031 29.3799 15.8174C29.3011 15.8317 29.2116 15.8675 29.1113 15.9248C28.9395 15.9391 28.764 15.9463 28.585 15.9463C28.4131 15.9463 28.2376 15.9463 28.0586 15.9463C27.8796 15.9463 27.7005 15.9463 27.5215 15.9463C27.3496 15.9463 27.1742 15.9391 26.9951 15.9248L26.6836 15.7959C26.5977 15.7601 26.5332 15.7171 26.4902 15.667C26.4473 15.6169 26.4258 15.5417 26.4258 15.4414ZM35.9648 15.4414C35.9648 15.3125 35.9971 15.223 36.0615 15.1729C36.126 15.1156 36.2048 15.0762 36.2979 15.0547C36.391 15.026 36.4876 15.0046 36.5879 14.9902C36.6882 14.9759 36.7777 14.9473 36.8564 14.9043C36.9352 14.8613 36.9961 14.8076 37.0391 14.7432C37.0892 14.6787 37.1286 14.6107 37.1572 14.5391C37.1859 14.4603 37.2109 14.3815 37.2324 14.3027C37.2539 14.224 37.2826 14.1452 37.3184 14.0664C37.3327 13.873 37.3434 13.6833 37.3506 13.4971C37.3649 13.3037 37.3721 13.1104 37.3721 12.917C37.3721 12.7738 37.3685 12.6341 37.3613 12.498C37.3542 12.362 37.347 12.2223 37.3398 12.0791C37.3828 12.0146 37.4294 11.9359 37.4795 11.8428C37.5296 11.7425 37.5547 11.6351 37.5547 11.5205C37.5547 11.499 37.5475 11.4561 37.5332 11.3916C37.526 11.3271 37.5153 11.2591 37.501 11.1875C37.4867 11.1159 37.4723 11.0514 37.458 10.9941C37.4437 10.9297 37.4329 10.8903 37.4258 10.876C37.4258 10.8617 37.4222 10.8223 37.415 10.7578C37.415 10.6862 37.415 10.6182 37.415 10.5537C37.415 10.5251 37.415 10.5 37.415 10.4785C37.4222 10.457 37.4258 10.4391 37.4258 10.4248C37.4258 10.4105 37.415 10.3747 37.3936 10.3174C37.3792 10.2529 37.3721 10.1849 37.3721 10.1133C37.3721 10.0918 37.3864 10.0452 37.415 9.97363C37.4437 9.90202 37.4723 9.84115 37.501 9.79102C37.4867 9.77669 37.4723 9.73372 37.458 9.66211C37.4508 9.59049 37.4401 9.54753 37.4258 9.5332V8.89941C37.4258 8.88509 37.415 8.86003 37.3936 8.82422C37.3792 8.78125 37.3613 8.73828 37.3398 8.69531C37.3184 8.65234 37.2969 8.61296 37.2754 8.57715C37.2611 8.54134 37.2503 8.51986 37.2432 8.5127C37.2074 8.42676 37.1823 8.34082 37.168 8.25488C37.1536 8.16178 37.1357 8.07227 37.1143 7.98633C37.0999 7.90039 37.0785 7.81445 37.0498 7.72852C37.0283 7.64258 36.9889 7.5638 36.9316 7.49219C36.9102 7.45638 36.8564 7.39909 36.7705 7.32031C36.6917 7.24154 36.638 7.19141 36.6094 7.16992C36.5951 7.16276 36.5879 7.14844 36.5879 7.12695C36.5879 7.09831 36.5879 7.07682 36.5879 7.0625C36.5879 6.98372 36.6165 6.91927 36.6738 6.86914C36.7383 6.81185 36.8099 6.7832 36.8887 6.7832H36.9854C37.3577 6.81901 37.7194 6.85124 38.0703 6.87988C38.4212 6.90137 38.79 6.91211 39.1768 6.91211C39.2555 6.91211 39.3343 6.89421 39.4131 6.8584C39.4919 6.82259 39.5814 6.79753 39.6816 6.7832L40.0898 6.76172L40.498 6.7832C40.5267 6.7832 40.5697 6.80469 40.627 6.84766C40.6914 6.89062 40.7344 6.93001 40.7559 6.96582L40.8311 7.04102C40.8311 7.05534 40.8203 7.08757 40.7988 7.1377C40.7845 7.18066 40.7702 7.20931 40.7559 7.22363C40.7272 7.25944 40.6842 7.30957 40.627 7.37402C40.5697 7.43848 40.5267 7.47786 40.498 7.49219C40.4837 7.49219 40.4551 7.49577 40.4121 7.50293C40.3691 7.51009 40.3226 7.51725 40.2725 7.52441C40.2223 7.53158 40.1758 7.53874 40.1328 7.5459C40.0898 7.5459 40.0612 7.5459 40.0469 7.5459C39.9466 7.56738 39.8499 7.62109 39.7568 7.70703C39.6637 7.78581 39.5814 7.87891 39.5098 7.98633C39.4382 8.09375 39.3773 8.20833 39.3271 8.33008C39.2842 8.44466 39.252 8.5485 39.2305 8.6416C39.2018 8.77051 39.1803 8.90299 39.166 9.03906C39.1589 9.17513 39.1553 9.30762 39.1553 9.43652L39.2842 10.4248C39.2842 10.5394 39.2699 10.6504 39.2412 10.7578C39.2197 10.8581 39.1911 10.9583 39.1553 11.0586C39.1553 11.1016 39.1589 11.1839 39.166 11.3057C39.1732 11.4202 39.1768 11.542 39.1768 11.6709C39.1768 11.7998 39.1732 11.9215 39.166 12.0361C39.1589 12.1507 39.1553 12.2331 39.1553 12.2832C39.1553 12.2904 39.1517 12.3154 39.1445 12.3584C39.1374 12.4014 39.1302 12.4479 39.123 12.498C39.123 12.5482 39.1195 12.5983 39.1123 12.6484C39.1051 12.6914 39.1016 12.7201 39.1016 12.7344V12.917C39.1087 12.9313 39.123 12.9635 39.1445 13.0137C39.1732 13.0566 39.1982 13.1068 39.2197 13.1641C39.2484 13.2214 39.2734 13.2751 39.2949 13.3252C39.3236 13.3753 39.3379 13.4111 39.3379 13.4326C39.3379 13.4613 39.3415 13.5042 39.3486 13.5615C39.3558 13.6188 39.3594 13.6761 39.3594 13.7334C39.3594 13.7979 39.3558 13.8551 39.3486 13.9053C39.3415 13.9482 39.3379 13.9769 39.3379 13.9912C39.3737 14.0127 39.4238 14.0592 39.4883 14.1309C39.5527 14.1953 39.5921 14.2347 39.6064 14.249V14.3457C39.6064 14.3815 39.6029 14.4137 39.5957 14.4424C39.5885 14.471 39.5778 14.4997 39.5635 14.5283C39.5492 14.5641 39.542 14.5964 39.542 14.625C39.542 14.6536 39.542 14.6859 39.542 14.7217C39.542 14.779 39.5742 14.8255 39.6387 14.8613C39.7103 14.8971 39.7926 14.9294 39.8857 14.958C39.9788 14.9867 40.0684 15.0081 40.1543 15.0225C40.2474 15.0296 40.3118 15.0332 40.3477 15.0332H40.498C40.5482 15.026 40.6449 15.0153 40.7881 15.001C40.9313 14.9867 41.0781 14.9759 41.2285 14.9688C41.3861 14.9544 41.5329 14.9437 41.6689 14.9365C41.8122 14.9222 41.9089 14.9115 41.959 14.9043C42.2669 14.7253 42.557 14.5212 42.8291 14.292C43.1012 14.0557 43.3519 13.8086 43.5811 13.5508C43.6025 13.5293 43.6204 13.5007 43.6348 13.4648C43.6562 13.4219 43.6742 13.3861 43.6885 13.3574C43.71 13.3216 43.735 13.293 43.7637 13.2715C43.7923 13.2428 43.8317 13.2285 43.8818 13.2285C43.9248 13.2285 43.9714 13.25 44.0215 13.293C44.0716 13.3288 44.1146 13.3753 44.1504 13.4326C44.1934 13.4899 44.2256 13.5508 44.2471 13.6152C44.2757 13.6725 44.29 13.7227 44.29 13.7656C44.29 13.8874 44.2757 13.9948 44.2471 14.0879C44.2256 14.181 44.2148 14.2848 44.2148 14.3994V14.5176C44.1934 14.5391 44.154 14.582 44.0967 14.6465C44.0465 14.7109 43.9928 14.7826 43.9355 14.8613C43.8854 14.9329 43.8353 15.0046 43.7852 15.0762C43.7422 15.1406 43.71 15.1872 43.6885 15.2158L43.5811 15.5918C43.5667 15.6061 43.5273 15.6491 43.4629 15.7207C43.3984 15.7923 43.3519 15.8353 43.3232 15.8496C43.2874 15.8854 43.2445 15.9069 43.1943 15.9141C43.1514 15.9212 43.1048 15.9248 43.0547 15.9248H42.7432C42.736 15.9176 42.7145 15.9069 42.6787 15.8926C42.6429 15.8783 42.6035 15.8639 42.5605 15.8496C42.5176 15.8353 42.4746 15.8245 42.4316 15.8174C42.3958 15.8031 42.3708 15.7959 42.3564 15.7959H41.7227C41.7012 15.7959 41.6546 15.7852 41.583 15.7637C41.5114 15.735 41.472 15.7207 41.4648 15.7207C41.4505 15.7207 41.4183 15.7314 41.3682 15.7529C41.3252 15.7673 41.293 15.7816 41.2715 15.7959C41.2428 15.8102 41.1963 15.8317 41.1318 15.8604C41.0745 15.889 41.0352 15.9105 41.0137 15.9248H39.9932C39.9001 15.8604 39.7998 15.8245 39.6924 15.8174C39.585 15.8031 39.4811 15.7959 39.3809 15.7959H39.1553C39.0765 15.7959 38.9977 15.8031 38.9189 15.8174C38.8402 15.8317 38.7507 15.8675 38.6504 15.9248C38.4785 15.9391 38.3031 15.9463 38.124 15.9463C37.9521 15.9463 37.7767 15.9463 37.5977 15.9463C37.4186 15.9463 37.2396 15.9463 37.0605 15.9463C36.8887 15.9463 36.7132 15.9391 36.5342 15.9248L36.2227 15.7959C36.1367 15.7601 36.0723 15.7171 36.0293 15.667C35.9863 15.6169 35.9648 15.5417 35.9648 15.4414ZM46.1699 13.6797C46.1699 13.6296 46.1628 13.5651 46.1484 13.4863C46.1341 13.4076 46.1234 13.3538 46.1162 13.3252C46.1019 13.3037 46.0661 13.2715 46.0088 13.2285C45.9515 13.1784 45.9193 13.1497 45.9121 13.1426C45.8763 13.0853 45.8477 13.0173 45.8262 12.9385C45.8118 12.8597 45.7975 12.7917 45.7832 12.7344C45.7689 12.6842 45.7438 12.6126 45.708 12.5195C45.6794 12.4193 45.6579 12.3584 45.6436 12.3369C45.6436 12.3226 45.6257 12.2904 45.5898 12.2402C45.554 12.1829 45.529 12.1471 45.5146 12.1328L45.4609 12.0254C45.4609 12.0039 45.4681 11.9574 45.4824 11.8857C45.5039 11.8141 45.5146 11.7747 45.5146 11.7676C45.5146 11.7318 45.5182 11.6602 45.5254 11.5527C45.5326 11.4453 45.5361 11.3307 45.5361 11.209C45.5361 11.0872 45.5326 10.9762 45.5254 10.876C45.5182 10.7686 45.5146 10.6934 45.5146 10.6504L45.5898 10.4463C45.5898 10.4391 45.5898 10.4141 45.5898 10.3711C45.597 10.321 45.6042 10.2708 45.6113 10.2207C45.6185 10.1634 45.6257 10.1133 45.6328 10.0703C45.64 10.0202 45.6436 9.98796 45.6436 9.97363C45.6579 9.94499 45.6973 9.89128 45.7617 9.8125C45.8262 9.73372 45.8763 9.67643 45.9121 9.64062C45.9121 9.63346 45.9014 9.6084 45.8799 9.56543C45.8584 9.5153 45.8477 9.47949 45.8477 9.45801C45.8405 9.45801 45.8369 9.45443 45.8369 9.44727V9.42578L45.8477 9.38281C45.9049 9.28255 45.973 9.17155 46.0518 9.0498C46.1305 8.9209 46.2201 8.81706 46.3203 8.73828C46.3991 8.66667 46.4743 8.60579 46.5459 8.55566C46.6247 8.49837 46.6963 8.42676 46.7607 8.34082C46.8252 8.26204 46.8789 8.17253 46.9219 8.07227C46.972 7.96484 47.0293 7.86458 47.0938 7.77148C47.0938 7.75716 47.1009 7.74284 47.1152 7.72852C47.1296 7.71419 47.1439 7.70345 47.1582 7.69629C47.3158 7.58171 47.4769 7.45996 47.6416 7.33105C47.8063 7.19499 47.971 7.0804 48.1357 6.9873C48.1429 6.98014 48.1644 6.96582 48.2002 6.94434C48.2432 6.92285 48.2861 6.90137 48.3291 6.87988C48.3792 6.8584 48.4222 6.84049 48.458 6.82617C48.4938 6.80469 48.5189 6.79036 48.5332 6.7832L48.791 6.5791C48.8125 6.57194 48.8555 6.56836 48.9199 6.56836C48.9844 6.5612 49.0524 6.55404 49.124 6.54688C49.1956 6.53971 49.2637 6.53613 49.3281 6.53613C49.3926 6.52897 49.4355 6.52539 49.457 6.52539C49.4642 6.51823 49.4821 6.50749 49.5107 6.49316C49.5394 6.47884 49.5716 6.46452 49.6074 6.4502C49.6432 6.43587 49.6755 6.42513 49.7041 6.41797C49.7399 6.40365 49.7614 6.39648 49.7686 6.39648C49.8903 6.36068 50.0264 6.32845 50.1768 6.2998C50.3343 6.264 50.4775 6.24609 50.6064 6.24609C50.7855 6.24609 50.9609 6.2819 51.1328 6.35352C51.3118 6.41797 51.4909 6.4681 51.6699 6.50391C51.8633 6.54688 52.0566 6.58984 52.25 6.63281C52.4434 6.66862 52.6331 6.71159 52.8193 6.76172C53.0127 6.81185 53.1989 6.8763 53.3779 6.95508C53.557 7.02669 53.7324 7.12337 53.9043 7.24512C53.9115 7.25228 53.9294 7.27376 53.958 7.30957C53.9867 7.33822 54.0189 7.37044 54.0547 7.40625C54.0905 7.44206 54.1263 7.47786 54.1621 7.51367C54.1979 7.54232 54.223 7.56022 54.2373 7.56738C54.2445 7.57454 54.2839 7.58529 54.3555 7.59961C54.4342 7.61393 54.4808 7.62109 54.4951 7.62109C54.5238 7.64258 54.5452 7.6748 54.5596 7.71777C54.5739 7.75358 54.5846 7.79655 54.5918 7.84668C54.6061 7.88965 54.6169 7.93262 54.624 7.97559C54.6383 8.01855 54.6562 8.05436 54.6777 8.08301C54.6849 8.09017 54.6956 8.10807 54.71 8.13672C54.7314 8.16536 54.7529 8.19401 54.7744 8.22266C54.8031 8.2513 54.8245 8.27995 54.8389 8.30859C54.8604 8.33008 54.8747 8.34082 54.8818 8.34082L54.9355 8.67383C54.957 8.70964 55 8.75977 55.0645 8.82422C55.1361 8.88867 55.1826 8.92806 55.2041 8.94238V9.5332C55.2041 9.58333 55.2184 9.64421 55.2471 9.71582C55.2829 9.78743 55.3187 9.86263 55.3545 9.94141C55.3903 10.0202 55.4261 10.099 55.4619 10.1777C55.4977 10.2565 55.5228 10.3281 55.5371 10.3926C55.5586 10.5 55.5729 10.5931 55.5801 10.6719C55.5872 10.7507 55.5944 10.8294 55.6016 10.9082C55.6087 10.9798 55.6123 11.055 55.6123 11.1338C55.6123 11.2126 55.6123 11.3057 55.6123 11.4131V11.8213C55.6123 11.8356 55.6016 11.8929 55.5801 11.9932C55.5586 12.0863 55.5443 12.1579 55.5371 12.208C55.5228 12.251 55.5085 12.3047 55.4941 12.3691C55.4798 12.4336 55.4655 12.498 55.4512 12.5625C55.444 12.627 55.4333 12.6842 55.4189 12.7344C55.4118 12.7773 55.4082 12.7988 55.4082 12.7988C55.3939 12.8203 55.3652 12.8633 55.3223 12.9277C55.2793 12.9922 55.2292 13.0638 55.1719 13.1426C55.1217 13.2142 55.0716 13.2822 55.0215 13.3467C54.9785 13.404 54.9499 13.4398 54.9355 13.4541C54.9355 13.4613 54.9212 13.4863 54.8926 13.5293C54.8711 13.5723 54.846 13.6224 54.8174 13.6797C54.7887 13.7298 54.7601 13.7799 54.7314 13.8301C54.7028 13.873 54.6849 13.9017 54.6777 13.916C54.5846 14.0449 54.4772 14.1667 54.3555 14.2812C54.2409 14.3887 54.1335 14.5033 54.0332 14.625C53.9688 14.7109 53.9258 14.7718 53.9043 14.8076C53.8828 14.8434 53.8363 14.8936 53.7646 14.958C53.6644 15.0368 53.5713 15.0977 53.4854 15.1406C53.3994 15.1836 53.3135 15.2516 53.2275 15.3447C53.2275 15.359 53.2132 15.3949 53.1846 15.4521C53.1559 15.5094 53.1344 15.5381 53.1201 15.5381C53.1058 15.5452 53.0807 15.5524 53.0449 15.5596C53.0091 15.5667 52.9661 15.5739 52.916 15.5811C52.873 15.5882 52.8301 15.5954 52.7871 15.6025C52.7513 15.6025 52.7262 15.6061 52.7119 15.6133C52.6689 15.6348 52.5902 15.6706 52.4756 15.7207C52.3682 15.7637 52.25 15.8138 52.1211 15.8711C51.9993 15.9212 51.8812 15.9714 51.7666 16.0215C51.6592 16.0788 51.584 16.1217 51.541 16.1504H50.9072C50.277 16.1504 49.6576 16.0394 49.0488 15.8174L48.9199 15.7422C48.9056 15.7207 48.8877 15.6992 48.8662 15.6777C48.8232 15.6348 48.7982 15.6133 48.791 15.6133C48.7839 15.6061 48.7624 15.599 48.7266 15.5918C48.6979 15.5846 48.6657 15.5775 48.6299 15.5703C48.5941 15.5632 48.5583 15.556 48.5225 15.5488C48.4867 15.5417 48.4652 15.5381 48.458 15.5381C48.2002 15.4808 47.9674 15.3841 47.7598 15.248C47.5592 15.112 47.373 14.958 47.2012 14.7861C47.0293 14.6143 46.861 14.4352 46.6963 14.249C46.5316 14.0557 46.3561 13.8766 46.1699 13.7119V13.6797ZM48.6621 14.3135C48.6478 14.335 48.6406 14.3636 48.6406 14.3994C48.6406 14.4567 48.6585 14.5068 48.6943 14.5498C48.7373 14.5928 48.7839 14.6322 48.834 14.668C48.8841 14.6966 48.9342 14.7253 48.9844 14.7539C49.0417 14.7826 49.0882 14.8076 49.124 14.8291C49.1956 14.8864 49.2673 14.9508 49.3389 15.0225C49.4176 15.0869 49.4964 15.1514 49.5752 15.2158C49.6611 15.2731 49.7471 15.3232 49.833 15.3662C49.9189 15.402 50.0156 15.4199 50.123 15.4199C50.2018 15.4342 50.277 15.445 50.3486 15.4521C50.4202 15.4593 50.4954 15.4629 50.5742 15.4629C50.6387 15.4629 50.6995 15.4593 50.7568 15.4521C50.8213 15.445 50.8822 15.4342 50.9395 15.4199L51.1436 15.3447L51.4443 15.334L51.7451 15.3447C51.7594 15.3376 51.7773 15.3304 51.7988 15.3232C51.8275 15.3161 51.8525 15.3018 51.874 15.2803C51.8955 15.266 51.9242 15.2516 51.96 15.2373C51.9958 15.2158 52.0316 15.1943 52.0674 15.1729C52.1032 15.1442 52.1426 15.1156 52.1855 15.0869C52.1999 15.0798 52.2249 15.0583 52.2607 15.0225C52.3037 14.9795 52.3467 14.9365 52.3896 14.8936C52.4326 14.8506 52.472 14.8112 52.5078 14.7754C52.5436 14.7324 52.5687 14.7074 52.583 14.7002L52.7871 14.5713C52.8372 14.5212 52.9017 14.4531 52.9805 14.3672C53.0592 14.2741 53.1344 14.1774 53.2061 14.0771C53.2777 13.9697 53.3385 13.8659 53.3887 13.7656C53.446 13.6654 53.4782 13.5794 53.4854 13.5078C53.4925 13.4863 53.4997 13.4541 53.5068 13.4111C53.5212 13.3682 53.5319 13.3216 53.5391 13.2715C53.5462 13.2214 53.5498 13.1784 53.5498 13.1426C53.557 13.0996 53.5605 13.0745 53.5605 13.0674C53.6035 12.6592 53.625 12.2617 53.625 11.875C53.625 11.5671 53.6035 11.2627 53.5605 10.9619C53.5319 10.9189 53.514 10.8724 53.5068 10.8223C53.5068 10.7721 53.5068 10.7184 53.5068 10.6611V10.4033C53.5068 10.3317 53.4997 10.278 53.4854 10.2422C53.4782 10.1562 53.4424 10.0811 53.3779 10.0166C53.3135 9.94499 53.2633 9.86979 53.2275 9.79102C53.1702 9.66211 53.1237 9.54395 53.0879 9.43652C53.0592 9.32194 53.0199 9.2002 52.9697 9.07129C52.9626 9.05697 52.9554 9.03906 52.9482 9.01758C52.9411 8.99609 52.9303 8.97103 52.916 8.94238L52.7119 8.59863C52.7119 8.59147 52.7048 8.55208 52.6904 8.48047C52.6761 8.40885 52.6654 8.3623 52.6582 8.34082C52.5078 8.13314 52.318 7.97917 52.0889 7.87891C51.8669 7.77148 51.6413 7.66764 51.4121 7.56738C51.3906 7.55306 51.3512 7.53874 51.2939 7.52441C51.2438 7.51009 51.2152 7.50293 51.208 7.50293H50.7568L50.4238 7.42773H49.7686L49.3818 7.62109C49.3031 7.6569 49.235 7.67839 49.1777 7.68555C49.1204 7.69271 49.0596 7.72135 48.9951 7.77148C48.8734 7.85026 48.7552 7.9362 48.6406 8.0293C48.526 8.11523 48.4007 8.20117 48.2646 8.28711C48.2575 8.28711 48.2503 8.29069 48.2432 8.29785C48.2432 8.30501 48.236 8.31217 48.2217 8.31934C48.2074 8.3265 48.1966 8.33366 48.1895 8.34082C48.1895 8.35514 48.1859 8.38021 48.1787 8.41602C48.1787 8.44466 48.1751 8.47689 48.168 8.5127C48.1608 8.5485 48.1536 8.58431 48.1465 8.62012C48.1465 8.64876 48.1429 8.66667 48.1357 8.67383L48.0068 8.80273C47.9854 8.83138 47.9603 8.87435 47.9316 8.93164C47.9102 8.98177 47.8851 9.03548 47.8564 9.09277C47.8278 9.1429 47.8027 9.19303 47.7812 9.24316C47.7669 9.28613 47.7562 9.31478 47.749 9.3291V9.64062C47.7419 9.65495 47.7311 9.68359 47.7168 9.72656C47.7025 9.76953 47.6882 9.8125 47.6738 9.85547C47.6595 9.89844 47.6452 9.94141 47.6309 9.98438C47.6237 10.0202 47.6201 10.0417 47.6201 10.0488V10.1455L47.749 10.7793C47.749 10.8581 47.7275 10.9261 47.6846 10.9834C47.6416 11.0335 47.6201 11.1016 47.6201 11.1875C47.6201 11.4167 47.6559 11.6172 47.7275 11.7891C47.7992 11.9538 47.8493 12.1364 47.8779 12.3369L48.0068 13.5078L48.1357 13.7119C48.1429 13.7191 48.1536 13.7441 48.168 13.7871C48.1751 13.8086 48.1823 13.8265 48.1895 13.8408L48.6621 14.3135ZM60.0918 14.3242C59.9414 14.1022 59.8411 13.8874 59.791 13.6797C59.7409 13.472 59.6979 13.2679 59.6621 13.0674C59.6263 12.8597 59.5798 12.6592 59.5225 12.4658C59.4652 12.2653 59.3577 12.0612 59.2002 11.8535L58.9961 11.0049V10.6074C58.9961 10.6074 58.9854 10.5895 58.9639 10.5537C58.9424 10.5107 58.9173 10.4642 58.8887 10.4141C58.86 10.3639 58.8314 10.3174 58.8027 10.2744C58.7741 10.2243 58.7526 10.1885 58.7383 10.167L58.5342 9.90918V9.38281C58.5342 9.36133 58.5199 9.3291 58.4912 9.28613C58.4697 9.236 58.4447 9.18587 58.416 9.13574C58.3874 9.08561 58.3587 9.03906 58.3301 8.99609C58.3086 8.95312 58.2979 8.92806 58.2979 8.9209C58.1904 8.75618 58.1117 8.56999 58.0615 8.3623C58.0114 8.15462 57.9469 7.96842 57.8682 7.80371C57.8324 7.71777 57.7965 7.65332 57.7607 7.61035C57.7321 7.56022 57.6891 7.52441 57.6318 7.50293C57.5745 7.48145 57.4993 7.46712 57.4062 7.45996C57.3132 7.44564 57.1878 7.42415 57.0303 7.39551C56.93 7.38118 56.8405 7.35254 56.7617 7.30957C56.6829 7.2666 56.6436 7.19499 56.6436 7.09473C56.6436 6.9515 56.6722 6.83333 56.7295 6.74023C56.7868 6.63997 56.8441 6.54329 56.9014 6.4502L57.4385 6.35352H57.6426C57.8359 6.41797 58.04 6.47168 58.2549 6.51465C58.4697 6.55762 58.681 6.5791 58.8887 6.5791C59.0534 6.5791 59.2002 6.55404 59.3291 6.50391C59.4652 6.45378 59.6084 6.42871 59.7588 6.42871C59.7803 6.42871 59.8161 6.43229 59.8662 6.43945C59.9163 6.43945 59.9701 6.44303 60.0273 6.4502C60.0918 6.45736 60.1455 6.46452 60.1885 6.47168C60.2386 6.47884 60.2708 6.48242 60.2852 6.48242C60.3568 6.53971 60.4391 6.58626 60.5322 6.62207C60.6253 6.65072 60.6719 6.71517 60.6719 6.81543C60.6719 6.90137 60.654 6.99805 60.6182 7.10547C60.5895 7.20573 60.5465 7.29525 60.4893 7.37402C60.4391 7.43132 60.3568 7.48861 60.2422 7.5459C60.1348 7.59603 60.0667 7.64616 60.0381 7.69629L60.0596 8.0293C60.0667 8.10807 60.0775 8.20475 60.0918 8.31934C60.1133 8.42676 60.1348 8.53418 60.1562 8.6416C60.1777 8.74902 60.1992 8.85286 60.2207 8.95312C60.2422 9.04622 60.2637 9.11426 60.2852 9.15723L60.5 9.38281C60.5645 9.51172 60.611 9.64779 60.6396 9.79102C60.6755 9.93424 60.7041 10.0811 60.7256 10.2314C60.7542 10.3747 60.7757 10.5215 60.79 10.6719C60.8115 10.8151 60.8402 10.9512 60.876 11.0801L61.209 11.6709C61.2305 11.721 61.2484 11.7926 61.2627 11.8857C61.277 11.9717 61.2949 12.0576 61.3164 12.1436C61.3379 12.2295 61.3665 12.3047 61.4023 12.3691C61.4453 12.4264 61.5062 12.4551 61.585 12.4551C61.6637 12.4551 61.7318 12.4264 61.7891 12.3691C61.8464 12.3047 61.8965 12.2331 61.9395 12.1543C61.9896 12.0684 62.029 11.986 62.0576 11.9072C62.0934 11.8213 62.1221 11.7604 62.1436 11.7246C62.1436 11.7103 62.1722 11.6781 62.2295 11.6279C62.2868 11.5706 62.3262 11.5348 62.3477 11.5205C62.4336 11.4131 62.4909 11.2878 62.5195 11.1445C62.5553 10.9941 62.5876 10.8473 62.6162 10.7041C62.652 10.5537 62.695 10.4141 62.7451 10.2852C62.8024 10.1562 62.9027 10.0488 63.0459 9.96289L63.0674 9.5332C63.0674 9.47591 63.0638 9.39355 63.0566 9.28613C63.0495 9.17871 63.0459 9.11784 63.0459 9.10352L62.917 8.79199C62.8883 8.71322 62.8704 8.63444 62.8633 8.55566C62.8633 8.47689 62.8561 8.38737 62.8418 8.28711C62.8346 8.22266 62.8239 8.15104 62.8096 8.07227C62.8024 7.99349 62.7881 7.92188 62.7666 7.85742C62.7093 7.72852 62.6305 7.64974 62.5303 7.62109C62.4372 7.58529 62.3369 7.55664 62.2295 7.53516C62.1221 7.50651 62.0182 7.46354 61.918 7.40625C61.8177 7.34896 61.7354 7.22721 61.6709 7.04102V6.94434C61.6709 6.87988 61.6781 6.81185 61.6924 6.74023C61.7067 6.66146 61.7318 6.61491 61.7676 6.60059C61.8464 6.55046 61.9502 6.52181 62.0791 6.51465C62.208 6.50749 62.3333 6.50391 62.4551 6.50391H62.7881C62.7952 6.50391 62.8239 6.51107 62.874 6.52539C62.9242 6.53971 62.9814 6.55404 63.0459 6.56836C63.1104 6.58268 63.1748 6.59701 63.2393 6.61133C63.3037 6.62565 63.3574 6.63281 63.4004 6.63281L64.2168 6.42871L65.0977 6.5791C65.1621 6.5791 65.223 6.56836 65.2803 6.54688C65.3447 6.51823 65.4199 6.50391 65.5059 6.50391C65.6706 6.50391 65.7995 6.53971 65.8926 6.61133C65.9928 6.68294 66.043 6.80827 66.043 6.9873C66.043 7.16634 65.9857 7.28809 65.8711 7.35254C65.7565 7.41699 65.6204 7.46354 65.4629 7.49219C65.3053 7.51367 65.1442 7.53158 64.9795 7.5459C64.8148 7.56022 64.6859 7.61035 64.5928 7.69629V7.84668C64.5928 7.91829 64.6035 7.97559 64.625 8.01855C64.6536 8.06152 64.6823 8.10449 64.7109 8.14746C64.7467 8.18327 64.779 8.22624 64.8076 8.27637C64.8363 8.31934 64.8577 8.38021 64.8721 8.45898V9.10352C64.8721 9.13216 64.8936 9.22884 64.9365 9.39355C64.9867 9.55827 65.0439 9.75521 65.1084 9.98438C65.1729 10.2135 65.2409 10.4606 65.3125 10.7256C65.3913 10.9906 65.4629 11.234 65.5273 11.4561C65.599 11.6781 65.6562 11.8643 65.6992 12.0146C65.7493 12.165 65.778 12.2438 65.7852 12.251C65.821 12.2868 65.8496 12.3083 65.8711 12.3154C65.8926 12.3154 65.9176 12.3154 65.9463 12.3154C65.9964 12.3154 66.0358 12.3154 66.0645 12.3154C66.1003 12.3083 66.1432 12.2868 66.1934 12.251C66.1934 12.2367 66.1969 12.2152 66.2041 12.1865C66.2184 12.1579 66.2327 12.1292 66.2471 12.1006C66.2972 11.9645 66.3581 11.832 66.4297 11.7031C66.5085 11.5671 66.5872 11.4346 66.666 11.3057C66.752 11.1696 66.8307 11.0371 66.9023 10.9082C66.974 10.7793 67.0348 10.6432 67.085 10.5C67.0921 10.4928 67.0957 10.4714 67.0957 10.4355C67.1029 10.3997 67.11 10.3639 67.1172 10.3281C67.1243 10.2923 67.1279 10.2601 67.1279 10.2314C67.1351 10.1956 67.1387 10.1742 67.1387 10.167C67.2031 10.0023 67.2604 9.86621 67.3105 9.75879C67.3678 9.65137 67.4144 9.52604 67.4502 9.38281L67.5146 8.9209C67.5576 8.84212 67.6042 8.76335 67.6543 8.68457C67.7116 8.60579 67.7653 8.52702 67.8154 8.44824C67.8656 8.3623 67.9085 8.27637 67.9443 8.19043C67.9801 8.09733 67.998 8.00065 67.998 7.90039C67.9837 7.74284 67.9372 7.62826 67.8584 7.55664C67.7796 7.47786 67.6865 7.42057 67.5791 7.38477C67.4788 7.3418 67.375 7.30599 67.2676 7.27734C67.1673 7.2487 67.0921 7.20215 67.042 7.1377L66.9883 6.91211C66.9883 6.79753 67.0456 6.68652 67.1602 6.5791C67.1673 6.55046 67.1888 6.52897 67.2246 6.51465C67.2676 6.49316 67.3678 6.48242 67.5254 6.48242C67.5827 6.48242 67.6292 6.48242 67.665 6.48242C67.7008 6.48242 67.7367 6.486 67.7725 6.49316C67.8154 6.49316 67.8584 6.49674 67.9014 6.50391C67.9515 6.51107 68.0124 6.51823 68.084 6.52539C68.3132 6.52539 68.5029 6.51823 68.6533 6.50391C68.8109 6.48242 68.9613 6.46452 69.1045 6.4502C69.1403 6.4502 69.2048 6.45736 69.2979 6.47168C69.391 6.47884 69.4447 6.48242 69.459 6.48242L69.9961 6.47168C70.125 6.47168 70.2074 6.48958 70.2432 6.52539C70.2718 6.5612 70.304 6.58268 70.3398 6.58984C70.3757 6.59701 70.3971 6.62565 70.4043 6.67578V6.7832C70.4043 6.91211 70.3864 7.01237 70.3506 7.08398C70.3219 7.1556 70.2933 7.20931 70.2646 7.24512C70.2145 7.29525 70.1322 7.3418 70.0176 7.38477C69.903 7.42773 69.7812 7.47428 69.6523 7.52441C69.5234 7.56738 69.4017 7.62109 69.2871 7.68555C69.1725 7.74284 69.0866 7.81803 69.0293 7.91113C68.8932 8.11165 68.7786 8.30501 68.6855 8.49121C68.5996 8.67741 68.5173 8.86361 68.4385 9.0498C68.3597 9.236 68.2809 9.4222 68.2021 9.6084C68.1234 9.7946 68.0303 9.98796 67.9229 10.1885C67.8584 10.3031 67.7939 10.4141 67.7295 10.5215C67.6722 10.6289 67.6185 10.7363 67.5684 10.8438C67.5182 10.9512 67.4753 11.0658 67.4395 11.1875C67.4108 11.3021 67.3965 11.431 67.3965 11.5742L67.2461 11.7676C67.2461 11.8105 67.2389 11.8678 67.2246 11.9395C67.2103 12.0039 67.1924 12.0755 67.1709 12.1543C67.1494 12.2259 67.1243 12.2939 67.0957 12.3584C67.0671 12.4157 67.0384 12.4587 67.0098 12.4873L66.8594 12.8633L66.5264 13.5615C66.4619 13.7048 66.4118 13.8265 66.376 13.9268C66.3473 14.0199 66.3151 14.1094 66.2793 14.1953C66.2507 14.2812 66.2113 14.3708 66.1611 14.4639C66.1182 14.557 66.0465 14.668 65.9463 14.7969C65.8747 14.9043 65.8281 15.0117 65.8066 15.1191C65.7852 15.2194 65.7565 15.3089 65.7207 15.3877C65.6921 15.4665 65.6419 15.5309 65.5703 15.5811C65.4987 15.624 65.3841 15.6455 65.2266 15.6455C65.0977 15.6455 65.001 15.6348 64.9365 15.6133C64.8792 15.5918 64.8291 15.5596 64.7861 15.5166C64.7503 15.4736 64.7145 15.4199 64.6787 15.3555C64.6501 15.291 64.6035 15.2158 64.5391 15.1299C64.5534 15.0798 64.5605 15.0332 64.5605 14.9902C64.5605 14.9401 64.5605 14.8936 64.5605 14.8506C64.5605 14.693 64.5426 14.5462 64.5068 14.4102C64.471 14.2669 64.4281 14.1273 64.3779 13.9912C64.335 13.8551 64.292 13.7191 64.249 13.583C64.2061 13.4398 64.1774 13.293 64.1631 13.1426L64.0879 12.3799C64.0736 12.3083 64.0378 12.2008 63.9805 12.0576C63.9303 11.9072 63.8695 11.7604 63.7979 11.6172C63.7262 11.4668 63.651 11.3379 63.5723 11.2305C63.5007 11.1159 63.4398 11.0586 63.3896 11.0586C63.3109 11.0586 63.2393 11.0801 63.1748 11.123C63.1104 11.166 63.0674 11.2126 63.0459 11.2627C63.0459 11.2699 63.0387 11.2913 63.0244 11.3271C63.0101 11.3558 62.9922 11.388 62.9707 11.4238C62.9564 11.4596 62.9421 11.4954 62.9277 11.5312C62.9206 11.5599 62.917 11.5814 62.917 11.5957C62.8382 11.9036 62.738 12.1722 62.6162 12.4014C62.5016 12.6305 62.3799 12.8776 62.251 13.1426L62.0684 13.4219C62.0684 13.429 62.0612 13.4541 62.0469 13.4971C62.0326 13.5329 62.0218 13.5544 62.0146 13.5615C62.0146 13.5758 62.0111 13.6045 62.0039 13.6475C61.9967 13.6904 61.986 13.737 61.9717 13.7871C61.9645 13.8372 61.9538 13.8874 61.9395 13.9375C61.9323 13.9805 61.9251 14.0055 61.918 14.0127C61.918 14.027 61.8893 14.07 61.832 14.1416C61.7747 14.2132 61.7425 14.2562 61.7354 14.2705C61.6709 14.4209 61.6243 14.5892 61.5957 14.7754C61.5742 14.9544 61.5348 15.1227 61.4775 15.2803C61.4274 15.4378 61.3451 15.5703 61.2305 15.6777C61.1159 15.778 60.9368 15.8281 60.6934 15.8281C60.5788 15.8281 60.4785 15.8138 60.3926 15.7852C60.3138 15.7565 60.2637 15.6598 60.2422 15.4951L60.0918 14.3242ZM76.4199 13.6797C76.4199 13.6296 76.4128 13.5651 76.3984 13.4863C76.3841 13.4076 76.3734 13.3538 76.3662 13.3252C76.3519 13.3037 76.3161 13.2715 76.2588 13.2285C76.2015 13.1784 76.1693 13.1497 76.1621 13.1426C76.1263 13.0853 76.0977 13.0173 76.0762 12.9385C76.0618 12.8597 76.0475 12.7917 76.0332 12.7344C76.0189 12.6842 75.9938 12.6126 75.958 12.5195C75.9294 12.4193 75.9079 12.3584 75.8936 12.3369C75.8936 12.3226 75.8757 12.2904 75.8398 12.2402C75.804 12.1829 75.779 12.1471 75.7646 12.1328L75.7109 12.0254C75.7109 12.0039 75.7181 11.9574 75.7324 11.8857C75.7539 11.8141 75.7646 11.7747 75.7646 11.7676C75.7646 11.7318 75.7682 11.6602 75.7754 11.5527C75.7826 11.4453 75.7861 11.3307 75.7861 11.209C75.7861 11.0872 75.7826 10.9762 75.7754 10.876C75.7682 10.7686 75.7646 10.6934 75.7646 10.6504L75.8398 10.4463C75.8398 10.4391 75.8398 10.4141 75.8398 10.3711C75.847 10.321 75.8542 10.2708 75.8613 10.2207C75.8685 10.1634 75.8757 10.1133 75.8828 10.0703C75.89 10.0202 75.8936 9.98796 75.8936 9.97363C75.9079 9.94499 75.9473 9.89128 76.0117 9.8125C76.0762 9.73372 76.1263 9.67643 76.1621 9.64062C76.1621 9.63346 76.1514 9.6084 76.1299 9.56543C76.1084 9.5153 76.0977 9.47949 76.0977 9.45801C76.0905 9.45801 76.0869 9.45443 76.0869 9.44727V9.42578L76.0977 9.38281C76.1549 9.28255 76.223 9.17155 76.3018 9.0498C76.3805 8.9209 76.4701 8.81706 76.5703 8.73828C76.6491 8.66667 76.7243 8.60579 76.7959 8.55566C76.8747 8.49837 76.9463 8.42676 77.0107 8.34082C77.0752 8.26204 77.1289 8.17253 77.1719 8.07227C77.222 7.96484 77.2793 7.86458 77.3438 7.77148C77.3438 7.75716 77.3509 7.74284 77.3652 7.72852C77.3796 7.71419 77.3939 7.70345 77.4082 7.69629C77.5658 7.58171 77.7269 7.45996 77.8916 7.33105C78.0563 7.19499 78.221 7.0804 78.3857 6.9873C78.3929 6.98014 78.4144 6.96582 78.4502 6.94434C78.4932 6.92285 78.5361 6.90137 78.5791 6.87988C78.6292 6.8584 78.6722 6.84049 78.708 6.82617C78.7438 6.80469 78.7689 6.79036 78.7832 6.7832L79.041 6.5791C79.0625 6.57194 79.1055 6.56836 79.1699 6.56836C79.2344 6.5612 79.3024 6.55404 79.374 6.54688C79.4456 6.53971 79.5137 6.53613 79.5781 6.53613C79.6426 6.52897 79.6855 6.52539 79.707 6.52539C79.7142 6.51823 79.7321 6.50749 79.7607 6.49316C79.7894 6.47884 79.8216 6.46452 79.8574 6.4502C79.8932 6.43587 79.9255 6.42513 79.9541 6.41797C79.9899 6.40365 80.0114 6.39648 80.0186 6.39648C80.1403 6.36068 80.2764 6.32845 80.4268 6.2998C80.5843 6.264 80.7275 6.24609 80.8564 6.24609C81.0355 6.24609 81.2109 6.2819 81.3828 6.35352C81.5618 6.41797 81.7409 6.4681 81.9199 6.50391C82.1133 6.54688 82.3066 6.58984 82.5 6.63281C82.6934 6.66862 82.8831 6.71159 83.0693 6.76172C83.2627 6.81185 83.4489 6.8763 83.6279 6.95508C83.807 7.02669 83.9824 7.12337 84.1543 7.24512C84.1615 7.25228 84.1794 7.27376 84.208 7.30957C84.2367 7.33822 84.2689 7.37044 84.3047 7.40625C84.3405 7.44206 84.3763 7.47786 84.4121 7.51367C84.4479 7.54232 84.473 7.56022 84.4873 7.56738C84.4945 7.57454 84.5339 7.58529 84.6055 7.59961C84.6842 7.61393 84.7308 7.62109 84.7451 7.62109C84.7738 7.64258 84.7952 7.6748 84.8096 7.71777C84.8239 7.75358 84.8346 7.79655 84.8418 7.84668C84.8561 7.88965 84.8669 7.93262 84.874 7.97559C84.8883 8.01855 84.9062 8.05436 84.9277 8.08301C84.9349 8.09017 84.9456 8.10807 84.96 8.13672C84.9814 8.16536 85.0029 8.19401 85.0244 8.22266C85.0531 8.2513 85.0745 8.27995 85.0889 8.30859C85.1104 8.33008 85.1247 8.34082 85.1318 8.34082L85.1855 8.67383C85.207 8.70964 85.25 8.75977 85.3145 8.82422C85.3861 8.88867 85.4326 8.92806 85.4541 8.94238V9.5332C85.4541 9.58333 85.4684 9.64421 85.4971 9.71582C85.5329 9.78743 85.5687 9.86263 85.6045 9.94141C85.6403 10.0202 85.6761 10.099 85.7119 10.1777C85.7477 10.2565 85.7728 10.3281 85.7871 10.3926C85.8086 10.5 85.8229 10.5931 85.8301 10.6719C85.8372 10.7507 85.8444 10.8294 85.8516 10.9082C85.8587 10.9798 85.8623 11.055 85.8623 11.1338C85.8623 11.2126 85.8623 11.3057 85.8623 11.4131V11.8213C85.8623 11.8356 85.8516 11.8929 85.8301 11.9932C85.8086 12.0863 85.7943 12.1579 85.7871 12.208C85.7728 12.251 85.7585 12.3047 85.7441 12.3691C85.7298 12.4336 85.7155 12.498 85.7012 12.5625C85.694 12.627 85.6833 12.6842 85.6689 12.7344C85.6618 12.7773 85.6582 12.7988 85.6582 12.7988C85.6439 12.8203 85.6152 12.8633 85.5723 12.9277C85.5293 12.9922 85.4792 13.0638 85.4219 13.1426C85.3717 13.2142 85.3216 13.2822 85.2715 13.3467C85.2285 13.404 85.1999 13.4398 85.1855 13.4541C85.1855 13.4613 85.1712 13.4863 85.1426 13.5293C85.1211 13.5723 85.096 13.6224 85.0674 13.6797C85.0387 13.7298 85.0101 13.7799 84.9814 13.8301C84.9528 13.873 84.9349 13.9017 84.9277 13.916C84.8346 14.0449 84.7272 14.1667 84.6055 14.2812C84.4909 14.3887 84.3835 14.5033 84.2832 14.625C84.2188 14.7109 84.1758 14.7718 84.1543 14.8076C84.1328 14.8434 84.0863 14.8936 84.0146 14.958C83.9144 15.0368 83.8213 15.0977 83.7354 15.1406C83.6494 15.1836 83.5635 15.2516 83.4775 15.3447C83.4775 15.359 83.4632 15.3949 83.4346 15.4521C83.4059 15.5094 83.3844 15.5381 83.3701 15.5381C83.3558 15.5452 83.3307 15.5524 83.2949 15.5596C83.2591 15.5667 83.2161 15.5739 83.166 15.5811C83.123 15.5882 83.0801 15.5954 83.0371 15.6025C83.0013 15.6025 82.9762 15.6061 82.9619 15.6133C82.9189 15.6348 82.8402 15.6706 82.7256 15.7207C82.6182 15.7637 82.5 15.8138 82.3711 15.8711C82.2493 15.9212 82.1312 15.9714 82.0166 16.0215C81.9092 16.0788 81.834 16.1217 81.791 16.1504H81.1572C80.527 16.1504 79.9076 16.0394 79.2988 15.8174L79.1699 15.7422C79.1556 15.7207 79.1377 15.6992 79.1162 15.6777C79.0732 15.6348 79.0482 15.6133 79.041 15.6133C79.0339 15.6061 79.0124 15.599 78.9766 15.5918C78.9479 15.5846 78.9157 15.5775 78.8799 15.5703C78.8441 15.5632 78.8083 15.556 78.7725 15.5488C78.7367 15.5417 78.7152 15.5381 78.708 15.5381C78.4502 15.4808 78.2174 15.3841 78.0098 15.248C77.8092 15.112 77.623 14.958 77.4512 14.7861C77.2793 14.6143 77.111 14.4352 76.9463 14.249C76.7816 14.0557 76.6061 13.8766 76.4199 13.7119V13.6797ZM78.9121 14.3135C78.8978 14.335 78.8906 14.3636 78.8906 14.3994C78.8906 14.4567 78.9085 14.5068 78.9443 14.5498C78.9873 14.5928 79.0339 14.6322 79.084 14.668C79.1341 14.6966 79.1842 14.7253 79.2344 14.7539C79.2917 14.7826 79.3382 14.8076 79.374 14.8291C79.4456 14.8864 79.5173 14.9508 79.5889 15.0225C79.6676 15.0869 79.7464 15.1514 79.8252 15.2158C79.9111 15.2731 79.9971 15.3232 80.083 15.3662C80.1689 15.402 80.2656 15.4199 80.373 15.4199C80.4518 15.4342 80.527 15.445 80.5986 15.4521C80.6702 15.4593 80.7454 15.4629 80.8242 15.4629C80.8887 15.4629 80.9495 15.4593 81.0068 15.4521C81.0713 15.445 81.1322 15.4342 81.1895 15.4199L81.3936 15.3447L81.6943 15.334L81.9951 15.3447C82.0094 15.3376 82.0273 15.3304 82.0488 15.3232C82.0775 15.3161 82.1025 15.3018 82.124 15.2803C82.1455 15.266 82.1742 15.2516 82.21 15.2373C82.2458 15.2158 82.2816 15.1943 82.3174 15.1729C82.3532 15.1442 82.3926 15.1156 82.4355 15.0869C82.4499 15.0798 82.4749 15.0583 82.5107 15.0225C82.5537 14.9795 82.5967 14.9365 82.6396 14.8936C82.6826 14.8506 82.722 14.8112 82.7578 14.7754C82.7936 14.7324 82.8187 14.7074 82.833 14.7002L83.0371 14.5713C83.0872 14.5212 83.1517 14.4531 83.2305 14.3672C83.3092 14.2741 83.3844 14.1774 83.4561 14.0771C83.5277 13.9697 83.5885 13.8659 83.6387 13.7656C83.696 13.6654 83.7282 13.5794 83.7354 13.5078C83.7425 13.4863 83.7497 13.4541 83.7568 13.4111C83.7712 13.3682 83.7819 13.3216 83.7891 13.2715C83.7962 13.2214 83.7998 13.1784 83.7998 13.1426C83.807 13.0996 83.8105 13.0745 83.8105 13.0674C83.8535 12.6592 83.875 12.2617 83.875 11.875C83.875 11.5671 83.8535 11.2627 83.8105 10.9619C83.7819 10.9189 83.764 10.8724 83.7568 10.8223C83.7568 10.7721 83.7568 10.7184 83.7568 10.6611V10.4033C83.7568 10.3317 83.7497 10.278 83.7354 10.2422C83.7282 10.1562 83.6924 10.0811 83.6279 10.0166C83.5635 9.94499 83.5133 9.86979 83.4775 9.79102C83.4202 9.66211 83.3737 9.54395 83.3379 9.43652C83.3092 9.32194 83.2699 9.2002 83.2197 9.07129C83.2126 9.05697 83.2054 9.03906 83.1982 9.01758C83.1911 8.99609 83.1803 8.97103 83.166 8.94238L82.9619 8.59863C82.9619 8.59147 82.9548 8.55208 82.9404 8.48047C82.9261 8.40885 82.9154 8.3623 82.9082 8.34082C82.7578 8.13314 82.568 7.97917 82.3389 7.87891C82.1169 7.77148 81.8913 7.66764 81.6621 7.56738C81.6406 7.55306 81.6012 7.53874 81.5439 7.52441C81.4938 7.51009 81.4652 7.50293 81.458 7.50293H81.0068L80.6738 7.42773H80.0186L79.6318 7.62109C79.5531 7.6569 79.485 7.67839 79.4277 7.68555C79.3704 7.69271 79.3096 7.72135 79.2451 7.77148C79.1234 7.85026 79.0052 7.9362 78.8906 8.0293C78.776 8.11523 78.6507 8.20117 78.5146 8.28711C78.5075 8.28711 78.5003 8.29069 78.4932 8.29785C78.4932 8.30501 78.486 8.31217 78.4717 8.31934C78.4574 8.3265 78.4466 8.33366 78.4395 8.34082C78.4395 8.35514 78.4359 8.38021 78.4287 8.41602C78.4287 8.44466 78.4251 8.47689 78.418 8.5127C78.4108 8.5485 78.4036 8.58431 78.3965 8.62012C78.3965 8.64876 78.3929 8.66667 78.3857 8.67383L78.2568 8.80273C78.2354 8.83138 78.2103 8.87435 78.1816 8.93164C78.1602 8.98177 78.1351 9.03548 78.1064 9.09277C78.0778 9.1429 78.0527 9.19303 78.0312 9.24316C78.0169 9.28613 78.0062 9.31478 77.999 9.3291V9.64062C77.9919 9.65495 77.9811 9.68359 77.9668 9.72656C77.9525 9.76953 77.9382 9.8125 77.9238 9.85547C77.9095 9.89844 77.8952 9.94141 77.8809 9.98438C77.8737 10.0202 77.8701 10.0417 77.8701 10.0488V10.1455L77.999 10.7793C77.999 10.8581 77.9775 10.9261 77.9346 10.9834C77.8916 11.0335 77.8701 11.1016 77.8701 11.1875C77.8701 11.4167 77.9059 11.6172 77.9775 11.7891C78.0492 11.9538 78.0993 12.1364 78.1279 12.3369L78.2568 13.5078L78.3857 13.7119C78.3929 13.7191 78.4036 13.7441 78.418 13.7871C78.4251 13.8086 78.4323 13.8265 78.4395 13.8408L78.9121 14.3135ZM88.4512 15.9785C88.3223 15.9785 88.2113 15.9749 88.1182 15.9678C88.0251 15.9606 87.9069 15.9391 87.7637 15.9033C87.6849 15.889 87.6383 15.8711 87.624 15.8496C87.6169 15.8281 87.6133 15.7852 87.6133 15.7207C87.6133 15.5345 87.6849 15.402 87.8281 15.3232C87.9714 15.2445 88.1253 15.1979 88.29 15.1836H88.8057C88.82 15.1836 88.8594 15.1514 88.9238 15.0869C88.9883 15.0153 89.0348 14.9616 89.0635 14.9258C89.085 14.9115 89.11 14.8792 89.1387 14.8291C89.1745 14.779 89.1924 14.7467 89.1924 14.7324C89.1995 14.7038 89.2067 14.6536 89.2139 14.582C89.221 14.5033 89.2282 14.4245 89.2354 14.3457C89.2425 14.2598 89.2497 14.181 89.2568 14.1094C89.264 14.0378 89.2676 13.9876 89.2676 13.959L89.1924 13.1211V12.9707C89.1924 12.9349 89.196 12.8991 89.2031 12.8633C89.2103 12.8275 89.2318 12.7952 89.2676 12.7666V12.3047L89.1924 10.9619V10.3496C89.2139 10.321 89.2389 10.2601 89.2676 10.167C89.3034 10.0739 89.3213 9.98796 89.3213 9.90918C89.3213 9.65853 89.2891 9.43294 89.2246 9.23242C89.1602 9.02474 89.0885 8.8099 89.0098 8.58789C89.0098 8.57357 88.999 8.53776 88.9775 8.48047C88.9632 8.42318 88.9489 8.39095 88.9346 8.38379C88.9059 8.31934 88.8809 8.27279 88.8594 8.24414C88.8451 8.20833 88.8092 8.16536 88.752 8.11523C88.7305 8.10091 88.6911 8.07585 88.6338 8.04004C88.5837 7.99707 88.5264 7.95052 88.4619 7.90039C88.4046 7.85026 88.3438 7.80371 88.2793 7.76074C88.222 7.71061 88.179 7.6748 88.1504 7.65332C88.0645 7.58887 87.9642 7.53516 87.8496 7.49219C87.7422 7.44206 87.6348 7.38835 87.5273 7.33105C87.4271 7.27376 87.3376 7.20573 87.2588 7.12695C87.18 7.04818 87.1335 6.94076 87.1191 6.80469C87.1191 6.79036 87.1227 6.76172 87.1299 6.71875C87.1442 6.66862 87.1585 6.63281 87.1729 6.61133C87.18 6.59701 87.1979 6.57552 87.2266 6.54688C87.2624 6.51823 87.2874 6.49674 87.3018 6.48242H87.5596C87.6383 6.47526 87.7064 6.45378 87.7637 6.41797C87.8281 6.375 87.9033 6.35352 87.9893 6.35352C88.1396 6.35352 88.2865 6.37142 88.4297 6.40723C88.5801 6.44303 88.7305 6.4681 88.8809 6.48242C88.8952 6.48958 88.9346 6.49674 88.999 6.50391C89.0635 6.51107 89.1315 6.51823 89.2031 6.52539C89.2747 6.52539 89.3428 6.52897 89.4072 6.53613C89.4717 6.53613 89.5111 6.53613 89.5254 6.53613C89.5397 6.55046 89.5898 6.58268 89.6758 6.63281C89.7617 6.67578 89.819 6.71159 89.8477 6.74023L90.1807 7.1377C90.3311 7.25228 90.4743 7.37044 90.6104 7.49219C90.7536 7.61393 90.8968 7.73568 91.04 7.85742C91.04 7.87174 91.0579 7.88607 91.0938 7.90039C91.1296 7.90755 91.1546 7.91113 91.1689 7.91113C91.1761 7.92546 91.1868 7.93978 91.2012 7.9541C91.2155 7.96842 91.2227 7.97917 91.2227 7.98633L91.373 8.25488L91.8135 8.7168C91.8278 8.73112 91.8493 8.77409 91.8779 8.8457C91.9137 8.91732 91.9352 8.96029 91.9424 8.97461C92.0212 9.10352 92.1071 9.20736 92.2002 9.28613C92.2933 9.36491 92.3864 9.43652 92.4795 9.50098C92.5798 9.56543 92.6764 9.63346 92.7695 9.70508C92.8698 9.76953 92.9665 9.85547 93.0596 9.96289C93.2243 10.1419 93.3604 10.3174 93.4678 10.4893C93.5752 10.6611 93.7005 10.8509 93.8438 11.0586C93.8438 11.0729 93.8509 11.0872 93.8652 11.1016C93.8867 11.1087 93.9046 11.1195 93.9189 11.1338L94.1016 11.2627C94.123 11.277 94.1589 11.3128 94.209 11.3701C94.2663 11.4274 94.3271 11.4883 94.3916 11.5527C94.4561 11.6172 94.5169 11.6781 94.5742 11.7354C94.6315 11.7926 94.6709 11.8249 94.6924 11.832C94.7067 11.8535 94.7389 11.8822 94.7891 11.918C94.8392 11.9538 94.8714 11.9753 94.8857 11.9824C94.9287 12.0182 94.9753 12.0719 95.0254 12.1436C95.0755 12.208 95.1257 12.2725 95.1758 12.3369C95.2259 12.4014 95.276 12.4587 95.3262 12.5088C95.3763 12.5589 95.4264 12.584 95.4766 12.584C95.5553 12.584 95.6234 12.5625 95.6807 12.5195C95.7451 12.4694 95.806 12.4229 95.8633 12.3799C95.9421 12.3226 95.985 12.2832 95.9922 12.2617C96.0065 12.2331 96.0137 12.1829 96.0137 12.1113L95.8633 11.1445L95.9385 10.2207C95.9385 10.2135 95.9313 10.1956 95.917 10.167C95.9027 10.1383 95.8848 10.1097 95.8633 10.0811C95.849 10.0524 95.8346 10.0273 95.8203 10.0059C95.8132 9.97721 95.8096 9.96289 95.8096 9.96289V9.70508C95.8096 9.68359 95.7988 9.64779 95.7773 9.59766C95.763 9.54753 95.7487 9.5153 95.7344 9.50098V8.5127C95.7344 8.49121 95.7308 8.45182 95.7236 8.39453C95.7236 8.33724 95.7201 8.27637 95.7129 8.21191C95.7057 8.14746 95.6986 8.08659 95.6914 8.0293C95.6914 7.97201 95.6878 7.93262 95.6807 7.91113C95.6663 7.84668 95.6305 7.78939 95.5732 7.73926C95.5231 7.68197 95.4587 7.65332 95.3799 7.65332C95.3011 7.65332 95.2188 7.66764 95.1328 7.69629C95.0469 7.71777 94.9574 7.72852 94.8643 7.72852C94.8141 7.72852 94.7282 7.72493 94.6064 7.71777C94.4919 7.71061 94.3737 7.69629 94.252 7.6748C94.1302 7.64616 94.0228 7.60677 93.9297 7.55664C93.8366 7.50651 93.79 7.4349 93.79 7.3418V7.00879C93.79 6.92285 93.79 6.84049 93.79 6.76172C93.7972 6.67578 93.8151 6.60417 93.8438 6.54688C93.8724 6.48958 93.9154 6.44303 93.9727 6.40723C94.0371 6.37142 94.123 6.35352 94.2305 6.35352C94.4238 6.35352 94.6172 6.375 94.8105 6.41797C95.0111 6.46094 95.2008 6.48242 95.3799 6.48242C95.4801 6.48242 95.5947 6.47526 95.7236 6.46094C95.8525 6.43945 95.9671 6.40365 96.0674 6.35352H97.3672C97.4245 6.38932 97.4889 6.41081 97.5605 6.41797C97.6322 6.42513 97.7074 6.42871 97.7861 6.42871H98.0439C98.137 6.47884 98.1908 6.55404 98.2051 6.6543C98.2194 6.7474 98.2266 6.84408 98.2266 6.94434V7.00879C98.2266 7.20215 98.1406 7.35612 97.9688 7.4707L97.3672 7.85742C97.3672 7.86458 97.3529 7.87174 97.3242 7.87891C97.2956 7.88607 97.2633 7.89323 97.2275 7.90039C97.1917 7.90039 97.1559 7.90397 97.1201 7.91113C97.0843 7.91113 97.0628 7.91113 97.0557 7.91113C97.027 7.92546 96.9948 7.96484 96.959 8.0293C96.9232 8.09375 96.8874 8.16895 96.8516 8.25488C96.8158 8.33366 96.7835 8.40885 96.7549 8.48047C96.7334 8.54492 96.7227 8.58431 96.7227 8.59863L96.7979 8.94238C96.7979 8.94954 96.7979 8.96745 96.7979 8.99609C96.7979 9.01758 96.7907 9.02832 96.7764 9.02832C96.7764 9.04264 96.7656 9.06771 96.7441 9.10352C96.7298 9.13932 96.7227 9.16439 96.7227 9.17871C96.7012 9.25749 96.6904 9.34701 96.6904 9.44727C96.6904 9.54753 96.6868 9.65137 96.6797 9.75879C96.6797 9.85905 96.6725 9.95573 96.6582 10.0488C96.651 10.1419 96.6296 10.2171 96.5938 10.2744L96.54 11.9502C96.5472 12.1436 96.583 12.3262 96.6475 12.498C96.7191 12.6628 96.762 12.8382 96.7764 13.0244L96.8516 14.2168C96.8659 14.2812 96.8874 14.3493 96.916 14.4209C96.9518 14.557 96.9984 14.7038 97.0557 14.8613V15.8496C97.0557 15.9284 97.0163 15.9893 96.9375 16.0322C96.8587 16.0824 96.7871 16.1074 96.7227 16.1074C96.6439 16.1074 96.5615 16.0859 96.4756 16.043C96.3896 16 96.3037 15.9499 96.2178 15.8926C96.1318 15.8281 96.0531 15.7637 95.9814 15.6992C95.9098 15.6276 95.8525 15.5667 95.8096 15.5166C95.7881 15.4951 95.7559 15.4629 95.7129 15.4199C95.6771 15.3698 95.6377 15.3197 95.5947 15.2695C95.5518 15.2194 95.5124 15.1764 95.4766 15.1406C95.4408 15.0977 95.4157 15.069 95.4014 15.0547C95.4014 15.0404 95.3835 14.9974 95.3477 14.9258C95.319 14.847 95.3011 14.804 95.2939 14.7969C95.2796 14.7897 95.2474 14.7646 95.1973 14.7217C95.1543 14.6715 95.1042 14.6214 95.0469 14.5713C94.9967 14.514 94.9466 14.4639 94.8965 14.4209C94.8535 14.3708 94.8285 14.3385 94.8213 14.3242C94.5993 14.1022 94.4023 13.8695 94.2305 13.626C94.1517 13.5042 94.0658 13.4111 93.9727 13.3467C93.8796 13.2822 93.7936 13.1999 93.7148 13.0996C93.7148 13.0853 93.6969 13.0531 93.6611 13.0029C93.6253 12.9528 93.6003 12.917 93.5859 12.8955C93.5788 12.8883 93.5645 12.8704 93.543 12.8418C93.5286 12.806 93.5107 12.7702 93.4893 12.7344C93.4678 12.6986 93.4463 12.6663 93.4248 12.6377C93.4105 12.6019 93.3997 12.584 93.3926 12.584C93.2923 12.4479 93.1634 12.3405 93.0059 12.2617C92.8483 12.1758 92.7122 12.0827 92.5977 11.9824L92.415 11.7783C92.4007 11.7712 92.3721 11.7425 92.3291 11.6924C92.2933 11.6351 92.2754 11.5957 92.2754 11.5742L91.8887 11.2627L91.04 10.3496C91.0114 10.321 90.9648 10.278 90.9004 10.2207C90.8431 10.1562 90.7822 10.0918 90.7178 10.0273C90.6533 9.96289 90.5924 9.9056 90.5352 9.85547C90.485 9.80534 90.4528 9.77311 90.4385 9.75879C90.4027 9.73014 90.3669 9.71224 90.3311 9.70508C90.3024 9.69076 90.2594 9.68359 90.2021 9.68359C90.1162 9.68359 90.0553 9.71224 90.0195 9.76953C89.9909 9.81966 89.9766 9.88411 89.9766 9.96289C89.9766 9.97721 89.9766 10.013 89.9766 10.0703C89.9766 10.1204 89.9837 10.1455 89.998 10.1455L90.0518 10.6611V11.5742L90.1055 12.584C90.1126 12.584 90.1198 12.6019 90.127 12.6377C90.1341 12.6735 90.1413 12.7129 90.1484 12.7559C90.1556 12.7988 90.1628 12.8418 90.1699 12.8848C90.1771 12.9206 90.1807 12.9421 90.1807 12.9492V13.626C90.1807 13.6331 90.1878 13.6761 90.2021 13.7549C90.2236 13.8265 90.2415 13.8695 90.2559 13.8838C90.2702 14.0485 90.2952 14.2168 90.3311 14.3887C90.3669 14.5534 90.3848 14.7181 90.3848 14.8828C90.3848 14.9186 90.3848 14.9616 90.3848 15.0117C90.3848 15.0547 90.3776 15.0941 90.3633 15.1299L90.4385 15.1836C90.4814 15.1908 90.5531 15.2015 90.6533 15.2158C90.7536 15.223 90.8574 15.2337 90.9648 15.248C91.0794 15.2624 91.1833 15.2803 91.2764 15.3018C91.3766 15.3161 91.4447 15.3268 91.4805 15.334C91.6094 15.3411 91.6882 15.3662 91.7168 15.4092C91.7454 15.4521 91.7598 15.5309 91.7598 15.6455C91.7598 15.8389 91.6882 15.9642 91.5449 16.0215C91.4017 16.0788 91.2513 16.1074 91.0938 16.1074C91.015 16.1074 90.9469 16.1038 90.8896 16.0967C90.8395 16.0895 90.793 16.0788 90.75 16.0645C90.707 16.0501 90.6605 16.0322 90.6104 16.0107C90.5674 15.9964 90.5101 15.9821 90.4385 15.9678C90.4027 15.9678 90.3418 15.957 90.2559 15.9355C90.1771 15.9141 90.127 15.9033 90.1055 15.9033H89.5684L88.4512 15.9785ZM104.113 15.6885C104.113 15.5166 104.167 15.377 104.274 15.2695C104.382 15.1549 104.521 15.0618 104.693 14.9902C104.872 14.9186 105.069 14.8613 105.284 14.8184C105.506 14.7754 105.725 14.7396 105.939 14.7109C106.154 14.6751 106.358 14.6393 106.552 14.6035C106.745 14.5677 106.906 14.5247 107.035 14.4746C107.157 14.4245 107.3 14.3385 107.465 14.2168C107.63 14.0879 107.794 13.9447 107.959 13.7871C108.131 13.6296 108.285 13.472 108.421 13.3145C108.564 13.1497 108.672 13.0029 108.743 12.874C108.743 12.874 108.747 12.8561 108.754 12.8203C108.761 12.7845 108.768 12.7487 108.775 12.7129C108.783 12.6699 108.79 12.6341 108.797 12.6055C108.804 12.5697 108.811 12.5482 108.818 12.541C108.861 12.4121 108.919 12.3011 108.99 12.208C109.069 12.1077 109.151 12.0182 109.237 11.9395C109.33 11.8607 109.424 11.7819 109.517 11.7031C109.617 11.6243 109.714 11.5384 109.807 11.4453C109.871 11.3737 109.925 11.2842 109.968 11.1768C110.018 11.0693 110.064 10.9655 110.107 10.8652C110.158 10.7578 110.215 10.6611 110.279 10.5752C110.351 10.4893 110.44 10.432 110.548 10.4033C110.584 10.4033 110.619 10.3818 110.655 10.3389C110.698 10.2959 110.734 10.2673 110.763 10.2529L110.902 10.0166C110.938 9.94499 111.003 9.85905 111.096 9.75879C111.189 9.65853 111.289 9.56543 111.396 9.47949C111.511 9.38639 111.626 9.30404 111.74 9.23242C111.855 9.15365 111.951 9.10352 112.03 9.08203C112.066 9.07487 112.084 9.0319 112.084 8.95312C112.084 8.87435 112.048 8.77767 111.977 8.66309C111.912 8.5485 111.826 8.43034 111.719 8.30859C111.618 8.18685 111.511 8.06868 111.396 7.9541C111.289 7.83236 111.192 7.7321 111.106 7.65332C110.92 7.45996 110.827 7.33822 110.827 7.28809C110.82 7.27376 110.809 7.24512 110.795 7.20215C110.788 7.15918 110.777 7.11621 110.763 7.07324C110.748 7.02311 110.734 6.98014 110.72 6.94434C110.705 6.90137 110.698 6.87988 110.698 6.87988C110.684 6.8584 110.652 6.82975 110.602 6.79395C110.559 6.75814 110.508 6.72233 110.451 6.68652C110.401 6.65072 110.354 6.61849 110.312 6.58984C110.276 6.5612 110.254 6.53971 110.247 6.52539L109.807 5.78418L109.452 5.50488C109.33 5.3903 109.234 5.26139 109.162 5.11816C109.098 4.96777 109.008 4.83529 108.894 4.7207L108.281 4.12988C108.26 3.97233 108.231 3.85775 108.195 3.78613C108.167 3.71452 108.127 3.66081 108.077 3.625C108.034 3.58203 107.984 3.54622 107.927 3.51758C107.869 3.48177 107.801 3.42448 107.723 3.3457L107.551 3.0127C107.386 2.8265 107.218 2.67253 107.046 2.55078C106.881 2.42188 106.666 2.35742 106.401 2.35742H104.801C104.722 2.35742 104.658 2.33594 104.607 2.29297C104.557 2.25 104.514 2.19987 104.479 2.14258C104.45 2.07812 104.428 2.01009 104.414 1.93848C104.4 1.86686 104.393 1.80241 104.393 1.74512C104.393 1.57324 104.432 1.43717 104.511 1.33691C104.597 1.23665 104.701 1.16504 104.822 1.12207C104.951 1.07194 105.087 1.03971 105.23 1.02539C105.381 1.01107 105.524 1.00391 105.66 1.00391C105.768 1.00391 105.85 1.01107 105.907 1.02539C105.965 1.03255 106.036 1.07552 106.122 1.1543H107.723C107.801 1.1901 107.869 1.21159 107.927 1.21875C107.984 1.22591 108.07 1.22949 108.185 1.22949L109.323 1.1543C109.381 1.1543 109.484 1.15788 109.635 1.16504C109.792 1.1722 109.968 1.18294 110.161 1.19727C110.362 1.20443 110.569 1.21517 110.784 1.22949C111.006 1.24382 111.207 1.26172 111.386 1.2832C111.565 1.29753 111.712 1.31901 111.826 1.34766C111.948 1.36914 112.009 1.39062 112.009 1.41211C112.023 1.46224 112.037 1.50163 112.052 1.53027C112.066 1.55892 112.073 1.58757 112.073 1.61621C112.073 1.65202 112.066 1.69857 112.052 1.75586C112.037 1.81315 112.023 1.8597 112.009 1.89551C111.98 1.99577 111.894 2.07096 111.751 2.12109C111.615 2.17122 111.465 2.22493 111.3 2.28223C111.142 2.33952 110.999 2.41471 110.87 2.50781C110.741 2.59375 110.677 2.72266 110.677 2.89453C110.677 3.04492 110.705 3.18815 110.763 3.32422C110.82 3.45312 110.888 3.57845 110.967 3.7002C111.053 3.82194 111.142 3.9401 111.235 4.05469C111.336 4.16211 111.429 4.27311 111.515 4.3877C111.522 4.3877 111.533 4.40918 111.547 4.45215C111.561 4.49512 111.568 4.52376 111.568 4.53809C111.683 4.82454 111.83 5.08594 112.009 5.32227C112.195 5.55859 112.37 5.79134 112.535 6.02051C112.535 6.07064 112.546 6.11003 112.567 6.13867C112.582 6.16016 112.596 6.17806 112.61 6.19238C112.61 6.22103 112.614 6.2819 112.621 6.375C112.628 6.46094 112.65 6.51107 112.686 6.52539C112.714 6.5612 112.761 6.59701 112.825 6.63281C112.897 6.66862 112.972 6.70443 113.051 6.74023C113.13 6.77604 113.205 6.81185 113.276 6.84766C113.348 6.88346 113.405 6.91569 113.448 6.94434L113.588 7.00879C113.688 6.97298 113.803 6.8763 113.932 6.71875C114.061 6.5612 114.193 6.36784 114.329 6.13867C114.472 5.90951 114.616 5.65885 114.759 5.38672C114.902 5.11458 115.038 4.84961 115.167 4.5918C115.303 4.32682 115.425 4.08691 115.532 3.87207C115.64 3.65007 115.729 3.47461 115.801 3.3457C115.858 3.23112 115.923 3.14518 115.994 3.08789C116.066 3.02344 116.102 2.93034 116.102 2.80859C116.102 2.77995 116.087 2.72624 116.059 2.64746C116.037 2.56152 116.008 2.47559 115.973 2.38965C115.944 2.29655 115.912 2.21777 115.876 2.15332C115.847 2.08171 115.822 2.0459 115.801 2.0459C115.701 2.06022 115.615 2.08171 115.543 2.11035C115.471 2.139 115.385 2.15332 115.285 2.15332C115.192 2.15332 115.095 2.139 114.995 2.11035C114.895 2.08171 114.787 2.06022 114.673 2.0459C114.616 2.01009 114.562 1.98145 114.512 1.95996C114.469 1.93132 114.429 1.90267 114.394 1.87402C114.358 1.83822 114.329 1.79883 114.308 1.75586C114.286 1.70573 114.275 1.64128 114.275 1.5625C114.275 1.48372 114.283 1.40495 114.297 1.32617C114.318 1.2474 114.379 1.20801 114.479 1.20801C114.666 1.17936 114.888 1.1543 115.146 1.13281C115.41 1.11133 115.704 1.10059 116.026 1.10059C116.384 1.10059 116.768 1.11133 117.176 1.13281C117.591 1.1543 118.021 1.17936 118.465 1.20801C118.773 1.17936 119.077 1.14714 119.378 1.11133C119.679 1.07552 119.969 1.05762 120.248 1.05762C120.406 1.05762 120.527 1.08984 120.613 1.1543C120.699 1.21159 120.742 1.33333 120.742 1.51953C120.742 1.61979 120.703 1.70215 120.624 1.7666C120.552 1.83105 120.459 1.88477 120.345 1.92773C120.23 1.96354 120.101 1.99577 119.958 2.02441C119.815 2.0459 119.679 2.06738 119.55 2.08887C119.421 2.10319 119.303 2.12467 119.195 2.15332C119.095 2.1748 119.023 2.20703 118.98 2.25L118.411 2.80859L118.035 2.99121C117.949 3.05566 117.856 3.14518 117.756 3.25977C117.656 3.36719 117.559 3.48177 117.466 3.60352C117.373 3.72526 117.287 3.84701 117.208 3.96875C117.129 4.09049 117.068 4.19792 117.025 4.29102C117.025 4.31966 117.022 4.37337 117.015 4.45215C117.007 4.53092 116.99 4.57747 116.961 4.5918C116.947 4.60612 116.911 4.62044 116.854 4.63477C116.796 4.64193 116.764 4.64551 116.757 4.64551C116.642 4.72428 116.517 4.83887 116.381 4.98926C116.245 5.13249 116.119 5.24707 116.005 5.33301C115.926 5.44759 115.88 5.56934 115.865 5.69824C115.858 5.82715 115.819 5.93457 115.747 6.02051L115.242 6.52539C115.099 6.71159 114.977 6.88704 114.877 7.05176C114.777 7.20931 114.633 7.38118 114.447 7.56738C114.326 7.69629 114.265 7.81087 114.265 7.91113C114.265 8.09733 114.329 8.30143 114.458 8.52344C114.594 8.73828 114.744 8.94954 114.909 9.15723C115.081 9.35775 115.239 9.54036 115.382 9.70508C115.532 9.86979 115.618 9.99154 115.64 10.0703L116.08 10.876C116.159 11.0192 116.27 11.1553 116.413 11.2842C116.556 11.4059 116.671 11.5169 116.757 11.6172C116.879 11.8105 116.975 12.0003 117.047 12.1865C117.118 12.3727 117.212 12.5589 117.326 12.7451C117.355 12.8096 117.416 12.8669 117.509 12.917C117.602 12.9671 117.67 13.0101 117.713 13.0459C117.971 13.3324 118.178 13.5544 118.336 13.7119C118.493 13.8695 118.612 13.9912 118.69 14.0771C118.776 14.1559 118.83 14.2061 118.852 14.2275C118.88 14.249 118.898 14.2705 118.905 14.292L119.442 14.7539C119.593 14.8327 119.747 14.8936 119.904 14.9365C120.062 14.9723 120.219 15.0117 120.377 15.0547C120.542 15.0905 120.703 15.1299 120.86 15.1729C121.018 15.2158 121.172 15.2803 121.322 15.3662V15.6133C121.322 15.7064 121.301 15.778 121.258 15.8281C121.222 15.8783 121.172 15.9176 121.107 15.9463C121.043 15.9678 120.968 15.9821 120.882 15.9893C120.803 15.9964 120.721 16 120.635 16H120.355C120.277 16 120.187 15.9893 120.087 15.9678C119.994 15.9391 119.894 15.9141 119.786 15.8926C119.686 15.8639 119.582 15.8389 119.475 15.8174C119.367 15.7887 119.263 15.7744 119.163 15.7744C119.07 15.7744 118.977 15.7887 118.884 15.8174C118.791 15.8389 118.687 15.8496 118.572 15.8496L118.035 15.7207L117.38 15.7744H117.165C117.093 15.7744 117.04 15.7744 117.004 15.7744C116.968 15.7673 116.932 15.7493 116.896 15.7207H116.359L114.297 15.8496H114.093C114.035 15.8496 113.975 15.846 113.91 15.8389C113.846 15.8245 113.785 15.8102 113.728 15.7959C113.67 15.7744 113.62 15.7493 113.577 15.7207C113.541 15.6921 113.523 15.6562 113.523 15.6133C113.523 15.556 113.57 15.4915 113.663 15.4199C113.756 15.3483 113.871 15.2731 114.007 15.1943C114.143 15.1156 114.29 15.0332 114.447 14.9473C114.612 14.8542 114.762 14.7646 114.898 14.6787C115.035 14.5856 115.149 14.4925 115.242 14.3994C115.335 14.2992 115.382 14.2025 115.382 14.1094C115.382 14.0736 115.371 14.0306 115.35 13.9805C115.335 13.9303 115.321 13.8838 115.307 13.8408C115.285 13.7907 115.264 13.737 115.242 13.6797C115.242 13.6582 115.221 13.626 115.178 13.583C115.135 13.54 115.088 13.4971 115.038 13.4541C114.988 13.404 114.938 13.361 114.888 13.3252C114.845 13.2822 114.816 13.25 114.802 13.2285C114.759 13.1569 114.727 13.0817 114.705 13.0029C114.684 12.917 114.662 12.8346 114.641 12.7559C114.626 12.6771 114.608 12.6019 114.587 12.5303C114.565 12.4587 114.53 12.3942 114.479 12.3369C114.465 12.3298 114.44 12.3118 114.404 12.2832C114.368 12.2546 114.329 12.2223 114.286 12.1865C114.243 12.1436 114.204 12.1077 114.168 12.0791C114.139 12.0433 114.121 12.0182 114.114 12.0039V11.7031C114.064 11.5671 113.993 11.4382 113.899 11.3164C113.813 11.1947 113.72 11.0765 113.62 10.9619C113.527 10.8402 113.434 10.7184 113.341 10.5967C113.255 10.4678 113.183 10.3317 113.126 10.1885C113.104 10.1527 113.069 10.0811 113.019 9.97363C112.968 9.86621 112.911 9.75879 112.847 9.65137C112.789 9.53678 112.732 9.43652 112.675 9.35059C112.618 9.26465 112.571 9.22168 112.535 9.22168C112.27 9.49382 112.048 9.79102 111.869 10.1133C111.69 10.4355 111.504 10.7578 111.311 11.0801C111.046 11.4954 110.802 11.8965 110.58 12.2832C110.365 12.6699 110.193 13.071 110.064 13.4863C110.05 13.5007 110.036 13.5293 110.021 13.5723C110.014 13.6152 110.011 13.651 110.011 13.6797C109.996 13.6797 109.968 13.7048 109.925 13.7549C109.889 13.805 109.868 13.8337 109.86 13.8408C109.86 13.9912 109.896 14.1165 109.968 14.2168C110.039 14.3099 110.129 14.3923 110.236 14.4639C110.344 14.5283 110.462 14.5892 110.591 14.6465C110.72 14.7038 110.838 14.7646 110.945 14.8291C111.053 14.8936 111.142 14.9688 111.214 15.0547C111.285 15.1335 111.321 15.2373 111.321 15.3662C111.321 15.4951 111.26 15.5882 111.139 15.6455C111.024 15.7028 110.92 15.7458 110.827 15.7744C110.813 15.7887 110.77 15.8066 110.698 15.8281C110.634 15.8424 110.555 15.8604 110.462 15.8818C110.376 15.8962 110.29 15.9105 110.204 15.9248C110.118 15.9391 110.054 15.9463 110.011 15.9463H109.968C109.717 15.9463 109.47 15.9105 109.227 15.8389C108.983 15.7601 108.74 15.7207 108.496 15.7207L107.218 16C107.182 15.9928 107.15 15.9857 107.121 15.9785C107.092 15.9714 107.064 15.9642 107.035 15.957C107.007 15.9499 106.981 15.9463 106.96 15.9463C106.831 15.9463 106.684 15.9642 106.52 16C106.362 16.043 106.201 16.0895 106.036 16.1396C105.879 16.1898 105.728 16.2327 105.585 16.2686C105.442 16.3115 105.324 16.333 105.23 16.333C105.116 16.3187 104.991 16.2936 104.854 16.2578C104.726 16.222 104.647 16.2041 104.618 16.2041C104.525 16.1683 104.446 16.1396 104.382 16.1182C104.317 16.0967 104.264 16.0716 104.221 16.043C104.185 16.0143 104.156 15.9749 104.135 15.9248C104.12 15.8747 104.113 15.7959 104.113 15.6885Z" fill="white"/>
</g>
<defs>
<clipPath id="clip0_3_269">
<rect width="122" height="17" fill="white"/>
</clipPath>
</defs>
</svg>
