<svg width="448" height="63" viewBox="0 0 448 63" fill="none" xmlns="http://www.w3.org/2000/svg">
<path d="M44.7148 12.043L42.729 9.97607C42.0535 9.38167 41.4186 8.89535 40.8242 8.51709C40.2568 8.13883 39.6895 7.84163 39.1221 7.62549C38.5547 7.38232 37.9738 7.22021 37.3794 7.13916C36.812 7.05811 36.1771 7.01758 35.4746 7.01758C35.2314 7.01758 35.0828 7.0446 35.0288 7.09863C34.2993 7.09863 33.7184 7.09863 33.2861 7.09863C32.8809 7.09863 32.5701 7.09863 32.354 7.09863C32.1379 7.09863 31.9893 7.11214 31.9082 7.13916C31.8542 7.13916 31.8271 7.13916 31.8271 7.13916H28.7065C28.2472 7.27425 27.7744 7.35531 27.2881 7.38232C26.8018 7.40934 26.3289 7.42285 25.8696 7.42285C24.8429 7.42285 24.0594 7.43636 23.519 7.46338C23.0057 7.4904 22.5869 7.59847 22.2627 7.7876C21.9655 7.89567 21.7899 8.04427 21.7358 8.2334C21.6818 8.39551 21.6548 8.54411 21.6548 8.6792C21.6548 9.24658 21.5737 9.66536 21.4116 9.93555C21.2765 10.1787 20.9793 10.4489 20.52 10.7461C20.439 10.8001 20.3714 10.9352 20.3174 11.1514C20.2904 11.3675 20.2498 11.6107 20.1958 11.8809C20.1688 12.151 20.1418 12.4212 20.1147 12.6914C20.1147 12.9616 20.1147 13.1777 20.1147 13.3398C20.1147 13.9613 20.2093 14.5557 20.3984 15.123C20.5876 15.6904 20.6821 16.3254 20.6821 17.0278L20.3174 19.5811C20.3174 20.2025 20.4525 20.8239 20.7227 21.4453C21.0199 22.0667 21.1685 22.7422 21.1685 23.4717L20.52 29.5103C20.52 29.7534 20.6281 30.0371 20.8442 30.3613C21.0604 30.6585 21.236 30.8882 21.3711 31.0503C22.2087 31.1584 23.0597 31.3205 23.9243 31.5366C24.7889 31.7257 25.64 31.8203 26.4775 31.8203C26.6667 31.8203 26.8288 31.8068 26.9639 31.7798C27.126 31.7257 27.2746 31.5501 27.4097 31.2529C27.7069 31.2259 28.0581 31.1989 28.4634 31.1719C28.8957 31.1449 29.382 31.1313 29.9224 31.1313C30.6519 31.1313 31.4354 31.1313 32.2729 31.1313C33.1105 31.1043 33.9346 31.0638 34.7451 31.0098C35.5557 30.9287 36.2987 30.8206 36.9741 30.6855C37.6496 30.5234 38.1764 30.2938 38.5547 29.9966C38.9329 29.7534 39.2166 29.4022 39.4058 28.9429C39.6219 28.4836 39.784 27.9972 39.8921 27.4839C40.0002 26.9435 40.0947 26.4032 40.1758 25.8628C40.2568 25.3224 40.3649 24.8361 40.5 24.4038C40.6621 23.9445 40.8783 23.5798 41.1484 23.3096C41.4456 23.0124 41.8644 22.8638 42.4048 22.8638C42.5669 22.8638 42.7155 22.8908 42.8506 22.9448C43.0127 22.9989 43.1613 23.1745 43.2964 23.4717V25.1738C43.2964 26.4707 43.1613 27.7135 42.8911 28.9023C42.756 29.848 42.6209 30.7126 42.4858 31.4961C42.3778 32.2526 42.3237 33.0226 42.3237 33.8062C42.3237 34.4816 42.4183 35.1436 42.6074 35.792C42.8236 36.4134 43.0397 37.0348 43.2559 37.6562C43.499 38.2507 43.7152 38.8586 43.9043 39.48C44.1204 40.1014 44.2285 40.7363 44.2285 41.3848C44.2285 41.79 44.215 42.1007 44.188 42.3169C44.188 42.506 44.134 42.6276 44.0259 42.6816C43.8908 42.8978 43.7962 43.0599 43.7422 43.168C43.6882 43.276 43.5396 43.3301 43.2964 43.3301C42.8911 43.3301 42.5804 43.1815 42.3643 42.8843C42.1751 42.5871 41.932 42.2899 41.6348 41.9927L41.0674 40.7363C40.7702 40.0879 40.4865 39.4665 40.2163 38.8721C39.9461 38.2777 39.6219 37.7238 39.2437 37.2104C38.8924 36.6701 38.4736 36.1702 37.9873 35.7109C37.528 35.2246 36.9606 34.7923 36.2852 34.4141H34.4614C33.5158 34.4141 32.5431 34.4006 31.5435 34.3735C30.5438 34.3195 29.6792 34.2249 28.9497 34.0898L26.4775 33.644C25.7751 33.644 25.005 33.7656 24.1675 34.0088C23.3569 34.252 22.5869 34.387 21.8574 34.4141C21.6143 34.7113 21.3306 35.0895 21.0063 35.5488C20.6821 35.9811 20.52 36.4539 20.52 36.9673C20.9523 38.9666 21.3171 40.939 21.6143 42.8843C21.9115 44.8026 22.0601 46.7344 22.0601 48.6797C22.0601 49.5983 22.033 50.2197 21.979 50.5439C21.952 50.8411 21.9115 51.0843 21.8574 51.2734C22.0736 51.9219 22.3708 52.5028 22.749 53.0161C23.1543 53.5024 23.6136 53.9482 24.127 54.3535C24.6403 54.7318 25.1807 55.083 25.748 55.4072C26.3154 55.7314 26.8693 56.0286 27.4097 56.2988C27.4367 56.2988 27.5177 56.3799 27.6528 56.542C27.8149 56.7041 27.896 56.8122 27.896 56.8662C28.0041 56.9202 28.2472 56.9743 28.6255 57.0283C29.0037 57.0553 29.2469 57.0688 29.355 57.0688C29.5711 57.0688 29.7467 57.0688 29.8818 57.0688C30.0439 57.0688 30.2196 57.0418 30.4087 56.9878C30.6248 56.9608 30.8005 56.9473 30.9355 56.9473C31.0977 56.9473 31.2733 56.9473 31.4624 56.9473C31.6515 56.9473 31.8542 56.9473 32.0703 56.9473C32.2865 56.9473 32.4756 56.9608 32.6377 56.9878C32.8268 57.0418 33.0024 57.0688 33.1646 57.0688C33.3537 57.0688 33.5293 57.0688 33.6914 57.0688C33.8265 57.2039 33.9886 57.339 34.1777 57.4741C34.3939 57.6092 34.583 57.7713 34.7451 57.9604C34.9342 58.1496 35.0828 58.3522 35.1909 58.5684C35.326 58.7845 35.3936 59.0277 35.3936 59.2979C35.3936 59.5951 35.326 59.9058 35.1909 60.23C35.0558 60.5272 34.8667 60.8109 34.6235 61.0811C34.4074 61.3783 34.1642 61.6079 33.894 61.77C33.6239 61.9591 33.3537 62.0537 33.0835 62.0537H33.0024C32.7052 62.1077 32.3675 62.1348 31.9893 62.1348C31.638 62.1618 31.3273 62.1753 31.0571 62.1753C30.6789 62.1753 30.3141 62.1618 29.9629 62.1348C29.6387 62.1348 29.2064 62.1077 28.666 62.0537L27.896 61.8511C27.4367 61.6079 26.9233 61.3918 26.356 61.2026C25.7886 61.0135 25.1942 60.8514 24.5728 60.7163C23.9784 60.5812 23.3704 60.4867 22.749 60.4326C22.1546 60.3516 21.6007 60.311 21.0874 60.311C20.52 60.311 20.0337 60.3381 19.6284 60.3921C19.2231 60.4191 18.6828 60.5272 18.0073 60.7163C17.3859 60.8244 16.7375 60.9054 16.062 60.9595C15.4136 60.9865 14.7786 61 14.1572 61C13.4548 61 12.7928 60.9865 12.1714 60.9595C11.577 60.9054 10.9285 60.8244 10.2261 60.7163C9.90186 60.8244 9.59115 61 9.29395 61.2432C9.02376 61.4863 8.65902 61.6619 8.19971 61.77C8.01058 61.716 7.83496 61.6619 7.67285 61.6079C7.53776 61.5809 7.37565 61.5674 7.18652 61.5674C7.05143 61.6214 6.8488 61.6484 6.57861 61.6484H5.03857C4.41715 61.4323 3.90381 61.2161 3.49854 61C3.12028 60.7839 2.83659 60.3651 2.64746 59.7437C2.64746 58.8791 3.09326 58.1496 3.98486 57.5552C4.6333 57.5011 5.47087 57.3255 6.49756 57.0283C7.55127 56.7311 8.56445 56.3394 9.53711 55.853C10.5098 55.3667 11.3473 54.7858 12.0498 54.1104C12.7793 53.4349 13.144 52.6919 13.144 51.8813C13.144 50.4494 13.1035 49.2201 13.0225 48.1934C12.9684 47.1396 12.8874 46.1265 12.7793 45.1538C12.6982 44.1812 12.6172 43.168 12.5361 42.1143C12.4821 41.0335 12.4551 39.7367 12.4551 38.2236C12.4551 37.7643 12.4956 37.3185 12.5767 36.8862C12.6847 36.4269 12.7793 35.9811 12.8604 35.5488C12.9684 35.0895 13.063 34.6437 13.144 34.2114C13.2521 33.7521 13.3062 33.2928 13.3062 32.8335C13.3062 32.7524 13.2926 32.6444 13.2656 32.5093C13.2656 32.3742 13.2656 32.2391 13.2656 32.104C13.2656 31.9419 13.2521 31.8068 13.2251 31.6987C13.2251 31.5636 13.2251 31.4961 13.2251 31.4961L12.7388 29.7129V26.5923C12.7388 26.133 12.6847 25.6737 12.5767 25.2144C12.4686 24.755 12.347 24.2957 12.2119 23.8364C12.1038 23.3771 11.9958 22.9313 11.8877 22.499C11.8066 22.0397 11.7661 21.5939 11.7661 21.1616C11.7661 21.0535 11.7796 20.8779 11.8066 20.6348C11.8607 20.3646 11.9147 20.1755 11.9688 20.0674C12.0768 19.527 12.1579 18.9867 12.2119 18.4463C12.293 17.8789 12.3335 17.3115 12.3335 16.7441C12.3335 16.2038 12.3065 15.6769 12.2524 15.1636C12.1984 14.6232 12.1038 14.0828 11.9688 13.5425C11.9688 13.0562 11.8472 12.5833 11.604 12.124C11.3879 11.6377 11.0907 11.1784 10.7124 10.7461C10.3612 10.3138 9.9694 9.93555 9.53711 9.61133C9.10482 9.26009 8.69954 9.00342 8.32129 8.84131C7.83496 8.65218 7.17301 8.5306 6.33545 8.47656C5.49788 8.42253 4.66032 8.32796 3.82275 8.19287C2.98519 8.03076 2.2557 7.77409 1.63428 7.42285C1.03988 7.0446 0.742676 6.43669 0.742676 5.59912V4.99121C1.17497 4.74805 1.70182 4.50488 2.32324 4.26172C2.97168 3.99154 3.52555 3.85645 3.98486 3.85645H4.95752C5.33577 3.85645 5.70052 3.89697 6.05176 3.97803C6.43001 4.05908 6.74072 4.24821 6.98389 4.54541C7.4432 4.62646 7.90251 4.69401 8.36182 4.74805C8.82113 4.80208 9.28044 4.8291 9.73975 4.8291C10.145 4.8291 10.5908 4.80208 11.0771 4.74805C11.5635 4.69401 12.0498 4.62646 12.5361 4.54541C12.6712 4.32926 12.7658 4.20768 12.8198 4.18066C12.9009 4.15365 13.036 4.14014 13.2251 4.14014C13.7925 4.14014 14.3464 4.24821 14.8867 4.46436C15.4271 4.6805 16.0485 4.78857 16.751 4.78857H17.6426C17.9398 4.78857 18.2505 4.78857 18.5747 4.78857C18.8989 4.76156 19.2502 4.6805 19.6284 4.54541C20.6011 4.70752 21.6683 4.78857 22.8301 4.78857C23.9108 4.78857 25.005 4.70752 26.1128 4.54541C27.1125 4.19417 28.1662 4.01855 29.2739 4.01855C30.4087 4.01855 31.584 3.96452 32.7998 3.85645C33.4212 3.80241 34.0021 3.76188 34.5425 3.73486C35.1099 3.68083 35.6772 3.65381 36.2446 3.65381C36.6499 3.65381 37.0687 3.68083 37.501 3.73486C37.9333 3.76188 38.3791 3.80241 38.8384 3.85645C38.9465 3.91048 39.0815 4.00505 39.2437 4.14014C39.4328 4.24821 39.6084 4.36979 39.7705 4.50488C39.9596 4.63997 40.1353 4.76156 40.2974 4.86963C40.4595 4.95068 40.5811 4.99121 40.6621 4.99121C40.9053 4.99121 41.1079 4.95068 41.27 4.86963C41.4591 4.78857 41.6888 4.6805 41.959 4.54541C42.3913 4.43734 42.8371 4.36979 43.2964 4.34277C43.7557 4.28874 44.2285 4.26172 44.7148 4.26172C45.5524 4.26172 46.39 4.35628 47.2275 4.54541C47.2816 4.54541 47.4032 4.63997 47.5923 4.8291C47.8084 4.99121 48.0246 5.18034 48.2407 5.39648C48.4839 5.58561 48.7 5.77474 48.8892 5.96387C49.0783 6.12598 49.1864 6.22054 49.2134 6.24756V12.043C49.7537 13.3669 50.0239 14.7043 50.0239 16.0552C50.0239 16.3794 50.0104 16.7171 49.9834 17.0684C49.9834 17.3926 49.9294 17.7033 49.8213 18.0005C49.7402 18.2977 49.5916 18.5409 49.3755 18.73C49.1593 18.9191 48.8621 19.0137 48.4839 19.0137C48.3218 18.8245 48.1326 18.5949 47.9165 18.3247C47.7004 18.0545 47.4707 17.7843 47.2275 17.5142C47.0114 17.217 46.7952 16.9333 46.5791 16.6631C46.39 16.3929 46.2279 16.1497 46.0928 15.9336C46.0928 15.8796 46.0387 15.731 45.9307 15.4878C45.8226 15.2176 45.701 14.9474 45.5659 14.6772C45.4308 14.38 45.2957 14.1099 45.1606 13.8667C45.0526 13.5965 44.9715 13.4209 44.9175 13.3398C44.8634 13.2858 44.8094 13.0697 44.7554 12.6914C44.7284 12.3132 44.7148 12.097 44.7148 12.043ZM53.9956 39.561C54.3739 38.1291 54.8467 36.7646 55.4141 35.4678C55.9814 34.1439 56.6299 32.793 57.3594 31.415L58.4941 30.0776L58.9805 29.2266C59.0615 29.0915 59.1561 28.9699 59.2642 28.8618C59.3452 28.7537 59.4263 28.6592 59.5073 28.5781C59.5884 28.4701 59.6694 28.389 59.7505 28.335L62.1416 26.6328C62.2767 26.4707 62.4253 26.3626 62.5874 26.3086C62.7495 26.2275 62.8981 26.1735 63.0332 26.1465C63.1953 26.0924 63.3574 26.0519 63.5195 26.0249C63.6816 25.9709 63.8302 25.8763 63.9653 25.7412L64.7354 24.9712L65.3838 24.6875H65.9917L68.1802 23.8364C68.2882 23.7824 68.4368 23.7284 68.626 23.6743C68.8421 23.6203 69.0583 23.5662 69.2744 23.5122C69.4906 23.4582 69.6932 23.4176 69.8823 23.3906C70.0715 23.3636 70.2065 23.3501 70.2876 23.3501H74.4214C74.6646 23.242 74.8672 23.188 75.0293 23.188C75.2184 23.161 75.367 23.1475 75.4751 23.1475C76.2586 23.1475 77.0422 23.2826 77.8257 23.5527C78.6092 23.7959 79.3927 24.0256 80.1763 24.2417H81.7163C81.7703 24.2417 81.8514 24.2957 81.9595 24.4038C82.0675 24.4849 82.1891 24.5929 82.3242 24.728L82.77 25.1738C83.4455 25.5521 84.1074 25.9303 84.7559 26.3086C85.4043 26.6598 86.0527 27.0516 86.7012 27.4839C87.2415 27.9162 87.6603 28.4025 87.9575 28.9429C88.2817 29.4562 88.6465 29.9696 89.0518 30.4829C89.1058 30.5369 89.2004 30.672 89.3354 30.8882C89.4976 31.0773 89.6597 31.2935 89.8218 31.5366C89.9839 31.7798 90.1325 32.0229 90.2676 32.2661C90.4297 32.5093 90.5378 32.6984 90.5918 32.8335L90.835 33.3198L92.4155 38.5073C92.4966 38.6694 92.5641 38.8586 92.6182 39.0747C92.6722 39.2909 92.7262 39.507 92.7803 39.7231C92.8343 39.9123 92.8748 40.1014 92.9019 40.2905C92.9289 40.4526 92.9424 40.5607 92.9424 40.6147V41.9116L92.6992 42.9248V45.8428L90.5918 52.0435C90.0514 52.7729 89.484 53.5295 88.8896 54.313C88.2952 55.0695 87.7008 55.7855 87.1064 56.4609C87.1064 56.488 87.0524 56.5555 86.9443 56.6636C86.7822 56.8797 86.5931 57.1094 86.377 57.3525C86.1608 57.5957 85.9176 57.8254 85.6475 58.0415C85.5934 58.0955 85.4313 58.1361 85.1611 58.1631C84.918 58.1901 84.6478 58.2712 84.3506 58.4062L81.9189 59.8247C81.8649 59.8247 81.7433 59.8517 81.5542 59.9058C81.3921 59.9328 81.203 59.9733 80.9868 60.0273C80.7977 60.0544 80.6086 60.0814 80.4194 60.1084C80.2303 60.1354 80.0952 60.1489 80.0142 60.1489C79.5278 60.257 79.1226 60.4056 78.7983 60.5947C78.5011 60.7839 78.0688 60.8784 77.5015 60.8784L73.3677 61C73.2596 61 73.0299 61 72.6787 61C72.3275 60.973 71.9492 60.9595 71.5439 60.9595C71.1387 60.9325 70.7469 60.9189 70.3687 60.9189C69.9904 60.8919 69.7067 60.8784 69.5176 60.8784L68.3828 60.6353L65.7891 60.4326L65.3838 60.23L61.3716 57.4336L60.3989 56.9878C59.9126 56.7176 59.5073 56.3258 59.1831 55.8125C58.8589 55.2721 58.5347 54.7588 58.2104 54.2725C57.9132 53.7321 57.6025 53.2458 57.2783 52.8135C56.9811 52.3812 56.6839 51.9759 56.3867 51.5977C56.1436 51.1654 55.8734 50.7466 55.5762 50.3413C55.306 49.936 55.0493 49.5173 54.8062 49.085C54.59 48.6527 54.4009 48.2204 54.2388 47.7881C54.0767 47.3288 53.9956 46.8289 53.9956 46.2886L53.6714 43.1274L53.9956 39.561ZM62.3442 45.2754C62.5604 45.5186 62.709 45.7347 62.79 45.9238C62.8981 46.113 62.9657 46.2886 62.9927 46.4507C63.0467 46.6128 63.0737 46.7884 63.0737 46.9775C63.1007 47.1667 63.1413 47.3963 63.1953 47.6665C63.4115 48.5581 63.7627 49.4902 64.249 50.4629C64.7354 51.4355 65.2487 52.2596 65.7891 52.9351L67.3291 54.394C67.8695 55.0695 68.3828 55.745 68.8691 56.4204C69.3555 57.0688 69.9634 57.5417 70.6929 57.8389H72.314C72.9084 57.8389 73.5433 57.7713 74.2188 57.6362C74.8942 57.4741 75.5697 57.339 76.2451 57.231C76.6234 57.231 76.9611 57.2174 77.2583 57.1904C77.5555 57.1364 77.9202 56.9743 78.3525 56.7041L78.8389 56.1772C80.1357 55.4748 81.257 54.6102 82.2026 53.5835L84.999 49.166L84.8774 44.9512C85.0125 44.735 85.0936 44.5324 85.1206 44.3433C85.1476 44.1541 85.1611 43.8704 85.1611 43.4922C85.1611 43.0329 85.0531 42.6141 84.8369 42.2358C84.6208 41.8576 84.5127 41.3983 84.5127 40.8579L84.8774 39.3179C84.7964 38.9937 84.7153 38.6154 84.6343 38.1831C84.5532 37.7508 84.4587 37.3185 84.3506 36.8862C84.2695 36.4269 84.1615 36.0081 84.0264 35.6299C83.9183 35.2246 83.7697 34.9004 83.5806 34.6572L81.5137 32.2661C81.4326 32.2121 81.3245 32.0905 81.1895 31.9014C81.0814 31.7122 80.9598 31.4961 80.8247 31.2529C80.7166 31.0098 80.6086 30.7801 80.5005 30.564C80.4194 30.3478 80.3789 30.1857 80.3789 30.0776L79.1631 29.2266C78.6768 28.6862 78.1904 28.2269 77.7041 27.8486C77.2178 27.4434 76.6369 27.1867 75.9614 27.0786L73.9756 26.8354C73.2731 26.7274 72.6517 26.6058 72.1113 26.4707C71.571 26.3086 70.9631 26.2275 70.2876 26.2275H70.0039L67.5317 27.6865L63.6006 32.2661C63.4925 32.5633 63.3979 32.8335 63.3169 33.0767C63.2358 33.3198 63.1953 33.563 63.1953 33.8062L62.9927 35.0625L62.3442 36.7241V37.7778C62.3442 38.1561 62.3983 38.5073 62.5063 38.8315C62.6414 39.1558 62.709 39.534 62.709 39.9663C62.709 40.1825 62.6955 40.3581 62.6685 40.4932C62.6414 40.6012 62.5334 40.7228 62.3442 40.8579V45.2754ZM97.6841 61.2837C97.603 61.2837 97.5085 61.2837 97.4004 61.2837C97.2923 61.2837 97.1707 61.2567 97.0356 61.2026H96.1846L95.6982 60.7974V58.8926L96.6304 57.4336C96.8735 57.3255 97.1572 57.2715 97.4814 57.2715C97.8057 57.2445 97.9813 57.231 98.0083 57.231C98.1164 57.231 98.3595 57.2174 98.7378 57.1904C99.1431 57.1364 99.4673 57.0553 99.7104 56.9473C100.332 57.0824 100.778 57.1499 101.048 57.1499C101.372 56.9067 101.683 56.5825 101.98 56.1772C102.277 55.772 102.534 55.3262 102.75 54.8398C102.993 54.3535 103.169 53.8672 103.277 53.3809C103.412 52.8945 103.479 52.4487 103.479 52.0435V47.5449C103.479 46.5993 103.479 45.6807 103.479 44.7891C103.507 43.8704 103.561 43.222 103.642 42.8438C103.561 42.1143 103.507 41.3983 103.479 40.6958C103.452 39.9663 103.412 39.2368 103.358 38.5073L103.074 34.2925C102.993 33.0226 102.926 31.7528 102.872 30.4829C102.818 29.2131 102.791 27.9297 102.791 26.6328C102.791 26.4977 102.804 26.4032 102.831 26.3491C102.858 26.2681 102.98 26.16 103.196 26.0249C103.088 25.5926 103.02 25.2008 102.993 24.8496C102.993 24.4984 102.993 24.1201 102.993 23.7148C102.993 23.3366 102.993 22.9583 102.993 22.5801C103.02 22.1748 103.088 21.756 103.196 21.3237C102.98 21.1886 102.804 20.986 102.669 20.7158C102.561 20.4456 102.507 20.0809 102.507 19.6216C102.507 19.2703 102.615 18.9867 102.831 18.7705C103.047 18.5544 103.155 18.2301 103.155 17.7979C103.155 17.2035 103.142 16.5685 103.115 15.8931C103.088 15.2176 102.98 14.5286 102.791 13.8262C102.601 12.8805 102.507 12.124 102.507 11.5566C102.507 10.9893 102.48 10.3813 102.426 9.73291C102.264 9.48975 101.98 9.24658 101.575 9.00342C101.196 8.76025 100.778 8.51709 100.318 8.27393C99.8861 8.00374 99.4673 7.73356 99.062 7.46338C98.6567 7.16618 98.373 6.85547 98.2109 6.53125C97.9948 6.09896 97.8462 5.84229 97.7651 5.76123C97.7111 5.65316 97.6571 5.53158 97.603 5.39648C97.603 5.20736 97.6571 4.93717 97.7651 4.58594C97.8732 4.20768 98.0758 3.99154 98.373 3.9375C98.9404 3.80241 99.5213 3.6403 100.116 3.45117C100.71 3.26204 101.156 3.14046 101.453 3.08643C101.507 3.08643 101.642 3.0459 101.858 2.96484C102.102 2.85677 102.345 2.7487 102.588 2.64062C102.858 2.50553 103.101 2.38395 103.317 2.27588C103.561 2.14079 103.709 2.03271 103.763 1.95166C104.277 1.81657 104.749 1.66797 105.182 1.50586C105.641 1.34375 106.087 1.19515 106.519 1.06006C106.951 0.924967 107.397 0.803385 107.856 0.695312C108.343 0.58724 108.856 0.519694 109.396 0.492676C109.667 0.492676 109.896 0.506185 110.085 0.533203C110.275 0.560221 110.369 0.668294 110.369 0.857422C110.477 1.5599 110.545 2.24886 110.572 2.92432C110.626 3.57275 110.653 4.20768 110.653 4.8291C110.653 5.45052 110.626 6.08545 110.572 6.73389C110.545 7.35531 110.477 7.96322 110.369 8.55762C110.153 9.125 110.018 9.73291 109.964 10.3813C109.91 11.0298 109.883 11.6782 109.883 12.3267L109.923 14.4341L109.802 17.2305C109.91 17.4466 109.977 17.6628 110.004 17.8789C110.058 18.0951 110.085 18.3787 110.085 18.73C110.085 19.2703 110.072 19.6621 110.045 19.9053C110.045 20.1484 110.004 20.3376 109.923 20.4727L110.207 23.0664C110.099 23.4987 109.923 23.9445 109.68 24.4038C109.437 24.8361 109.248 25.3224 109.113 25.8628C109.113 26.16 109.18 26.4302 109.315 26.6733C109.451 26.8895 109.545 27.1867 109.599 27.5649C109.707 28.6187 109.761 29.6318 109.761 30.6045C109.788 31.5771 109.829 32.5903 109.883 33.644C109.748 34.2655 109.586 34.8193 109.396 35.3057C109.234 35.765 109.153 36.2378 109.153 36.7241V37.3726C109.18 37.9399 109.221 38.4668 109.275 38.9531C109.329 39.4124 109.383 39.8717 109.437 40.3311C109.518 40.7904 109.586 41.2767 109.64 41.79C109.694 42.2764 109.748 42.8438 109.802 43.4922C109.802 44.1947 109.761 44.8026 109.68 45.3159C109.626 45.8293 109.572 46.4507 109.518 47.1802C109.491 47.3423 109.451 47.5719 109.396 47.8691C109.369 48.1663 109.329 48.4771 109.275 48.8013C109.248 49.0985 109.221 49.3822 109.194 49.6523C109.167 49.9225 109.153 50.1117 109.153 50.2197V50.2603C109.18 50.3953 109.234 50.6655 109.315 51.0708C109.396 51.4761 109.478 51.8949 109.559 52.3271C109.64 52.7594 109.721 53.1647 109.802 53.543C109.883 53.9212 109.923 54.1644 109.923 54.2725L110.207 54.8804H110.288C110.369 54.8804 110.423 54.9209 110.45 55.002C110.477 55.083 110.518 55.137 110.572 55.1641C110.68 55.2721 110.747 55.3937 110.774 55.5288C110.801 55.6369 110.855 55.7585 110.937 55.8936C111.045 56.0016 111.193 56.1232 111.382 56.2583C111.598 56.3664 111.936 56.4744 112.396 56.5825C112.909 56.9067 113.301 57.0688 113.571 57.0688C113.652 57.0688 113.719 57.0688 113.773 57.0688C113.827 57.0688 113.922 57.0418 114.057 56.9878C114.273 57.0418 114.53 57.0824 114.827 57.1094C115.124 57.1364 115.435 57.1904 115.759 57.2715C116.083 57.3255 116.408 57.4201 116.732 57.5552C117.056 57.6903 117.34 57.8794 117.583 58.1226C117.718 58.2306 117.799 58.3792 117.826 58.5684C117.853 58.7305 117.867 58.9601 117.867 59.2573V60.6353C117.867 60.8244 117.84 61 117.786 61.1621C117.732 61.3242 117.624 61.4323 117.461 61.4863C117.245 61.4323 117.016 61.4053 116.772 61.4053C116.556 61.4053 116.34 61.4053 116.124 61.4053C115.935 61.4053 115.732 61.3918 115.516 61.3647C115.3 61.3647 115.03 61.3377 114.706 61.2837L113.449 61.1216C113.395 61.1216 113.274 61.1081 113.084 61.0811C112.922 61.0811 112.733 61.0675 112.517 61.0405C112.328 61.0405 112.139 61.027 111.95 61C111.788 61 111.68 61 111.625 61L109.64 60.8784C109.613 60.8784 109.586 60.8649 109.559 60.8379C109.532 60.8379 109.505 60.8379 109.478 60.8379C109.478 60.8109 109.464 60.7974 109.437 60.7974C108.843 60.8244 108.302 60.8649 107.816 60.9189C107.357 60.973 106.911 61.027 106.479 61.0811C106.073 61.1621 105.654 61.2297 105.222 61.2837C104.817 61.3647 104.358 61.4053 103.844 61.4053C103.223 61.3512 102.547 61.2837 101.818 61.2026C101.115 61.1216 100.453 61.0811 99.832 61.0811L97.6841 61.2837ZM120.46 61.2837C120.379 61.2837 120.285 61.2837 120.177 61.2837C120.069 61.2837 119.947 61.2567 119.812 61.2026H118.961L118.475 60.7974V58.8926L119.407 57.4336C119.65 57.3255 119.934 57.2715 120.258 57.2715C120.582 57.2445 120.758 57.231 120.785 57.231C120.893 57.231 121.136 57.2174 121.514 57.1904C121.919 57.1364 122.244 57.0553 122.487 56.9473C123.108 57.0824 123.554 57.1499 123.824 57.1499C124.148 56.9067 124.459 56.5825 124.756 56.1772C125.054 55.772 125.31 55.3262 125.526 54.8398C125.77 54.3535 125.945 53.8672 126.053 53.3809C126.188 52.8945 126.256 52.4487 126.256 52.0435V47.5449C126.256 46.5993 126.256 45.6807 126.256 44.7891C126.283 43.8704 126.337 43.222 126.418 42.8438C126.337 42.1143 126.283 41.3983 126.256 40.6958C126.229 39.9663 126.188 39.2368 126.134 38.5073L125.851 34.2925C125.77 33.0226 125.702 31.7528 125.648 30.4829C125.594 29.2131 125.567 27.9297 125.567 26.6328C125.567 26.4977 125.58 26.4032 125.607 26.3491C125.634 26.2681 125.756 26.16 125.972 26.0249C125.864 25.5926 125.797 25.2008 125.77 24.8496C125.77 24.4984 125.77 24.1201 125.77 23.7148C125.77 23.3366 125.77 22.9583 125.77 22.5801C125.797 22.1748 125.864 21.756 125.972 21.3237C125.756 21.1886 125.58 20.986 125.445 20.7158C125.337 20.4456 125.283 20.0809 125.283 19.6216C125.283 19.2703 125.391 18.9867 125.607 18.7705C125.824 18.5544 125.932 18.2301 125.932 17.7979C125.932 17.2035 125.918 16.5685 125.891 15.8931C125.864 15.2176 125.756 14.5286 125.567 13.8262C125.378 12.8805 125.283 12.124 125.283 11.5566C125.283 10.9893 125.256 10.3813 125.202 9.73291C125.04 9.48975 124.756 9.24658 124.351 9.00342C123.973 8.76025 123.554 8.51709 123.095 8.27393C122.662 8.00374 122.244 7.73356 121.838 7.46338C121.433 7.16618 121.149 6.85547 120.987 6.53125C120.771 6.09896 120.623 5.84229 120.542 5.76123C120.487 5.65316 120.433 5.53158 120.379 5.39648C120.379 5.20736 120.433 4.93717 120.542 4.58594C120.65 4.20768 120.852 3.99154 121.149 3.9375C121.717 3.80241 122.298 3.6403 122.892 3.45117C123.486 3.26204 123.932 3.14046 124.229 3.08643C124.284 3.08643 124.419 3.0459 124.635 2.96484C124.878 2.85677 125.121 2.7487 125.364 2.64062C125.634 2.50553 125.878 2.38395 126.094 2.27588C126.337 2.14079 126.486 2.03271 126.54 1.95166C127.053 1.81657 127.526 1.66797 127.958 1.50586C128.417 1.34375 128.863 1.19515 129.295 1.06006C129.728 0.924967 130.174 0.803385 130.633 0.695312C131.119 0.58724 131.632 0.519694 132.173 0.492676C132.443 0.492676 132.673 0.506185 132.862 0.533203C133.051 0.560221 133.146 0.668294 133.146 0.857422C133.254 1.5599 133.321 2.24886 133.348 2.92432C133.402 3.57275 133.429 4.20768 133.429 4.8291C133.429 5.45052 133.402 6.08545 133.348 6.73389C133.321 7.35531 133.254 7.96322 133.146 8.55762C132.929 9.125 132.794 9.73291 132.74 10.3813C132.686 11.0298 132.659 11.6782 132.659 12.3267L132.7 14.4341L132.578 17.2305C132.686 17.4466 132.754 17.6628 132.781 17.8789C132.835 18.0951 132.862 18.3787 132.862 18.73C132.862 19.2703 132.848 19.6621 132.821 19.9053C132.821 20.1484 132.781 20.3376 132.7 20.4727L132.983 23.0664C132.875 23.4987 132.7 23.9445 132.457 24.4038C132.213 24.8361 132.024 25.3224 131.889 25.8628C131.889 26.16 131.957 26.4302 132.092 26.6733C132.227 26.8895 132.321 27.1867 132.375 27.5649C132.484 28.6187 132.538 29.6318 132.538 30.6045C132.565 31.5771 132.605 32.5903 132.659 33.644C132.524 34.2655 132.362 34.8193 132.173 35.3057C132.011 35.765 131.93 36.2378 131.93 36.7241V37.3726C131.957 37.9399 131.997 38.4668 132.051 38.9531C132.105 39.4124 132.159 39.8717 132.213 40.3311C132.294 40.7904 132.362 41.2767 132.416 41.79C132.47 42.2764 132.524 42.8438 132.578 43.4922C132.578 44.1947 132.538 44.8026 132.457 45.3159C132.403 45.8293 132.348 46.4507 132.294 47.1802C132.267 47.3423 132.227 47.5719 132.173 47.8691C132.146 48.1663 132.105 48.4771 132.051 48.8013C132.024 49.0985 131.997 49.3822 131.97 49.6523C131.943 49.9225 131.93 50.1117 131.93 50.2197V50.2603C131.957 50.3953 132.011 50.6655 132.092 51.0708C132.173 51.4761 132.254 51.8949 132.335 52.3271C132.416 52.7594 132.497 53.1647 132.578 53.543C132.659 53.9212 132.7 54.1644 132.7 54.2725L132.983 54.8804H133.064C133.146 54.8804 133.2 54.9209 133.227 55.002C133.254 55.083 133.294 55.137 133.348 55.1641C133.456 55.2721 133.524 55.3937 133.551 55.5288C133.578 55.6369 133.632 55.7585 133.713 55.8936C133.821 56.0016 133.97 56.1232 134.159 56.2583C134.375 56.3664 134.713 56.4744 135.172 56.5825C135.685 56.9067 136.077 57.0688 136.347 57.0688C136.428 57.0688 136.496 57.0688 136.55 57.0688C136.604 57.0688 136.698 57.0418 136.833 56.9878C137.05 57.0418 137.306 57.0824 137.604 57.1094C137.901 57.1364 138.211 57.1904 138.536 57.2715C138.86 57.3255 139.184 57.4201 139.508 57.5552C139.833 57.6903 140.116 57.8794 140.359 58.1226C140.494 58.2306 140.576 58.3792 140.603 58.5684C140.63 58.7305 140.643 58.9601 140.643 59.2573V60.6353C140.643 60.8244 140.616 61 140.562 61.1621C140.508 61.3242 140.4 61.4323 140.238 61.4863C140.022 61.4323 139.792 61.4053 139.549 61.4053C139.333 61.4053 139.117 61.4053 138.9 61.4053C138.711 61.4053 138.509 61.3918 138.292 61.3647C138.076 61.3647 137.806 61.3377 137.482 61.2837L136.226 61.1216C136.172 61.1216 136.05 61.1081 135.861 61.0811C135.699 61.0811 135.51 61.0675 135.293 61.0405C135.104 61.0405 134.915 61.027 134.726 61C134.564 61 134.456 61 134.402 61L132.416 60.8784C132.389 60.8784 132.362 60.8649 132.335 60.8379C132.308 60.8379 132.281 60.8379 132.254 60.8379C132.254 60.8109 132.24 60.7974 132.213 60.7974C131.619 60.8244 131.079 60.8649 130.592 60.9189C130.133 60.973 129.687 61.027 129.255 61.0811C128.85 61.1621 128.431 61.2297 127.999 61.2837C127.593 61.3647 127.134 61.4053 126.621 61.4053C125.999 61.3512 125.324 61.2837 124.594 61.2026C123.892 61.1216 123.23 61.0811 122.608 61.0811L120.46 61.2837ZM143.48 39.561C143.858 38.1291 144.331 36.7646 144.898 35.4678C145.466 34.1439 146.114 32.793 146.844 31.415L147.979 30.0776L148.465 29.2266C148.546 29.0915 148.64 28.9699 148.749 28.8618C148.83 28.7537 148.911 28.6592 148.992 28.5781C149.073 28.4701 149.154 28.389 149.235 28.335L151.626 26.6328C151.761 26.4707 151.91 26.3626 152.072 26.3086C152.234 26.2275 152.382 26.1735 152.518 26.1465C152.68 26.0924 152.842 26.0519 153.004 26.0249C153.166 25.9709 153.315 25.8763 153.45 25.7412L154.22 24.9712L154.868 24.6875H155.476L157.665 23.8364C157.773 23.7824 157.921 23.7284 158.11 23.6743C158.326 23.6203 158.543 23.5662 158.759 23.5122C158.975 23.4582 159.178 23.4176 159.367 23.3906C159.556 23.3636 159.691 23.3501 159.772 23.3501H163.906C164.149 23.242 164.352 23.188 164.514 23.188C164.703 23.161 164.851 23.1475 164.959 23.1475C165.743 23.1475 166.527 23.2826 167.31 23.5527C168.094 23.7959 168.877 24.0256 169.661 24.2417H171.201C171.255 24.2417 171.336 24.2957 171.444 24.4038C171.552 24.4849 171.674 24.5929 171.809 24.728L172.254 25.1738C172.93 25.5521 173.592 25.9303 174.24 26.3086C174.889 26.6598 175.537 27.0516 176.186 27.4839C176.726 27.9162 177.145 28.4025 177.442 28.9429C177.766 29.4562 178.131 29.9696 178.536 30.4829C178.59 30.5369 178.685 30.672 178.82 30.8882C178.982 31.0773 179.144 31.2935 179.306 31.5366C179.468 31.7798 179.617 32.0229 179.752 32.2661C179.914 32.5093 180.022 32.6984 180.076 32.8335L180.319 33.3198L181.9 38.5073C181.981 38.6694 182.049 38.8586 182.103 39.0747C182.157 39.2909 182.211 39.507 182.265 39.7231C182.319 39.9123 182.359 40.1014 182.386 40.2905C182.413 40.4526 182.427 40.5607 182.427 40.6147V41.9116L182.184 42.9248V45.8428L180.076 52.0435C179.536 52.7729 178.968 53.5295 178.374 54.313C177.78 55.0695 177.185 55.7855 176.591 56.4609C176.591 56.488 176.537 56.5555 176.429 56.6636C176.267 56.8797 176.077 57.1094 175.861 57.3525C175.645 57.5957 175.402 57.8254 175.132 58.0415C175.078 58.0955 174.916 58.1361 174.646 58.1631C174.402 58.1901 174.132 58.2712 173.835 58.4062L171.403 59.8247C171.349 59.8247 171.228 59.8517 171.039 59.9058C170.876 59.9328 170.687 59.9733 170.471 60.0273C170.282 60.0544 170.093 60.0814 169.904 60.1084C169.715 60.1354 169.58 60.1489 169.499 60.1489C169.012 60.257 168.607 60.4056 168.283 60.5947C167.986 60.7839 167.553 60.8784 166.986 60.8784L162.852 61C162.744 61 162.514 61 162.163 61C161.812 60.973 161.434 60.9595 161.028 60.9595C160.623 60.9325 160.231 60.9189 159.853 60.9189C159.475 60.8919 159.191 60.8784 159.002 60.8784L157.867 60.6353L155.273 60.4326L154.868 60.23L150.856 57.4336L149.883 56.9878C149.397 56.7176 148.992 56.3258 148.667 55.8125C148.343 55.2721 148.019 54.7588 147.695 54.2725C147.398 53.7321 147.087 53.2458 146.763 52.8135C146.465 52.3812 146.168 51.9759 145.871 51.5977C145.628 51.1654 145.358 50.7466 145.061 50.3413C144.79 49.936 144.534 49.5173 144.291 49.085C144.074 48.6527 143.885 48.2204 143.723 47.7881C143.561 47.3288 143.48 46.8289 143.48 46.2886L143.156 43.1274L143.48 39.561ZM151.829 45.2754C152.045 45.5186 152.193 45.7347 152.274 45.9238C152.382 46.113 152.45 46.2886 152.477 46.4507C152.531 46.6128 152.558 46.7884 152.558 46.9775C152.585 47.1667 152.626 47.3963 152.68 47.6665C152.896 48.5581 153.247 49.4902 153.733 50.4629C154.22 51.4355 154.733 52.2596 155.273 52.9351L156.813 54.394C157.354 55.0695 157.867 55.745 158.354 56.4204C158.84 57.0688 159.448 57.5417 160.177 57.8389H161.798C162.393 57.8389 163.028 57.7713 163.703 57.6362C164.379 57.4741 165.054 57.339 165.729 57.231C166.108 57.231 166.445 57.2174 166.743 57.1904C167.04 57.1364 167.405 56.9743 167.837 56.7041L168.323 56.1772C169.62 55.4748 170.741 54.6102 171.687 53.5835L174.483 49.166L174.362 44.9512C174.497 44.735 174.578 44.5324 174.605 44.3433C174.632 44.1541 174.646 43.8704 174.646 43.4922C174.646 43.0329 174.537 42.6141 174.321 42.2358C174.105 41.8576 173.997 41.3983 173.997 40.8579L174.362 39.3179C174.281 38.9937 174.2 38.6154 174.119 38.1831C174.038 37.7508 173.943 37.3185 173.835 36.8862C173.754 36.4269 173.646 36.0081 173.511 35.6299C173.403 35.2246 173.254 34.9004 173.065 34.6572L170.998 32.2661C170.917 32.2121 170.809 32.0905 170.674 31.9014C170.566 31.7122 170.444 31.4961 170.309 31.2529C170.201 31.0098 170.093 30.7801 169.985 30.564C169.904 30.3478 169.863 30.1857 169.863 30.0776L168.647 29.2266C168.161 28.6862 167.675 28.2269 167.188 27.8486C166.702 27.4434 166.121 27.1867 165.446 27.0786L163.46 26.8354C162.757 26.7274 162.136 26.6058 161.596 26.4707C161.055 26.3086 160.447 26.2275 159.772 26.2275H159.488L157.016 27.6865L153.085 32.2661C152.977 32.5633 152.882 32.8335 152.801 33.0767C152.72 33.3198 152.68 33.563 152.68 33.8062L152.477 35.0625L151.829 36.7241V37.7778C151.829 38.1561 151.883 38.5073 151.991 38.8315C152.126 39.1558 152.193 39.534 152.193 39.9663C152.193 40.1825 152.18 40.3581 152.153 40.4932C152.126 40.6012 152.018 40.7228 151.829 40.8579V45.2754ZM198.8 54.9614C198.205 54.0698 197.8 53.2188 197.584 52.4082C197.368 51.5706 197.192 50.7466 197.057 49.936C196.922 49.1255 196.733 48.3285 196.49 47.5449C196.274 46.7344 195.841 45.9103 195.193 45.0728L194.382 41.6685V40.0879C194.382 40.0879 194.342 40.0203 194.261 39.8853C194.18 39.7231 194.072 39.5475 193.937 39.3584C193.828 39.1423 193.72 38.9396 193.612 38.7505C193.504 38.5614 193.423 38.4263 193.369 38.3452L192.559 37.2915V35.1841C192.559 35.103 192.505 34.9814 192.396 34.8193C192.315 34.6302 192.207 34.4411 192.072 34.252C191.964 34.0358 191.856 33.8467 191.748 33.6846C191.64 33.5225 191.572 33.4144 191.545 33.3604C191.167 32.7119 190.87 31.9824 190.654 31.1719C190.438 30.3343 190.181 29.5778 189.884 28.9023C189.722 28.5511 189.573 28.2944 189.438 28.1323C189.303 27.9432 189.114 27.8081 188.871 27.7271C188.654 27.619 188.357 27.5514 187.979 27.5244C187.628 27.4704 187.141 27.3893 186.52 27.2812C186.088 27.2002 185.723 27.0786 185.426 26.9165C185.129 26.7274 184.98 26.4437 184.98 26.0654C184.98 25.5251 185.088 25.0522 185.304 24.647C185.547 24.2417 185.791 23.8499 186.034 23.4717L188.141 23.0664H188.952C189.735 23.3636 190.559 23.5933 191.424 23.7554C192.288 23.9175 193.126 23.9985 193.937 23.9985C194.612 23.9985 195.206 23.904 195.72 23.7148C196.26 23.5257 196.841 23.4312 197.462 23.4312C197.543 23.4312 197.679 23.4447 197.868 23.4717C198.084 23.4717 198.313 23.4852 198.557 23.5122C198.8 23.5392 199.016 23.5662 199.205 23.5933C199.394 23.5933 199.516 23.6068 199.57 23.6338C199.705 23.7419 199.854 23.8364 200.016 23.9175C200.205 23.9715 200.38 24.0526 200.542 24.1606C200.705 24.2417 200.84 24.3498 200.948 24.4849C201.056 24.5929 201.11 24.755 201.11 24.9712C201.11 25.2684 201.042 25.6331 200.907 26.0654C200.772 26.4707 200.583 26.849 200.34 27.2002C200.151 27.4163 199.84 27.6325 199.408 27.8486C198.975 28.0378 198.692 28.2404 198.557 28.4565V29.3076L198.638 29.7939C198.665 30.1182 198.719 30.4964 198.8 30.9287C198.881 31.361 198.962 31.8068 199.043 32.2661C199.124 32.6984 199.205 33.1037 199.286 33.4819C199.394 33.8602 199.489 34.1304 199.57 34.2925L200.38 35.1841C200.624 35.6974 200.813 36.2513 200.948 36.8457C201.11 37.4131 201.231 37.994 201.312 38.5884C201.421 39.1558 201.515 39.7367 201.596 40.3311C201.677 40.9255 201.785 41.4793 201.92 41.9927L203.258 44.3838C203.339 44.5729 203.406 44.8431 203.46 45.1943C203.514 45.5456 203.582 45.8968 203.663 46.248C203.771 46.5723 203.906 46.856 204.068 47.0991C204.23 47.3423 204.46 47.4639 204.757 47.4639C205.082 47.4639 205.352 47.3423 205.568 47.0991C205.811 46.856 206.014 46.5723 206.176 46.248C206.365 45.9238 206.514 45.5996 206.622 45.2754C206.757 44.9512 206.878 44.7215 206.986 44.5864C206.986 44.5324 207.094 44.3973 207.311 44.1812C207.527 43.938 207.675 43.7894 207.756 43.7354C208.108 43.3031 208.351 42.8032 208.486 42.2358C208.621 41.6414 208.756 41.0605 208.891 40.4932C209.026 39.8988 209.202 39.3314 209.418 38.791C209.661 38.2507 210.066 37.8184 210.634 37.4941L210.715 35.8325C210.715 35.7244 210.701 35.5758 210.674 35.3867C210.674 35.1706 210.674 34.9814 210.674 34.8193C210.674 34.6302 210.661 34.4681 210.634 34.333C210.634 34.1709 210.634 34.0898 210.634 34.0898L210.066 32.8335C209.958 32.5363 209.891 32.2256 209.864 31.9014C209.864 31.5771 209.837 31.2259 209.783 30.8477C209.729 30.5505 209.688 30.2668 209.661 29.9966C209.634 29.6994 209.58 29.4022 209.499 29.105C209.283 28.5916 208.972 28.2809 208.567 28.1729C208.162 28.0378 207.743 27.9162 207.311 27.8081C206.878 27.7 206.459 27.5379 206.054 27.3218C205.649 27.0786 205.325 26.5923 205.082 25.8628V25.4575C205.082 25.2144 205.109 24.9442 205.163 24.647C205.217 24.3228 205.311 24.1201 205.446 24.0391C205.743 23.877 206.162 23.7824 206.703 23.7554C207.243 23.7284 207.756 23.7148 208.243 23.7148H209.58C209.607 23.7148 209.715 23.7419 209.904 23.7959C210.093 23.8499 210.31 23.904 210.553 23.958C210.823 24.012 211.093 24.0661 211.363 24.1201C211.633 24.1742 211.85 24.2012 212.012 24.2012L215.254 23.4312L218.78 23.9985C219.05 23.9985 219.307 23.958 219.55 23.877C219.793 23.7689 220.063 23.7148 220.36 23.7148C221.063 23.7148 221.603 23.8499 221.981 24.1201C222.36 24.3903 222.549 24.8766 222.549 25.5791C222.549 26.3086 222.319 26.8084 221.86 27.0786C221.401 27.3488 220.847 27.5379 220.198 27.646C219.577 27.7271 218.942 27.8081 218.293 27.8892C217.645 27.9432 217.145 28.1323 216.794 28.4565V29.0239C216.794 29.3211 216.834 29.5643 216.916 29.7534C217.024 29.9155 217.132 30.0776 217.24 30.2397C217.375 30.4019 217.496 30.5775 217.604 30.7666C217.713 30.9287 217.794 31.1719 217.848 31.4961V34.0898C217.875 34.1979 217.983 34.5897 218.172 35.2651C218.361 35.9136 218.577 36.6971 218.82 37.6157C219.09 38.5343 219.374 39.5205 219.671 40.5742C219.996 41.6009 220.279 42.5601 220.522 43.4517C220.793 44.3433 221.009 45.0863 221.171 45.6807C221.36 46.2751 221.468 46.5858 221.495 46.6128C221.684 46.8019 221.819 46.91 221.9 46.937C221.981 46.964 222.076 46.9775 222.184 46.9775C222.373 46.9775 222.535 46.964 222.67 46.937C222.806 46.91 222.981 46.8019 223.197 46.6128C223.197 46.5858 223.211 46.5182 223.238 46.4102C223.292 46.3021 223.346 46.194 223.4 46.0859C223.589 45.5186 223.832 44.9782 224.129 44.4648C224.454 43.9245 224.778 43.3976 225.102 42.8843C225.426 42.3439 225.737 41.8171 226.034 41.3037C226.331 40.7904 226.575 40.25 226.764 39.6826C226.791 39.6556 226.804 39.5745 226.804 39.4395C226.831 39.3044 226.858 39.1693 226.885 39.0342C226.912 38.8721 226.926 38.737 226.926 38.6289C226.953 38.4938 226.966 38.3993 226.966 38.3452C227.209 37.6698 227.439 37.1159 227.655 36.6836C227.898 36.2513 228.088 35.7515 228.223 35.1841L228.425 33.3604C228.614 33.0361 228.817 32.7254 229.033 32.4282C229.276 32.131 229.493 31.8338 229.682 31.5366C229.898 31.2124 230.073 30.8882 230.208 30.564C230.344 30.2397 230.411 29.9155 230.411 29.5913V29.2266C230.357 28.6051 230.168 28.1458 229.844 27.8486C229.52 27.5514 229.141 27.3353 228.709 27.2002C228.304 27.0381 227.885 26.903 227.453 26.7949C227.047 26.6868 226.75 26.4977 226.561 26.2275L226.318 25.2954C226.318 24.8091 226.507 24.4443 226.885 24.2012L227.047 23.9985C227.074 23.8634 227.169 23.7689 227.331 23.7148C227.493 23.6608 227.885 23.6338 228.506 23.6338C228.75 23.6338 228.939 23.6338 229.074 23.6338C229.236 23.6338 229.384 23.6473 229.52 23.6743C229.682 23.6743 229.844 23.6878 230.006 23.7148C230.195 23.7148 230.438 23.7284 230.735 23.7554C231.627 23.7554 232.37 23.7284 232.964 23.6743C233.559 23.5933 234.126 23.5257 234.667 23.4717H234.829C234.964 23.4717 235.207 23.4987 235.558 23.5527C235.936 23.6068 236.153 23.6338 236.207 23.6338L238.395 23.5527C238.611 23.5527 238.814 23.5798 239.003 23.6338C239.192 23.6608 239.314 23.7013 239.368 23.7554C239.476 23.8905 239.597 23.985 239.732 24.0391C239.868 24.0661 239.962 24.1606 240.016 24.3228V24.8091C240.016 25.3494 239.949 25.7547 239.813 26.0249C239.678 26.2951 239.557 26.4977 239.449 26.6328C239.233 26.849 238.895 27.0381 238.436 27.2002C238.003 27.3623 237.53 27.5379 237.017 27.7271C236.504 27.9162 236.017 28.1458 235.558 28.416C235.099 28.6592 234.761 28.9564 234.545 29.3076C234.005 30.1182 233.545 30.9017 233.167 31.6582C232.816 32.3877 232.478 33.1307 232.154 33.8872C231.857 34.6167 231.546 35.3597 231.222 36.1162C230.897 36.8457 230.506 37.6157 230.046 38.4263C229.83 38.8856 229.601 39.3314 229.357 39.7637C229.114 40.1689 228.885 40.5877 228.668 41.02C228.479 41.4523 228.317 41.9116 228.182 42.3979C228.074 42.8843 228.02 43.4111 228.02 43.9785L227.372 44.7485C227.372 44.9106 227.345 45.1268 227.291 45.397C227.236 45.6672 227.169 45.9508 227.088 46.248C227.007 46.5452 226.899 46.8289 226.764 47.0991C226.656 47.3423 226.534 47.5179 226.399 47.626L225.832 49.085L224.494 51.9624C224.224 52.5028 224.021 52.9621 223.886 53.3403C223.778 53.7186 223.657 54.0833 223.521 54.4346C223.386 54.7858 223.224 55.1506 223.035 55.5288C222.846 55.9071 222.562 56.3529 222.184 56.8662C221.914 57.2985 221.725 57.7173 221.617 58.1226C221.536 58.5278 221.428 58.8926 221.292 59.2168C221.184 59.514 220.982 59.7572 220.685 59.9463C220.414 60.1354 219.955 60.23 219.307 60.23C218.793 60.23 218.402 60.1895 218.131 60.1084C217.888 60.0273 217.686 59.9058 217.523 59.7437C217.388 59.5815 217.253 59.3789 217.118 59.1357C216.983 58.8656 216.78 58.5549 216.51 58.2036C216.564 57.9875 216.591 57.7983 216.591 57.6362C216.591 57.4471 216.591 57.258 216.591 57.0688C216.591 56.4474 216.524 55.853 216.389 55.2856C216.254 54.7183 216.091 54.1644 215.902 53.624C215.713 53.0837 215.538 52.5433 215.375 52.0029C215.213 51.4355 215.105 50.8411 215.051 50.2197L214.768 47.1802C214.714 46.91 214.578 46.4912 214.362 45.9238C214.146 45.3294 213.889 44.735 213.592 44.1406C213.322 43.5462 213.038 43.0329 212.741 42.6006C212.444 42.1413 212.187 41.9116 211.971 41.9116C211.647 41.9116 211.35 42.0062 211.08 42.1953C210.836 42.3574 210.688 42.5195 210.634 42.6816C210.58 42.7627 210.472 42.9788 210.31 43.3301C210.147 43.6813 210.066 43.911 210.066 44.019C209.769 45.2619 209.377 46.3561 208.891 47.3018C208.432 48.2204 207.932 49.193 207.392 50.2197L206.622 51.314C206.622 51.368 206.595 51.4761 206.541 51.6382C206.514 51.8003 206.473 51.9084 206.419 51.9624C206.419 51.9894 206.405 52.0975 206.378 52.2866C206.351 52.4487 206.311 52.6379 206.257 52.854C206.23 53.0431 206.189 53.2323 206.135 53.4214C206.108 53.5835 206.081 53.6781 206.054 53.7051C206.054 53.7321 206.014 53.7996 205.933 53.9077C205.879 54.0158 205.798 54.1374 205.689 54.2725C205.608 54.3805 205.527 54.4886 205.446 54.5967C205.365 54.6777 205.311 54.7318 205.284 54.7588C205.014 55.3802 204.825 56.0557 204.717 56.7852C204.636 57.5146 204.487 58.1901 204.271 58.8115C204.082 59.4329 203.758 59.9598 203.298 60.3921C202.839 60.7974 202.123 61 201.15 61C200.691 61 200.299 60.9325 199.975 60.7974C199.678 60.6623 199.489 60.284 199.408 59.6626L198.8 54.9614ZM260.037 39.561C260.415 38.1291 260.888 36.7646 261.455 35.4678C262.022 34.1439 262.671 32.793 263.4 31.415L264.535 30.0776L265.021 29.2266C265.103 29.0915 265.197 28.9699 265.305 28.8618C265.386 28.7537 265.467 28.6592 265.548 28.5781C265.629 28.4701 265.71 28.389 265.792 28.335L268.183 26.6328C268.318 26.4707 268.466 26.3626 268.628 26.3086C268.791 26.2275 268.939 26.1735 269.074 26.1465C269.236 26.0924 269.398 26.0519 269.561 26.0249C269.723 25.9709 269.871 25.8763 270.006 25.7412L270.776 24.9712L271.425 24.6875H272.033L274.221 23.8364C274.329 23.7824 274.478 23.7284 274.667 23.6743C274.883 23.6203 275.099 23.5662 275.315 23.5122C275.532 23.4582 275.734 23.4176 275.923 23.3906C276.112 23.3636 276.248 23.3501 276.329 23.3501H280.462C280.706 23.242 280.908 23.188 281.07 23.188C281.259 23.161 281.408 23.1475 281.516 23.1475C282.3 23.1475 283.083 23.2826 283.867 23.5527C284.65 23.7959 285.434 24.0256 286.217 24.2417H287.757C287.811 24.2417 287.892 24.2957 288 24.4038C288.109 24.4849 288.23 24.5929 288.365 24.728L288.811 25.1738C289.486 25.5521 290.148 25.9303 290.797 26.3086C291.445 26.6598 292.094 27.0516 292.742 27.4839C293.283 27.9162 293.701 28.4025 293.999 28.9429C294.323 29.4562 294.688 29.9696 295.093 30.4829C295.147 30.5369 295.241 30.672 295.376 30.8882C295.539 31.0773 295.701 31.2935 295.863 31.5366C296.025 31.7798 296.174 32.0229 296.309 32.2661C296.471 32.5093 296.579 32.6984 296.633 32.8335L296.876 33.3198L298.457 38.5073C298.538 38.6694 298.605 38.8586 298.659 39.0747C298.713 39.2909 298.767 39.507 298.821 39.7231C298.875 39.9123 298.916 40.1014 298.943 40.2905C298.97 40.4526 298.983 40.5607 298.983 40.6147V41.9116L298.74 42.9248V45.8428L296.633 52.0435C296.092 52.7729 295.525 53.5295 294.931 54.313C294.336 55.0695 293.742 55.7855 293.147 56.4609C293.147 56.488 293.093 56.5555 292.985 56.6636C292.823 56.8797 292.634 57.1094 292.418 57.3525C292.202 57.5957 291.959 57.8254 291.688 58.0415C291.634 58.0955 291.472 58.1361 291.202 58.1631C290.959 58.1901 290.689 58.2712 290.392 58.4062L287.96 59.8247C287.906 59.8247 287.784 59.8517 287.595 59.9058C287.433 59.9328 287.244 59.9733 287.028 60.0273C286.839 60.0544 286.65 60.0814 286.46 60.1084C286.271 60.1354 286.136 60.1489 286.055 60.1489C285.569 60.257 285.164 60.4056 284.839 60.5947C284.542 60.7839 284.11 60.8784 283.542 60.8784L279.409 61C279.301 61 279.071 61 278.72 61C278.368 60.973 277.99 60.9595 277.585 60.9595C277.18 60.9325 276.788 60.9189 276.41 60.9189C276.031 60.8919 275.748 60.8784 275.559 60.8784L274.424 60.6353L271.83 60.4326L271.425 60.23L267.413 57.4336L266.44 56.9878C265.954 56.7176 265.548 56.3258 265.224 55.8125C264.9 55.2721 264.576 54.7588 264.251 54.2725C263.954 53.7321 263.644 53.2458 263.319 52.8135C263.022 52.3812 262.725 51.9759 262.428 51.5977C262.185 51.1654 261.914 50.7466 261.617 50.3413C261.347 49.936 261.09 49.5173 260.847 49.085C260.631 48.6527 260.442 48.2204 260.28 47.7881C260.118 47.3288 260.037 46.8289 260.037 46.2886L259.712 43.1274L260.037 39.561ZM268.385 45.2754C268.601 45.5186 268.75 45.7347 268.831 45.9238C268.939 46.113 269.007 46.2886 269.034 46.4507C269.088 46.6128 269.115 46.7884 269.115 46.9775C269.142 47.1667 269.182 47.3963 269.236 47.6665C269.452 48.5581 269.804 49.4902 270.29 50.4629C270.776 51.4355 271.29 52.2596 271.83 52.9351L273.37 54.394C273.91 55.0695 274.424 55.745 274.91 56.4204C275.396 57.0688 276.004 57.5417 276.734 57.8389H278.355C278.949 57.8389 279.584 57.7713 280.26 57.6362C280.935 57.4741 281.611 57.339 282.286 57.231C282.664 57.231 283.002 57.2174 283.299 57.1904C283.597 57.1364 283.961 56.9743 284.394 56.7041L284.88 56.1772C286.177 55.4748 287.298 54.6102 288.244 53.5835L291.04 49.166L290.918 44.9512C291.054 44.735 291.135 44.5324 291.162 44.3433C291.189 44.1541 291.202 43.8704 291.202 43.4922C291.202 43.0329 291.094 42.6141 290.878 42.2358C290.662 41.8576 290.554 41.3983 290.554 40.8579L290.918 39.3179C290.837 38.9937 290.756 38.6154 290.675 38.1831C290.594 37.7508 290.5 37.3185 290.392 36.8862C290.311 36.4269 290.202 36.0081 290.067 35.6299C289.959 35.2246 289.811 34.9004 289.622 34.6572L287.555 32.2661C287.474 32.2121 287.366 32.0905 287.23 31.9014C287.122 31.7122 287.001 31.4961 286.866 31.2529C286.758 31.0098 286.65 30.7801 286.542 30.564C286.46 30.3478 286.42 30.1857 286.42 30.0776L285.204 29.2266C284.718 28.6862 284.231 28.2269 283.745 27.8486C283.259 27.4434 282.678 27.1867 282.002 27.0786L280.017 26.8354C279.314 26.7274 278.693 26.6058 278.152 26.4707C277.612 26.3086 277.004 26.2275 276.329 26.2275H276.045L273.573 27.6865L269.642 32.2661C269.534 32.5633 269.439 32.8335 269.358 33.0767C269.277 33.3198 269.236 33.563 269.236 33.8062L269.034 35.0625L268.385 36.7241V37.7778C268.385 38.1561 268.439 38.5073 268.547 38.8315C268.682 39.1558 268.75 39.534 268.75 39.9663C268.75 40.1825 268.736 40.3581 268.709 40.4932C268.682 40.6012 268.574 40.7228 268.385 40.8579V45.2754ZM310.331 60.7163C309.602 60.9054 308.886 61.027 308.183 61.0811C307.481 61.1621 306.751 61.2026 305.995 61.2026L304.941 61.2837C304.617 61.2837 304.414 61.2297 304.333 61.1216C304.144 60.8784 303.968 60.6217 303.806 60.3516C303.644 60.0544 303.563 59.6896 303.563 59.2573C303.563 58.9601 303.644 58.6764 303.806 58.4062C303.968 58.1361 304.144 57.9469 304.333 57.8389C304.63 57.7308 304.9 57.6768 305.144 57.6768C305.387 57.6497 305.63 57.6362 305.873 57.6362C306.116 57.6362 306.346 57.6227 306.562 57.5957C306.778 57.5417 307.008 57.4876 307.251 57.4336C307.872 57.1904 308.359 56.9202 308.71 56.623C309.061 56.3258 309.331 56.0151 309.521 55.6909C309.71 55.3397 309.818 54.9884 309.845 54.6372C309.899 54.286 309.926 53.9347 309.926 53.5835L309.804 51.395C309.75 51.341 309.683 51.2329 309.602 51.0708C309.521 50.8817 309.439 50.7601 309.358 50.7061L309.156 50.0576C309.156 49.7874 309.264 49.5848 309.48 49.4497C309.696 49.3146 309.804 49.0579 309.804 48.6797L309.521 46.6938C309.521 46.2616 309.548 45.8293 309.602 45.397C309.656 44.9377 309.831 44.5324 310.128 44.1812V41.3848L309.804 40.5337L310.331 38.8315V37.7373C310.331 37.0618 310.277 36.3729 310.169 35.6704C310.061 34.9679 309.872 34.3195 309.602 33.7251C309.358 33.1037 309.007 32.5363 308.548 32.0229C308.116 31.5096 307.575 31.0908 306.927 30.7666L304.941 29.7129C304.725 29.6589 304.522 29.4967 304.333 29.2266C304.144 28.9564 304.022 28.6997 303.968 28.4565C304.022 28.3215 304.117 28.1323 304.252 27.8892C304.387 27.646 304.536 27.4163 304.698 27.2002C304.887 26.957 305.09 26.7544 305.306 26.5923C305.549 26.4032 305.778 26.3086 305.995 26.3086H308.021C308.048 26.3086 308.129 26.2681 308.264 26.187C308.399 26.106 308.534 26.0249 308.669 25.9438C308.805 25.8358 308.94 25.7412 309.075 25.6602C309.21 25.5521 309.304 25.4845 309.358 25.4575C309.385 25.4305 309.466 25.39 309.602 25.3359C309.656 25.3089 309.723 25.2819 309.804 25.2549H311.628C311.655 25.2279 311.709 25.1738 311.79 25.0928C311.898 25.0117 312.02 24.9172 312.155 24.8091C312.29 24.701 312.438 24.5659 312.601 24.4038C312.655 24.3498 312.79 24.3228 313.006 24.3228C313.222 24.3228 313.438 24.3228 313.654 24.3228C313.762 24.3228 313.924 24.3498 314.141 24.4038C314.384 24.4308 314.613 24.4984 314.83 24.6064C315.073 24.7145 315.275 24.8496 315.438 25.0117C315.6 25.1468 315.681 25.3224 315.681 25.5386C315.681 25.5656 315.667 25.5791 315.64 25.5791C315.64 25.5791 315.64 25.5926 315.64 25.6196L315.6 25.6602C315.6 25.7142 315.546 25.8898 315.438 26.187C315.356 26.4842 315.302 26.6598 315.275 26.7139V27.1191C315.275 27.1732 315.316 27.2677 315.397 27.4028C315.478 27.5109 315.559 27.6325 315.64 27.7676C315.721 27.8757 315.789 27.9837 315.843 28.0918C315.924 28.1729 315.964 28.2269 315.964 28.2539L316.815 29.7129C316.869 29.929 317.032 30.0641 317.302 30.1182C317.572 30.1452 317.802 30.1587 317.991 30.1587C318.369 30.1587 318.72 30.0101 319.044 29.7129C319.369 29.3887 319.652 29.1185 319.896 28.9023L321.152 27.1191L321.233 27.0381C321.314 26.957 321.354 26.9165 321.354 26.9165C321.409 26.9165 321.557 26.8625 321.8 26.7544C322.043 26.6463 322.206 26.5653 322.287 26.5112C322.314 26.4842 322.408 26.3761 322.57 26.187C322.732 25.9979 322.908 25.7952 323.097 25.5791C323.286 25.363 323.462 25.1738 323.624 25.0117C323.786 24.8226 323.894 24.7145 323.948 24.6875C323.975 24.6605 324.07 24.62 324.232 24.5659C324.421 24.5119 324.61 24.4578 324.799 24.4038C325.015 24.3498 325.205 24.3092 325.367 24.2822C325.556 24.2282 325.664 24.2012 325.691 24.2012C326.042 24.0661 326.312 23.931 326.501 23.7959C326.691 23.6608 326.866 23.5527 327.028 23.4717C327.217 23.3636 327.434 23.2826 327.677 23.2285C327.92 23.1745 328.271 23.1475 328.73 23.1475H329.541L331.243 23.9985C331.27 23.9985 331.351 24.012 331.486 24.0391C331.621 24.0391 331.77 24.0526 331.932 24.0796C332.094 24.1066 332.243 24.1336 332.378 24.1606C332.513 24.1606 332.608 24.1742 332.662 24.2012C332.77 24.2012 332.972 24.2282 333.27 24.2822C333.594 24.3092 333.756 24.3498 333.756 24.4038C333.81 24.4038 333.958 24.4849 334.202 24.647C334.445 24.7821 334.607 24.9172 334.688 25.0522C334.715 25.0522 334.783 25.0117 334.891 24.9307C334.999 24.8496 335.093 24.8091 335.174 24.8091C335.553 24.9442 335.917 25.1873 336.269 25.5386C336.62 25.8898 336.903 26.187 337.12 26.4302C337.255 26.5923 337.417 26.8219 337.606 27.1191C337.822 27.3893 338.025 27.6595 338.214 27.9297C338.403 28.1999 338.565 28.443 338.7 28.6592C338.862 28.8483 338.943 28.9429 338.943 28.9429C338.943 28.9699 338.957 29.105 338.984 29.3481C339.038 29.5913 339.092 29.8885 339.146 30.2397C339.2 30.564 339.254 30.9017 339.308 31.2529C339.362 31.6042 339.403 31.8879 339.43 32.104L339.146 36.3999L339.713 40.0474C339.713 40.4797 339.673 40.8039 339.592 41.02C339.511 41.2362 339.416 41.4118 339.308 41.5469C339.2 41.682 339.105 41.8171 339.024 41.9521C338.943 42.0602 338.903 42.2358 338.903 42.479C338.903 42.8573 338.97 43.1815 339.105 43.4517C339.268 43.7218 339.376 44.0055 339.43 44.3027C339.43 44.3568 339.443 44.5054 339.47 44.7485C339.497 44.9917 339.524 45.2889 339.551 45.6401C339.578 45.9644 339.605 46.3021 339.632 46.6533C339.659 46.9775 339.673 47.2477 339.673 47.4639V50.7466C339.484 51.1248 339.362 51.422 339.308 51.6382C339.254 51.8273 339.227 52.0705 339.227 52.3677L339.146 54.4751L339.308 56.2178C339.308 56.2988 339.322 56.4069 339.349 56.542C339.403 56.6501 339.457 56.7311 339.511 56.7852C339.7 56.9202 340.038 57.0283 340.524 57.1094C341.037 57.1904 341.524 57.3931 341.983 57.7173L342.307 58.0415C342.388 58.4198 342.564 58.744 342.834 59.0142C343.104 59.2843 343.239 59.568 343.239 59.8652C343.239 60.1624 343.199 60.4596 343.118 60.7568C343.064 61.054 342.847 61.2026 342.469 61.2026H342.307C341.767 61.2567 341.267 61.2972 340.808 61.3242C340.348 61.3783 339.848 61.4053 339.308 61.4053C339.065 61.4053 338.795 61.3918 338.498 61.3647C338.2 61.3647 337.903 61.3377 337.606 61.2837C337.12 61.2297 336.647 61.1891 336.188 61.1621C335.755 61.1351 335.323 61.1216 334.891 61.1216C334.296 61.1216 333.702 61.1351 333.107 61.1621C332.54 61.1891 331.946 61.2297 331.324 61.2837C331.189 61.2297 331.014 61.1891 330.797 61.1621C330.608 61.1351 330.406 61.1216 330.189 61.1216C329.811 61.1216 329.446 61.0946 329.095 61.0405C328.744 61.0135 328.406 61 328.082 61H327.028C326.65 61 326.393 60.8244 326.258 60.4731C326.123 60.1219 326.056 59.6491 326.056 59.0547C326.056 58.6764 326.164 58.3117 326.38 57.9604C326.596 57.6092 326.974 57.4066 327.515 57.3525L330.189 56.9878C330.568 56.9608 330.784 56.7987 330.838 56.5015C330.919 56.1772 330.986 55.9206 331.041 55.7314L331.243 55.3262C331.432 55.002 331.567 54.7453 331.648 54.5562C331.729 54.34 331.784 54.1509 331.811 53.9888C331.865 53.7996 331.892 53.597 331.892 53.3809C331.919 53.1647 331.959 52.881 332.013 52.5298L332.216 51.6787L332.013 50.625V48.3149L331.729 46.1265L332.216 44.2622C332.162 43.8029 332.121 43.3571 332.094 42.9248C332.094 42.4655 332.094 41.9927 332.094 41.5063C332.094 41.047 332.094 40.5877 332.094 40.1284C332.121 39.6421 332.162 39.1693 332.216 38.71C332.324 38.4668 332.378 38.2642 332.378 38.1021C332.405 37.9129 332.418 37.6292 332.418 37.251C332.391 37.1969 332.27 37.0483 332.054 36.8052C331.838 36.535 331.729 36.3729 331.729 36.3188C331.675 36.2378 331.608 36.0622 331.527 35.792C331.473 35.4948 331.405 35.1841 331.324 34.8599C331.27 34.5356 331.216 34.2249 331.162 33.9277C331.108 33.6305 331.068 33.4414 331.041 33.3604C331.014 33.3333 330.932 33.2523 330.797 33.1172C330.689 32.9821 330.568 32.847 330.433 32.7119C330.298 32.5768 330.162 32.4552 330.027 32.3472C329.919 32.2121 329.852 32.131 329.825 32.104C329.825 32.077 329.798 31.9554 329.744 31.7393C329.69 31.5231 329.622 31.415 329.541 31.415C329.487 31.334 329.419 31.2259 329.338 31.0908C329.257 30.9287 329.19 30.8206 329.136 30.7666C329.055 30.7396 328.893 30.6991 328.649 30.645C328.406 30.564 328.15 30.4964 327.879 30.4424C327.636 30.3883 327.393 30.3343 327.15 30.2803C326.934 30.2262 326.785 30.1857 326.704 30.1587H326.177C324.61 30.1587 323.232 30.3748 322.043 30.8071C320.882 31.2124 319.72 31.9284 318.558 32.9551C318.45 33.0361 318.301 33.1712 318.112 33.3604C317.923 33.5495 317.734 33.7386 317.545 33.9277C317.356 34.1169 317.18 34.2925 317.018 34.4546C316.883 34.5897 316.815 34.6707 316.815 34.6978C316.788 34.7248 316.761 34.8193 316.734 34.9814C316.707 35.1436 316.68 35.3192 316.653 35.5083C316.626 35.6974 316.599 35.873 316.572 36.0352C316.572 36.1973 316.572 36.2918 316.572 36.3188C316.464 36.6971 316.356 37.0618 316.248 37.4131C316.14 37.7643 316.086 38.1696 316.086 38.6289C316.086 39.4124 316.126 40.0879 316.208 40.6553C316.316 41.2227 316.37 41.8576 316.37 42.5601C316.37 42.9924 316.302 43.3841 316.167 43.7354C316.032 44.0596 315.964 44.5324 315.964 45.1538L316.37 48.0312L315.964 50.0576V50.625C316.018 50.679 316.072 50.8547 316.126 51.1519C316.208 51.4491 316.248 51.6247 316.248 51.6787V54.2725L316.37 55.1235C316.397 55.2046 316.478 55.3127 316.613 55.4478C316.748 55.5558 316.896 55.6774 317.059 55.8125C317.221 55.9206 317.369 56.0286 317.504 56.1367C317.639 56.2178 317.734 56.2718 317.788 56.2988C317.842 56.3529 317.95 56.4204 318.112 56.5015C318.301 56.5555 318.504 56.623 318.72 56.7041C318.936 56.7581 319.139 56.8122 319.328 56.8662C319.544 56.9202 319.706 56.9608 319.814 56.9878C320.031 57.0959 320.22 57.1634 320.382 57.1904C320.544 57.2174 320.693 57.2445 320.828 57.2715C320.99 57.2715 321.125 57.2985 321.233 57.3525C321.368 57.4066 321.503 57.5282 321.638 57.7173C321.719 57.7983 321.814 57.8524 321.922 57.8794C322.03 57.8794 322.125 57.9064 322.206 57.9604C322.314 57.9875 322.395 58.0415 322.449 58.1226C322.503 58.2036 322.53 58.3387 322.53 58.5278L322.611 59.46C322.611 59.6761 322.57 59.8652 322.489 60.0273C322.408 60.1624 322.219 60.3245 321.922 60.5137C321.679 60.6488 321.476 60.8109 321.314 61C321.179 61.1891 320.963 61.2837 320.666 61.2837C320.368 61.2837 320.071 61.3377 319.774 61.4458C319.477 61.5809 319.261 61.6484 319.125 61.6484H318.639C317.504 61.4593 316.316 61.2432 315.073 61C313.857 60.7298 312.628 60.5947 311.385 60.5947L310.331 60.7163ZM365.286 59.8247C365.286 59.1763 365.489 58.6494 365.894 58.2441C366.299 57.8118 366.826 57.4606 367.475 57.1904C368.15 56.9202 368.893 56.7041 369.704 56.542C370.541 56.3799 371.365 56.2448 372.176 56.1367C372.986 56.0016 373.756 55.8665 374.486 55.7314C375.215 55.5964 375.823 55.4342 376.31 55.2451C376.769 55.056 377.309 54.7318 377.931 54.2725C378.552 53.7861 379.174 53.2458 379.795 52.6514C380.443 52.057 381.024 51.4626 381.538 50.8682C382.078 50.2467 382.483 49.6929 382.753 49.2065C382.753 49.2065 382.767 49.139 382.794 49.0039C382.821 48.8688 382.848 48.7337 382.875 48.5986C382.902 48.4365 382.929 48.3014 382.956 48.1934C382.983 48.0583 383.01 47.9772 383.037 47.9502C383.199 47.4639 383.415 47.0451 383.686 46.6938C383.983 46.3156 384.293 45.9779 384.618 45.6807C384.969 45.3835 385.32 45.0863 385.671 44.7891C386.05 44.4919 386.414 44.1676 386.766 43.8164C387.009 43.5462 387.211 43.2085 387.374 42.8032C387.563 42.3979 387.738 42.0062 387.9 41.6279C388.09 41.2227 388.306 40.8579 388.549 40.5337C388.819 40.2095 389.157 39.9933 389.562 39.8853C389.697 39.8853 389.832 39.8042 389.967 39.6421C390.129 39.48 390.264 39.3719 390.373 39.3179L390.899 38.4263C391.035 38.1561 391.278 37.8319 391.629 37.4536C391.98 37.0754 392.358 36.7241 392.764 36.3999C393.196 36.0487 393.628 35.738 394.061 35.4678C394.493 35.1706 394.858 34.9814 395.155 34.9004C395.29 34.8734 395.357 34.7113 395.357 34.4141C395.357 34.1169 395.222 33.7521 394.952 33.3198C394.709 32.8875 394.385 32.4417 393.979 31.9824C393.601 31.5231 393.196 31.0773 392.764 30.645C392.358 30.1857 391.994 29.8075 391.669 29.5103C390.967 28.7808 390.616 28.3215 390.616 28.1323C390.589 28.0783 390.548 27.9702 390.494 27.8081C390.467 27.646 390.427 27.4839 390.373 27.3218C390.319 27.1326 390.264 26.9705 390.21 26.8354C390.156 26.6733 390.129 26.5923 390.129 26.5923C390.075 26.5112 389.954 26.4032 389.765 26.2681C389.603 26.133 389.413 25.9979 389.197 25.8628C389.008 25.7277 388.833 25.6061 388.67 25.498C388.535 25.39 388.454 25.3089 388.427 25.2549L386.766 22.4585L385.428 21.4048C384.969 20.9725 384.604 20.4862 384.334 19.9458C384.091 19.3784 383.753 18.8786 383.321 18.4463L381.011 16.2173C380.93 15.6229 380.822 15.1906 380.687 14.9204C380.578 14.6502 380.43 14.4476 380.241 14.3125C380.079 14.1504 379.889 14.0153 379.673 13.9072C379.457 13.7721 379.201 13.556 378.903 13.2588L378.255 12.0024C377.633 11.3 376.999 10.7191 376.35 10.2598C375.729 9.77344 374.918 9.53027 373.918 9.53027H367.88C367.583 9.53027 367.34 9.44922 367.15 9.28711C366.961 9.125 366.799 8.93587 366.664 8.71973C366.556 8.47656 366.475 8.21989 366.421 7.94971C366.367 7.67952 366.34 7.43636 366.34 7.22021C366.34 6.57178 366.488 6.05843 366.786 5.68018C367.11 5.30192 367.502 5.03174 367.961 4.86963C368.447 4.6805 368.961 4.55892 369.501 4.50488C370.068 4.45085 370.609 4.42383 371.122 4.42383C371.527 4.42383 371.838 4.45085 372.054 4.50488C372.27 4.5319 372.541 4.69401 372.865 4.99121H378.903C379.201 5.1263 379.457 5.20736 379.673 5.23438C379.889 5.26139 380.214 5.2749 380.646 5.2749L384.942 4.99121C385.158 4.99121 385.55 5.00472 386.117 5.03174C386.712 5.05876 387.374 5.09928 388.103 5.15332C388.86 5.18034 389.643 5.22087 390.454 5.2749C391.291 5.32894 392.048 5.39648 392.723 5.47754C393.399 5.53158 393.952 5.61263 394.385 5.7207C394.844 5.80176 395.074 5.88281 395.074 5.96387C395.128 6.15299 395.182 6.3016 395.236 6.40967C395.29 6.51774 395.317 6.62581 395.317 6.73389C395.317 6.86898 395.29 7.0446 395.236 7.26074C395.182 7.47689 395.128 7.65251 395.074 7.7876C394.966 8.16585 394.641 8.44954 394.101 8.63867C393.588 8.8278 393.02 9.03044 392.399 9.24658C391.805 9.46273 391.264 9.74642 390.778 10.0977C390.292 10.4219 390.048 10.9082 390.048 11.5566C390.048 12.124 390.156 12.6644 390.373 13.1777C390.589 13.6641 390.845 14.1369 391.143 14.5962C391.467 15.0555 391.805 15.5013 392.156 15.9336C392.534 16.3389 392.885 16.7576 393.209 17.1899C393.236 17.1899 393.277 17.271 393.331 17.4331C393.385 17.5952 393.412 17.7033 393.412 17.7573C393.844 18.8381 394.398 19.8242 395.074 20.7158C395.776 21.6074 396.438 22.4855 397.06 23.3501C397.06 23.5392 397.1 23.6878 397.181 23.7959C397.235 23.877 397.289 23.9445 397.343 23.9985C397.343 24.1066 397.357 24.3363 397.384 24.6875C397.411 25.0117 397.492 25.2008 397.627 25.2549C397.735 25.39 397.911 25.5251 398.154 25.6602C398.424 25.7952 398.708 25.9303 399.005 26.0654C399.302 26.2005 399.586 26.3356 399.856 26.4707C400.126 26.6058 400.342 26.7274 400.504 26.8354L401.031 27.0786C401.41 26.9435 401.842 26.5788 402.328 25.9844C402.814 25.39 403.314 24.6605 403.828 23.7959C404.368 22.9313 404.908 21.9857 405.449 20.959C405.989 19.9323 406.502 18.9326 406.989 17.96C407.502 16.9603 407.961 16.0552 408.367 15.2446C408.772 14.4071 409.11 13.7451 409.38 13.2588C409.596 12.8265 409.839 12.5023 410.109 12.2861C410.38 12.043 410.515 11.6917 410.515 11.2324C410.515 11.1243 410.461 10.9217 410.353 10.6245C410.271 10.3003 410.163 9.97607 410.028 9.65186C409.92 9.30062 409.799 9.00342 409.664 8.76025C409.556 8.49007 409.461 8.35498 409.38 8.35498C409.002 8.40902 408.677 8.49007 408.407 8.59814C408.137 8.70622 407.813 8.76025 407.435 8.76025C407.083 8.76025 406.719 8.70622 406.34 8.59814C405.962 8.49007 405.557 8.40902 405.125 8.35498C404.908 8.21989 404.706 8.11182 404.517 8.03076C404.354 7.92269 404.206 7.81462 404.071 7.70654C403.936 7.57145 403.828 7.42285 403.747 7.26074C403.666 7.07161 403.625 6.82845 403.625 6.53125C403.625 6.23405 403.652 5.93685 403.706 5.63965C403.787 5.34245 404.017 5.19385 404.395 5.19385C405.097 5.08577 405.935 4.99121 406.908 4.91016C407.907 4.8291 409.015 4.78857 410.231 4.78857C411.582 4.78857 413.027 4.8291 414.567 4.91016C416.134 4.99121 417.756 5.08577 419.431 5.19385C420.592 5.08577 421.741 4.96419 422.875 4.8291C424.01 4.69401 425.104 4.62646 426.158 4.62646C426.753 4.62646 427.212 4.74805 427.536 4.99121C427.86 5.20736 428.022 5.66667 428.022 6.36914C428.022 6.7474 427.874 7.05811 427.577 7.30127C427.306 7.54443 426.955 7.74707 426.523 7.90918C426.091 8.04427 425.604 8.16585 425.064 8.27393C424.524 8.35498 424.01 8.43604 423.524 8.51709C423.038 8.57113 422.592 8.65218 422.187 8.76025C421.808 8.84131 421.538 8.96289 421.376 9.125L419.228 11.2324L417.81 11.9214C417.485 12.1646 417.134 12.5023 416.756 12.9346C416.378 13.3398 416.013 13.7721 415.662 14.2314C415.31 14.6908 414.986 15.1501 414.689 15.6094C414.392 16.0687 414.162 16.474 414 16.8252C414 16.9333 413.986 17.1359 413.959 17.4331C413.932 17.7303 413.865 17.9059 413.757 17.96C413.703 18.014 413.568 18.068 413.352 18.1221C413.135 18.1491 413.014 18.1626 412.987 18.1626C412.555 18.4598 412.082 18.8921 411.568 19.4595C411.055 19.9998 410.582 20.4321 410.15 20.7563C409.853 21.1886 409.677 21.6479 409.623 22.1343C409.596 22.6206 409.447 23.0259 409.177 23.3501L407.272 25.2549C406.732 25.9574 406.273 26.6193 405.895 27.2407C405.516 27.8351 404.976 28.4836 404.273 29.186C403.814 29.6724 403.584 30.1047 403.584 30.4829C403.584 31.1854 403.828 31.9554 404.314 32.793C404.827 33.6035 405.395 34.4006 406.016 35.1841C406.665 35.9406 407.259 36.6296 407.799 37.251C408.367 37.8724 408.691 38.3317 408.772 38.6289L410.434 41.6685C410.731 42.2088 411.15 42.7222 411.69 43.2085C412.23 43.6678 412.663 44.0866 412.987 44.4648C413.446 45.1943 413.811 45.9103 414.081 46.6128C414.351 47.3153 414.702 48.0177 415.135 48.7202C415.243 48.9634 415.472 49.1795 415.824 49.3687C416.175 49.5578 416.432 49.7199 416.594 49.855C417.566 50.9357 418.35 51.7733 418.944 52.3677C419.539 52.9621 419.985 53.4214 420.282 53.7456C420.606 54.0428 420.809 54.2319 420.89 54.313C420.998 54.394 421.065 54.4751 421.092 54.5562L423.119 56.2988C423.686 56.596 424.267 56.8257 424.861 56.9878C425.456 57.1229 426.05 57.2715 426.645 57.4336C427.266 57.5687 427.874 57.7173 428.468 57.8794C429.063 58.0415 429.644 58.2847 430.211 58.6089V59.541C430.211 59.8923 430.13 60.1624 429.968 60.3516C429.833 60.5407 429.644 60.6893 429.4 60.7974C429.157 60.8784 428.874 60.9325 428.549 60.9595C428.252 60.9865 427.941 61 427.617 61H426.563C426.266 61 425.929 60.9595 425.55 60.8784C425.199 60.7703 424.821 60.6758 424.416 60.5947C424.037 60.4867 423.646 60.3921 423.24 60.311C422.835 60.203 422.443 60.1489 422.065 60.1489C421.714 60.1489 421.362 60.203 421.011 60.311C420.66 60.3921 420.268 60.4326 419.836 60.4326L417.81 59.9463L415.337 60.1489H414.527C414.257 60.1489 414.054 60.1489 413.919 60.1489C413.784 60.1219 413.649 60.0544 413.514 59.9463H411.487L403.706 60.4326H402.936C402.72 60.4326 402.49 60.4191 402.247 60.3921C402.004 60.3381 401.774 60.284 401.558 60.23C401.342 60.1489 401.153 60.0544 400.991 59.9463C400.856 59.8382 400.788 59.7031 400.788 59.541C400.788 59.3249 400.964 59.0817 401.315 58.8115C401.666 58.5413 402.098 58.2576 402.612 57.9604C403.125 57.6632 403.679 57.3525 404.273 57.0283C404.895 56.6771 405.462 56.3394 405.976 56.0151C406.489 55.6639 406.921 55.3127 407.272 54.9614C407.624 54.5832 407.799 54.2184 407.799 53.8672C407.799 53.7321 407.759 53.57 407.678 53.3809C407.624 53.1917 407.57 53.0161 407.516 52.854C407.435 52.6649 407.354 52.4622 407.272 52.2461C407.272 52.165 407.191 52.0435 407.029 51.8813C406.867 51.7192 406.692 51.5571 406.502 51.395C406.313 51.2059 406.124 51.0438 405.935 50.9087C405.773 50.7466 405.665 50.625 405.611 50.5439C405.449 50.2738 405.327 49.9901 405.246 49.6929C405.165 49.3687 405.084 49.0579 405.003 48.7607C404.949 48.4635 404.881 48.1799 404.8 47.9097C404.719 47.6395 404.584 47.3963 404.395 47.1802C404.341 47.1532 404.246 47.0856 404.111 46.9775C403.976 46.8695 403.828 46.7479 403.666 46.6128C403.503 46.4507 403.355 46.3156 403.22 46.2075C403.112 46.0724 403.044 45.9779 403.017 45.9238V44.7891C402.828 44.2757 402.558 43.7894 402.207 43.3301C401.882 42.8708 401.531 42.425 401.153 41.9927C400.802 41.5334 400.45 41.0741 400.099 40.6147C399.775 40.1284 399.505 39.6151 399.289 39.0747C399.208 38.9396 399.072 38.6694 398.883 38.2642C398.694 37.8589 398.478 37.4536 398.235 37.0483C398.019 36.616 397.803 36.2378 397.586 35.9136C397.37 35.5894 397.195 35.4272 397.06 35.4272C396.06 36.4539 395.222 37.5752 394.547 38.791C393.871 40.0068 393.169 41.2227 392.439 42.4385C391.44 44.0055 390.521 45.5186 389.684 46.9775C388.873 48.4365 388.225 49.9495 387.738 51.5166C387.684 51.5706 387.63 51.6787 387.576 51.8408C387.549 52.0029 387.536 52.138 387.536 52.2461C387.482 52.2461 387.374 52.3407 387.211 52.5298C387.076 52.7189 386.995 52.827 386.968 52.854C386.968 53.4214 387.103 53.8942 387.374 54.2725C387.644 54.6237 387.981 54.9344 388.387 55.2046C388.792 55.4478 389.238 55.6774 389.724 55.8936C390.21 56.1097 390.656 56.3394 391.062 56.5825C391.467 56.8257 391.805 57.1094 392.075 57.4336C392.345 57.7308 392.48 58.1226 392.48 58.6089C392.48 59.0952 392.25 59.4465 391.791 59.6626C391.359 59.8787 390.967 60.0409 390.616 60.1489C390.562 60.203 390.4 60.2705 390.129 60.3516C389.886 60.4056 389.589 60.4731 389.238 60.5542C388.914 60.6082 388.589 60.6623 388.265 60.7163C387.941 60.7703 387.698 60.7974 387.536 60.7974H387.374C386.428 60.7974 385.496 60.6623 384.577 60.3921C383.659 60.0949 382.74 59.9463 381.821 59.9463L376.999 61C376.863 60.973 376.742 60.946 376.634 60.9189C376.526 60.8919 376.418 60.8649 376.31 60.8379C376.201 60.8109 376.107 60.7974 376.026 60.7974C375.54 60.7974 374.986 60.8649 374.364 61C373.77 61.1621 373.162 61.3377 372.541 61.5269C371.946 61.716 371.379 61.8781 370.838 62.0132C370.298 62.1753 369.852 62.2563 369.501 62.2563C369.069 62.2023 368.596 62.1077 368.083 61.9727C367.596 61.8376 367.299 61.77 367.191 61.77C366.84 61.6349 366.542 61.5269 366.299 61.4458C366.056 61.3647 365.854 61.2702 365.691 61.1621C365.556 61.054 365.448 60.9054 365.367 60.7163C365.313 60.5272 365.286 60.23 365.286 59.8247ZM435.52 56.2988C435.52 55.6774 435.574 55.1641 435.682 54.7588C435.79 54.3265 435.939 53.9618 436.128 53.6646C436.344 53.3674 436.614 53.0972 436.938 52.854C437.263 52.6108 437.654 52.3407 438.114 52.0435C438.654 51.6652 439.086 51.2734 439.411 50.8682C439.735 50.4629 440.113 50.2603 440.545 50.2603C440.681 50.2603 440.897 50.2873 441.194 50.3413C441.491 50.3953 441.788 50.4629 442.085 50.5439C442.41 50.598 442.707 50.6655 442.977 50.7466C443.247 50.8006 443.423 50.8547 443.504 50.9087C443.612 50.9627 443.788 51.0843 444.031 51.2734C444.301 51.4355 444.49 51.5166 444.598 51.5166H446.098C446.314 51.5977 446.503 51.8138 446.665 52.165C446.854 52.4893 447.003 52.8675 447.111 53.2998C447.219 53.7321 447.3 54.1644 447.354 54.5967C447.408 55.002 447.435 55.3127 447.435 55.5288C447.435 56.0692 447.327 56.6906 447.111 57.3931C446.922 58.0685 446.773 58.6899 446.665 59.2573C446.503 59.4735 446.246 59.6761 445.895 59.8652C445.544 60.0544 445.152 60.2165 444.72 60.3516C444.314 60.4867 443.896 60.5947 443.463 60.6758C443.031 60.7568 442.666 60.7974 442.369 60.7974H441.194C440.816 60.7974 440.397 60.7703 439.938 60.7163C439.478 60.6353 439.073 60.4461 438.722 60.1489C438.668 60.0949 438.573 60.0003 438.438 59.8652C438.303 59.7301 438.154 59.5951 437.992 59.46C437.83 59.2979 437.681 59.1357 437.546 58.9736C437.411 58.8115 437.317 58.6899 437.263 58.6089C437.128 58.5008 436.965 58.3522 436.776 58.1631C436.587 57.974 436.398 57.7848 436.209 57.5957C436.02 57.3796 435.858 57.1634 435.723 56.9473C435.588 56.7311 435.52 56.515 435.52 56.2988ZM436.817 35.0625L436.776 34.6572C436.776 34.0358 436.871 33.3333 437.06 32.5498C437.249 31.7393 437.533 30.9827 437.911 30.2803C438.316 29.5508 438.803 28.9429 439.37 28.4565C439.938 27.9432 440.586 27.6865 441.315 27.6865C441.721 27.6865 442.18 27.7676 442.693 27.9297C443.234 28.0648 443.774 28.2404 444.314 28.4565C444.855 28.6727 445.355 28.9294 445.814 29.2266C446.273 29.5238 446.652 29.8075 446.949 30.0776C447.03 30.2127 447.111 30.4154 447.192 30.6855C447.3 30.9557 447.381 31.2664 447.435 31.6177C447.516 31.9419 447.584 32.2661 447.638 32.5903C447.692 32.9146 447.719 33.1712 447.719 33.3604C447.719 33.9818 447.611 34.5086 447.395 34.9409C447.205 35.3732 446.935 35.738 446.584 36.0352C446.233 36.3324 445.8 36.589 445.287 36.8052C444.801 37.0213 444.274 37.2104 443.707 37.3726C443.707 37.3996 443.693 37.4131 443.666 37.4131C443.612 37.4401 443.585 37.4536 443.585 37.4536C443.45 37.5076 443.247 37.5752 442.977 37.6562C442.707 37.7373 442.423 37.8184 442.126 37.8994C441.856 37.9805 441.586 38.0615 441.315 38.1426C441.045 38.1966 440.856 38.2236 440.748 38.2236C440.424 38.2236 440.032 38.1156 439.573 37.8994C439.14 37.6562 438.722 37.3726 438.316 37.0483C437.911 36.7241 437.56 36.3864 437.263 36.0352C436.965 35.6569 436.817 35.3327 436.817 35.0625Z" fill="white"/>
</svg>
