<svg width="205" height="25" viewBox="0 0 205 25" fill="none" xmlns="http://www.w3.org/2000/svg">
<g clip-path="url(#clip0_1_142)">
<path d="M1.70801 0.748535H5.5752C6.63867 0.748535 7.70752 0.759277 8.78174 0.780762C9.8667 0.802246 10.9033 0.845215 11.8916 0.909668C12.8906 0.963379 13.8091 1.03857 14.647 1.13525C15.4849 1.23193 16.1885 1.35547 16.7578 1.50586C17.5957 1.75293 18.3745 2.13965 19.0942 2.66602C19.8247 3.19238 20.5015 3.81006 21.1245 4.51904C21.3716 4.80908 21.6455 5.20117 21.9463 5.69531C22.2578 6.17871 22.5479 6.7373 22.8164 7.37109C23.0957 8.00488 23.3267 8.69238 23.5093 9.43359C23.6919 10.1748 23.7832 10.9429 23.7832 11.7378C23.7832 13.6177 23.4287 15.3149 22.7197 16.8296C22.0215 18.3335 21.0063 19.7192 19.6743 20.9868C19.6099 21.019 19.5132 21.0835 19.3843 21.1802C19.2661 21.2769 19.1372 21.3843 18.9976 21.5024C18.8579 21.6099 18.7236 21.7119 18.5947 21.8086C18.4766 21.9053 18.3906 21.9751 18.3369 22.0181C18.0898 22.2222 17.7837 22.4155 17.4185 22.5981C17.064 22.7808 16.6719 22.9473 16.2422 23.0977C15.8125 23.248 15.3613 23.3877 14.8887 23.5166C14.4268 23.6455 13.9702 23.7529 13.519 23.8389C13.0679 23.9248 12.6436 23.9893 12.2461 24.0322C11.8486 24.0859 11.5049 24.1128 11.2148 24.1128C10.7959 24.1128 10.3662 24.0913 9.92578 24.0483C9.48535 24.0161 8.9751 24 8.39502 24H1.19238C0.848633 24 0.676758 23.8872 0.676758 23.6616C0.676758 23.5327 0.789551 23.4307 1.01514 23.3555C1.24072 23.2695 1.51465 23.2051 1.83691 23.1621C2.15918 23.1084 2.50293 23.0654 2.86816 23.0332C3.2334 22.9902 3.56104 22.9419 3.85107 22.8882C4.06592 22.8452 4.22705 22.7861 4.33447 22.7109C4.45264 22.625 4.5332 22.5337 4.57617 22.437C4.62988 22.2114 4.66211 22.0342 4.67285 21.9053C4.68359 21.7656 4.68896 21.6099 4.68896 21.438V1.84424C4.65674 1.76904 4.51709 1.69922 4.27002 1.63477C4.03369 1.57031 3.74365 1.51123 3.3999 1.45752C3.06689 1.40381 2.70703 1.3501 2.32031 1.29639C1.93359 1.24268 1.5791 1.18896 1.25684 1.13525C1.08496 1.11377 0.999023 1.06006 0.999023 0.974121C0.999023 0.952637 1.05811 0.898926 1.17627 0.812988C1.21924 0.791504 1.27832 0.775391 1.35352 0.764648C1.43945 0.753906 1.55762 0.748535 1.70801 0.748535ZM8.39502 1.9248V10.9805C8.39502 11.6357 8.37354 12.2695 8.33057 12.8818C8.29834 13.4834 8.26074 14.0742 8.21777 14.6543C8.18555 15.2344 8.14795 15.8145 8.10498 16.3945C8.07275 16.9639 8.05664 17.5493 8.05664 18.1509C8.05664 19.5044 8.13184 20.5464 8.28223 21.2769C8.44336 21.9966 8.66357 22.5122 8.94287 22.8237C9.07178 22.9956 9.25439 23.1084 9.49072 23.1621C9.73779 23.2051 9.95801 23.2266 10.1514 23.2266C10.9893 23.2266 11.7842 23.1191 12.5361 22.9043C13.2881 22.6895 13.981 22.394 14.6147 22.0181C15.2593 21.6421 15.834 21.2017 16.3389 20.6968C16.8545 20.1919 17.2896 19.6494 17.644 19.0693C18.3853 17.877 18.9385 16.6792 19.3037 15.4761C19.6689 14.2622 19.8516 13.1074 19.8516 12.0117C19.8516 11.4102 19.8032 10.8354 19.7065 10.2876C19.6206 9.73975 19.5132 9.23486 19.3843 8.77295C19.2554 8.31104 19.1157 7.90283 18.9653 7.54834C18.8149 7.19385 18.6807 6.91455 18.5625 6.71045C18.4014 6.42041 18.1758 6.07129 17.8857 5.66309C17.5957 5.24414 17.2197 4.81445 16.7578 4.37402C16.3066 3.92285 15.7534 3.48779 15.0981 3.06885C14.4429 2.63916 13.6641 2.26855 12.7617 1.95703C12.2031 1.75293 11.6445 1.61328 11.0859 1.53809C10.5273 1.46289 9.91504 1.42529 9.24902 1.42529C9.18457 1.42529 9.09863 1.43066 8.99121 1.44141C8.89453 1.45215 8.80322 1.47363 8.71729 1.50586C8.63135 1.53809 8.55615 1.5918 8.4917 1.66699C8.42725 1.73145 8.39502 1.81738 8.39502 1.9248ZM33.9507 21.6797L33.8701 21.7441C33.8594 21.7441 33.7681 21.8247 33.5962 21.9858C33.4351 22.1362 33.2524 22.3081 33.0483 22.5015C32.8442 22.6841 32.6509 22.856 32.4683 23.0171C32.2856 23.1782 32.1729 23.2642 32.1299 23.2749C31.7861 23.4683 31.394 23.6509 30.9536 23.8228C30.5239 23.9946 30.0352 24.0806 29.4873 24.0806C29.1006 24.0806 28.7139 24.0269 28.3271 23.9194C27.9512 23.812 27.6074 23.6294 27.2959 23.3716C26.9951 23.103 26.748 22.7485 26.5547 22.3081C26.3721 21.8677 26.2808 21.3091 26.2808 20.6323C26.2808 20.3853 26.3398 20.0737 26.458 19.6978C26.5869 19.311 26.7964 18.9619 27.0864 18.6504C27.3872 18.2959 27.7148 18.0005 28.0693 17.7642C28.4346 17.5171 28.832 17.3022 29.2617 17.1196C29.7021 16.9263 30.1855 16.7544 30.7119 16.604C31.2383 16.4536 31.8237 16.2979 32.4683 16.1367C32.6187 16.1045 32.7798 16.0669 32.9517 16.0239C33.1235 15.981 33.2847 15.938 33.4351 15.895C33.5962 15.8521 33.7305 15.8145 33.8379 15.7822C33.9561 15.7393 34.0312 15.7017 34.0635 15.6694C34.1172 15.6265 34.1655 15.5889 34.2085 15.5566C34.2622 15.5244 34.2944 15.4492 34.3052 15.3311C34.3481 15.084 34.3857 14.8208 34.418 14.5415C34.4609 14.2622 34.4932 13.9829 34.5146 13.7036C34.5469 13.4243 34.5684 13.1558 34.5791 12.8979C34.5898 12.6401 34.5952 12.4092 34.5952 12.2051C34.5952 11.7861 34.5146 11.394 34.3535 11.0288C34.1924 10.6636 33.9722 10.3467 33.6929 10.0781C33.4243 9.80957 33.1074 9.6001 32.7422 9.44971C32.377 9.29932 31.9902 9.22412 31.582 9.22412C31.2598 9.22412 30.9214 9.30469 30.5669 9.46582C30.2231 9.61621 29.9062 9.82031 29.6162 10.0781C29.3369 10.3359 29.106 10.6313 28.9233 10.9644C28.7407 11.2866 28.6494 11.6196 28.6494 11.9634C28.6494 12.1245 28.6924 12.2534 28.7783 12.3501C28.8643 12.4468 28.9556 12.5381 29.0522 12.624C29.1489 12.71 29.2402 12.8066 29.3262 12.9141C29.4121 13.0215 29.4551 13.1665 29.4551 13.3491C29.4551 13.7896 29.3154 14.1333 29.0361 14.3804C28.7568 14.6274 28.4131 14.751 28.0049 14.751C27.7578 14.751 27.5376 14.7026 27.3442 14.606C27.1616 14.4985 27.0005 14.3643 26.8608 14.2031C26.7212 14.0312 26.6138 13.8379 26.5386 13.623C26.4741 13.4082 26.4419 13.188 26.4419 12.9624C26.4419 12.7476 26.501 12.5166 26.6191 12.2695C26.7373 12.0225 26.8823 11.7808 27.0542 11.5444C27.2261 11.3081 27.4033 11.0879 27.5859 10.8838C27.7793 10.6689 27.9404 10.4971 28.0693 10.3682C28.3057 10.1426 28.5312 9.94385 28.7461 9.77197C28.9717 9.6001 29.208 9.42822 29.4551 9.25635C29.6377 9.13818 29.8257 9.0415 30.019 8.96631C30.2124 8.89111 30.4004 8.82666 30.583 8.77295C30.6904 8.72998 30.8354 8.68164 31.0181 8.62793C31.2114 8.56348 31.4209 8.50439 31.6465 8.45068C31.8828 8.39697 32.1245 8.354 32.3716 8.32178C32.6294 8.27881 32.8765 8.25732 33.1128 8.25732C33.6177 8.25732 34.1118 8.32715 34.5952 8.4668C35.0894 8.60645 35.5244 8.82666 35.9004 9.12744C36.2871 9.42822 36.5986 9.81494 36.835 10.2876C37.0713 10.7603 37.1895 11.3242 37.1895 11.9795C37.1895 12.71 37.1519 13.4565 37.0767 14.2192C37.0015 14.9819 36.9155 15.7124 36.8188 16.4106C36.7329 17.1089 36.6523 17.748 36.5771 18.3281C36.502 18.9082 36.4644 19.3755 36.4644 19.73C36.4644 19.9126 36.4805 20.1436 36.5127 20.4229C36.5449 20.6914 36.604 20.9546 36.6899 21.2124C36.7866 21.4595 36.9155 21.6743 37.0767 21.8569C37.2378 22.0396 37.4473 22.1309 37.7051 22.1309C38.0059 22.1309 38.2959 22.061 38.5752 21.9214C38.8545 21.7817 39.1123 21.6045 39.3486 21.3896C39.585 21.1748 39.7944 20.9385 39.9771 20.6807C40.1704 20.4229 40.3262 20.1704 40.4443 19.9233C40.4658 19.8804 40.4873 19.8374 40.5088 19.7944C40.541 19.7407 40.584 19.7139 40.6377 19.7139C40.6807 19.7139 40.7021 19.7515 40.7021 19.8267V19.9878C40.7021 20.4604 40.6108 20.9385 40.4282 21.4219C40.2563 21.8945 39.9985 22.3296 39.6548 22.7271C39.3218 23.1138 38.9082 23.4307 38.4141 23.6777C37.9199 23.9248 37.3506 24.0483 36.7061 24.0483C36.5879 24.0483 36.4482 24.0376 36.2871 24.0161C36.1367 24.0054 35.9917 23.9731 35.8521 23.9194C35.5728 23.7798 35.3418 23.6294 35.1592 23.4683C34.9766 23.2964 34.8154 23.1191 34.6758 22.9365C34.5469 22.7539 34.4233 22.5605 34.3052 22.3564C34.1978 22.1416 34.0796 21.916 33.9507 21.6797ZM28.8428 21.0996C28.8428 21.3682 28.8965 21.5991 29.0039 21.7925C29.1113 21.9858 29.251 22.147 29.4229 22.2759C29.6055 22.394 29.8096 22.4854 30.0352 22.5498C30.2607 22.6035 30.4863 22.6304 30.7119 22.6304C30.9912 22.6304 31.2598 22.6035 31.5176 22.5498C31.7861 22.4854 32.0386 22.4048 32.2749 22.3081C32.5112 22.2114 32.7261 22.1094 32.9194 22.002C33.1235 21.8838 33.3062 21.771 33.4673 21.6636C33.7358 21.4272 33.8701 21.1855 33.8701 20.9385C33.8701 20.1436 33.9185 19.397 34.0151 18.6987C34.1226 17.9897 34.1763 17.2969 34.1763 16.6201C34.1763 16.5449 34.1655 16.4644 34.144 16.3784C34.1333 16.2925 34.085 16.2495 33.999 16.2495C33.9023 16.2495 33.8057 16.2656 33.709 16.2979C33.623 16.3193 33.5425 16.3408 33.4673 16.3623C32.9946 16.5342 32.5327 16.7222 32.0815 16.9263C31.6304 17.1304 31.1846 17.3398 30.7441 17.5547C30.4434 17.7158 30.1748 17.9307 29.9385 18.1992C29.7021 18.4678 29.5034 18.7632 29.3423 19.0854C29.1812 19.4077 29.0576 19.7461 28.9717 20.1006C28.8857 20.4443 28.8428 20.7773 28.8428 21.0996ZM47.1958 23.9194L42.4424 9.59473C42.4102 9.4873 42.2812 9.41211 42.0557 9.36914C41.8301 9.32617 41.6206 9.30469 41.4272 9.30469H40.8794C40.7935 9.30469 40.7021 9.29932 40.6055 9.28857C40.5088 9.26709 40.4175 9.24023 40.3315 9.20801C40.2563 9.16504 40.1919 9.1167 40.1382 9.06299C40.0845 8.99854 40.0576 8.92334 40.0576 8.8374C40.0576 8.59033 40.165 8.4668 40.3799 8.4668H41.0405C41.1372 8.4668 41.2607 8.47217 41.4111 8.48291C41.5615 8.49365 41.7173 8.50439 41.8784 8.51514C42.0503 8.52588 42.2168 8.53662 42.3779 8.54736C42.5391 8.55811 42.6787 8.56348 42.7969 8.56348C42.8936 8.56348 43.0601 8.55811 43.2964 8.54736C43.5327 8.53662 43.8013 8.52588 44.1021 8.51514C44.4136 8.49365 44.7358 8.47217 45.0688 8.45068C45.4019 8.4292 45.708 8.41309 45.9873 8.40234C46.2773 8.38086 46.519 8.36475 46.7124 8.354C46.9165 8.34326 47.04 8.33789 47.083 8.33789C47.4053 8.33789 47.5664 8.48291 47.5664 8.77295C47.5664 8.85889 47.4805 8.93408 47.3086 8.99854C47.1475 9.05225 46.9487 9.10059 46.7124 9.14355C46.4868 9.18652 46.2505 9.22949 46.0034 9.27246C45.7671 9.30469 45.5791 9.33691 45.4395 9.36914C45.3857 9.39062 45.3589 9.45508 45.3589 9.5625C45.3589 9.58398 45.3643 9.61621 45.375 9.65918C45.3857 9.69141 45.4019 9.73438 45.4233 9.78809L48.7588 19.9072C48.7803 19.9502 48.7964 19.9824 48.8071 20.0039C48.8179 20.0254 48.8286 20.0469 48.8394 20.0684C48.8501 20.0898 48.8608 20.1006 48.8716 20.1006C48.9038 20.1006 48.9414 20.0737 48.9844 20.02C49.0381 19.9556 49.0864 19.8804 49.1294 19.7944C49.1831 19.7085 49.2261 19.6172 49.2583 19.5205C49.3013 19.4131 49.3389 19.3164 49.3711 19.2305C49.7793 18.0811 50.1714 16.9155 50.5474 15.7339C50.9341 14.5522 51.3315 13.4136 51.7397 12.3179C51.9116 11.9097 52.0674 11.5283 52.207 11.1738C52.3467 10.8086 52.4165 10.4111 52.4165 9.98145C52.4165 9.8418 52.4058 9.70215 52.3843 9.5625C52.3628 9.41211 52.3145 9.31006 52.2393 9.25635C52.2178 9.22412 52.1587 9.19727 52.062 9.17578C51.9653 9.14355 51.8579 9.12207 51.7397 9.11133C51.6216 9.08984 51.5034 9.07373 51.3853 9.06299C51.2778 9.05225 51.1919 9.0415 51.1274 9.03076C51.0737 9.03076 50.9824 9.03076 50.8535 9.03076C50.7246 9.02002 50.5903 8.99854 50.4507 8.96631C50.3218 8.93408 50.2036 8.88574 50.0962 8.82129C49.9888 8.75684 49.9351 8.6709 49.9351 8.56348C49.9351 8.42383 49.9619 8.33789 50.0156 8.30566C50.0801 8.27344 50.166 8.25732 50.2734 8.25732H50.5151C50.6655 8.25732 50.875 8.26807 51.1436 8.28955C51.4229 8.31104 51.7236 8.33252 52.0459 8.354C52.3682 8.37549 52.7012 8.39697 53.0449 8.41846C53.3887 8.43994 53.7056 8.45068 53.9956 8.45068H54.9785C55.2256 8.45068 55.5049 8.43457 55.8164 8.40234C56.1387 8.37012 56.3911 8.354 56.5737 8.354C56.7671 8.354 56.9121 8.38086 57.0088 8.43457C57.1055 8.47754 57.1538 8.59033 57.1538 8.77295C57.1538 8.90186 57.0464 9.00928 56.8315 9.09521C56.6167 9.18115 56.3696 9.25635 56.0903 9.3208C55.811 9.37451 55.5317 9.42822 55.2524 9.48193C54.9839 9.53564 54.7905 9.6001 54.6724 9.67529C54.4253 9.83643 54.189 10.0728 53.9634 10.3843C53.7378 10.6851 53.5337 11.0073 53.3511 11.3511C53.1685 11.6948 53.002 12.0332 52.8516 12.3662C52.7119 12.6992 52.5938 12.9731 52.4971 13.188C52.2822 13.7251 52.0566 14.2891 51.8203 14.8799C51.584 15.46 51.3369 16.0562 51.0791 16.6685C50.832 17.27 50.5796 17.8716 50.3218 18.4731C50.064 19.0747 49.8115 19.6602 49.5645 20.2295C49.5322 20.3154 49.457 20.498 49.3389 20.7773C49.2314 21.0566 49.1079 21.3574 48.9683 21.6797C48.8394 22.002 48.7158 22.3188 48.5977 22.6304C48.4795 22.9312 48.4043 23.146 48.3721 23.2749C48.3184 23.4253 48.2646 23.5864 48.2109 23.7583C48.1572 23.9302 48.0981 24.0859 48.0337 24.2256C47.98 24.376 47.9209 24.4941 47.8564 24.5801C47.8027 24.6768 47.7437 24.7251 47.6792 24.7251C47.6255 24.7251 47.5771 24.6875 47.5342 24.6123C47.4912 24.5479 47.4482 24.4673 47.4053 24.3706C47.3623 24.2739 47.3193 24.1826 47.2764 24.0967C47.2441 24.0107 47.2173 23.9517 47.1958 23.9194ZM57.5566 23.6938C57.5566 23.6401 57.562 23.5596 57.5728 23.4521C57.5942 23.334 57.6641 23.2749 57.7822 23.2749H59.6514C59.748 23.2749 59.8501 23.2427 59.9575 23.1782C60.0649 23.1138 60.1187 23.0278 60.1187 22.9204V13.3813C60.1187 12.8765 60.1025 12.436 60.0703 12.0601C60.0381 11.6841 59.936 11.3994 59.7642 11.2061C59.689 11.0879 59.6138 11.0127 59.5386 10.9805C59.4741 10.9482 59.4204 10.9214 59.3774 10.8999C59.3237 10.8784 59.2646 10.8623 59.2002 10.8516C59.1465 10.8408 59.082 10.8354 59.0068 10.8354H58.6685C58.4536 10.8354 58.1958 10.8408 57.895 10.8516C57.5942 10.8623 57.3418 10.8784 57.1377 10.8999C57.0947 10.8999 57.0464 10.8945 56.9927 10.8838C56.939 10.8623 56.9121 10.8301 56.9121 10.7871C56.9121 10.6689 56.9336 10.5991 56.9766 10.5776C57.0303 10.5562 57.0947 10.5239 57.1699 10.481C57.5889 10.3413 58.0454 10.2231 58.5396 10.1265C59.0337 10.019 59.5063 9.90625 59.9575 9.78809C59.9897 9.78809 60.0596 9.77197 60.167 9.73975C60.2852 9.69678 60.4033 9.65381 60.5215 9.61084C60.6504 9.56787 60.7739 9.5249 60.8921 9.48193C61.0103 9.43896 61.0962 9.40674 61.1499 9.38525C61.2896 9.34229 61.4292 9.2832 61.5688 9.20801C61.7192 9.12207 61.8696 9.0415 62.02 8.96631C62.1704 8.89111 62.3154 8.82666 62.4551 8.77295C62.6055 8.71924 62.7559 8.69238 62.9062 8.69238C62.96 8.69238 63.0083 8.71924 63.0513 8.77295C63.105 8.82666 63.1318 8.90186 63.1318 8.99854V19.4561C63.1318 19.8428 63.1211 20.165 63.0996 20.4229C63.0889 20.6699 63.0728 20.9009 63.0513 21.1157C63.0298 21.3198 63.0083 21.5293 62.9868 21.7441C62.9761 21.9482 62.9707 22.2007 62.9707 22.5015C62.9707 22.813 63.0029 23.0225 63.0674 23.1299C63.1426 23.2266 63.3521 23.2749 63.6958 23.2749C63.814 23.2749 63.9966 23.2642 64.2437 23.2427C64.4907 23.2104 64.7002 23.1943 64.8721 23.1943C64.958 23.1943 65.0493 23.2051 65.146 23.2266C65.2534 23.2373 65.3501 23.2642 65.436 23.3071C65.5327 23.3501 65.6079 23.4092 65.6616 23.4844C65.7261 23.5596 65.7583 23.6562 65.7583 23.7744C65.7583 23.8496 65.7422 23.9141 65.71 23.9678C65.6885 24.0215 65.6294 24.0483 65.5327 24.0483C64.7485 24.0483 64.0396 24.0376 63.4058 24.0161C62.7827 24.0054 62.1919 24 61.6333 24C60.6772 24 59.9038 24.043 59.313 24.1289C58.7222 24.2148 58.3032 24.2578 58.0562 24.2578C57.7231 24.2578 57.5566 24.0698 57.5566 23.6938ZM59.7642 2.56934C59.7642 2.2793 59.8179 2.03223 59.9253 1.82812C60.0327 1.61328 60.1724 1.44141 60.3442 1.3125C60.5269 1.17285 60.7363 1.07617 60.9727 1.02246C61.209 0.958008 61.4561 0.925781 61.7139 0.925781C61.9502 0.925781 62.1758 0.96875 62.3906 1.05469C62.6055 1.14062 62.7935 1.25879 62.9546 1.40918C63.1157 1.55957 63.2393 1.73682 63.3252 1.94092C63.4219 2.14502 63.4702 2.35986 63.4702 2.58545C63.4702 2.87549 63.4219 3.12793 63.3252 3.34277C63.2285 3.54688 63.0942 3.71338 62.9224 3.84229C62.7505 3.97119 62.5464 4.06787 62.3101 4.13232C62.0845 4.18604 61.8374 4.21289 61.5688 4.21289C61.0103 4.21289 60.5698 4.08398 60.2476 3.82617C59.9253 3.56836 59.7642 3.14941 59.7642 2.56934ZM67.1279 16.8135C67.1494 15.9971 67.2891 15.2344 67.5469 14.5254C67.8047 13.8164 68.1538 13.1665 68.5942 12.5757C69.0347 11.9849 69.5449 11.4585 70.125 10.9966C70.7158 10.5347 71.3496 10.1372 72.0264 9.8042C72.3701 9.64307 72.7568 9.49805 73.1865 9.36914C73.627 9.24023 74.0513 9.17578 74.4595 9.17578C74.7603 9.17578 75.1147 9.22949 75.5229 9.33691C75.9312 9.43359 76.3179 9.54639 76.6831 9.67529C77.0483 9.79346 77.3599 9.90625 77.6177 10.0137C77.8755 10.1104 78.0098 10.1641 78.0205 10.1748C78.042 10.1963 78.1172 10.207 78.2461 10.207V5.32471C78.2461 4.84131 78.2354 4.42236 78.2139 4.06787C78.2031 3.70264 78.1548 3.40186 78.0688 3.16553C77.9937 2.9292 77.8647 2.75732 77.6821 2.6499C77.4995 2.53174 77.2417 2.47266 76.9087 2.47266C76.8657 2.47266 76.8013 2.4834 76.7153 2.50488C76.6294 2.51563 76.5327 2.53711 76.4253 2.56934C76.3179 2.59082 76.2104 2.6123 76.103 2.63379C75.9956 2.64453 75.8989 2.6499 75.813 2.6499C75.7808 2.6499 75.7056 2.64453 75.5874 2.63379C75.4692 2.62305 75.3403 2.60156 75.2007 2.56934C75.0718 2.53711 74.9536 2.49414 74.8462 2.44043C74.7495 2.38672 74.7012 2.31689 74.7012 2.23096C74.7012 2.18799 74.7173 2.15039 74.7495 2.11816C74.7925 2.0752 74.8516 2.05371 74.9268 2.05371C75.1846 2.03223 75.4746 1.99463 75.7969 1.94092C76.1191 1.87646 76.4253 1.81738 76.7153 1.76367C77.0161 1.69922 77.2739 1.64014 77.4888 1.58643C77.7144 1.53271 77.854 1.49512 77.9077 1.47363C78.2515 1.40918 78.6006 1.33398 78.9551 1.24805C79.3096 1.16211 79.6587 1.0708 80.0024 0.974121C80.0562 0.952637 80.126 0.915039 80.2119 0.861328C80.3086 0.807617 80.4053 0.780762 80.502 0.780762C80.6738 0.780762 80.8188 0.829102 80.937 0.925781C81.0552 1.01172 81.1143 1.09229 81.1143 1.16748V22.6626C81.3291 22.6304 81.5654 22.5928 81.8232 22.5498C82.0918 22.4961 82.355 22.4478 82.6128 22.4048C82.8813 22.3618 83.1338 22.3242 83.3701 22.292C83.6172 22.2598 83.8213 22.2437 83.9824 22.2437C84.1006 22.2437 84.165 22.2759 84.1758 22.3403C84.1973 22.394 84.208 22.4478 84.208 22.5015C84.208 22.6519 84.1704 22.7432 84.0952 22.7754C83.8052 22.8506 83.5581 22.8989 83.354 22.9204C83.1499 22.9312 82.9243 22.958 82.6772 23.001C82.312 23.0654 81.9253 23.1621 81.5171 23.291C81.1089 23.4199 80.7168 23.5542 80.3408 23.6938C79.8896 23.8657 79.5137 24.0054 79.2129 24.1128C78.9229 24.2202 78.665 24.2739 78.4395 24.2739C78.2139 24.2739 78.1011 24.1719 78.1011 23.9678C78.1011 23.7529 78.1226 23.5381 78.1655 23.3232C78.2192 23.0977 78.2461 22.8936 78.2461 22.7109C78.2461 22.6572 78.2407 22.5659 78.23 22.437C78.2192 22.2974 78.2085 22.2061 78.1978 22.1631C78.1655 22.0879 78.1064 22.0503 78.0205 22.0503C77.9668 22.0503 77.8271 22.147 77.6016 22.3403C77.3867 22.5337 77.1396 22.7539 76.8604 23.001C76.5811 23.2373 76.2964 23.4683 76.0063 23.6938C75.7271 23.9194 75.4907 24.0591 75.2974 24.1128C75.0181 24.1987 74.7227 24.2578 74.4111 24.29C74.1104 24.3223 73.8203 24.3384 73.541 24.3384C72.542 24.3384 71.645 24.1235 70.8501 23.6938C70.0552 23.2534 69.3784 22.6787 68.8198 21.9697C68.272 21.2607 67.853 20.4604 67.563 19.5688C67.2729 18.6665 67.1279 17.748 67.1279 16.8135ZM78.2461 21.1641V12.2373C77.9238 12.2373 77.5693 12.0869 77.1826 11.7861C76.9678 11.6035 76.7798 11.3994 76.6187 11.1738C76.4683 10.9482 76.2856 10.7388 76.0708 10.5454C75.856 10.3413 75.582 10.1748 75.249 10.0459C74.9268 9.90625 74.4863 9.83643 73.9277 9.83643C73.4551 9.83643 73.0361 9.94385 72.6709 10.1587C72.3057 10.3628 71.9834 10.6421 71.7041 10.9966C71.4355 11.3403 71.2046 11.7378 71.0112 12.189C70.8286 12.6294 70.6782 13.0859 70.5601 13.5586C70.4419 14.0312 70.356 14.4932 70.3022 14.9443C70.2485 15.3955 70.2217 15.8037 70.2217 16.1689C70.2217 16.5234 70.2217 16.8833 70.2217 17.2485C70.2324 17.603 70.2593 17.9521 70.3022 18.2959C70.3452 18.6396 70.415 18.9727 70.5117 19.2949C70.6084 19.6064 70.7427 19.9019 70.9146 20.1812C71.1724 20.6001 71.4409 20.9922 71.7202 21.3574C71.9995 21.7227 72.2949 22.0449 72.6064 22.3242C72.918 22.5928 73.2456 22.8076 73.5894 22.9688C73.9438 23.1191 74.3145 23.1943 74.7012 23.1943C74.8301 23.1943 75.0073 23.1675 75.2329 23.1138C75.4585 23.0601 75.7002 22.9849 75.958 22.8882C76.2266 22.7915 76.4951 22.6787 76.7637 22.5498C77.0322 22.4102 77.2739 22.2651 77.4888 22.1147C77.7144 21.9644 77.897 21.8086 78.0366 21.6475C78.1763 21.4863 78.2461 21.3252 78.2461 21.1641ZM103.979 24.4189C102.411 24.4189 100.934 24.1128 99.5479 23.5005C98.1729 22.8774 96.9106 21.9644 95.7612 20.7612C95.2671 20.2563 94.8159 19.6816 94.4077 19.0371C93.9995 18.3818 93.6504 17.6567 93.3604 16.8618C93.0703 16.0669 92.8447 15.1968 92.6836 14.2515C92.5225 13.2954 92.4419 12.2588 92.4419 11.1416C92.4419 10.3467 92.5869 9.53564 92.877 8.7085C93.1777 7.87061 93.5859 7.07031 94.1016 6.30762C94.6172 5.53418 95.2241 4.81982 95.9224 4.16455C96.6206 3.49854 97.3726 2.9292 98.1782 2.45654C99.2739 1.79053 100.364 1.33398 101.449 1.08691C102.545 0.829102 103.555 0.700195 104.479 0.700195C104.94 0.700195 105.424 0.737793 105.929 0.812988C106.434 0.888184 106.912 0.984863 107.363 1.10303C107.825 1.22119 108.244 1.3501 108.62 1.48975C109.006 1.62939 109.307 1.76367 109.522 1.89258C110.038 2.2041 110.564 2.59082 111.101 3.05273C111.638 3.51465 112.143 4.01416 112.616 4.55127C113.088 5.08838 113.513 5.6416 113.889 6.21094C114.275 6.76953 114.576 7.30127 114.791 7.80615C115.156 8.64404 115.403 9.48193 115.532 10.3198C115.661 11.1577 115.726 12.0278 115.726 12.9302C115.726 13.897 115.624 14.8047 115.419 15.6533C115.226 16.4912 114.941 17.2808 114.565 18.022C114.189 18.7632 113.728 19.4614 113.18 20.1167C112.643 20.7612 112.03 21.3789 111.343 21.9697C110.838 22.3887 110.322 22.7539 109.796 23.0654C109.27 23.3662 108.706 23.6187 108.104 23.8228C107.513 24.0269 106.879 24.1772 106.203 24.2739C105.526 24.3706 104.785 24.4189 103.979 24.4189ZM96.6475 12.8013C96.6475 13.3169 96.6743 13.8433 96.728 14.3804C96.7817 14.9067 96.8677 15.4331 96.9858 15.9595C97.104 16.4751 97.2544 16.9746 97.437 17.458C97.6304 17.9414 97.8613 18.3926 98.1299 18.8115C98.4736 19.3809 98.855 19.9395 99.2739 20.4873C99.7036 21.0244 100.176 21.5132 100.692 21.9536C101.218 22.3833 101.793 22.7324 102.416 23.001C103.05 23.2588 103.737 23.3877 104.479 23.3877C105.177 23.3877 105.854 23.2212 106.509 22.8882C107.164 22.5444 107.771 22.0986 108.33 21.5508C108.888 20.9922 109.388 20.3638 109.828 19.6655C110.279 18.9673 110.645 18.2583 110.924 17.5386C110.956 17.4312 111.021 17.2378 111.117 16.9585C111.225 16.6685 111.332 16.3193 111.439 15.9111C111.547 15.5029 111.638 15.041 111.713 14.5254C111.799 14.0098 111.842 13.4619 111.842 12.8818C111.842 12.3662 111.799 11.8076 111.713 11.2061C111.638 10.6045 111.515 9.98682 111.343 9.35303C111.182 8.7085 110.978 8.06396 110.73 7.41943C110.483 6.7749 110.193 6.15723 109.86 5.56641C109.57 5.06152 109.232 4.56738 108.845 4.08398C108.458 3.58984 108.018 3.15479 107.524 2.77881C107.041 2.39209 106.503 2.08594 105.913 1.86035C105.322 1.62402 104.677 1.50586 103.979 1.50586C103.313 1.50586 102.679 1.64551 102.078 1.9248C101.476 2.2041 100.928 2.55322 100.434 2.97217C99.9399 3.38037 99.5049 3.8208 99.1289 4.29346C98.7637 4.75537 98.4683 5.17969 98.2427 5.56641C98.0708 5.86719 97.8882 6.24316 97.6948 6.69434C97.5122 7.14551 97.3403 7.67188 97.1792 8.27344C97.0288 8.875 96.8999 9.55713 96.7925 10.3198C96.6958 11.0718 96.6475 11.8989 96.6475 12.8013ZM117.643 22.0825C117.643 21.9106 117.686 21.7603 117.772 21.6313C117.858 21.5024 117.949 21.3521 118.046 21.1802C118.207 20.8901 118.395 20.6968 118.61 20.6001C118.825 20.4927 119.104 20.439 119.448 20.439C119.727 20.439 119.974 20.4927 120.189 20.6001C120.415 20.7075 120.603 20.8525 120.753 21.0352C120.914 21.2178 121.038 21.4326 121.124 21.6797C121.209 21.916 121.252 22.1685 121.252 22.437C121.252 22.6304 121.204 22.8345 121.107 23.0493C121.021 23.2534 120.898 23.4414 120.737 23.6133C120.586 23.7852 120.409 23.9248 120.205 24.0322C120.012 24.1396 119.808 24.1934 119.593 24.1934C119.335 24.1934 119.088 24.1289 118.852 24C118.615 23.8818 118.406 23.7207 118.223 23.5166C118.051 23.3125 117.912 23.0869 117.804 22.8398C117.697 22.582 117.643 22.3296 117.643 22.0825ZM131.581 6.74268C131.581 6.20557 131.667 5.66309 131.839 5.11523C132.021 4.56738 132.263 4.05176 132.564 3.56836C132.865 3.07422 133.214 2.62842 133.611 2.23096C134.02 1.82275 134.449 1.49512 134.9 1.24805C135.33 1.00098 135.765 0.850586 136.206 0.796875C136.657 0.743164 137.14 0.716309 137.656 0.716309C138.236 0.716309 138.805 0.786133 139.364 0.925781C139.922 1.05469 140.465 1.25879 140.991 1.53809C141.034 1.57031 141.115 1.62402 141.233 1.69922C141.351 1.77441 141.48 1.86572 141.62 1.97314C141.77 2.08057 141.92 2.19336 142.071 2.31152C142.221 2.41895 142.355 2.521 142.474 2.61768C142.517 2.66064 142.554 2.68213 142.586 2.68213C142.597 2.68213 142.624 2.66064 142.667 2.61768C142.699 2.57471 142.737 2.51025 142.78 2.42432C142.833 2.32764 142.887 2.23096 142.941 2.13428C142.995 2.02686 143.043 1.93018 143.086 1.84424C143.14 1.74756 143.177 1.68311 143.199 1.65088C143.22 1.59717 143.247 1.54883 143.279 1.50586C143.322 1.46289 143.349 1.44141 143.36 1.44141C143.36 1.43066 143.381 1.42529 143.424 1.42529C143.489 1.42529 143.537 1.45215 143.569 1.50586C143.602 1.54883 143.623 1.60254 143.634 1.66699C143.655 1.73145 143.666 1.80127 143.666 1.87646C143.666 1.94092 143.666 1.99463 143.666 2.0376V2.15039C143.666 2.17187 143.661 2.21484 143.65 2.2793C143.65 2.34375 143.645 2.41895 143.634 2.50488C143.623 2.58008 143.612 2.6499 143.602 2.71436C143.602 2.77881 143.596 2.82178 143.585 2.84326V6.82324C143.585 6.90918 143.548 6.96826 143.473 7.00049C143.397 7.03271 143.333 7.04883 143.279 7.04883C143.161 7.04883 143.091 7.02734 143.07 6.98438C143.048 6.93066 143.016 6.83936 142.973 6.71045C142.855 6.43115 142.774 6.14648 142.731 5.85645C142.699 5.55566 142.624 5.24951 142.506 4.93799C142.388 4.5835 142.189 4.20215 141.91 3.79395C141.63 3.375 141.308 2.98828 140.943 2.63379C140.578 2.2793 140.196 1.98389 139.799 1.74756C139.401 1.51123 139.02 1.39307 138.655 1.39307C137.978 1.39307 137.457 1.44141 137.092 1.53809C136.544 1.69922 136.082 1.9624 135.706 2.32764C135.341 2.68213 135.002 3.08496 134.691 3.53613C134.605 3.66504 134.524 3.83154 134.449 4.03564C134.374 4.229 134.31 4.43848 134.256 4.66406C134.213 4.87891 134.175 5.08838 134.143 5.29248C134.122 5.49658 134.111 5.66309 134.111 5.79199C134.111 6.30762 134.218 6.7749 134.433 7.19385C134.659 7.61279 134.949 7.98877 135.303 8.32178C135.658 8.64404 136.055 8.93408 136.496 9.19189C136.947 9.43896 137.398 9.65381 137.849 9.83643C138.236 9.99756 138.633 10.1533 139.042 10.3037C139.46 10.4541 139.869 10.6099 140.266 10.771C140.674 10.9321 141.061 11.1094 141.426 11.3027C141.802 11.4961 142.135 11.7163 142.425 11.9634C142.791 12.2534 143.15 12.6133 143.505 13.043C143.859 13.4619 144.176 13.9238 144.456 14.4287C144.746 14.9229 144.977 15.4385 145.148 15.9756C145.32 16.5127 145.406 17.0391 145.406 17.5547C145.406 18.5537 145.229 19.4561 144.875 20.2617C144.531 21.0674 144.047 21.7549 143.424 22.3242C142.812 22.8828 142.087 23.3179 141.249 23.6294C140.411 23.9302 139.509 24.0806 138.542 24.0806C137.973 24.0806 137.419 24.0537 136.882 24C136.356 23.9355 135.851 23.8281 135.368 23.6777C134.884 23.5273 134.428 23.3179 133.998 23.0493C133.568 22.7808 133.16 22.437 132.773 22.0181C132.73 21.9644 132.671 21.9321 132.596 21.9214C132.532 21.9106 132.478 21.9053 132.435 21.9053C132.252 21.9053 132.124 21.9536 132.048 22.0503C131.973 22.147 131.909 22.2598 131.855 22.3887C131.812 22.5068 131.758 22.6143 131.694 22.7109C131.629 22.8076 131.517 22.856 131.355 22.856L131.774 18.4248C131.796 18.2852 131.812 18.1187 131.823 17.9253C131.833 17.7319 131.86 17.603 131.903 17.5386C131.936 17.3882 131.995 17.313 132.081 17.313C132.209 17.313 132.301 17.3936 132.354 17.5547C132.419 17.7373 132.473 17.9199 132.516 18.1025C132.559 18.2744 132.596 18.4463 132.628 18.6182C132.661 18.79 132.693 18.9512 132.725 19.1016C132.768 19.252 132.822 19.3862 132.886 19.5044C133.133 19.9448 133.37 20.3369 133.595 20.6807C133.832 21.0244 134.089 21.3413 134.369 21.6313C134.659 21.9214 134.992 22.1846 135.368 22.4209C135.744 22.6572 136.2 22.8774 136.737 23.0815C137.07 23.1997 137.387 23.2695 137.688 23.291C137.989 23.3018 138.263 23.3071 138.51 23.3071C138.811 23.3071 139.111 23.2534 139.412 23.146C139.713 23.0278 140.073 22.8506 140.492 22.6143C141.104 22.249 141.593 21.814 141.958 21.3091C142.323 20.7935 142.506 20.1489 142.506 19.3755C142.506 18.8276 142.404 18.3174 142.2 17.8447C142.006 17.3721 141.738 16.9316 141.394 16.5234C140.9 15.9756 140.427 15.5513 139.976 15.2505C139.525 14.939 139.079 14.6919 138.639 14.5093C138.209 14.3267 137.779 14.1709 137.35 14.042C136.92 13.9131 136.479 13.752 136.028 13.5586C135.588 13.3652 135.137 13.1074 134.675 12.7852C134.213 12.4629 133.729 12.0117 133.225 11.4316C132.129 10.1426 131.581 8.57959 131.581 6.74268ZM155.509 21.6797L155.429 21.7441C155.418 21.7441 155.327 21.8247 155.155 21.9858C154.994 22.1362 154.811 22.3081 154.607 22.5015C154.403 22.6841 154.209 22.856 154.027 23.0171C153.844 23.1782 153.731 23.2642 153.688 23.2749C153.345 23.4683 152.953 23.6509 152.512 23.8228C152.083 23.9946 151.594 24.0806 151.046 24.0806C150.659 24.0806 150.272 24.0269 149.886 23.9194C149.51 23.812 149.166 23.6294 148.854 23.3716C148.554 23.103 148.307 22.7485 148.113 22.3081C147.931 21.8677 147.839 21.3091 147.839 20.6323C147.839 20.3853 147.898 20.0737 148.017 19.6978C148.146 19.311 148.355 18.9619 148.645 18.6504C148.946 18.2959 149.273 18.0005 149.628 17.7642C149.993 17.5171 150.391 17.3022 150.82 17.1196C151.261 16.9263 151.744 16.7544 152.271 16.604C152.797 16.4536 153.382 16.2979 154.027 16.1367C154.177 16.1045 154.338 16.0669 154.51 16.0239C154.682 15.981 154.843 15.938 154.994 15.895C155.155 15.8521 155.289 15.8145 155.396 15.7822C155.515 15.7393 155.59 15.7017 155.622 15.6694C155.676 15.6265 155.724 15.5889 155.767 15.5566C155.821 15.5244 155.853 15.4492 155.864 15.3311C155.907 15.084 155.944 14.8208 155.977 14.5415C156.02 14.2622 156.052 13.9829 156.073 13.7036C156.105 13.4243 156.127 13.1558 156.138 12.8979C156.148 12.6401 156.154 12.4092 156.154 12.2051C156.154 11.7861 156.073 11.394 155.912 11.0288C155.751 10.6636 155.531 10.3467 155.251 10.0781C154.983 9.80957 154.666 9.6001 154.301 9.44971C153.936 9.29932 153.549 9.22412 153.141 9.22412C152.818 9.22412 152.48 9.30469 152.125 9.46582C151.782 9.61621 151.465 9.82031 151.175 10.0781C150.896 10.3359 150.665 10.6313 150.482 10.9644C150.299 11.2866 150.208 11.6196 150.208 11.9634C150.208 12.1245 150.251 12.2534 150.337 12.3501C150.423 12.4468 150.514 12.5381 150.611 12.624C150.708 12.71 150.799 12.8066 150.885 12.9141C150.971 13.0215 151.014 13.1665 151.014 13.3491C151.014 13.7896 150.874 14.1333 150.595 14.3804C150.315 14.6274 149.972 14.751 149.563 14.751C149.316 14.751 149.096 14.7026 148.903 14.606C148.72 14.4985 148.559 14.3643 148.419 14.2031C148.28 14.0312 148.172 13.8379 148.097 13.623C148.033 13.4082 148 13.188 148 12.9624C148 12.7476 148.06 12.5166 148.178 12.2695C148.296 12.0225 148.441 11.7808 148.613 11.5444C148.785 11.3081 148.962 11.0879 149.145 10.8838C149.338 10.6689 149.499 10.4971 149.628 10.3682C149.864 10.1426 150.09 9.94385 150.305 9.77197C150.53 9.6001 150.767 9.42822 151.014 9.25635C151.196 9.13818 151.384 9.0415 151.578 8.96631C151.771 8.89111 151.959 8.82666 152.142 8.77295C152.249 8.72998 152.394 8.68164 152.577 8.62793C152.77 8.56348 152.979 8.50439 153.205 8.45068C153.441 8.39697 153.683 8.354 153.93 8.32178C154.188 8.27881 154.435 8.25732 154.671 8.25732C155.176 8.25732 155.67 8.32715 156.154 8.4668C156.648 8.60645 157.083 8.82666 157.459 9.12744C157.846 9.42822 158.157 9.81494 158.394 10.2876C158.63 10.7603 158.748 11.3242 158.748 11.9795C158.748 12.71 158.71 13.4565 158.635 14.2192C158.56 14.9819 158.474 15.7124 158.377 16.4106C158.292 17.1089 158.211 17.748 158.136 18.3281C158.061 18.9082 158.023 19.3755 158.023 19.73C158.023 19.9126 158.039 20.1436 158.071 20.4229C158.104 20.6914 158.163 20.9546 158.249 21.2124C158.345 21.4595 158.474 21.6743 158.635 21.8569C158.796 22.0396 159.006 22.1309 159.264 22.1309C159.564 22.1309 159.854 22.061 160.134 21.9214C160.413 21.7817 160.671 21.6045 160.907 21.3896C161.144 21.1748 161.353 20.9385 161.536 20.6807C161.729 20.4229 161.885 20.1704 162.003 19.9233C162.024 19.8804 162.046 19.8374 162.067 19.7944C162.1 19.7407 162.143 19.7139 162.196 19.7139C162.239 19.7139 162.261 19.7515 162.261 19.8267V19.9878C162.261 20.4604 162.169 20.9385 161.987 21.4219C161.815 21.8945 161.557 22.3296 161.213 22.7271C160.88 23.1138 160.467 23.4307 159.973 23.6777C159.479 23.9248 158.909 24.0483 158.265 24.0483C158.146 24.0483 158.007 24.0376 157.846 24.0161C157.695 24.0054 157.55 23.9731 157.411 23.9194C157.131 23.7798 156.9 23.6294 156.718 23.4683C156.535 23.2964 156.374 23.1191 156.234 22.9365C156.105 22.7539 155.982 22.5605 155.864 22.3564C155.756 22.1416 155.638 21.916 155.509 21.6797ZM150.401 21.0996C150.401 21.3682 150.455 21.5991 150.562 21.7925C150.67 21.9858 150.81 22.147 150.981 22.2759C151.164 22.394 151.368 22.4854 151.594 22.5498C151.819 22.6035 152.045 22.6304 152.271 22.6304C152.55 22.6304 152.818 22.6035 153.076 22.5498C153.345 22.4854 153.597 22.4048 153.833 22.3081C154.07 22.2114 154.285 22.1094 154.478 22.002C154.682 21.8838 154.865 21.771 155.026 21.6636C155.294 21.4272 155.429 21.1855 155.429 20.9385C155.429 20.1436 155.477 19.397 155.574 18.6987C155.681 17.9897 155.735 17.2969 155.735 16.6201C155.735 16.5449 155.724 16.4644 155.703 16.3784C155.692 16.2925 155.644 16.2495 155.558 16.2495C155.461 16.2495 155.364 16.2656 155.268 16.2979C155.182 16.3193 155.101 16.3408 155.026 16.3623C154.553 16.5342 154.091 16.7222 153.64 16.9263C153.189 17.1304 152.743 17.3398 152.303 17.5547C152.002 17.7158 151.733 17.9307 151.497 18.1992C151.261 18.4678 151.062 18.7632 150.901 19.0854C150.74 19.4077 150.616 19.7461 150.53 20.1006C150.444 20.4443 150.401 20.7773 150.401 21.0996ZM168.932 21.7441C169.071 21.8301 169.211 21.9053 169.351 21.9697C169.49 22.0342 169.641 22.0933 169.802 22.147C169.963 22.1899 170.14 22.2222 170.333 22.2437C170.527 22.2651 170.747 22.2759 170.994 22.2759C171.359 22.2759 171.741 22.1846 172.138 22.002C172.536 21.8193 172.912 21.5938 173.266 21.3252C173.621 21.0459 173.938 20.7451 174.217 20.4229C174.496 20.0898 174.706 19.7837 174.845 19.5044C174.899 19.3862 174.969 19.3057 175.055 19.2627C175.151 19.209 175.248 19.1714 175.345 19.1499C175.42 19.2036 175.463 19.2681 175.474 19.3433C175.484 19.4185 175.49 19.4937 175.49 19.5688C175.49 19.9341 175.388 20.2886 175.184 20.6323C174.99 20.9653 174.781 21.2769 174.555 21.5669C174.222 21.9858 173.878 22.3564 173.524 22.6787C173.169 22.9902 172.788 23.2534 172.38 23.4683C171.982 23.6831 171.547 23.8442 171.075 23.9517C170.602 24.0591 170.081 24.1128 169.512 24.1128C168.491 24.1128 167.583 23.8818 166.789 23.4199C165.994 22.958 165.322 22.3618 164.774 21.6313C164.227 20.8901 163.808 20.0576 163.518 19.1338C163.228 18.1992 163.083 17.2646 163.083 16.3301C163.083 15.3203 163.244 14.332 163.566 13.3652C163.899 12.3984 164.372 11.5391 164.984 10.7871C165.596 10.0244 166.343 9.41211 167.224 8.9502C168.104 8.48828 169.104 8.25732 170.221 8.25732C170.64 8.25732 171.064 8.28955 171.494 8.354C171.934 8.40771 172.358 8.50977 172.767 8.66016C173.175 8.7998 173.556 8.99316 173.911 9.24023C174.276 9.4873 174.587 9.79883 174.845 10.1748C174.931 10.3037 175.017 10.4219 175.103 10.5293C175.189 10.6367 175.264 10.7441 175.329 10.8516C175.404 10.9482 175.463 11.0557 175.506 11.1738C175.549 11.2812 175.57 11.4102 175.57 11.5605C175.57 11.7646 175.527 11.9473 175.441 12.1084C175.366 12.2695 175.259 12.4038 175.119 12.5112C174.99 12.6187 174.834 12.7046 174.652 12.769C174.48 12.8228 174.303 12.8496 174.12 12.8496C173.852 12.8496 173.631 12.7583 173.459 12.5757C173.298 12.3823 173.143 12.146 172.992 11.8667C172.853 11.5767 172.702 11.2705 172.541 10.9482C172.38 10.6152 172.17 10.3091 171.913 10.0298C171.655 9.73975 171.333 9.50342 170.946 9.3208C170.559 9.12744 170.065 9.03076 169.463 9.03076C169.13 9.03076 168.803 9.09521 168.48 9.22412C168.158 9.34229 167.857 9.50879 167.578 9.72363C167.31 9.92773 167.068 10.1641 166.853 10.4326C166.638 10.6904 166.466 10.9644 166.337 11.2544C166.101 11.8667 165.961 12.479 165.918 13.0913C165.886 13.6929 165.87 14.2998 165.87 14.9121C165.87 15.5781 165.913 16.2388 165.999 16.894C166.096 17.5493 166.257 18.1777 166.482 18.7793C166.719 19.3701 167.03 19.9233 167.417 20.439C167.814 20.9438 168.319 21.3789 168.932 21.7441ZM182.161 15.895L181.806 23.2427C181.806 23.2964 181.833 23.3232 181.887 23.3232H183.498C183.681 23.3232 183.836 23.3608 183.965 23.436C184.105 23.5005 184.175 23.5972 184.175 23.7261C184.175 23.8657 184.105 23.9517 183.965 23.9839C183.826 24.0161 183.708 24.0322 183.611 24.0322C183.353 24.0322 183.127 24.0269 182.934 24.0161C182.751 24.0161 182.553 24.0161 182.338 24.0161C182.123 24.0161 181.871 24.0107 181.581 24C181.301 24 180.931 24 180.469 24C180.061 24 179.583 24.0054 179.035 24.0161C178.498 24.0376 177.96 24.0483 177.423 24.0483C177.208 24.0483 177.01 24.0322 176.827 24C176.655 23.9785 176.569 23.8872 176.569 23.7261C176.569 23.5972 176.596 23.5005 176.65 23.436C176.704 23.3608 176.806 23.3232 176.956 23.3232H178.68C178.777 23.3232 178.895 23.2964 179.035 23.2427C179.174 23.1782 179.244 23.0869 179.244 22.9688L180.05 5.55029C180.05 5.3999 180.044 5.25488 180.034 5.11523C180.034 4.96484 180.018 4.83057 179.985 4.7124C179.932 4.39014 179.824 4.09473 179.663 3.82617C179.502 3.55762 179.25 3.42334 178.906 3.42334C178.734 3.42334 178.589 3.4502 178.471 3.50391C178.363 3.54688 178.24 3.56836 178.1 3.56836C178.068 3.56836 177.987 3.55762 177.858 3.53613C177.74 3.51465 177.611 3.48242 177.472 3.43945C177.343 3.39648 177.225 3.3374 177.117 3.26221C177.01 3.18701 176.956 3.10107 176.956 3.00439C176.956 2.854 176.999 2.74121 177.085 2.66602C177.182 2.58008 177.294 2.51563 177.423 2.47266C177.552 2.42969 177.687 2.40283 177.826 2.39209C177.966 2.37061 178.084 2.34375 178.181 2.31152C178.89 2.18262 179.561 2.02686 180.195 1.84424C180.829 1.65088 181.484 1.43604 182.161 1.19971C182.171 1.19971 182.193 1.19434 182.225 1.18359C182.247 1.18359 182.268 1.18359 182.29 1.18359C182.322 1.17285 182.354 1.16748 182.386 1.16748C182.526 1.16748 182.617 1.19971 182.66 1.26416C182.703 1.31787 182.735 1.37158 182.757 1.42529C182.789 1.43604 182.805 1.52734 182.805 1.69922C182.805 1.75293 182.794 1.82275 182.773 1.90869C182.762 1.98389 182.757 2.08057 182.757 2.19873L182.193 14.6865C182.193 14.9658 182.279 15.1055 182.451 15.1055C182.547 15.1055 182.623 15.084 182.676 15.041C182.73 14.998 182.794 14.9551 182.87 14.9121C183.235 14.6113 183.659 14.2622 184.143 13.8647C184.626 13.4673 185.093 13.0806 185.544 12.7046C186.006 12.3179 186.409 11.9795 186.753 11.6895C187.107 11.3994 187.328 11.2114 187.414 11.1255C187.5 11.0396 187.542 10.9268 187.542 10.7871C187.542 10.5723 187.43 10.4165 187.204 10.3198C187.172 10.2876 187.107 10.25 187.011 10.207C186.914 10.1533 186.807 10.0996 186.688 10.0459C186.57 9.99219 186.447 9.94385 186.318 9.90088C186.2 9.84717 186.098 9.80957 186.012 9.78809C185.915 9.74512 185.738 9.71289 185.48 9.69141C185.222 9.66992 184.98 9.6377 184.755 9.59473C184.604 9.5625 184.529 9.46582 184.529 9.30469C184.529 9.18652 184.572 9.10596 184.658 9.06299C184.755 9.00928 184.862 8.98242 184.98 8.98242C185.077 8.98242 185.271 8.98779 185.561 8.99854C185.861 9.00928 186.184 9.02002 186.527 9.03076C186.882 9.0415 187.226 9.05225 187.559 9.06299C187.902 9.07373 188.166 9.0791 188.348 9.0791C188.778 9.0791 189.175 9.07373 189.541 9.06299C189.917 9.05225 190.276 9.0415 190.62 9.03076C190.975 9.02002 191.324 9.00928 191.667 8.99854C192.011 8.98779 192.376 8.98242 192.763 8.98242C192.967 8.98242 193.069 9.05225 193.069 9.19189C193.069 9.38525 192.908 9.5249 192.586 9.61084C192.274 9.69678 192.006 9.77197 191.78 9.83643C191.565 9.90088 191.367 9.9707 191.184 10.0459C191.001 10.1104 190.813 10.1855 190.62 10.2715C190.438 10.3467 190.223 10.4434 189.976 10.5615C189.621 10.7334 189.272 10.9106 188.928 11.0933C188.584 11.2651 188.284 11.4424 188.026 11.625C187.822 11.7754 187.639 11.9097 187.478 12.0278C187.328 12.146 187.177 12.2642 187.027 12.3823C186.876 12.5005 186.715 12.624 186.543 12.7529C186.382 12.8711 186.194 13.0054 185.979 13.1558C185.894 13.2202 185.797 13.29 185.689 13.3652C185.593 13.4404 185.496 13.521 185.399 13.6069C185.303 13.6821 185.222 13.7627 185.158 13.8486C185.093 13.9346 185.061 14.0205 185.061 14.1064C185.061 14.1924 185.083 14.2568 185.125 14.2998C185.362 14.6221 185.679 15.0625 186.076 15.6211C186.484 16.1797 186.93 16.792 187.414 17.458C187.897 18.1133 188.396 18.7954 188.912 19.5044C189.428 20.2026 189.911 20.8633 190.362 21.4863C190.566 21.7764 190.771 22.0396 190.975 22.2759C191.189 22.5015 191.415 22.6948 191.651 22.856C191.898 23.0063 192.172 23.1299 192.473 23.2266C192.774 23.3125 193.128 23.3662 193.537 23.3877C193.655 23.3877 193.719 23.4253 193.73 23.5005C193.751 23.5757 193.762 23.6509 193.762 23.7261C193.762 23.7798 193.741 23.8335 193.698 23.8872C193.666 23.9409 193.612 23.9785 193.537 24H192.618C192.382 24 192.129 23.9946 191.861 23.9839C191.592 23.9731 191.324 23.9624 191.055 23.9517C190.797 23.9302 190.545 23.9141 190.298 23.9033C190.062 23.8926 189.852 23.8872 189.669 23.8872C189.132 23.8872 188.611 23.9141 188.106 23.9678C187.612 24.0215 187.118 24.0483 186.624 24.0483C186.538 24.0483 186.441 24.043 186.334 24.0322C186.237 24.0322 186.141 24.0215 186.044 24C185.958 23.9893 185.883 23.9624 185.818 23.9194C185.765 23.8765 185.738 23.812 185.738 23.7261C185.738 23.4468 185.877 23.3071 186.157 23.3071C186.372 23.3071 186.586 23.3125 186.801 23.3232C187.016 23.3232 187.263 23.3232 187.542 23.3232C187.682 23.3232 187.806 23.3018 187.913 23.2588C188.021 23.2051 188.074 23.1191 188.074 23.001C188.074 22.8721 188.042 22.7378 187.978 22.5981C187.924 22.4478 187.854 22.3027 187.768 22.1631C187.682 22.0127 187.585 21.873 187.478 21.7441C187.381 21.6152 187.29 21.5024 187.204 21.4058C186.839 20.9224 186.452 20.4121 186.044 19.875C185.636 19.3379 185.228 18.8115 184.819 18.2959C184.422 17.7803 184.035 17.3022 183.659 16.8618C183.294 16.4214 182.972 16.0615 182.692 15.7822C182.628 15.707 182.547 15.6694 182.451 15.6694C182.257 15.6694 182.161 15.7446 182.161 15.895ZM194.632 21.6797C194.632 21.3896 194.697 21.105 194.826 20.8257C194.965 20.5356 195.067 20.2671 195.132 20.02C195.132 19.9771 195.143 19.8911 195.164 19.7622C195.196 19.6226 195.229 19.4775 195.261 19.3271C195.304 19.166 195.341 19.021 195.374 18.8921C195.406 18.7632 195.427 18.6719 195.438 18.6182C195.47 18.4678 195.545 18.3926 195.664 18.3926C195.835 18.3926 195.927 18.4946 195.938 18.6987C195.959 18.8491 195.964 18.9941 195.954 19.1338C195.954 19.2627 195.97 19.4185 196.002 19.6011C196.099 20.106 196.233 20.584 196.405 21.0352C196.587 21.4756 196.818 21.8677 197.098 22.2114C197.388 22.5552 197.731 22.8291 198.129 23.0332C198.537 23.2266 199.015 23.3232 199.563 23.3232C199.96 23.3232 200.342 23.2642 200.707 23.146C201.072 23.0171 201.395 22.8398 201.674 22.6143C201.964 22.3887 202.189 22.1094 202.351 21.7764C202.522 21.4434 202.608 21.0674 202.608 20.6484C202.608 19.9932 202.49 19.4561 202.254 19.0371C202.028 18.6182 201.728 18.269 201.352 17.9897C200.986 17.7104 200.562 17.4849 200.079 17.313C199.606 17.1304 199.117 16.9585 198.612 16.7974C198.118 16.6255 197.629 16.4429 197.146 16.2495C196.673 16.0454 196.249 15.7822 195.873 15.46C195.508 15.127 195.207 14.7134 194.971 14.2192C194.745 13.7251 194.632 13.1021 194.632 12.3501C194.632 11.8882 194.713 11.4907 194.874 11.1577C195.035 10.814 195.18 10.54 195.309 10.3359C195.47 10.0889 195.674 9.8418 195.921 9.59473C196.168 9.33691 196.453 9.11133 196.775 8.91797C197.098 8.71387 197.458 8.54736 197.855 8.41846C198.263 8.28955 198.704 8.2251 199.176 8.2251C199.595 8.2251 200.046 8.31104 200.53 8.48291C201.024 8.64404 201.454 8.875 201.819 9.17578C201.937 9.27246 202.055 9.37988 202.173 9.49805C202.292 9.61621 202.41 9.67529 202.528 9.67529C202.678 9.67529 202.802 9.62695 202.898 9.53027C202.995 9.42285 203.092 9.2832 203.188 9.11133C203.21 9.08984 203.231 9.0791 203.253 9.0791C203.285 9.06836 203.312 9.06299 203.333 9.06299C203.366 9.06299 203.387 9.09521 203.398 9.15967C203.419 9.21338 203.436 9.27783 203.446 9.35303C203.468 9.41748 203.479 9.4873 203.479 9.5625C203.489 9.62695 203.495 9.67529 203.495 9.70752C203.495 9.73975 203.479 9.84717 203.446 10.0298C203.425 10.2124 203.387 10.4326 203.333 10.6904C203.291 10.9375 203.237 11.2061 203.172 11.4961C203.119 11.7754 203.054 12.0386 202.979 12.2856C202.915 12.522 202.845 12.7207 202.77 12.8818C202.705 13.043 202.641 13.1235 202.576 13.1235C202.555 13.1235 202.533 13.1182 202.512 13.1074C202.469 13.0859 202.447 13.0645 202.447 13.043C202.361 12.8926 202.302 12.7637 202.27 12.6562C202.238 12.5488 202.211 12.4468 202.189 12.3501C202.179 12.2534 202.168 12.1567 202.157 12.0601C202.157 11.9526 202.141 11.8345 202.109 11.7056C202.087 11.6196 202.066 11.5391 202.044 11.4639C202.023 11.3779 201.996 11.3027 201.964 11.2383C201.824 10.8838 201.679 10.5938 201.529 10.3682C201.378 10.1426 201.169 9.91162 200.9 9.67529C200.718 9.49268 200.551 9.35303 200.401 9.25635C200.261 9.14893 200.111 9.07373 199.95 9.03076C199.789 8.97705 199.601 8.94482 199.386 8.93408C199.171 8.92334 198.908 8.91797 198.596 8.91797C198.295 8.91797 198.016 8.98779 197.758 9.12744C197.511 9.25635 197.296 9.43359 197.114 9.65918C196.931 9.88477 196.786 10.1479 196.679 10.4487C196.582 10.7388 196.534 11.0449 196.534 11.3672C196.534 11.9043 196.646 12.3447 196.872 12.6885C197.108 13.0215 197.415 13.3062 197.791 13.5425C198.177 13.7681 198.612 13.9614 199.096 14.1226C199.579 14.2837 200.068 14.4502 200.562 14.6221C201.067 14.7939 201.561 14.998 202.044 15.2344C202.528 15.46 202.958 15.7607 203.333 16.1367C203.72 16.502 204.026 16.9639 204.252 17.5225C204.488 18.0703 204.606 18.7524 204.606 19.5688C204.606 20.106 204.467 20.6484 204.188 21.1963C203.908 21.7334 203.564 22.2383 203.156 22.7109C202.974 22.9258 202.727 23.1245 202.415 23.3071C202.114 23.479 201.776 23.6294 201.4 23.7583C201.035 23.8872 200.648 23.9839 200.24 24.0483C199.842 24.1235 199.45 24.1611 199.063 24.1611C198.677 24.1611 198.231 24.0752 197.726 23.9033C197.221 23.7314 196.738 23.5166 196.276 23.2588C195.814 23.001 195.422 22.7324 195.1 22.4531C194.788 22.1631 194.632 21.9053 194.632 21.6797Z" fill="white"/>
</g>
<defs>
<clipPath id="clip0_1_142">
<rect width="205" height="25" fill="white"/>
</clipPath>
</defs>
</svg>
