<svg width="372" height="47" viewBox="0 0 372 47" fill="none" xmlns="http://www.w3.org/2000/svg">
<g clip-path="url(#clip0_3_113)">
<path d="M0.6875 12.5312C0.6875 11.4896 0.854167 10.4375 1.1875 9.375C1.54167 8.3125 2.01042 7.3125 2.59375 6.375C3.17708 5.41667 3.85417 4.55208 4.625 3.78125C5.41667 2.98958 6.25 2.35417 7.125 1.875C7.95833 1.39583 8.80208 1.10417 9.65625 1C10.5312 0.895833 11.4687 0.84375 12.4687 0.84375C13.5937 0.84375 14.6979 0.979167 15.7812 1.25C16.8646 1.5 17.9167 1.89583 18.9375 2.4375C19.0208 2.5 19.1771 2.60417 19.4062 2.75C19.6354 2.89583 19.8854 3.07292 20.1562 3.28125C20.4479 3.48958 20.7396 3.70833 21.0312 3.9375C21.3229 4.14583 21.5833 4.34375 21.8125 4.53125C21.8958 4.61458 21.9687 4.65625 22.0312 4.65625C22.0521 4.65625 22.1042 4.61458 22.1875 4.53125C22.25 4.44792 22.3229 4.32292 22.4062 4.15625C22.5104 3.96875 22.6146 3.78125 22.7187 3.59375C22.8229 3.38542 22.9167 3.19792 23 3.03125C23.1042 2.84375 23.1771 2.71875 23.2187 2.65625C23.2604 2.55208 23.3125 2.45833 23.375 2.375C23.4583 2.29167 23.5104 2.25 23.5312 2.25C23.5312 2.22917 23.5729 2.21875 23.6562 2.21875C23.7812 2.21875 23.875 2.27083 23.9375 2.375C24 2.45833 24.0417 2.5625 24.0625 2.6875C24.1042 2.8125 24.125 2.94792 24.125 3.09375C24.125 3.21875 24.125 3.32292 24.125 3.40625V3.625C24.125 3.66667 24.1146 3.75 24.0937 3.875C24.0937 4 24.0833 4.14583 24.0625 4.3125C24.0417 4.45833 24.0208 4.59375 24 4.71875C24 4.84375 23.9896 4.92708 23.9687 4.96875V12.6875C23.9687 12.8542 23.8958 12.9688 23.75 13.0313C23.6042 13.0938 23.4792 13.125 23.375 13.125C23.1458 13.125 23.0104 13.0833 22.9687 13C22.9271 12.8958 22.8646 12.7188 22.7812 12.4688C22.5521 11.9271 22.3958 11.375 22.3125 10.8125C22.25 10.2292 22.1042 9.63542 21.875 9.03125C21.6458 8.34375 21.2604 7.60417 20.7187 6.8125C20.1771 6 19.5521 5.25 18.8437 4.5625C18.1354 3.875 17.3958 3.30208 16.625 2.84375C15.8542 2.38542 15.1146 2.15625 14.4062 2.15625C13.0937 2.15625 12.0833 2.25 11.375 2.4375C10.3125 2.75 9.41667 3.26042 8.6875 3.96875C7.97917 4.65625 7.32292 5.4375 6.71875 6.3125C6.55208 6.5625 6.39583 6.88542 6.25 7.28125C6.10417 7.65625 5.97917 8.0625 5.875 8.5C5.79167 8.91667 5.71875 9.32292 5.65625 9.71875C5.61458 10.1146 5.59375 10.4375 5.59375 10.6875C5.59375 11.6875 5.80208 12.5938 6.21875 13.4062C6.65625 14.2188 7.21875 14.9479 7.90625 15.5938C8.59375 16.2188 9.36458 16.7813 10.2187 17.2813C11.0937 17.7604 11.9687 18.1771 12.8437 18.5313C13.5937 18.8438 14.3646 19.1458 15.1562 19.4375C15.9687 19.7292 16.7604 20.0312 17.5312 20.3438C18.3229 20.6562 19.0729 21 19.7812 21.375C20.5104 21.75 21.1562 22.1771 21.7187 22.6563C22.4271 23.2188 23.125 23.9167 23.8125 24.75C24.5 25.5625 25.1146 26.4583 25.6562 27.4375C26.2187 28.3958 26.6667 29.3958 27 30.4375C27.3333 31.4792 27.5 32.5 27.5 33.5C27.5 35.4375 27.1562 37.1875 26.4687 38.75C25.8021 40.3125 24.8646 41.6458 23.6562 42.75C22.4687 43.8333 21.0625 44.6771 19.4375 45.2813C17.8125 45.8646 16.0625 46.1562 14.1875 46.1562C13.0833 46.1562 12.0104 46.1042 10.9687 46C9.94792 45.875 8.96875 45.6667 8.03125 45.375C7.09375 45.0833 6.20833 44.6771 5.375 44.1562C4.54167 43.6354 3.75 42.9688 3 42.1562C2.91667 42.0521 2.80208 41.9896 2.65625 41.9688C2.53125 41.9479 2.42708 41.9375 2.34375 41.9375C1.98958 41.9375 1.73958 42.0312 1.59375 42.2188C1.44792 42.4062 1.32292 42.625 1.21875 42.875C1.13542 43.1042 1.03125 43.3125 0.90625 43.5C0.78125 43.6875 0.5625 43.7812 0.25 43.7812L1.0625 35.1875C1.10417 34.9167 1.13542 34.5938 1.15625 34.2188C1.17708 33.8438 1.22917 33.5938 1.3125 33.4688C1.375 33.1771 1.48958 33.0312 1.65625 33.0312C1.90625 33.0312 2.08333 33.1875 2.1875 33.5C2.3125 33.8542 2.41667 34.2083 2.5 34.5625C2.58333 34.8958 2.65625 35.2292 2.71875 35.5625C2.78125 35.8958 2.84375 36.2083 2.90625 36.5C2.98958 36.7917 3.09375 37.0521 3.21875 37.2812C3.69792 38.1354 4.15625 38.8958 4.59375 39.5625C5.05208 40.2292 5.55208 40.8438 6.09375 41.4062C6.65625 41.9688 7.30208 42.4792 8.03125 42.9375C8.76042 43.3958 9.64583 43.8229 10.6875 44.2188C11.3333 44.4479 11.9479 44.5833 12.5312 44.625C13.1146 44.6458 13.6458 44.6562 14.125 44.6562C14.7083 44.6562 15.2917 44.5521 15.875 44.3438C16.4583 44.1146 17.1562 43.7708 17.9687 43.3125C19.1562 42.6042 20.1042 41.7604 20.8125 40.7813C21.5208 39.7813 21.875 38.5313 21.875 37.0313C21.875 35.9688 21.6771 34.9792 21.2812 34.0625C20.9062 33.1458 20.3854 32.2917 19.7187 31.5C18.7604 30.4375 17.8437 29.6146 16.9687 29.0312C16.0937 28.4271 15.2292 27.9479 14.375 27.5938C13.5417 27.2396 12.7083 26.9375 11.875 26.6875C11.0417 26.4375 10.1875 26.125 9.3125 25.75C8.45833 25.375 7.58333 24.875 6.6875 24.25C5.79167 23.625 4.85417 22.75 3.875 21.625C1.75 19.125 0.6875 16.0938 0.6875 12.5312ZM53.8125 28.0625C54.2708 28.0625 54.5 27.8646 54.5 27.4688C54.5 27.2813 54.4896 27.1354 54.4687 27.0313C54.3437 26.6354 54.1667 26.0625 53.9375 25.3125C53.7083 24.5625 53.4479 23.6979 53.1562 22.7188C52.8646 21.7396 52.5417 20.6979 52.1875 19.5938C51.8542 18.4688 51.5104 17.3438 51.1562 16.2188C50.8229 15.0938 50.4896 14.0104 50.1562 12.9688C49.8229 11.9063 49.5312 10.9479 49.2812 10.0938C49.2396 10.0521 49.1771 9.97917 49.0938 9.875C49.0312 9.77083 48.9271 9.71875 48.7812 9.71875C48.5938 9.71875 48.4479 9.89583 48.3437 10.25C48.1562 10.7708 47.8958 11.5104 47.5625 12.4688C47.25 13.4271 46.8958 14.4896 46.5 15.6563C46.1042 16.8229 45.6875 18.0313 45.25 19.2813C44.8333 20.5313 44.4375 21.6979 44.0625 22.7813C43.6875 23.8438 43.3646 24.7708 43.0937 25.5625C42.8229 26.3333 42.6458 26.8438 42.5625 27.0938C42.5208 27.1563 42.5 27.2396 42.5 27.3438C42.5 27.8229 42.8229 28.0625 43.4687 28.0625H53.8125ZM28.0625 45.1875C28.0625 44.8333 28.25 44.625 28.625 44.5625C28.9792 44.5 29.5208 44.4063 30.25 44.2813C31.6042 43.9896 32.7292 43.3958 33.625 42.5C34.5208 41.6042 35.2708 40.5833 35.875 39.4375C36.4792 38.2708 36.9792 37.0625 37.375 35.8125C37.7917 34.5625 38.1875 33.4375 38.5625 32.4375L46.5625 10.5313C46.75 9.98958 46.9167 9.61458 47.0625 9.40625C47.2292 9.17708 47.3646 8.98958 47.4688 8.84375C47.5729 8.67708 47.6562 8.48958 47.7188 8.28125C47.7812 8.07292 47.8125 7.70833 47.8125 7.1875C47.8125 6.95833 47.7812 6.75 47.7188 6.5625C47.6562 6.375 47.5833 6.1875 47.5 6C47.4375 5.79167 47.375 5.57292 47.3125 5.34375C47.25 5.09375 47.2188 4.79167 47.2188 4.4375C47.7604 4.375 48.2708 4.29167 48.75 4.1875C49.25 4.0625 49.7083 3.85417 50.125 3.5625C50.3542 3.39583 50.5521 3.17708 50.7188 2.90625C50.8854 2.61458 51.0625 2.33333 51.25 2.0625C51.4375 1.79167 51.6562 1.5625 51.9062 1.375C52.1562 1.16667 52.4896 1.0625 52.9062 1.0625C52.9479 1.0625 52.9896 1.07292 53.0312 1.09375C53.0729 1.11458 53.1146 1.17708 53.1562 1.28125C53.1979 1.38542 53.3229 1.79167 53.5312 2.5C53.7604 3.20833 54.0521 4.15625 54.4062 5.34375C54.7812 6.51042 55.1979 7.86458 55.6562 9.40625C56.1354 10.9479 56.6354 12.5938 57.1562 14.3438C57.6979 16.0729 58.25 17.875 58.8125 19.75C59.3958 21.625 59.9687 23.4792 60.5312 25.3125C61.0938 27.125 61.625 28.8854 62.125 30.5938C62.6458 32.2813 63.125 33.8229 63.5625 35.2188C64 36.6146 64.375 37.8333 64.6875 38.875C65 39.8958 65.2292 40.6458 65.375 41.125C65.6042 41.8125 65.9687 42.4167 66.4687 42.9375C66.9687 43.4583 67.5208 43.8125 68.125 44C68.7292 44.2083 69.2708 44.3229 69.75 44.3438C70.25 44.3646 70.6667 44.3854 71 44.4063C71.3542 44.4271 71.625 44.5 71.8125 44.625C72 44.75 72.0937 45.0104 72.0937 45.4063C72.0937 45.5313 72.0521 45.6354 71.9687 45.7188C71.8854 45.7813 71.7812 45.8333 71.6562 45.875C71.5312 45.9167 71.3958 45.9479 71.25 45.9688C71.125 45.9688 71.0208 45.9792 70.9375 46H68.125C67.9583 46 67.7812 46 67.5937 46C67.4062 45.9792 67.1146 45.9688 66.7187 45.9688C66.3437 45.9479 65.8229 45.9375 65.1562 45.9375C64.4896 45.9167 63.6042 45.9063 62.5 45.9063C61.3333 45.9063 60.1875 45.9271 59.0625 45.9688C57.9583 45.9896 56.8333 46.0208 55.6875 46.0625H54.0937C53.9271 46.0625 53.7396 46.0521 53.5312 46.0313C53.3229 46.0313 53.125 46.0104 52.9375 45.9688C52.75 45.9271 52.5937 45.8542 52.4687 45.75C52.3437 45.6458 52.2812 45.5 52.2812 45.3125C52.2812 45.1458 52.3646 45.0104 52.5312 44.9063C52.6979 44.8021 52.8958 44.7188 53.125 44.6563C53.3542 44.5938 53.5937 44.5521 53.8437 44.5313C54.0937 44.4896 54.3021 44.4583 54.4687 44.4375C55.1771 44.3333 55.8646 44.2188 56.5312 44.0938C57.1979 43.9479 57.8542 43.8125 58.5 43.6875C58.9792 43.5417 59.2187 43.2813 59.2187 42.9063C59.2187 42.8646 59.2187 42.8021 59.2187 42.7188C59.2187 42.6146 59.1979 42.5208 59.1562 42.4375L55.75 31.25C55.7083 31.0833 55.5937 30.8958 55.4062 30.6875C55.2396 30.4792 55.0312 30.375 54.7812 30.375H42.0937C41.8021 30.375 41.6042 30.4271 41.5 30.5313C41.3958 30.6146 41.3021 30.7083 41.2187 30.8125L39.5937 35.1875C39.3229 35.8958 39.1354 36.5417 39.0312 37.125C38.9271 37.6875 38.875 38.2292 38.875 38.75C38.875 39.375 38.9375 40.0625 39.0625 40.8125C39.1667 41.5625 39.4167 42.1458 39.8125 42.5625C40.2083 42.9792 40.6667 43.2917 41.1875 43.5C41.7292 43.7083 42.3021 43.8542 42.9062 43.9375C43.5104 44 44.0625 44.0625 44.5625 44.125C45.0625 44.1875 45.4687 44.2813 45.7812 44.4063C46.1146 44.5104 46.2812 44.7188 46.2812 45.0313C46.2812 45.2188 46.2187 45.4167 46.0937 45.625C45.9896 45.8333 45.7292 45.9583 45.3125 46H43.9687C42.7396 45.9583 41.5417 45.9167 40.375 45.875C39.2292 45.8125 38.0312 45.7813 36.7812 45.7813C35.4062 45.7813 34.1562 45.8229 33.0312 45.9063C31.9271 45.9688 30.8125 46 29.6875 46H29.2812C28.4687 46 28.0625 45.7292 28.0625 45.1875ZM73 24.0625V23.625C73 22.3958 73.1146 21.1042 73.3438 19.75C73.5938 18.375 73.9375 17.0104 74.375 15.6563C74.8125 14.3021 75.3438 12.9896 75.9688 11.7188C76.5938 10.4479 77.3021 9.28125 78.0938 8.21875C78.9688 7.07292 79.9479 6.05208 81.0312 5.15625C82.1354 4.23958 83.3125 3.45833 84.5625 2.8125C85.8333 2.16667 87.1771 1.67708 88.5938 1.34375C90.0104 0.989583 91.4792 0.8125 93 0.8125C94.2708 0.8125 95.5833 0.9375 96.9375 1.1875C98.2917 1.41667 99.5417 1.77083 100.688 2.25C101.625 2.6875 102.469 3.21875 103.219 3.84375C103.99 4.44792 104.802 5.05208 105.656 5.65625C105.74 5.76042 105.823 5.82292 105.906 5.84375C106.01 5.86458 106.104 5.875 106.188 5.875C106.375 5.875 106.542 5.73958 106.688 5.46875C106.917 5.07292 107.125 4.57292 107.312 3.96875C107.5 3.34375 107.708 2.8125 107.938 2.375C108.021 2.1875 108.115 2.08333 108.219 2.0625C108.323 2.02083 108.438 2 108.562 2C108.708 2 108.812 2.05208 108.875 2.15625C108.958 2.26042 109 2.33333 109 2.375C109.167 3.10417 109.26 3.83333 109.281 4.5625C109.323 5.29167 109.344 6.05208 109.344 6.84375V8.65625C109.344 8.92708 109.344 9.19792 109.344 9.46875C109.344 9.73958 109.354 10.0208 109.375 10.3125C109.458 11.1042 109.562 11.7917 109.688 12.375C109.812 12.9583 109.875 13.5208 109.875 14.0625C109.875 14.375 109.823 14.7083 109.719 15.0625C109.635 15.3958 109.448 15.5625 109.156 15.5625C109.031 15.5625 108.854 15.4063 108.625 15.0938C108.417 14.7813 108.198 14.4375 107.969 14.0625C107.74 13.6667 107.51 13.2813 107.281 12.9063C107.073 12.5313 106.927 12.2813 106.844 12.1563C106.26 11.3229 105.698 10.5313 105.156 9.78125C104.635 9.03125 104.094 8.33333 103.531 7.6875C102.99 7.02083 102.406 6.41667 101.781 5.875C101.177 5.3125 100.5 4.8125 99.75 4.375C99.1042 3.97917 98.4896 3.67708 97.9062 3.46875C97.3229 3.23958 96.75 3.07292 96.1875 2.96875C95.6458 2.86458 95.1042 2.80208 94.5625 2.78125C94.0208 2.76042 93.4688 2.75 92.9062 2.75C92.0312 2.75 91.2188 2.875 90.4688 3.125C89.7396 3.35417 89.0521 3.67708 88.4062 4.09375C87.7604 4.51042 87.1562 4.98958 86.5938 5.53125C86.0521 6.07292 85.5208 6.64583 85 7.25C83.5 9.02083 82.3646 11.3854 81.5938 14.3438C80.8438 17.2813 80.4688 20.8021 80.4688 24.9063C80.4688 26.9479 80.6458 28.8021 81 30.4688C81.375 32.1146 81.8333 33.5833 82.375 34.875C82.9167 36.1458 83.5104 37.25 84.1562 38.1875C84.8229 39.1042 85.4479 39.8542 86.0312 40.4375C86.6562 41.1042 87.25 41.6875 87.8125 42.1875C88.3958 42.6667 89 43.0625 89.625 43.375C90.25 43.6875 90.9271 43.9271 91.6562 44.0938C92.3854 44.2396 93.2083 44.3125 94.125 44.3125C95.5208 44.3125 96.8854 44.0104 98.2187 43.4063C99.5521 42.8021 100.854 42.0104 102.125 41.0313C102.396 40.8229 102.677 40.5729 102.969 40.2813C103.26 39.9896 103.542 39.6979 103.812 39.4063C104.104 39.1146 104.365 38.8333 104.594 38.5625C104.844 38.2708 105.052 38.0104 105.219 37.7813C105.885 36.7396 106.469 35.7292 106.969 34.75C107.469 33.7708 107.927 32.7604 108.344 31.7188C108.552 31.4063 108.917 31.25 109.438 31.25C109.667 31.25 109.823 31.3333 109.906 31.5C109.99 31.6667 110.031 31.8646 110.031 32.0938C109.698 33.2396 109.406 34.2813 109.156 35.2188C108.906 36.1354 108.635 37.1146 108.344 38.1563C108.156 38.9063 108.021 39.6458 107.937 40.375C107.854 41.0833 107.771 41.7188 107.687 42.2813C107.604 42.8229 107.51 43.2604 107.406 43.5938C107.302 43.9271 107.135 44.0938 106.906 44.0938C106.74 44.0938 106.604 44.0313 106.5 43.9063C106.396 43.7813 106.292 43.5833 106.187 43.3125C106.146 43.1042 106.073 42.9271 105.969 42.7813C105.885 42.6146 105.729 42.5313 105.5 42.5313C105.271 42.5313 105.052 42.5729 104.844 42.6563C104.656 42.7396 104.417 42.875 104.125 43.0625C103.833 43.2292 103.469 43.4375 103.031 43.6875C102.594 43.9167 102.01 44.1875 101.281 44.5C99.9479 45.0417 98.5208 45.4792 97 45.8125C95.4792 46.125 93.9687 46.2813 92.4687 46.2813C90.2812 46.2813 88.2812 46 86.4687 45.4375C84.6562 44.8542 82.9375 43.875 81.3125 42.5C80.0208 41.3958 78.8646 40.1354 77.8437 38.7188C76.8229 37.2813 75.9479 35.7604 75.2187 34.1563C74.5104 32.5521 73.9583 30.8958 73.5625 29.1875C73.1875 27.4583 73 25.75 73 24.0625ZM122.187 42.9063L122.188 7.875C122.188 7.20833 122.146 6.54167 122.062 5.875C122 5.1875 121.896 4.5625 121.75 4C121.625 3.625 121.375 3.34375 121 3.15625C120.625 2.96875 120.188 2.83333 119.688 2.75C119.208 2.66667 118.698 2.61458 118.156 2.59375C117.635 2.57292 117.146 2.53125 116.688 2.46875C116.25 2.40625 115.885 2.3125 115.594 2.1875C115.302 2.04167 115.156 1.8125 115.156 1.5C115.156 1.375 115.198 1.22917 115.281 1.0625C115.385 0.895833 115.562 0.8125 115.812 0.8125H116.938C117.875 0.8125 118.677 0.833333 119.344 0.875C120.01 0.895833 120.635 0.927083 121.219 0.96875C121.802 0.989583 122.385 1.01042 122.969 1.03125C123.552 1.05208 124.229 1.0625 125 1.0625C125.542 1.0625 126.062 1.05208 126.562 1.03125C127.062 1.01042 127.562 1 128.062 1C128.583 0.979167 129.115 0.958333 129.656 0.9375C130.198 0.916667 130.792 0.90625 131.438 0.90625H133.469C133.698 0.90625 133.896 0.927083 134.062 0.96875C134.25 1.01042 134.344 1.16667 134.344 1.4375C134.344 1.77083 134.198 2.01042 133.906 2.15625C133.615 2.30208 133.25 2.40625 132.812 2.46875C132.396 2.51042 131.927 2.55208 131.406 2.59375C130.906 2.61458 130.438 2.67708 130 2.78125C129.583 2.86458 129.229 3.02083 128.938 3.25C128.646 3.45833 128.5 3.78125 128.5 4.21875V23.1875C128.667 23.1875 128.865 23.1354 129.094 23.0313C129.323 22.9063 129.552 22.75 129.781 22.5625C130.01 22.375 130.229 22.1667 130.438 21.9375C130.667 21.7083 130.865 21.4792 131.031 21.25C131.323 20.8333 131.583 20.4583 131.812 20.125C132.042 19.7708 132.26 19.4479 132.469 19.1563C132.698 18.8438 132.906 18.5521 133.094 18.2813C133.302 17.9896 133.521 17.6979 133.75 17.4063C135.021 15.7188 136.281 14.1042 137.531 12.5625C138.802 11.0208 140.115 9.44792 141.469 7.84375C141.885 7.30208 142.219 6.76042 142.469 6.21875C142.74 5.65625 142.875 5.07292 142.875 4.46875C142.875 4.15625 142.729 3.83333 142.438 3.5C142.146 3.14583 141.812 2.91667 141.438 2.8125C141.188 2.72917 140.885 2.66667 140.531 2.625C140.198 2.5625 139.844 2.51042 139.469 2.46875C139.094 2.42708 138.719 2.38542 138.344 2.34375C137.99 2.28125 137.667 2.19792 137.375 2.09375C137.208 2.05208 137.083 1.96875 137 1.84375C136.917 1.71875 136.875 1.57292 136.875 1.40625C136.875 1.32292 136.885 1.26042 136.906 1.21875C136.948 1.17708 136.99 1.125 137.031 1.0625C137.094 1.02083 137.188 0.989583 137.312 0.96875C137.458 0.947917 137.604 0.9375 137.75 0.9375C137.896 0.916667 138.031 0.90625 138.156 0.90625C138.281 0.90625 138.365 0.90625 138.406 0.90625C139.177 0.90625 139.865 0.927083 140.469 0.96875C141.094 0.989583 141.688 1.03125 142.25 1.09375C142.812 1.13542 143.354 1.17708 143.875 1.21875C144.396 1.23958 144.948 1.25 145.531 1.25C146.531 1.25 147.531 1.19792 148.531 1.09375C149.531 0.96875 150.375 0.90625 151.062 0.90625H153.312C153.833 0.90625 154.229 1 154.5 1.1875C154.688 1.29167 154.781 1.39583 154.781 1.5C154.781 1.5625 154.74 1.61458 154.656 1.65625C153.823 1.98958 152.958 2.28125 152.062 2.53125C151.188 2.78125 150.323 3.08333 149.469 3.4375C149.219 3.54167 148.948 3.67708 148.656 3.84375C148.385 4.01042 148.104 4.19792 147.812 4.40625C147.521 4.59375 147.25 4.79167 147 5C146.75 5.1875 146.531 5.375 146.344 5.5625C145.635 6.25 145.052 6.8125 144.594 7.25C144.135 7.6875 143.74 8.07292 143.406 8.40625C143.094 8.73958 142.802 9.04167 142.531 9.3125C142.281 9.58333 142 9.88542 141.688 10.2188C141.188 10.7813 140.698 11.3333 140.219 11.875C139.76 12.3958 139.281 12.9375 138.781 13.5C138.302 14.0625 137.802 14.6563 137.281 15.2813C136.76 15.8854 136.198 16.5417 135.594 17.25C135.302 17.5417 135.031 17.8229 134.781 18.0938C134.552 18.3438 134.438 18.6354 134.438 18.9688C134.438 19.0521 134.542 19.25 134.75 19.5625C134.979 19.8542 135.26 20.2188 135.594 20.6563C135.927 21.0729 136.292 21.5313 136.688 22.0313C137.104 22.5104 137.5 22.9792 137.875 23.4375C138.25 23.8958 138.583 24.3125 138.875 24.6875C139.188 25.0625 139.406 25.3333 139.531 25.5C140.677 26.75 141.76 28.0208 142.781 29.3125C143.802 30.5833 144.885 31.9063 146.031 33.2813C146.365 33.6771 146.812 34.1979 147.375 34.8438C147.938 35.4896 148.552 36.1979 149.219 36.9688C149.885 37.7188 150.583 38.4792 151.312 39.25C152.062 40.0208 152.781 40.75 153.469 41.4375C154.177 42.1042 154.833 42.6771 155.438 43.1563C156.062 43.6354 156.583 43.9479 157 44.0938C157.208 44.1979 157.594 44.3229 158.156 44.4688C158.74 44.5938 159.333 44.7396 159.938 44.9063C160.542 45.0729 161.073 45.25 161.531 45.4375C162.01 45.6042 162.25 45.7708 162.25 45.9375C162.25 46.0833 162.188 46.1979 162.062 46.2813C161.938 46.3646 161.781 46.4271 161.594 46.4688C161.427 46.5313 161.229 46.5625 161 46.5625C160.792 46.5833 160.594 46.5938 160.406 46.5938H159.688C159.271 46.5938 158.875 46.5729 158.5 46.5313C158.146 46.4896 157.781 46.4375 157.406 46.375C157.031 46.3125 156.615 46.2604 156.156 46.2188C155.719 46.1771 155.219 46.1563 154.656 46.1563H148.656C148.469 46.1563 148.271 46.0729 148.062 45.9063C147.229 44.8438 146.385 43.8229 145.531 42.8438C144.677 41.8438 143.802 40.8438 142.906 39.8438C142.01 38.8229 141.104 37.7917 140.188 36.75C139.271 35.6875 138.333 34.5729 137.375 33.4063C136.271 32.0313 135.354 30.8854 134.625 29.9688C133.896 29.0521 133.229 28.25 132.625 27.5625C132.042 26.875 131.469 26.25 130.906 25.6875C130.344 25.125 129.688 24.5208 128.938 23.875C128.896 23.8542 128.854 23.8333 128.812 23.8125C128.771 23.7917 128.708 23.7813 128.625 23.7813C128.542 23.7813 128.5 23.8542 128.5 24V42.0938C128.5 42.6563 128.719 43.1146 129.156 43.4688C129.615 43.8229 130.146 44.1042 130.75 44.3125C131.375 44.5 131.99 44.6354 132.594 44.7188C133.219 44.7813 133.698 44.8125 134.031 44.8125C134.344 44.8125 134.573 44.875 134.719 45C134.865 45.125 134.938 45.2813 134.938 45.4688C134.938 45.8229 134.792 46.0313 134.5 46.0938C134.208 46.1771 133.854 46.2188 133.438 46.2188C132.5 46.2188 131.677 46.1979 130.969 46.1563C130.26 46.1354 129.604 46.1042 129 46.0625C128.417 46.0208 127.833 45.9896 127.25 45.9688C126.688 45.9271 126.083 45.9063 125.438 45.9063C124.687 45.9063 123.906 45.9167 123.094 45.9375C122.281 45.9375 121.49 45.9479 120.719 45.9688C119.948 45.9688 119.208 45.9792 118.5 46C117.812 46 117.198 46 116.656 46C116.052 46 115.75 45.7708 115.75 45.3125C115.75 45.1667 115.76 45 115.781 44.8125C115.823 44.625 115.937 44.5208 116.125 44.5C116.458 44.4583 116.823 44.4271 117.219 44.4063C117.615 44.3854 117.99 44.375 118.344 44.375H119.031C119.469 44.375 119.927 44.3542 120.406 44.3125C120.906 44.25 121.302 44.1458 121.594 44C121.99 43.7708 122.187 43.4063 122.187 42.9063ZM163.125 12.5313C163.125 11.4896 163.292 10.4375 163.625 9.375C163.979 8.3125 164.448 7.3125 165.031 6.375C165.615 5.41667 166.292 4.55208 167.062 3.78125C167.854 2.98958 168.688 2.35417 169.562 1.875C170.396 1.39583 171.24 1.10417 172.094 1C172.969 0.895833 173.906 0.84375 174.906 0.84375C176.031 0.84375 177.135 0.979167 178.219 1.25C179.302 1.5 180.354 1.89583 181.375 2.4375C181.458 2.5 181.615 2.60417 181.844 2.75C182.073 2.89583 182.323 3.07292 182.594 3.28125C182.885 3.48958 183.177 3.70833 183.469 3.9375C183.76 4.14583 184.021 4.34375 184.25 4.53125C184.333 4.61458 184.406 4.65625 184.469 4.65625C184.49 4.65625 184.542 4.61458 184.625 4.53125C184.688 4.44792 184.76 4.32292 184.844 4.15625C184.948 3.96875 185.052 3.78125 185.156 3.59375C185.26 3.38542 185.354 3.19792 185.438 3.03125C185.542 2.84375 185.615 2.71875 185.656 2.65625C185.698 2.55208 185.75 2.45833 185.812 2.375C185.896 2.29167 185.948 2.25 185.969 2.25C185.969 2.22917 186.01 2.21875 186.094 2.21875C186.219 2.21875 186.312 2.27083 186.375 2.375C186.438 2.45833 186.479 2.5625 186.5 2.6875C186.542 2.8125 186.562 2.94792 186.562 3.09375C186.562 3.21875 186.562 3.32292 186.562 3.40625V3.625C186.562 3.66667 186.552 3.75 186.531 3.875C186.531 4 186.521 4.14583 186.5 4.3125C186.479 4.45833 186.458 4.59375 186.438 4.71875C186.438 4.84375 186.427 4.92708 186.406 4.96875V12.6875C186.406 12.8542 186.333 12.9688 186.188 13.0313C186.042 13.0938 185.917 13.125 185.812 13.125C185.583 13.125 185.448 13.0833 185.406 13C185.365 12.8958 185.302 12.7188 185.219 12.4688C184.99 11.9271 184.833 11.375 184.75 10.8125C184.688 10.2292 184.542 9.63542 184.312 9.03125C184.083 8.34375 183.698 7.60417 183.156 6.8125C182.615 6 181.99 5.25 181.281 4.5625C180.573 3.875 179.833 3.30208 179.062 2.84375C178.292 2.38542 177.552 2.15625 176.844 2.15625C175.531 2.15625 174.521 2.25 173.812 2.4375C172.75 2.75 171.854 3.26042 171.125 3.96875C170.417 4.65625 169.76 5.4375 169.156 6.3125C168.99 6.5625 168.833 6.88542 168.688 7.28125C168.542 7.65625 168.417 8.0625 168.312 8.5C168.229 8.91667 168.156 9.32292 168.094 9.71875C168.052 10.1146 168.031 10.4375 168.031 10.6875C168.031 11.6875 168.24 12.5938 168.656 13.4063C169.094 14.2188 169.656 14.9479 170.344 15.5938C171.031 16.2188 171.802 16.7813 172.656 17.2813C173.531 17.7604 174.406 18.1771 175.281 18.5313C176.031 18.8438 176.802 19.1458 177.594 19.4375C178.406 19.7292 179.198 20.0313 179.969 20.3438C180.76 20.6563 181.51 21 182.219 21.375C182.948 21.75 183.594 22.1771 184.156 22.6563C184.865 23.2188 185.562 23.9167 186.25 24.75C186.938 25.5625 187.552 26.4583 188.094 27.4375C188.656 28.3958 189.104 29.3958 189.438 30.4375C189.771 31.4792 189.938 32.5 189.938 33.5C189.938 35.4375 189.594 37.1875 188.906 38.75C188.24 40.3125 187.302 41.6458 186.094 42.75C184.906 43.8333 183.5 44.6771 181.875 45.2813C180.25 45.8646 178.5 46.1563 176.625 46.1563C175.521 46.1563 174.448 46.1042 173.406 46C172.385 45.875 171.406 45.6667 170.469 45.375C169.531 45.0833 168.646 44.6771 167.812 44.1563C166.979 43.6354 166.188 42.9688 165.438 42.1563C165.354 42.0521 165.24 41.9896 165.094 41.9688C164.969 41.9479 164.865 41.9375 164.781 41.9375C164.427 41.9375 164.177 42.0313 164.031 42.2188C163.885 42.4063 163.76 42.625 163.656 42.875C163.573 43.1042 163.469 43.3125 163.344 43.5C163.219 43.6875 163 43.7813 162.688 43.7813L163.5 35.1875C163.542 34.9167 163.573 34.5938 163.594 34.2188C163.615 33.8438 163.667 33.5938 163.75 33.4688C163.812 33.1771 163.927 33.0313 164.094 33.0313C164.344 33.0313 164.521 33.1875 164.625 33.5C164.75 33.8542 164.854 34.2083 164.938 34.5625C165.021 34.8958 165.094 35.2292 165.156 35.5625C165.219 35.8958 165.281 36.2083 165.344 36.5C165.427 36.7917 165.531 37.0521 165.656 37.2813C166.135 38.1354 166.594 38.8958 167.031 39.5625C167.49 40.2292 167.99 40.8438 168.531 41.4063C169.094 41.9688 169.74 42.4792 170.469 42.9375C171.198 43.3958 172.083 43.8229 173.125 44.2188C173.771 44.4479 174.385 44.5833 174.969 44.625C175.552 44.6458 176.083 44.6563 176.562 44.6563C177.146 44.6563 177.729 44.5521 178.312 44.3438C178.896 44.1146 179.594 43.7708 180.406 43.3125C181.594 42.6042 182.542 41.7604 183.25 40.7813C183.958 39.7813 184.312 38.5313 184.312 37.0313C184.312 35.9688 184.115 34.9792 183.719 34.0625C183.344 33.1458 182.823 32.2917 182.156 31.5C181.198 30.4375 180.281 29.6146 179.406 29.0313C178.531 28.4271 177.667 27.9479 176.812 27.5938C175.979 27.2396 175.146 26.9375 174.312 26.6875C173.479 26.4375 172.625 26.125 171.75 25.75C170.896 25.375 170.021 24.875 169.125 24.25C168.229 23.625 167.292 22.75 166.312 21.625C164.188 19.125 163.125 16.0938 163.125 12.5313ZM209.125 24.0625V23.625C209.125 22.3958 209.24 21.1042 209.469 19.75C209.719 18.375 210.062 17.0104 210.5 15.6563C210.938 14.3021 211.469 12.9896 212.094 11.7188C212.719 10.4479 213.427 9.28125 214.219 8.21875C215.094 7.07292 216.073 6.05208 217.156 5.15625C218.26 4.23958 219.438 3.45833 220.688 2.8125C221.958 2.16667 223.302 1.67708 224.719 1.34375C226.135 0.989583 227.604 0.8125 229.125 0.8125C230.396 0.8125 231.708 0.9375 233.062 1.1875C234.417 1.41667 235.667 1.77083 236.812 2.25C237.75 2.6875 238.594 3.21875 239.344 3.84375C240.115 4.44792 240.927 5.05208 241.781 5.65625C241.865 5.76042 241.948 5.82292 242.031 5.84375C242.135 5.86458 242.229 5.875 242.312 5.875C242.5 5.875 242.667 5.73958 242.812 5.46875C243.042 5.07292 243.25 4.57292 243.438 3.96875C243.625 3.34375 243.833 2.8125 244.062 2.375C244.146 2.1875 244.24 2.08333 244.344 2.0625C244.448 2.02083 244.562 2 244.688 2C244.833 2 244.938 2.05208 245 2.15625C245.083 2.26042 245.125 2.33333 245.125 2.375C245.292 3.10417 245.385 3.83333 245.406 4.5625C245.448 5.29167 245.469 6.05208 245.469 6.84375V8.65625C245.469 8.92708 245.469 9.19792 245.469 9.46875C245.469 9.73958 245.479 10.0208 245.5 10.3125C245.583 11.1042 245.688 11.7917 245.812 12.375C245.938 12.9583 246 13.5208 246 14.0625C246 14.375 245.948 14.7083 245.844 15.0625C245.76 15.3958 245.573 15.5625 245.281 15.5625C245.156 15.5625 244.979 15.4063 244.75 15.0938C244.542 14.7813 244.323 14.4375 244.094 14.0625C243.865 13.6667 243.635 13.2813 243.406 12.9063C243.198 12.5313 243.052 12.2813 242.969 12.1563C242.385 11.3229 241.823 10.5313 241.281 9.78125C240.76 9.03125 240.219 8.33333 239.656 7.6875C239.115 7.02083 238.531 6.41667 237.906 5.875C237.302 5.3125 236.625 4.8125 235.875 4.375C235.229 3.97917 234.615 3.67708 234.031 3.46875C233.448 3.23958 232.875 3.07292 232.312 2.96875C231.771 2.86458 231.229 2.80208 230.688 2.78125C230.146 2.76042 229.594 2.75 229.031 2.75C228.156 2.75 227.344 2.875 226.594 3.125C225.865 3.35417 225.177 3.67708 224.531 4.09375C223.885 4.51042 223.281 4.98958 222.719 5.53125C222.177 6.07292 221.646 6.64583 221.125 7.25C219.625 9.02083 218.49 11.3854 217.719 14.3438C216.969 17.2813 216.594 20.8021 216.594 24.9063C216.594 26.9479 216.771 28.8021 217.125 30.4688C217.5 32.1146 217.958 33.5833 218.5 34.875C219.042 36.1458 219.635 37.25 220.281 38.1875C220.948 39.1042 221.573 39.8542 222.156 40.4375C222.781 41.1042 223.375 41.6875 223.938 42.1875C224.521 42.6667 225.125 43.0625 225.75 43.375C226.375 43.6875 227.052 43.9271 227.781 44.0938C228.51 44.2396 229.333 44.3125 230.25 44.3125C231.646 44.3125 233.01 44.0104 234.344 43.4063C235.677 42.8021 236.979 42.0104 238.25 41.0313C238.521 40.8229 238.802 40.5729 239.094 40.2813C239.385 39.9896 239.667 39.6979 239.938 39.4063C240.229 39.1146 240.49 38.8333 240.719 38.5625C240.969 38.2708 241.177 38.0104 241.344 37.7813C242.01 36.7396 242.594 35.7292 243.094 34.75C243.594 33.7708 244.052 32.7604 244.469 31.7188C244.677 31.4063 245.042 31.25 245.562 31.25C245.792 31.25 245.948 31.3333 246.031 31.5C246.115 31.6667 246.156 31.8646 246.156 32.0938C245.823 33.2396 245.531 34.2813 245.281 35.2188C245.031 36.1354 244.76 37.1146 244.469 38.1563C244.281 38.9063 244.146 39.6458 244.062 40.375C243.979 41.0833 243.896 41.7188 243.812 42.2813C243.729 42.8229 243.635 43.2604 243.531 43.5938C243.427 43.9271 243.26 44.0938 243.031 44.0938C242.865 44.0938 242.729 44.0313 242.625 43.9063C242.521 43.7813 242.417 43.5833 242.312 43.3125C242.271 43.1042 242.198 42.9271 242.094 42.7813C242.01 42.6146 241.854 42.5313 241.625 42.5313C241.396 42.5313 241.177 42.5729 240.969 42.6563C240.781 42.7396 240.542 42.875 240.25 43.0625C239.958 43.2292 239.594 43.4375 239.156 43.6875C238.719 43.9167 238.135 44.1875 237.406 44.5C236.073 45.0417 234.646 45.4792 233.125 45.8125C231.604 46.125 230.094 46.2813 228.594 46.2813C226.406 46.2813 224.406 46 222.594 45.4375C220.781 44.8542 219.062 43.875 217.438 42.5C216.146 41.3958 214.99 40.1354 213.969 38.7188C212.948 37.2813 212.073 35.7604 211.344 34.1563C210.635 32.5521 210.083 30.8958 209.688 29.1875C209.312 27.4583 209.125 25.75 209.125 24.0625ZM274.531 46.8125C271.49 46.8125 268.625 46.2188 265.938 45.0313C263.271 43.8229 260.823 42.0521 258.594 39.7188C257.635 38.7396 256.76 37.625 255.969 36.375C255.177 35.1042 254.5 33.6979 253.938 32.1563C253.375 30.6146 252.938 28.9271 252.625 27.0938C252.312 25.2396 252.156 23.2292 252.156 21.0625C252.156 19.5208 252.438 17.9479 253 16.3438C253.583 14.7188 254.375 13.1667 255.375 11.6875C256.375 10.1875 257.552 8.80208 258.906 7.53125C260.26 6.23958 261.719 5.13542 263.281 4.21875C265.406 2.92708 267.521 2.04167 269.625 1.5625C271.75 1.0625 273.708 0.8125 275.5 0.8125C276.396 0.8125 277.333 0.885417 278.312 1.03125C279.292 1.17708 280.219 1.36458 281.094 1.59375C281.99 1.82292 282.802 2.07292 283.531 2.34375C284.281 2.61458 284.865 2.875 285.281 3.125C286.281 3.72917 287.302 4.47917 288.344 5.375C289.385 6.27083 290.365 7.23958 291.281 8.28125C292.198 9.32292 293.021 10.3958 293.75 11.5C294.5 12.5833 295.083 13.6146 295.5 14.5938C296.208 16.2188 296.688 17.8438 296.938 19.4688C297.188 21.0938 297.312 22.7813 297.312 24.5313C297.312 26.4063 297.115 28.1667 296.719 29.8125C296.344 31.4375 295.792 32.9688 295.062 34.4063C294.333 35.8438 293.438 37.1979 292.375 38.4688C291.333 39.7188 290.146 40.9167 288.812 42.0625C287.833 42.875 286.833 43.5833 285.812 44.1875C284.792 44.7708 283.698 45.2604 282.531 45.6563C281.385 46.0521 280.156 46.3438 278.844 46.5313C277.531 46.7188 276.094 46.8125 274.531 46.8125ZM260.312 24.2813C260.312 25.2813 260.365 26.3021 260.469 27.3438C260.573 28.3646 260.74 29.3854 260.969 30.4063C261.198 31.4063 261.49 32.375 261.844 33.3125C262.219 34.25 262.667 35.125 263.188 35.9375C263.854 37.0417 264.594 38.125 265.406 39.1875C266.24 40.2292 267.156 41.1771 268.156 42.0313C269.177 42.8646 270.292 43.5417 271.5 44.0625C272.729 44.5625 274.062 44.8125 275.5 44.8125C276.854 44.8125 278.167 44.4896 279.438 43.8438C280.708 43.1771 281.885 42.3125 282.969 41.25C284.052 40.1667 285.021 38.9479 285.875 37.5938C286.75 36.2396 287.458 34.8646 288 33.4688C288.062 33.2604 288.188 32.8854 288.375 32.3438C288.583 31.7813 288.792 31.1042 289 30.3125C289.208 29.5208 289.385 28.625 289.531 27.625C289.698 26.625 289.781 25.5625 289.781 24.4375C289.781 23.4375 289.698 22.3542 289.531 21.1875C289.385 20.0208 289.146 18.8229 288.812 17.5938C288.5 16.3438 288.104 15.0938 287.625 13.8438C287.146 12.5938 286.583 11.3958 285.938 10.25C285.375 9.27083 284.719 8.3125 283.969 7.375C283.219 6.41667 282.365 5.57292 281.406 4.84375C280.469 4.09375 279.427 3.5 278.281 3.0625C277.135 2.60417 275.885 2.375 274.531 2.375C273.24 2.375 272.01 2.64583 270.844 3.1875C269.677 3.72917 268.615 4.40625 267.656 5.21875C266.698 6.01042 265.854 6.86458 265.125 7.78125C264.417 8.67708 263.844 9.5 263.406 10.25C263.073 10.8333 262.719 11.5625 262.344 12.4375C261.99 13.3125 261.656 14.3333 261.344 15.5C261.052 16.6667 260.802 17.9896 260.594 19.4688C260.406 20.9271 260.312 22.5313 260.312 24.2813ZM308.219 41.4688V6.25C308.219 5.375 308.062 4.71875 307.75 4.28125C307.438 3.82292 307.042 3.5 306.562 3.3125C306.104 3.10417 305.604 2.98958 305.062 2.96875C304.521 2.94792 304.01 2.92708 303.531 2.90625C303.073 2.86458 302.688 2.78125 302.375 2.65625C302.062 2.53125 301.906 2.27083 301.906 1.875C301.906 1.60417 302.031 1.4375 302.281 1.375C302.552 1.29167 302.802 1.25 303.031 1.25H304.781C305.302 1.25 305.771 1.27083 306.188 1.3125C306.625 1.33333 307.031 1.36458 307.406 1.40625C307.802 1.44792 308.198 1.48958 308.594 1.53125C309.01 1.55208 309.469 1.5625 309.969 1.5625C310.99 1.5625 311.885 1.54167 312.656 1.5C313.427 1.4375 314.167 1.375 314.875 1.3125C315.583 1.25 316.292 1.19792 317 1.15625C317.708 1.09375 318.5 1.0625 319.375 1.0625H321.469C321.76 1.0625 322 1.125 322.188 1.25C322.375 1.35417 322.521 1.41667 322.625 1.4375C322.708 1.66667 322.76 1.79167 322.781 1.8125C322.802 1.83333 322.812 1.92708 322.812 2.09375C322.812 2.32292 322.625 2.51042 322.25 2.65625C321.896 2.80208 321.479 2.92708 321 3.03125C320.542 3.11458 320.073 3.1875 319.594 3.25C319.115 3.29167 318.771 3.34375 318.562 3.40625C318.229 3.46875 317.875 3.53125 317.5 3.59375C317.125 3.63542 316.781 3.71875 316.469 3.84375C316.156 3.94792 315.896 4.11458 315.688 4.34375C315.479 4.55208 315.375 4.85417 315.375 5.25V42.375C315.375 42.8125 315.531 43.1563 315.844 43.4063C316.177 43.6354 316.583 43.8125 317.062 43.9375C317.542 44.0417 318.062 44.1146 318.625 44.1563C319.208 44.1979 319.74 44.25 320.219 44.3125C320.698 44.375 321.094 44.4792 321.406 44.625C321.74 44.75 321.906 44.9583 321.906 45.25C321.906 45.4792 321.844 45.625 321.719 45.6875C321.594 45.75 321.479 45.8021 321.375 45.8438C321.083 45.9271 320.729 46 320.312 46.0625C319.896 46.125 319.531 46.1563 319.219 46.1563C318.469 46.1563 317.781 46.1354 317.156 46.0938C316.531 46.0521 315.927 46.0104 315.344 45.9688C314.76 45.9271 314.177 45.8854 313.594 45.8438C313.01 45.8021 312.375 45.7813 311.688 45.7813C311.354 45.7813 310.885 45.7917 310.281 45.8125C309.698 45.8333 309.062 45.8646 308.375 45.9063C307.708 45.9271 307.042 45.9479 306.375 45.9688C305.708 45.9896 305.135 46 304.656 46H302.188C302.083 46 301.938 45.9479 301.75 45.8438C301.562 45.7396 301.469 45.5729 301.469 45.3438C301.469 44.9271 301.646 44.6771 302 44.5938C302.458 44.4688 302.865 44.375 303.219 44.3125C303.594 44.2292 303.979 44.1563 304.375 44.0938C304.771 44.0104 305.208 43.9271 305.688 43.8438C306.167 43.7604 306.76 43.6458 307.469 43.5C307.823 43.3958 308.031 43.1667 308.094 42.8125C308.177 42.4583 308.219 42.0104 308.219 41.4688ZM336.438 39.5C336.438 39.9375 336.542 40.3229 336.75 40.6563C336.958 40.9896 337.208 41.2813 337.5 41.5313C337.792 41.7604 338.094 41.9583 338.406 42.125C338.719 42.2917 338.969 42.4271 339.156 42.5313C339.344 42.6354 339.594 42.7396 339.906 42.8438C340.24 42.9479 340.594 43.0417 340.969 43.125C341.344 43.2083 341.719 43.2813 342.094 43.3438C342.469 43.3854 342.802 43.4063 343.094 43.4063C343.26 43.4063 343.438 43.4167 343.625 43.4375C343.812 43.4583 343.99 43.5104 344.156 43.5938C344.323 43.6771 344.458 43.7917 344.562 43.9375C344.688 44.0625 344.75 44.2292 344.75 44.4375C344.75 44.9792 344.594 45.3542 344.281 45.5625C343.969 45.75 343.625 45.8438 343.25 45.8438C340.562 45.8854 337.885 45.9271 335.219 45.9688C332.552 45.9896 329.854 46 327.125 46C326.708 46 326.375 45.9583 326.125 45.875C325.875 45.7917 325.75 45.5104 325.75 45.0313C325.75 44.6979 325.865 44.4479 326.094 44.2813C326.344 44.1146 326.656 43.9688 327.031 43.8438C327.594 43.6563 328.25 43.4688 329 43.2813C329.75 43.0729 330.469 42.7813 331.156 42.4063C331.844 42.0104 332.427 41.4792 332.906 40.8125C333.385 40.125 333.646 39.2083 333.688 38.0625C333.875 33.1458 334.083 28.2708 334.312 23.4375C334.542 18.6042 334.656 13.6771 334.656 8.65625C334.656 8.30208 334.615 8 334.531 7.75C334.448 7.47917 334.323 7.22917 334.156 7C334.01 6.77083 333.833 6.55208 333.625 6.34375C333.417 6.13542 333.188 5.90625 332.938 5.65625C332.833 5.55208 332.656 5.40625 332.406 5.21875C332.156 5.01042 331.875 4.79167 331.562 4.5625C331.25 4.33333 330.917 4.09375 330.562 3.84375C330.208 3.59375 329.865 3.35417 329.531 3.125C329.219 2.9375 328.938 2.79167 328.688 2.6875C328.458 2.58333 328.24 2.5 328.031 2.4375C327.823 2.35417 327.615 2.28125 327.406 2.21875C327.198 2.13542 326.969 2.04167 326.719 1.9375C326.531 1.875 326.438 1.77083 326.438 1.625C326.438 1.58333 326.448 1.53125 326.469 1.46875C326.49 1.38542 326.573 1.34375 326.719 1.34375C327.552 1.28125 328.542 1.25 329.688 1.25H331.031C332.073 1.25 333.146 1.27083 334.25 1.3125C335.375 1.33333 336.625 1.34375 338 1.34375C338.292 1.34375 338.531 1.46875 338.719 1.71875L360.594 31.8438C360.865 32.1979 361.156 32.375 361.469 32.375C361.823 32.375 362 32.1979 362 31.8438V6.90625C362 6.26042 361.885 5.73958 361.656 5.34375C361.427 4.92708 361.031 4.58333 360.469 4.3125C359.906 4.04167 359.146 3.8125 358.188 3.625C357.25 3.41667 356.073 3.19792 354.656 2.96875C354.052 2.88542 353.667 2.79167 353.5 2.6875C353.333 2.5625 353.25 2.33333 353.25 2C353.25 1.85417 353.302 1.73958 353.406 1.65625C353.51 1.57292 353.635 1.52083 353.781 1.5C353.927 1.45833 354.083 1.4375 354.25 1.4375C354.417 1.41667 354.552 1.40625 354.656 1.40625H356.719C357.531 1.40625 358.49 1.45833 359.594 1.5625C360.719 1.66667 362.031 1.71875 363.531 1.71875C364.094 1.71875 364.802 1.69792 365.656 1.65625C366.51 1.59375 367.333 1.5625 368.125 1.5625C368.438 1.5625 368.708 1.57292 368.938 1.59375C369.167 1.59375 369.385 1.60417 369.594 1.625C369.802 1.64583 370.01 1.67708 370.219 1.71875C370.448 1.76042 370.708 1.8125 371 1.875C371.458 2 371.688 2.21875 371.688 2.53125C371.688 2.84375 371.49 3.04167 371.094 3.125C369.969 3.20833 369 3.375 368.188 3.625C367.375 3.85417 366.698 4.21875 366.156 4.71875C365.635 5.19792 365.24 5.83333 364.969 6.625C364.698 7.39583 364.542 8.375 364.5 9.5625L364.375 12.0938C364.208 15.0104 364.073 17.5833 363.969 19.8125C363.885 22.0208 363.812 24.0521 363.75 25.9063C363.688 27.7396 363.646 29.4688 363.625 31.0938C363.604 32.6979 363.594 34.3646 363.594 36.0938V37.9375C363.594 38.4792 363.594 39.0729 363.594 39.7188C363.615 40.3438 363.625 41.0521 363.625 41.8438V44.4375C363.625 44.625 363.562 44.8854 363.438 45.2188C363.333 45.5313 363.146 45.6875 362.875 45.6875C362.542 45.6875 362.24 45.5833 361.969 45.375C361.719 45.1458 361.406 44.7604 361.031 44.2188L337.75 11.1875C337.542 10.9583 337.396 10.7813 337.312 10.6563C337.25 10.5313 337.104 10.4688 336.875 10.4688C336.688 10.4688 336.562 10.5833 336.5 10.8125C336.458 11.0417 336.438 11.2708 336.438 11.5V39.5Z" fill="#2E3C73"/>
</g>
<defs>
<clipPath id="clip0_3_113">
<rect width="372" height="47" fill="white"/>
</clipPath>
</defs>
</svg>
